<svg id="visual" viewBox="0 0 5001 3334" width="5001" height="3334" xmlns="http://www.w3.org/2000/svg" xmlns:xlink="http://www.w3.org/1999/xlink" version="1.1"><rect x="0" y="0" width="5001" height="3334" fill="#f3f1c6"></rect><path d="M0 1998L119 2027C238 2056 476 2114 714.2 2141.2C952.3 2168.3 1190.7 2164.7 1428.8 2221.3C1667 2278 1905 2395 2143.2 2357.5C2381.3 2320 2619.7 2128 2857.8 2080.2C3096 2032.3 3334 2128.7 3572.2 2172.2C3810.3 2215.7 4048.7 2206.3 4286.8 2263.2C4525 2320 4763 2443 4882 2504.5L5001 2566L5001 3335L4882 3335C4763 3335 4525 3335 4286.8 3335C4048.7 3335 3810.3 3335 3572.2 3335C3334 3335 3096 3335 2857.8 3335C2619.7 3335 2381.3 3335 2143.2 3335C1905 3335 1667 3335 1428.8 3335C1190.7 3335 952.3 3335 714.2 3335C476 3335 238 3335 119 3335L0 3335Z" fill="#fcb265"></path><path d="M0 2352L119 2423.2C238 2494.3 476 2636.7 714.2 2675.5C952.3 2714.3 1190.7 2649.7 1428.8 2577.7C1667 2505.7 1905 2426.3 2143.2 2452.7C2381.3 2479 2619.7 2611 2857.8 2651.7C3096 2692.3 3334 2641.7 3572.2 2552.2C3810.3 2462.7 4048.7 2334.3 4286.8 2329.3C4525 2324.3 4763 2442.7 4882 2501.8L5001 2561L5001 3335L4882 3335C4763 3335 4525 3335 4286.8 3335C4048.7 3335 3810.3 3335 3572.2 3335C3334 3335 3096 3335 2857.8 3335C2619.7 3335 2381.3 3335 2143.2 3335C1905 3335 1667 3335 1428.8 3335C1190.7 3335 952.3 3335 714.2 3335C476 3335 238 3335 119 3335L0 3335Z" fill="#fba04a"></path><path d="M0 2585L119 2593.5C238 2602 476 2619 714.2 2621C952.3 2623 1190.7 2610 1428.8 2666.2C1667 2722.3 1905 2847.7 2143.2 2888C2381.3 2928.3 2619.7 2883.7 2857.8 2836.2C3096 2788.7 3334 2738.3 3572.2 2750.3C3810.3 2762.3 4048.7 2836.7 4286.8 2813.2C4525 2789.7 4763 2668.3 4882 2607.7L5001 2547L5001 3335L4882 3335C4763 3335 4525 3335 4286.8 3335C4048.7 3335 3810.3 3335 3572.2 3335C3334 3335 3096 3335 2857.8 3335C2619.7 3335 2381.3 3335 2143.2 3335C1905 3335 1667 3335 1428.8 3335C1190.7 3335 952.3 3335 714.2 3335C476 3335 238 3335 119 3335L0 3335Z" fill="#f98c2f"></path><path d="M0 2884L119 2913.2C238 2942.3 476 3000.7 714.2 3016.8C952.3 3033 1190.7 3007 1428.8 3023.3C1667 3039.7 1905 3098.3 2143.2 3122.2C2381.3 3146 2619.7 3135 2857.8 3084.5C3096 3034 3334 2944 3572.2 2905.2C3810.3 2866.3 4048.7 2878.7 4286.8 2916.3C4525 2954 4763 3017 4882 3048.5L5001 3080L5001 3335L4882 3335C4763 3335 4525 3335 4286.8 3335C4048.7 3335 3810.3 3335 3572.2 3335C3334 3335 3096 3335 2857.8 3335C2619.7 3335 2381.3 3335 2143.2 3335C1905 3335 1667 3335 1428.8 3335C1190.7 3335 952.3 3335 714.2 3335C476 3335 238 3335 119 3335L0 3335Z" fill="#f7770f"></path></svg>