<svg id="visual" viewBox="0 0 5001 3334" width="5001" height="3334" xmlns="http://www.w3.org/2000/svg" xmlns:xlink="http://www.w3.org/1999/xlink" version="1.1"><rect x="0" y="0" width="5001" height="3334" fill="#D2E1E6"></rect><path d="M0 2092L119 2082.3C238 2072.7 476 2053.3 714.2 2055.5C952.3 2057.7 1190.7 2081.3 1428.8 2111C1667 2140.7 1905 2176.3 2143.2 2196C2381.3 2215.7 2619.7 2219.3 2857.8 2215.2C3096 2211 3334 2199 3572.2 2224.2C3810.3 2249.3 4048.7 2311.7 4286.8 2325.7C4525 2339.7 4763 2305.3 4882 2288.2L5001 2271L5001 3335L4882 3335C4763 3335 4525 3335 4286.8 3335C4048.7 3335 3810.3 3335 3572.2 3335C3334 3335 3096 3335 2857.8 3335C2619.7 3335 2381.3 3335 2143.2 3335C1905 3335 1667 3335 1428.8 3335C1190.7 3335 952.3 3335 714.2 3335C476 3335 238 3335 119 3335L0 3335Z" fill="#aac9dd"></path><path d="M0 2500L119 2487.2C238 2474.3 476 2448.7 714.2 2469.7C952.3 2490.7 1190.7 2558.3 1428.8 2539.2C1667 2520 1905 2414 2143.2 2367.8C2381.3 2321.7 2619.7 2335.3 2857.8 2381.7C3096 2428 3334 2507 3572.2 2548.3C3810.3 2589.7 4048.7 2593.3 4286.8 2579.8C4525 2566.3 4763 2535.7 4882 2520.3L5001 2505L5001 3335L4882 3335C4763 3335 4525 3335 4286.8 3335C4048.7 3335 3810.3 3335 3572.2 3335C3334 3335 3096 3335 2857.8 3335C2619.7 3335 2381.3 3335 2143.2 3335C1905 3335 1667 3335 1428.8 3335C1190.7 3335 952.3 3335 714.2 3335C476 3335 238 3335 119 3335L0 3335Z" fill="#88aecc"></path><path d="M0 2859L119 2844C238 2829 476 2799 714.2 2766.8C952.3 2734.7 1190.7 2700.3 1428.8 2675.3C1667 2650.3 1905 2634.7 2143.2 2625.2C2381.3 2615.7 2619.7 2612.3 2857.8 2614.7C3096 2617 3334 2625 3572.2 2654C3810.3 2683 4048.7 2733 4286.8 2753.7C4525 2774.3 4763 2765.7 4882 2761.3L5001 2757L5001 3335L4882 3335C4763 3335 4525 3335 4286.8 3335C4048.7 3335 3810.3 3335 3572.2 3335C3334 3335 3096 3335 2857.8 3335C2619.7 3335 2381.3 3335 2143.2 3335C1905 3335 1667 3335 1428.8 3335C1190.7 3335 952.3 3335 714.2 3335C476 3335 238 3335 119 3335L0 3335Z" fill="#6992bb"></path><path d="M0 3064L119 3038.7C238 3013.3 476 2962.7 714.2 2942.7C952.3 2922.7 1190.7 2933.3 1428.8 2931.7C1667 2930 1905 2916 2143.2 2931C2381.3 2946 2619.7 2990 2857.8 3013.8C3096 3037.7 3334 3041.3 3572.2 3018.5C3810.3 2995.7 4048.7 2946.3 4286.8 2926.8C4525 2907.3 4763 2917.7 4882 2922.8L5001 2928L5001 3335L4882 3335C4763 3335 4525 3335 4286.8 3335C4048.7 3335 3810.3 3335 3572.2 3335C3334 3335 3096 3335 2857.8 3335C2619.7 3335 2381.3 3335 2143.2 3335C1905 3335 1667 3335 1428.8 3335C1190.7 3335 952.3 3335 714.2 3335C476 3335 238 3335 119 3335L0 3335Z" fill="#4f77aa"></path></svg>