<?xml version="1.0" standalone="no"?>
<!DOCTYPE svg PUBLIC "-//W3C//DTD SVG 1.1//EN" "http://www.w3.org/Graphics/SVG/1.1/DTD/svg11.dtd" >
<svg xmlns="http://www.w3.org/2000/svg" xmlns:xlink="http://www.w3.org/1999/xlink" version="1.1">
<metadata>
Created by FontForge 20170731 at Mon Jul 24 19:16:11 2023
 By Aleksey,,,
Copyright (c) 2013 by Rene Bieder. All rights reserved.
</metadata>
<defs>
<font id="Gentona-Bold" horiz-adv-x="1013" >
  <font-face 
    font-family="Gentona Book"
    font-weight="700"
    font-stretch="normal"
    units-per-em="2048"
    panose-1="0 0 8 0 0 0 0 0 0 0"
    ascent="1638"
    descent="-410"
    x-height="989"
    cap-height="1249"
    bbox="-227 -481 2605 1829"
    underline-thickness="102"
    underline-position="-307"
    unicode-range="U+0020-FB02"
  />
<missing-glyph horiz-adv-x="1556" 
d="M1358 0h-1157v1249h1157v-1249zM283 1167v-1085h993v1085h-993zM713 483l-11 135q224 24 224 156q0 53 -37 85t-98 32q-95 0 -218 -45l-22 59q132 53 240 53q95 0 154 -49.5t59 -134.5q0 -84 -63 -137.5t-161 -67.5v-86h-67zM745 367q20 0 33 -12.5t13 -32.5
q0 -23 -12.5 -36.5t-33.5 -13.5q-47 0 -47 50q0 45 47 45z" />
    <glyph glyph-name="fi" unicode="fi" horiz-adv-x="1296" 
d="M1020 1110q-77 0 -130.5 44t-53.5 124q0 79 53.5 122.5t130.5 43.5t130.5 -43.5t53.5 -122.5q0 -80 -53.5 -124t-130.5 -44zM1178 0h-328v721h-363v-721h-327v721h-137v268h137v31q0 198 92.5 288.5t296.5 90.5q85 0 227 -29l-26 -217q-132 4 -140 4q-72 0 -97.5 -34
t-25.5 -103v-31h691v-989z" />
    <glyph glyph-name="fl" unicode="fl" horiz-adv-x="1273" 
d="M1174 0h-328v1149q-133 8 -236 8q-72 0 -97.5 -34t-25.5 -103v-31h244v-268h-244v-721h-327v721h-137v268h137v31q0 198 92.5 288.5t296.5 90.5q90 0 297 -45v28h328v-1382z" />
    <glyph glyph-name="f_f" unicode="ff" horiz-adv-x="1497" 
d="M1501 1376l-22 -223q-94 4 -129 4q-73 0 -102 -34.5t-29 -102.5v-31h251v-268h-251v-721h-328v721h-412v-721h-327v721h-129v268h129v31q0 197 96 288t301 91q101 0 213 -23l-23 -223q-94 4 -129 4q-73 0 -102 -34.5t-29 -102.5v-31h412v31q0 197 96 288t301 91
q101 0 213 -23z" />
    <glyph glyph-name="f_f_i" unicode="ffi" horiz-adv-x="2002" 
d="M1726 1110q-77 0 -130.5 44t-53.5 124q0 79 53.5 122.5t130.5 43.5t131 -43.5t54 -122.5q0 -80 -54 -124t-131 -44zM1194 989h692v-989h-327v721h-365v-721h-328v721h-387v-721h-327v721h-129v268h129v31q0 197 96 288t301 91q101 0 213 -23l-23 -223q-94 4 -129 4
q-73 0 -102 -34.5t-29 -102.5v-31h387v31q0 198 93.5 288.5t297.5 90.5q74 0 205 -25l-24 -221q-114 4 -119 4q-73 0 -99 -34t-26 -103v-31z" />
    <glyph glyph-name="f_f_l" unicode="ffl" horiz-adv-x="1968" 
d="M1868 1382v-1382h-328v1149q-100 6 -235 6q-73 0 -99 -33t-26 -102v-33h245v-266h-245v-721h-328v721h-373v-721h-327v721h-129v266h129v33q0 197 96 288t301 91q101 0 213 -23l-23 -223q-47 2 -129 2q-73 0 -102 -34.5t-29 -102.5v-31h373v33q0 198 93 288.5t298 90.5
q90 0 297 -45v28h328z" />
    <glyph glyph-name=".notdef" horiz-adv-x="1556" 
d="M1358 0h-1157v1249h1157v-1249zM283 1167v-1085h993v1085h-993zM713 483l-11 135q224 24 224 156q0 53 -37 85t-98 32q-95 0 -218 -45l-22 59q132 53 240 53q95 0 154 -49.5t59 -134.5q0 -84 -63 -137.5t-161 -67.5v-86h-67zM745 367q20 0 33 -12.5t13 -32.5
q0 -23 -12.5 -36.5t-33.5 -13.5q-47 0 -47 50q0 45 47 45z" />
    <glyph glyph-name=".null" horiz-adv-x="0" 
 />
    <glyph glyph-name="nonmarkingreturn" horiz-adv-x="682" 
 />
    <glyph glyph-name="space" unicode=" " horiz-adv-x="409" 
 />
    <glyph glyph-name="exclam" unicode="!" horiz-adv-x="536" 
d="M141 446l-47 803h348l-47 -803h-254zM268 295q68 0 111 -44t43 -110t-43 -110.5t-111 -44.5t-110.5 44.5t-42.5 110.5t42.5 110t110.5 44z" />
    <glyph glyph-name="quotedbl" unicode="&#x22;" horiz-adv-x="845" 
d="M436 1321l-74 -524h-219v524h293zM768 1321l-74 -524h-219v524h293z" />
    <glyph glyph-name="numbersign" unicode="#" horiz-adv-x="1449" 
d="M1077 449h213l-45 -238h-215l-41 -211h-258l43 211h-239l-43 -211h-256l40 211h-204l45 238h207l47 229h-205l45 240h207l41 208h256l-41 -208h239l43 208h256l-43 -208h215l-45 -240h-217zM627 678l-45 -229h239l45 229h-239z" />
    <glyph glyph-name="dollar" unicode="$" horiz-adv-x="1128" 
d="M999 1036l-73 -227q-267 92 -396 92q-55 0 -86.5 -22.5t-31.5 -57.5q0 -44 47 -66.5t233 -76.5q183 -53 261.5 -133.5t78.5 -218.5q0 -143 -100.5 -234t-282.5 -106v-113h-211v123q-207 31 -391 143l105 234q251 -144 428 -144q69 0 103 23.5t34 62.5q0 43 -53.5 70
t-229.5 82q-188 58 -262 140t-74 214t89.5 217.5t250.5 98.5v118h211v-127q148 -18 350 -92z" />
    <glyph glyph-name="percent" unicode="%" horiz-adv-x="1794" 
d="M408 1270q342 0 342 -387q0 -381 -342 -381q-345 0 -345 381q0 387 345 387zM1337 1249l-702 -1249h-182l702 1249h182zM408 692q71 0 100 46t29 145q0 103 -28.5 149.5t-100.5 46.5q-73 0 -102.5 -46.5t-29.5 -149.5q0 -99 29.5 -145t102.5 -46zM1389 752
q342 0 342 -387q0 -383 -342 -383q-345 0 -345 383q0 387 345 387zM1389 172q71 0 100 47t29 146q0 102 -29 149t-100 47q-73 0 -102.5 -47t-29.5 -149q0 -99 29.5 -146t102.5 -47z" />
    <glyph glyph-name="ampersand" unicode="&#x26;" horiz-adv-x="1372" 
d="M1188 2l-178 137q-86 -86 -178 -121.5t-216 -35.5q-265 0 -403.5 94t-138.5 280q0 100 59 173t197 143q-71 71 -98 137t-27 143q0 151 111.5 234.5t312.5 83.5q167 0 268.5 -84t101.5 -223q0 -93 -56.5 -178t-170.5 -144l191 -139q18 26 51.5 79.5t46.5 73.5l211 -131
q-62 -111 -103 -174l168 -125zM496 940q0 -78 92 -158q83 34 124.5 71.5t41.5 86.5q0 60 -32.5 90.5t-92.5 30.5q-56 0 -94.5 -33t-38.5 -88zM805 299l-297 229q-115 -64 -115 -131q0 -80 65 -123t158 -43q109 0 189 68z" />
    <glyph glyph-name="quotesingle" unicode="'" horiz-adv-x="514" 
d="M436 1321l-74 -524h-219v524h293z" />
    <glyph glyph-name="parenleft" unicode="(" horiz-adv-x="702" 
d="M455 1354l200 -109q-235 -378 -235 -751q0 -376 235 -750l-200 -111q-157 182 -241.5 400.5t-84.5 460.5q0 482 326 860z" />
    <glyph glyph-name="parenright" unicode=")" horiz-adv-x="686" 
d="M37 1245l201 109q327 -380 327 -860q0 -241 -85 -460t-242 -401l-201 111q235 374 235 750q0 373 -235 751z" />
    <glyph glyph-name="asterisk" unicode="*" horiz-adv-x="921" 
d="M764 623l-119 -103l-184 189l-187 -189l-120 103l139 202l-217 99l49 149l229 -57l21 233h170l18 -235l234 59l47 -149l-219 -99z" />
    <glyph glyph-name="plus" unicode="+" horiz-adv-x="1032" 
d="M631 379v-305h-232v305h-307v233h307v308h232v-308h309v-231z" />
    <glyph glyph-name="comma" unicode="," horiz-adv-x="575" 
d="M166 -276l-76 94q60 47 93 87t53 91q-59 15 -94.5 63.5t-35.5 112.5q0 79 51.5 131.5t133.5 52.5t134 -57t52 -143q0 -113 -84 -231.5t-227 -200.5z" />
    <glyph glyph-name="hyphen" unicode="-" horiz-adv-x="837" 
d="M721 709v-287h-604v287h604z" />
    <glyph glyph-name="period" unicode="." horiz-adv-x="569" 
d="M100 172q0 79 51.5 131.5t133.5 52.5t133 -52.5t51 -131.5t-51 -132.5t-133 -53.5t-133.5 53.5t-51.5 132.5z" />
    <glyph glyph-name="slash" unicode="/" horiz-adv-x="931" 
d="M846 1341l-551 -1767h-270l544 1767h277z" />
    <glyph glyph-name="zero" unicode="0" horiz-adv-x="1280" 
d="M641 1270q285 0 427 -166t142 -481q0 -313 -142 -477t-427 -164t-428 164t-143 477q0 315 143 481t428 166zM641 281q126 0 178.5 83.5t52.5 258.5q0 179 -52 263.5t-179 84.5q-128 0 -180.5 -84t-52.5 -264q0 -175 52.5 -258.5t180.5 -83.5z" />
    <glyph glyph-name="one" unicode="1" horiz-adv-x="1042" 
d="M973 0h-869v279h285v610q-124 -34 -278 -49l-64 194q210 73 408 215h262v-970h256v-279z" />
    <glyph glyph-name="two" unicode="2" horiz-adv-x="1101" 
d="M1040 0h-979v236q51 41 125 98.5t119.5 93.5t104 83.5t94 79t74 70t59 67t34 58.5t13.5 56q0 72 -44 110.5t-118 38.5q-148 0 -399 -104l-90 231q175 79 300 115.5t249 36.5q204 0 325 -115t121 -307q0 -49 -14.5 -95.5t-37.5 -87t-63.5 -84t-80 -79t-100 -79t-111.5 -77
t-125 -80.5q178 13 235 13h309v-279z" />
    <glyph glyph-name="three" unicode="3" horiz-adv-x="1144" 
d="M143 926l-69 219q283 123 522 123q195 0 320.5 -98t125.5 -255q0 -101 -51 -172t-133 -102q111 -44 165 -109.5t54 -164.5q0 -182 -131.5 -283.5t-359.5 -101.5q-299 0 -553 133l92 225q217 -96 444 -96q91 0 141 33t50 96q0 66 -67.5 101.5t-198.5 35.5h-175v244h175
q129 0 186 25.5t57 86.5q0 68 -49.5 106t-136.5 38q-159 0 -408 -84z" />
    <glyph glyph-name="four" unicode="4" horiz-adv-x="1267" 
d="M1049 0h-328v227h-670l-16 248l686 774h328v-741h178v-281h-178v-227zM721 508v385q-47 -62 -96 -117l-129 -145q-40 -47 -121 -123h346z" />
    <glyph glyph-name="five" unicode="5" horiz-adv-x="1161" 
d="M446 971l-20 -250q115 78 272 78q186 0 290 -102.5t104 -282.5q0 -136 -68 -235.5t-179 -148t-249 -48.5q-139 0 -287.5 33.5t-275.5 99.5l92 241q217 -96 424 -96q97 0 162 45.5t65 122.5q0 70 -50.5 114t-135.5 44q-97 0 -203 -82l-268 39l43 706h878v-278h-594z" />
    <glyph glyph-name="six" unicode="6" horiz-adv-x="1193" 
d="M1098 1188l-80 -232q-179 45 -295 45q-276 -3 -324 -299q138 107 344 107q179 0 289.5 -107t110.5 -278q0 -204 -133.5 -323t-368.5 -119q-275 0 -423 155.5t-148 427.5q0 326 175.5 515.5t461.5 189.5q196 0 391 -82zM641 246q85 0 137.5 51.5t52.5 140.5
q0 73 -53 117.5t-141 44.5q-69 0 -133 -32.5t-105 -90.5q39 -231 242 -231z" />
    <glyph glyph-name="seven" unicode="7" horiz-adv-x="1021" 
d="M999 1249v-248q-142 -205 -263 -473.5t-191 -527.5h-389q94 267 219 524.5t264 446.5h-610v278h970z" />
    <glyph glyph-name="eight" unicode="8" horiz-adv-x="1187" 
d="M872 682q142 -59 208.5 -134.5t66.5 -191.5q0 -178 -143 -276t-390 -98q-300 0 -436.5 94.5t-136.5 279.5q0 196 240 301q-187 101 -187 267t135 256t381 90q233 0 356.5 -86.5t123.5 -243.5q0 -172 -218 -258zM596 1061q-81 0 -130.5 -36t-49.5 -95q0 -56 47.5 -91.5
t169.5 -76.5q84 32 118.5 74.5t34.5 97.5q0 57 -52 92t-138 35zM584 231q96 0 152.5 38t56.5 102q0 59 -61.5 100t-223.5 96q-148 -70 -148 -186q0 -71 60.5 -110.5t163.5 -39.5z" />
    <glyph glyph-name="nine" unicode="9" horiz-adv-x="1193" 
d="M102 70l80 229q182 -49 299 -49q136 1 207 72t90 215q-63 -54 -139.5 -79.5t-187.5 -25.5q-178 0 -289 112t-111 285q0 204 134 322.5t374 118.5q270 0 410.5 -155t140.5 -429q0 -349 -157.5 -526.5t-454.5 -177.5q-204 0 -396 88zM557 651q60 0 119.5 32.5t103.5 82.5
q-14 117 -69.5 178.5t-151.5 61.5q-89 0 -143 -51.5t-54 -141.5q0 -73 53.5 -117.5t141.5 -44.5z" />
    <glyph glyph-name="colon" unicode=":" horiz-adv-x="569" 
d="M100 788q0 79 51.5 132t133.5 53t133 -53t51 -132t-51 -132.5t-133 -53.5t-133.5 53.5t-51.5 132.5zM100 172q0 79 51.5 131.5t133.5 52.5t133 -52.5t51 -131.5t-51 -132.5t-133 -53.5t-133.5 53.5t-51.5 132.5z" />
    <glyph glyph-name="semicolon" unicode=";" horiz-adv-x="575" 
d="M100 786q0 79 51.5 133t133.5 54t133 -53.5t51 -133.5q0 -79 -51 -131.5t-133 -52.5t-133.5 52.5t-51.5 131.5zM166 -276l-76 94q60 47 93 87t53 91q-59 15 -94.5 63.5t-35.5 112.5q0 79 51.5 131.5t133.5 52.5t134 -57t52 -143q0 -113 -84 -231.5t-227 -200.5z" />
    <glyph glyph-name="less" unicode="&#x3c;" horiz-adv-x="851" 
d="M492 573l-72 -49q58 -40 74 -51l260 -215l-144 -172l-544 438l542 441l146 -177z" />
    <glyph glyph-name="equal" unicode="=" horiz-adv-x="1011" 
d="M92 575v201h828v-201h-828zM92 231v203h828v-203h-828z" />
    <glyph glyph-name="greater" unicode="&#x3e;" horiz-adv-x="854" 
d="M98 786l146 179l542 -441l-544 -438l-144 172l260 215l74 51q-12 8 -35.5 24.5t-36.5 24.5z" />
    <glyph glyph-name="question" unicode="?" horiz-adv-x="1105" 
d="M133 887l-90 231q178 80 302 116t247 36q202 0 325 -110t123 -281q0 -145 -112.5 -244t-315.5 -139l6 -101h-262l-47 303q112 3 189 14.5t119.5 31t60.5 43t18 55.5q0 72 -45 111.5t-119 39.5q-143 0 -399 -106zM489 295q68 0 112 -45t44 -111q0 -65 -44 -109t-112 -44
t-110.5 43.5t-42.5 109.5t42.5 111t110.5 45z" />
    <glyph glyph-name="at" unicode="@" horiz-adv-x="1810" 
d="M1325 858v-577q0 -87 16 -116.5t52 -29.5q24 0 47.5 7.5t53 31.5t52 63t38.5 109t18 162q0 289 -179 462t-487 173q-160 0 -295 -52.5t-229.5 -146.5t-147.5 -229t-53 -295q0 -313 183.5 -494.5t490.5 -181.5q145 0 262.5 24.5t243.5 73.5l45 -110q-106 -59 -253.5 -93
t-297.5 -34q-242 0 -427 101.5t-286.5 286.5t-101.5 427q0 188 65.5 347.5t180 269.5t274.5 171.5t346 61.5q180 0 330.5 -56t255 -155.5t162 -241t57.5 -309.5q-1 -97 -18 -176.5t-43.5 -133t-64 -94t-74.5 -63.5t-80 -36.5t-76.5 -18t-67.5 -4.5q-43 0 -75.5 4.5t-67 17.5
t-61 40.5t-42.5 68.5q-79 -76 -145.5 -103.5t-165.5 -27.5q-324 0 -324 444q0 232 83.5 340t248.5 108q154 0 276 -116v100h281zM1044 281v274q-75 84 -174 84q-80 0 -119.5 -48t-39.5 -165q0 -125 37 -175t116 -50q52 0 93 17.5t87 55.5v7z" />
    <glyph glyph-name="A" unicode="A" horiz-adv-x="1423" 
d="M446 199l-69 -199h-359l467 1249h455l465 -1249h-356l-70 199h-533zM872 502l-124 358q-32 104 -35 115q-5 -17 -17.5 -55t-19.5 -60l-125 -358h321z" />
    <glyph glyph-name="B" unicode="B" horiz-adv-x="1234" 
d="M119 1249h495q232 0 358 -91.5t126 -258.5q0 -88 -49.5 -149t-139.5 -91q134 -34 202.5 -111t68.5 -192q0 -170 -145.5 -263t-413.5 -93h-502v1249zM453 973v-203h200q62 0 95.5 25.5t33.5 72.5q0 51 -44 78t-124 27h-161zM453 512v-236h178q97 0 150 32t53 91
q0 54 -47.5 83.5t-133.5 29.5h-200z" />
    <glyph glyph-name="C" unicode="C" horiz-adv-x="1253" 
d="M1110 373l109 -248q-135 -75 -261.5 -109t-271.5 -34q-287 0 -451.5 167.5t-164.5 473.5q0 309 168 478t469 169q251 0 467 -113l-101 -250q-223 64 -350 64q-156 0 -235.5 -87.5t-79.5 -260.5q0 -154 80.5 -248t213.5 -94q103 0 192 20t216 72z" />
    <glyph glyph-name="D" unicode="D" horiz-adv-x="1345" 
d="M119 1249h442q337 0 526 -169.5t189 -456.5q0 -283 -192 -453t-523 -170h-442v1249zM453 293h108q189 0 283 81t94 249q0 171 -91.5 252t-285.5 81h-108v-663z" />
    <glyph glyph-name="E" unicode="E" horiz-adv-x="1146" 
d="M1057 0h-938v1249h921v-303h-587v-188h501v-287h-501v-174h604v-297z" />
    <glyph glyph-name="F" unicode="F" horiz-adv-x="1077" 
d="M453 692h491v-286h-491v-406h-334v1249h905v-303h-571v-254z" />
    <glyph glyph-name="G" unicode="G" horiz-adv-x="1378" 
d="M1288 711v-574q-166 -83 -308.5 -119t-297.5 -36q-285 0 -448.5 167.5t-163.5 473.5q0 291 170.5 469t451.5 178q125 0 270 -28.5t271 -84.5l-84 -248q-132 36 -228.5 53t-197.5 17q-142 0 -228.5 -98t-86.5 -258q0 -167 76 -257t212 -90q173 0 303 48v125h-319v262h608z
" />
    <glyph glyph-name="H" unicode="H" horiz-adv-x="1376" 
d="M1257 0h-333v477h-471v-477h-334v1249h334v-469h471v469h333v-1249z" />
    <glyph glyph-name="I" unicode="I" horiz-adv-x="571" 
d="M453 0h-334v1249h334v-1249z" />
    <glyph glyph-name="J" unicode="J" horiz-adv-x="993" 
d="M866 1249v-753q0 -267 -100.5 -390.5t-323.5 -123.5q-197 0 -419 110l75 242q158 -49 267 -49q85 0 126 50t41 161v753h334z" />
    <glyph glyph-name="K" unicode="K" horiz-adv-x="1320" 
d="M614 430l-161 -192v-238h-334v1249h334v-553l467 553h360v-22l-449 -535l469 -669v-23h-376z" />
    <glyph glyph-name="L" unicode="L" horiz-adv-x="1064" 
d="M1010 0h-891v1249h334v-946h557v-303z" />
    <glyph glyph-name="M" unicode="M" horiz-adv-x="1712" 
d="M1264 0l-15 659v58l-293 -717h-200l-291 717v-49l-16 -668h-336l49 1249h373l290 -680q21 -55 31 -94q10 39 31 94l291 680h372l49 -1249h-335z" />
    <glyph glyph-name="N" unicode="N" horiz-adv-x="1402" 
d="M1284 0h-303l-528 705v-705h-334v1249h303l528 -712v712h334v-1249z" />
    <glyph glyph-name="O" unicode="O" horiz-adv-x="1402" 
d="M702 1270q297 0 464 -169.5t167 -477.5q0 -307 -167 -474t-464 -167q-298 0 -465 167t-167 474q0 309 167 478t465 169zM702 281q140 0 216.5 87.5t76.5 254.5q0 171 -76.5 259.5t-216.5 88.5q-141 0 -217.5 -88.5t-76.5 -259.5q0 -167 76.5 -254.5t217.5 -87.5z" />
    <glyph glyph-name="P" unicode="P" horiz-adv-x="1212" 
d="M119 1249h499q264 0 406.5 -126t142.5 -359q0 -229 -139 -353t-395 -124h-180v-287h-334v1249zM453 569h178q103 0 158 50.5t55 144.5q0 95 -59.5 147t-168.5 52h-163v-394z" />
    <glyph glyph-name="Q" unicode="Q" horiz-adv-x="1372" 
d="M1303 623q0 -309 -160 -475t-457 -166q-296 0 -456 166t-160 475q0 311 160 479t456 168t456.5 -168t160.5 -479zM408 623q0 -169 70 -255.5t208 -86.5q279 0 279 342q0 348 -279 348q-278 0 -278 -348zM528 -268l52 192q188 -47 312 -62.5t310 -15.5v-258
q-327 0 -674 144z" />
    <glyph glyph-name="R" unicode="R" horiz-adv-x="1245" 
d="M1229 27v-27h-357l-249 348h-170v-348h-334v1249h518q264 0 407.5 -121.5t143.5 -345.5q0 -274 -238 -379zM453 608h188q104 0 160.5 45.5t56.5 128.5q0 86 -56.5 133.5t-160.5 47.5h-188v-355z" />
    <glyph glyph-name="S" unicode="S" horiz-adv-x="1191" 
d="M1079 1151l-98 -244q-142 53 -232 73.5t-174 20.5q-57 0 -94 -21.5t-37 -59.5q0 -22 10.5 -37.5t48.5 -35.5t93.5 -40.5t163.5 -56.5q191 -65 263.5 -149t72.5 -241q0 -173 -121 -275.5t-338 -102.5q-126 0 -295.5 47.5t-294.5 122.5l125 260q267 -146 446 -146
q55 0 85 22t30 62q0 28 -19 46.5t-75 40.5t-180 59q-357 106 -357 399q0 165 115.5 270t321.5 105q134 0 259.5 -25t280.5 -94z" />
    <glyph glyph-name="T" unicode="T" horiz-adv-x="1179" 
d="M1143 946h-387v-946h-334v946h-385v303h1106v-303z" />
    <glyph glyph-name="U" unicode="U" horiz-adv-x="1357" 
d="M1249 1249v-653q0 -312 -141 -463t-430 -151q-288 0 -428.5 151.5t-140.5 462.5v653h333v-653q0 -315 236 -315q237 0 237 315v653h334z" />
    <glyph glyph-name="V" unicode="V" horiz-adv-x="1374" 
d="M872 0h-370l-477 1249h370l254 -784q21 -65 39 -129q13 54 37 129l270 784h355z" />
    <glyph glyph-name="W" unicode="W" horiz-adv-x="1904" 
d="M1538 0h-395l-156 571q-26 140 -35 193q-15 -91 -34 -193l-156 -571h-395l-328 1249h350l172 -743q16 -80 25 -162q3 20 26 162l160 743h361l159 -743q16 -93 25 -156q10 89 24 156l175 743h350z" />
    <glyph glyph-name="X" unicode="X" horiz-adv-x="1343" 
d="M1321 0h-365l-247 371l-37 57q-6 -9 -18.5 -28.5t-18.5 -28.5l-250 -371h-362l393 629l-389 620h372l236 -348q21 -35 37 -59q6 10 19 30.5t18 28.5l235 348h373l-389 -620z" />
    <glyph glyph-name="Y" unicode="Y" horiz-adv-x="1306" 
d="M819 393v-393h-332v393l-469 856h351l209 -393q46 -84 75 -158q26 67 76 158l209 393h350z" />
    <glyph glyph-name="Z" unicode="Z" horiz-adv-x="1239" 
d="M1165 0h-1083v244l641 710q-180 -8 -270 -8h-324v303h1028v-260l-596 -696q147 10 258 10h346v-303z" />
    <glyph glyph-name="bracketleft" unicode="[" horiz-adv-x="798" 
d="M758 1100h-285v-1215h285v-250h-582v1717h582v-252z" />
    <glyph glyph-name="backslash" unicode="\" horiz-adv-x="931" 
d="M911 -426h-268l-553 1767h277z" />
    <glyph glyph-name="bracketright" unicode="]" horiz-adv-x="798" 
d="M629 1352v-1717h-582v250h285v1215h-285v252h582z" />
    <glyph glyph-name="asciicircum" unicode="^" horiz-adv-x="1034" 
d="M696 688l-118 236q-42 79 -60 137h-2q-20 -63 -59 -137l-119 -236h-260l340 633h200l340 -633h-262z" />
    <glyph glyph-name="underscore" unicode="_" horiz-adv-x="1001" 
d="M111 -307v231h780v-231h-780z" />
    <glyph glyph-name="grave" unicode="`" 
d="M725 1157l-80 -84q-231 97 -389 213v66l205 143z" />
    <glyph glyph-name="a" unicode="a" horiz-adv-x="1077" 
d="M195 713l-50 221q166 43 260 58.5t173 15.5q216 0 310.5 -96t94.5 -312v-600h-319v117q-132 -135 -289 -135q-164 0 -245 71t-81 240q0 157 103.5 232t314.5 75h197q0 86 -31.5 121t-116.5 35q-125 0 -321 -43zM664 426h-154q-87 0 -124.5 -17.5t-37.5 -76.5
q0 -54 36 -85.5t97 -31.5q100 0 183 86v125z" />
    <glyph glyph-name="b" unicode="b" horiz-adv-x="1173" 
d="M428 1321v-463q74 77 149.5 113.5t165.5 36.5q185 0 278 -121.5t93 -382.5q0 -135 -31.5 -237.5t-87 -163.5t-124.5 -91t-150 -30q-74 0 -128 17.5t-85 40.5t-80 71v-111h-328v1321h328zM428 623v-267q41 -56 82.5 -81t105.5 -25q82 0 129.5 62t47.5 192q0 231 -168 231
q-114 0 -197 -112z" />
    <glyph glyph-name="c" unicode="c" horiz-adv-x="1007" 
d="M883 317l96 -186q-101 -79 -203 -114t-241 -35q-99 0 -185 32.5t-151 94.5t-102.5 159.5t-37.5 220.5q0 126 35.5 225.5t100 163.5t152 97t192.5 33q220 0 405 -109l-90 -207q-132 56 -270 56q-97 0 -150 -67.5t-53 -191.5q0 -119 52 -183t149 -64q157 0 301 75z" />
    <glyph glyph-name="d" unicode="d" horiz-adv-x="1175" 
d="M748 0v111q-48 -47 -80 -70.5t-86.5 -41t-128.5 -17.5q-80 0 -149 30t-125 91t-88 164t-32 237q0 257 98 380.5t275 123.5q94 0 170 -31.5t146 -104.5v449h327v-1321h-327zM748 356v267q-83 112 -199 112q-168 0 -168 -231q0 -130 47.5 -192t130.5 -62q65 0 107.5 25.5
t81.5 80.5z" />
    <glyph glyph-name="e" unicode="e" horiz-adv-x="1083" 
d="M924 326l92 -185q-111 -84 -221 -121.5t-236 -37.5q-233 0 -366.5 129t-133.5 376q0 254 133 387.5t369 133.5q213 0 336.5 -122.5t124.5 -353.5q0 -65 -8 -133h-639q34 -163 198 -163q100 0 179.5 20.5t171.5 69.5zM373 594h368q-12 186 -180 186q-162 0 -188 -186z" />
    <glyph glyph-name="f" unicode="f" horiz-adv-x="757" 
d="M762 1376l-23 -223q-94 4 -129 4q-73 0 -102 -34.5t-29 -102.5v-31h252v-268h-252v-721h-327v721h-129v268h129v31q0 197 96 288t301 91q101 0 213 -23z" />
    <glyph glyph-name="g" unicode="g" horiz-adv-x="1163" 
d="M1073 989v-817q0 -277 -124.5 -402.5t-377.5 -125.5q-111 0 -231.5 23t-204.5 61l43 223q234 -60 348 -60t166.5 63.5t52.5 217.5v6q-62 -76 -127.5 -105.5t-179.5 -29.5q-177 0 -278 120.5t-101 354.5q0 251 94 370.5t279 119.5q162 0 313 -129v110h328zM745 403v220
q-83 112 -196 112q-86 0 -127 -49.5t-41 -167.5q0 -120 45.5 -171.5t132.5 -51.5q65 0 106 25.5t80 82.5z" />
    <glyph glyph-name="h" unicode="h" horiz-adv-x="1159" 
d="M428 1321v-483q78 88 156 129t170 41q160 0 235.5 -90.5t75.5 -288.5v-629h-328v516q0 94 -23 130t-91 36q-105 0 -195 -115v-567h-328v1321h328z" />
    <glyph glyph-name="i" unicode="i" horiz-adv-x="550" 
d="M92 1278q0 79 53.5 122.5t130.5 43.5t131 -43.5t54 -122.5q0 -80 -54 -124t-131 -44t-130.5 44t-53.5 124zM440 0h-327v989h327v-989z" />
    <glyph glyph-name="j" unicode="j" horiz-adv-x="550" 
d="M272 1110q-77 0 -130.5 44t-53.5 124q0 79 53.5 122.5t130.5 43.5t131 -43.5t54 -122.5q0 -80 -54 -124t-131 -44zM438 989v-870q0 -203 -87 -317t-304 -162l-65 217q79 42 104 97.5t25 164.5v870h327z" />
    <glyph glyph-name="k" unicode="k" horiz-adv-x="1142" 
d="M1116 989v-22l-375 -400l383 -544v-23h-366l-232 326l-98 -109v-217h-328v1321h328v-676l322 344h366z" />
    <glyph glyph-name="l" unicode="l" horiz-adv-x="528" 
d="M428 0h-328v1321h328v-1321z" />
    <glyph glyph-name="m" unicode="m" horiz-adv-x="1732" 
d="M428 989v-131q70 75 141 112.5t154 37.5q222 -3 283 -168q88 91 166 128.5t161 37.5q155 0 230 -90t75 -287v-629h-327v537q0 88 -23.5 126.5t-81.5 38.5q-83 0 -170 -100v-602h-327v537q0 86 -27 125.5t-84 39.5q-85 0 -170 -106v-596h-328v989h328z" />
    <glyph glyph-name="n" unicode="n" horiz-adv-x="1159" 
d="M428 989v-129q164 148 326 148q160 0 235.5 -90.5t75.5 -288.5v-629h-328v537q0 94 -23 129.5t-91 35.5q-107 0 -195 -112v-590h-328v989h328z" />
    <glyph glyph-name="o" unicode="o" horiz-adv-x="1148" 
d="M573 1008q245 0 381 -135.5t136 -383.5q0 -242 -136 -374.5t-381 -132.5q-244 0 -379 132.5t-135 374.5q0 248 135 383.5t379 135.5zM573 242q97 0 146 57.5t49 189.5q0 138 -49 198.5t-146 60.5q-96 0 -144 -60.5t-48 -198.5q0 -133 47.5 -190t144.5 -57z" />
    <glyph glyph-name="p" unicode="p" horiz-adv-x="1173" 
d="M428 989v-108q78 63 153 95t162 32q185 0 278 -121.5t93 -382.5q0 -135 -31.5 -237.5t-87 -163.5t-124.5 -91t-150 -30q-73 0 -127.5 17t-86.5 40.5t-79 69.5v-424h-328v1304h328zM428 625v-271q41 -55 82.5 -79.5t105.5 -24.5q82 0 129.5 62t47.5 192q0 231 -168 231
q-113 0 -197 -110z" />
    <glyph glyph-name="q" unicode="q" horiz-adv-x="1173" 
d="M1073 -315h-328v424q-47 -46 -79 -69.5t-86 -40.5t-127 -17q-80 0 -149 30t-125 91t-88 164t-32 237q0 261 94 382.5t279 121.5q88 0 162 -31.5t151 -95.5v108h328v-1304zM745 354v271q-44 56 -90 83t-106 27q-82 0 -124 -55t-42 -176q0 -130 46.5 -192t129.5 -62
q63 0 105 25t81 79z" />
    <glyph glyph-name="r" unicode="r" horiz-adv-x="835" 
d="M428 989v-182q52 101 116 151t148 50q59 0 123 -7l-22 -329q-49 4 -117 4q-98 0 -158.5 -40t-89.5 -142v-494h-328v989h328z" />
    <glyph glyph-name="s" unicode="s" horiz-adv-x="976" 
d="M895 932l-80 -225q-219 59 -344 59q-70 0 -70 -55q0 -13 4.5 -23t17 -18.5t24.5 -15t36.5 -14t44 -12.5t56 -14.5t63.5 -17.5q149 -41 207.5 -101.5t58.5 -185.5q0 -160 -105.5 -243.5t-307.5 -83.5q-209 0 -443 116l78 219q249 -92 369 -92q82 0 82 49q0 11 -4 19.5
t-14.5 16t-21 13t-32 13t-39.5 12.5t-51 15t-59 18q-271 84 -271 291q0 158 93 248t262 90q208 0 446 -78z" />
    <glyph glyph-name="t" unicode="t" horiz-adv-x="804" 
d="M743 250l31 -197q-54 -30 -132.5 -48.5t-154.5 -18.5q-174 0 -250.5 87t-76.5 289v359h-140v268h140v219h327v-219h242v-268h-242v-344q0 -69 27 -100t96 -31q78 0 133 4z" />
    <glyph glyph-name="u" unicode="u" horiz-adv-x="1165" 
d="M733 0v117q-123 -81 -163 -100q-74 -35 -154 -35q-160 0 -241 91.5t-81 288.5v627h328v-543q0 -93 24 -130t91 -37q106 0 196 114v596h328v-989h-328z" />
    <glyph glyph-name="v" unicode="v" horiz-adv-x="1157" 
d="M752 0h-346l-386 989h326l186 -506q16 -43 46 -153q3 10 19.5 67.5t27.5 85.5l206 506h326z" />
    <glyph glyph-name="w" unicode="w" horiz-adv-x="1579" 
d="M1292 0h-368l-133 532l-134 -532h-368l-266 989h311l145 -545q14 -93 17 -122q9 59 24 122l156 545h227l156 -545q15 -72 24 -137q3 60 19 137l143 545h314z" />
    <glyph glyph-name="x" unicode="x" horiz-adv-x="1103" 
d="M748 0l-164 242q-24 38 -31 51q-22 -33 -31 -51l-166 -242h-340l314 496l-312 493h349l155 -239q11 -22 31 -52q12 22 31 52l153 239h348l-311 -493l316 -496h-342z" />
    <glyph glyph-name="y" unicode="y" horiz-adv-x="1134" 
d="M784 989l344 -2q-4 -13 -30 -87.5t-32.5 -92t-30 -84t-32 -89t-30 -80t-33 -84.5t-31 -74.5t-34 -77.5t-32.5 -66.5t-36 -67.5q-111 -199 -247 -323.5t-337 -192.5l-106 244q164 73 250 162l-365 913h336l174 -452l49 -158q61 125 110.5 265t112.5 347z" />
    <glyph glyph-name="z" unicode="z" horiz-adv-x="1077" 
d="M1004 0h-930v205l475 522q-94 -6 -191 -6h-266v268h887v-198l-455 -533q120 6 209 6h271v-264z" />
    <glyph glyph-name="braceleft" unicode="{" horiz-adv-x="829" 
d="M586 152v-93q0 -102 42.5 -143.5t176.5 -58.5l-19 -230q-274 6 -390.5 104t-116.5 328v93q0 122 -45 169.5t-177 57.5v231q132 12 177 60t45 170v90q0 232 116.5 329.5t390.5 102.5l19 -227q-134 -18 -176.5 -60t-42.5 -145v-90q0 -165 -59.5 -242.5t-188.5 -101.5
q129 -26 188.5 -103t59.5 -241z" />
    <glyph glyph-name="bar" unicode="|" horiz-adv-x="700" 
d="M215 -410v1731h270v-1731h-270z" />
    <glyph glyph-name="braceright" unicode="}" horiz-adv-x="829" 
d="M250 59v91q0 165 59.5 242.5t188.5 103.5q-129 24 -188.5 101.5t-59.5 242.5v90q0 103 -42.5 145t-176.5 60l18 227q275 -5 391.5 -102.5t116.5 -329.5v-90q0 -122 45 -170t178 -60v-231q-133 -10 -178 -57.5t-45 -169.5v-93q0 -230 -116.5 -328t-391.5 -104l-18 230
q134 17 176.5 58.5t42.5 143.5z" />
    <glyph glyph-name="asciitilde" unicode="~" horiz-adv-x="1040" 
d="M827 737l121 -86q-60 -109 -122.5 -162t-127 -56t-141.5 24l-149 61q-51 27 -96.5 11.5t-100.5 -93.5l-119 84q59 109 120 161.5t126 55t143 -25.5l150 -62q36 -13 66 -13.5t61.5 23.5t68.5 78z" />
    <glyph glyph-name="exclamdown" unicode="&#xa1;" horiz-adv-x="536" 
d="M268 700q-68 0 -110.5 45t-42.5 111t42.5 110t110.5 44t111 -44t43 -110t-43 -111t-111 -45zM442 -254h-348l47 805h254z" />
    <glyph glyph-name="cent" unicode="&#xa2;" horiz-adv-x="1058" 
d="M926 332l104 -199q-155 -123 -338 -145v-107h-211v109q-86 14 -158.5 53.5t-130 107t-90 171.5t-32.5 235q0 243 112.5 393.5t298.5 182.5v116h211v-116q140 -20 301 -103l-90 -211q-136 58 -278 58q-114 0 -175 -83t-61 -237q0 -149 60.5 -230t171.5 -81q168 0 305 86z
" />
    <glyph glyph-name="sterling" unicode="&#xa3;" horiz-adv-x="1187" 
d="M532 268h539v-268h-989v240l129 20l18 176h-147v172h164q32 279 152 410t337 131q227 0 412 -113l-90 -209q-157 64 -275 64q-94 0 -145.5 -63.5t-69.5 -219.5h334v-172h-352z" />
    <glyph glyph-name="yen" unicode="&#xa5;" horiz-adv-x="1189" 
d="M870 565h205v-127h-272l-37 -67h309v-127h-315v-244h-332v244h-309v127h303l-37 67h-266v127h198l-299 559h340l174 -327q17 -37 62 -148q6 14 27.5 66.5t33.5 81.5l174 327h342z" />
    <glyph glyph-name="brokenbar" unicode="&#xa6;" horiz-adv-x="700" 
d="M215 616v705h270v-705h-270zM215 -410v705h270v-705h-270z" />
    <glyph glyph-name="section" unicode="&#xa7;" horiz-adv-x="1243" 
d="M143 -55l86 233q107 -67 213.5 -102t186.5 -35q108 0 108 68q0 38 -45.5 59t-214.5 70q-217 63 -300 132t-83 177q0 81 43.5 133.5t118.5 91.5q-72 72 -72 195q0 139 100 221t279 82q235 0 457 -92l-82 -232q-91 44 -186.5 70t-157.5 26q-107 0 -107 -67q0 -37 43.5 -57
t217.5 -72q216 -65 298 -133t82 -176q0 -84 -40 -138t-117 -92q67 -70 67 -190q0 -143 -102 -231.5t-289 -88.5q-120 0 -255 39.5t-249 108.5zM422 670q-39 -47 -39 -76q0 -14 7.5 -26t26 -23t37 -20t53 -20t61.5 -19t74.5 -22t80.5 -24q58 -20 78 -28q39 44 39 77
q0 14 -7.5 26t-25.5 23t-36.5 19.5t-53 20t-60.5 19.5t-74.5 22t-80.5 24q-17 5 -44.5 14.5t-35.5 12.5z" />
    <glyph glyph-name="dieresis" unicode="&#xa8;" 
d="M295 1419q67 0 111.5 -39.5t44.5 -109.5q0 -68 -44.5 -108t-111.5 -40q-62 0 -109 40.5t-47 107.5q0 68 46.5 108.5t109.5 40.5zM719 1419q63 0 109 -40.5t46 -108.5q0 -67 -46.5 -107.5t-108.5 -40.5q-66 0 -110 40t-44 108q0 69 44 109t110 40z" />
    <glyph glyph-name="copyright" unicode="&#xa9;" horiz-adv-x="1499" 
d="M752 -18q-176 0 -324 85.5t-233.5 233.5t-85.5 324q0 175 85.5 323.5t233.5 235t324 86.5q175 0 322.5 -86.5t233 -235t85.5 -323.5q0 -176 -85.5 -324t-233 -233.5t-322.5 -85.5zM752 57q153 0 283 75.5t206 206.5t76 286q0 154 -76 285t-206 207.5t-283 76.5
q-116 0 -221.5 -45t-181 -121.5t-120.5 -182t-45 -220.5q0 -116 45 -221.5t120.5 -181t181 -120.5t221.5 -45zM999 502l72 -140q-72 -57 -147 -83.5t-172 -26.5q-154 0 -254.5 98.5t-100.5 267.5q0 175 96.5 275t256.5 100q157 0 297 -80l-66 -149q-117 47 -201 47
q-155 0 -155 -193q0 -184 157 -184q101 0 217 68z" />
    <glyph glyph-name="ordfeminine" unicode="&#xaa;" horiz-adv-x="802" 
d="M160 1063l-35 151q202 56 307 56q156 0 224.5 -68t68.5 -225v-428h-233v78q-93 -90 -203 -90q-119 0 -176.5 50.5t-57.5 172.5q0 111 73.5 162.5t225.5 56.5q93 0 140 -2q0 62 -22.5 89.5t-82.5 27.5q-94 0 -229 -31zM492 866h-107q-58 0 -85.5 -17.5t-27.5 -60.5
q0 -39 24 -60t69 -21q71 0 127 59v100z" />
    <glyph glyph-name="guillemotleft" unicode="&#xab;" horiz-adv-x="1261" 
d="M684 803l-207 -209q-34 -34 -82 -72q37 -26 84 -69l205 -211l-162 -156l-456 438l454 441zM1165 803l-207 -209q-38 -38 -81 -72q37 -26 84 -69l204 -211l-161 -156l-457 438l454 441z" />
    <glyph glyph-name="registered" unicode="&#xae;" horiz-adv-x="1499" 
d="M752 -18q-176 0 -324 85.5t-233.5 233.5t-85.5 324q0 175 85.5 323.5t233.5 235t324 86.5q175 0 322.5 -86.5t233 -235t85.5 -323.5q0 -176 -85.5 -324t-233 -233.5t-322.5 -85.5zM752 57q153 0 283 75.5t206 206.5t76 286q0 154 -76 285t-206 207.5t-283 76.5
q-116 0 -221.5 -45t-181 -121.5t-120.5 -182t-45 -220.5q0 -116 45 -221.5t120.5 -181t181 -120.5t221.5 -45zM453 983h303q168 0 245.5 -63.5t77.5 -188.5q0 -150 -131 -186q33 -18 58.5 -48.5t44.5 -73.5t29.5 -74t23.5 -79h-242q-33 122 -51 154q-27 49 -70 49h-90v-203
h-198v713zM666 633h106q96 0 96 90q0 96 -112 96h-90v-186z" />
    <glyph glyph-name="macron" unicode="&#xaf;" 
d="M823 1153h-630v231h630v-231z" />
    <glyph glyph-name="degree" unicode="&#xb0;" horiz-adv-x="755" 
d="M377 1270q137 0 219 -82.5t82 -218.5q0 -133 -82 -214t-219 -81q-136 0 -217.5 81t-81.5 214q0 136 81.5 218.5t217.5 82.5zM377 852q57 0 88 31t31 86q0 58 -31.5 91.5t-87.5 33.5q-55 0 -86 -33.5t-31 -91.5q0 -54 31 -85.5t86 -31.5z" />
    <glyph glyph-name="plusminus" unicode="&#xb1;" horiz-adv-x="1032" 
d="M938 575h-322v-245h-202v245h-322v201h322v246h202v-246h322v-201zM922 244v-201h-830v201h830z" />
    <glyph glyph-name="twosuperior" unicode="&#xb2;" horiz-adv-x="731" 
d="M666 686h-607v150q34 27 88 69.5t82.5 65.5t68.5 56t61 53.5t42 45t30 44.5t9 38q0 45 -25.5 67.5t-70.5 22.5q-97 0 -246 -65l-59 147q112 50 189 72.5t155 22.5q126 0 201 -72t75 -191q0 -42 -18 -82t-42.5 -70.5t-73 -69.5t-86.5 -65t-105 -69q98 8 139 8h193v-178z
" />
    <glyph glyph-name="threesuperior" unicode="&#xb3;" horiz-adv-x="737" 
d="M94 1468l-43 140q179 73 324 73q124 0 201 -59t77 -158q0 -63 -32 -107.5t-84 -64.5q69 -27 102 -66.5t33 -101.5q0 -114 -80.5 -176.5t-222.5 -62.5q-191 0 -342 84l57 143q139 -65 274 -65q54 0 84.5 20.5t30.5 58.5q0 84 -162 84h-112v156h112q79 0 113.5 16t34.5 54
q0 41 -29.5 62.5t-83.5 21.5q-101 0 -252 -52z" />
    <glyph glyph-name="acute" unicode="&#xb4;" 
d="M780 1352v-66q-160 -118 -387 -213l-80 84l262 338z" />
    <glyph glyph-name="paragraph" unicode="&#xb6;" horiz-adv-x="1210" 
d="M1130 1004l-188 -29v-975h-301v391h-39q-272 0 -398 101.5t-126 322.5q0 227 126 330.5t398 103.5h528v-245z" />
    <glyph glyph-name="periodcentered" unicode="&#xb7;" horiz-adv-x="589" 
d="M106 557q0 79 51.5 131.5t133.5 52.5t133 -52.5t51 -131.5t-51 -132.5t-133 -53.5t-133.5 53.5t-51.5 132.5z" />
    <glyph glyph-name="cedilla" unicode="&#xb8;" 
d="M530 61l-2 -122q111 -9 153 -46.5t42 -119.5q0 -85 -53 -139t-150 -54q-116 0 -239 45l26 121q90 -18 139 -18q84 0 84 61q0 42 -22.5 58t-81.5 16h-55l41 198h118z" />
    <glyph glyph-name="onesuperior" unicode="&#xb9;" horiz-adv-x="700" 
d="M662 678h-560v178h177v367q-105 -25 -179 -35l-39 133q140 52 256 133h170v-598h175v-178z" />
    <glyph glyph-name="ordmasculine" unicode="&#xba;" horiz-adv-x="872" 
d="M436 1270q174 0 270.5 -96.5t96.5 -274.5q0 -173 -96.5 -267.5t-270.5 -94.5t-270 94.5t-96 267.5q0 178 96 274.5t270 96.5zM436 719q142 0 142 180q0 188 -142 188q-139 0 -139 -188q0 -180 139 -180z" />
    <glyph glyph-name="guillemotright" unicode="&#xbb;" horiz-adv-x="1261" 
d="M258 86l-160 156l203 211q33 31 84 71q-58 46 -82 70l-205 209l162 162l455 -441zM739 86l-159 156l202 211q33 31 84 71q-58 46 -82 70l-204 209l161 162l455 -441z" />
    <glyph glyph-name="onequarter" unicode="&#xbc;" horiz-adv-x="1830" 
d="M662 473h-560v178h177v367q-105 -25 -179 -35l-39 133q140 52 256 133h170v-598h175v-178zM1364 1249l-705 -1249h-182l703 1249h184zM1602 137v-137h-203v137h-418l-8 144l426 495h203v-475h110v-164h-110zM1399 301v260q-4 -6 -56 -65l-106 -117q-33 -44 -76 -78h238z
" />
    <glyph glyph-name="onehalf" unicode="&#xbd;" horiz-adv-x="1867" 
d="M662 473h-560v178h177v367q-105 -25 -179 -35l-39 133q140 52 256 133h170v-598h175v-178zM1364 1249l-705 -1249h-182l703 1249h184zM1755 0h-606v150q34 27 88 69.5t82.5 65.5t68.5 56t61 53.5t42 45t30 44.5t9 38q0 45 -25.5 67.5t-70.5 22.5q-97 0 -246 -65l-60 149
q112 48 189.5 70t155.5 22q126 0 201 -71t75 -191q0 -42 -18 -82t-42.5 -70.5t-73.5 -69.5t-86.5 -64.5t-105.5 -69.5q98 8 140 8h192v-178z" />
    <glyph glyph-name="threequarters" unicode="&#xbe;" horiz-adv-x="1800" 
d="M94 1057l-43 139q181 74 324 74q124 0 201 -59t77 -158q0 -63 -32 -107.5t-84 -64.5q69 -27 102 -66.5t33 -101.5q0 -115 -80.5 -177.5t-222.5 -62.5q-191 0 -342 84l57 143q139 -65 274 -65q54 0 84.5 21t30.5 59q0 84 -162 84h-112v155h112q79 0 113.5 16t34.5 54
q0 41 -29.5 62.5t-83.5 21.5q-104 0 -252 -51zM1343 1249l-704 -1249h-182l702 1249h184zM1589 137v-137h-200v137h-418l-10 144l428 495h200v-477h113v-162h-113zM1389 299v262q-9 -13 -56 -67l-106 -117q-31 -39 -76 -78h238z" />
    <glyph glyph-name="questiondown" unicode="&#xbf;" horiz-adv-x="1105" 
d="M623 700q-68 0 -111 45t-43 111t43 110t111 44t110.5 -44t42.5 -110t-42.5 -111t-110.5 -45zM979 109l90 -232q-177 -79 -301 -115t-248 -36q-202 0 -325 110t-123 281q0 145 112.5 244t315.5 139l-4 100h260l47 -303q-147 -4 -235 -23.5t-120 -48t-32 -71.5
q0 -72 45 -112t119 -40q141 0 399 107z" />
    <glyph glyph-name="Agrave" unicode="&#xc0;" horiz-adv-x="1423" 
d="M897 1391l-78 -84q-126 47 -209 89t-180 109v64l236 129zM446 199l-69 -199h-359l467 1249h455l465 -1249h-356l-70 199h-533zM872 502l-124 358q-32 104 -35 115q-5 -17 -17.5 -55t-19.5 -60l-125 -358h321z" />
    <glyph glyph-name="Aacute" unicode="&#xc1;" horiz-adv-x="1423" 
d="M987 1575v-66q-97 -65 -180 -107t-207 -89l-80 82l232 307zM446 199l-69 -199h-359l467 1249h455l465 -1249h-356l-70 199h-533zM872 502l-124 358q-32 104 -35 115q-5 -17 -17.5 -55t-19.5 -60l-125 -358h321z" />
    <glyph glyph-name="Acircumflex" unicode="&#xc2;" horiz-adv-x="1423" 
d="M713 1475l-281 -170l-80 86l266 282h189l268 -282l-82 -86zM446 199l-69 -199h-359l467 1249h455l465 -1249h-356l-70 199h-533zM872 502l-124 358q-32 104 -35 115q-5 -17 -17.5 -55t-19.5 -60l-125 -358h321z" />
    <glyph glyph-name="Atilde" unicode="&#xc3;" horiz-adv-x="1423" 
d="M956 1618l119 -4q-4 -77 -29.5 -133t-63 -84t-83.5 -39.5t-90.5 -5.5t-83.5 24l-113 54q-47 23 -74 10.5t-67 -68.5l-111 4q3 76 27 131t59.5 82.5t80 38t88.5 4.5t85 -24l111 -54q25 -12 42.5 -14t34.5 7.5t31 24.5t37 46zM446 199l-69 -199h-359l467 1249h455
l465 -1249h-356l-70 199h-533zM872 502l-124 358q-32 104 -35 115q-5 -17 -17.5 -55t-19.5 -60l-125 -358h321z" />
    <glyph glyph-name="Adieresis" unicode="&#xc4;" horiz-adv-x="1423" 
d="M500 1647q65 0 107 -38.5t42 -105.5q0 -66 -42 -103.5t-107 -37.5q-58 0 -103 38.5t-45 102.5q0 65 45 104.5t103 39.5zM926 1647q59 0 103 -39t44 -105q0 -64 -44 -102.5t-103 -38.5q-64 0 -107 38t-43 103q0 67 43 105.5t107 38.5zM446 199l-69 -199h-359l467 1249h455
l465 -1249h-356l-70 199h-533zM872 502l-124 358q-32 104 -35 115q-5 -17 -17.5 -55t-19.5 -60l-125 -358h321z" />
    <glyph glyph-name="Aring" unicode="&#xc5;" horiz-adv-x="1423" 
d="M713 1759q99 0 161 -60.5t62 -158.5q0 -95 -62 -154t-161 -59t-161.5 59t-62.5 154q0 98 62.5 158.5t161.5 60.5zM713 1460q40 0 64 21.5t24 58.5q0 41 -24 63.5t-64 22.5q-39 0 -63.5 -23t-24.5 -63q0 -36 24.5 -58t63.5 -22zM446 199l-69 -199h-359l467 1249h455
l465 -1249h-356l-70 199h-533zM872 502l-124 358q-32 104 -35 115q-5 -17 -17.5 -55t-19.5 -60l-125 -358h321z" />
    <glyph glyph-name="AE" unicode="&#xc6;" horiz-adv-x="2000" 
d="M1911 297v-297h-938v199h-455l-121 -199h-379l799 1249h1077v-303h-587v-188h501v-287h-501v-174h604zM973 502v440l-268 -440h268z" />
    <glyph glyph-name="Ccedilla" unicode="&#xc7;" horiz-adv-x="1253" 
d="M676 -18v-43q112 -9 154 -46.5t42 -119.5q0 -85 -53.5 -139t-148.5 -54q-115 0 -242 45l29 121q87 -18 139 -18q82 0 82 61q0 42 -22.5 58t-82.5 16h-55l27 131q-225 39 -350 201t-125 426q0 310 168 479.5t469 169.5q246 0 467 -113l-101 -252q-220 66 -350 66
q-315 0 -315 -350q0 -153 80.5 -246.5t213.5 -93.5q103 0 192 20t216 72l109 -248q-135 -75 -261.5 -109t-271.5 -34h-10z" />
    <glyph glyph-name="Egrave" unicode="&#xc8;" horiz-adv-x="1146" 
d="M750 1391l-78 -84q-126 47 -209 89t-180 109v64l235 129zM1057 0h-938v1249h921v-303h-587v-188h501v-287h-501v-174h604v-297z" />
    <glyph glyph-name="Eacute" unicode="&#xc9;" horiz-adv-x="1146" 
d="M840 1575v-66q-97 -65 -180 -107t-207 -89l-80 82l231 307zM1057 0h-938v1249h921v-303h-587v-188h501v-287h-501v-174h604v-297z" />
    <glyph glyph-name="Ecircumflex" unicode="&#xca;" horiz-adv-x="1146" 
d="M565 1475l-280 -170l-80 86l266 282h188l269 -282l-82 -86zM1057 0h-938v1249h921v-303h-587v-188h501v-287h-501v-174h604v-297z" />
    <glyph glyph-name="Edieresis" unicode="&#xcb;" horiz-adv-x="1146" 
d="M352 1647q65 0 107.5 -38.5t42.5 -105.5q0 -66 -42.5 -103.5t-107.5 -37.5q-58 0 -102.5 38.5t-44.5 102.5q0 65 44.5 104.5t102.5 39.5zM778 1647q59 0 103.5 -39t44.5 -105q0 -64 -44.5 -102.5t-103.5 -38.5q-64 0 -106.5 38t-42.5 103q0 67 42.5 105.5t106.5 38.5z
M1057 0h-938v1249h921v-303h-587v-188h501v-287h-501v-174h604v-297z" />
    <glyph glyph-name="Igrave" unicode="&#xcc;" horiz-adv-x="571" 
d="M471 1391l-78 -84q-126 47 -209 89t-180 109v64l236 129zM453 0h-334v1249h334v-1249z" />
    <glyph glyph-name="Iacute" unicode="&#xcd;" horiz-adv-x="571" 
d="M561 1575v-66q-97 -65 -180 -107t-207 -89l-80 82l232 307zM453 0h-334v1249h334v-1249z" />
    <glyph glyph-name="Icircumflex" unicode="&#xce;" horiz-adv-x="571" 
d="M287 1475l-281 -170l-82 86l269 282h188l268 -282l-82 -86zM453 0h-334v1249h334v-1249z" />
    <glyph glyph-name="Idieresis" unicode="&#xcf;" horiz-adv-x="571" 
d="M74 1647q65 0 107 -38.5t42 -105.5q0 -66 -42 -103.5t-107 -37.5q-58 0 -103 38.5t-45 102.5q0 65 45 104.5t103 39.5zM500 1647q59 0 103 -39t44 -105q0 -64 -44 -102.5t-103 -38.5q-64 0 -107 38t-43 103q0 67 43 105.5t107 38.5zM453 0h-334v1249h334v-1249z" />
    <glyph glyph-name="Eth" unicode="&#xd0;" horiz-adv-x="1347" 
d="M121 1249h442q337 0 526 -169.5t189 -456.5q0 -283 -192 -453t-523 -170h-442v494h-111v256h111v499zM455 293h108q189 0 283 81t94 249q0 171 -91.5 252t-285.5 81h-108v-206h192v-256h-192v-201z" />
    <glyph glyph-name="Ntilde" unicode="&#xd1;" horiz-adv-x="1402" 
d="M944 1618l119 -4q-4 -77 -29.5 -133t-63 -84t-83.5 -39.5t-90.5 -5.5t-83.5 24l-113 54q-47 23 -74 10.5t-67 -68.5l-111 4q3 76 27 131t59.5 82.5t80 38t88.5 4.5t85 -24l111 -54q25 -12 42.5 -14t34.5 7.5t31 24.5t37 46zM1284 0h-303l-528 705v-705h-334v1249h303
l528 -712v712h334v-1249z" />
    <glyph glyph-name="Ograve" unicode="&#xd2;" horiz-adv-x="1402" 
d="M887 1391l-80 -84q-125 48 -208 89.5t-179 108.5v64l235 129zM702 1270q297 0 464 -169.5t167 -477.5q0 -307 -167 -474t-464 -167q-298 0 -465 167t-167 474q0 309 167 478t465 169zM702 281q140 0 216.5 87.5t76.5 254.5q0 171 -76.5 259.5t-216.5 88.5
q-141 0 -217.5 -88.5t-76.5 -259.5q0 -167 76.5 -254.5t217.5 -87.5z" />
    <glyph glyph-name="Oacute" unicode="&#xd3;" horiz-adv-x="1402" 
d="M975 1575v-66q-98 -66 -180.5 -107.5t-206.5 -88.5l-80 82l233 307zM702 1270q297 0 464 -169.5t167 -477.5q0 -307 -167 -474t-464 -167q-298 0 -465 167t-167 474q0 309 167 478t465 169zM702 281q140 0 216.5 87.5t76.5 254.5q0 171 -76.5 259.5t-216.5 88.5
q-141 0 -217.5 -88.5t-76.5 -259.5q0 -167 76.5 -254.5t217.5 -87.5z" />
    <glyph glyph-name="Ocircumflex" unicode="&#xd4;" horiz-adv-x="1402" 
d="M702 1475l-280 -170l-82 86l268 282h187l268 -282l-80 -86zM702 1270q297 0 464 -169.5t167 -477.5q0 -307 -167 -474t-464 -167q-298 0 -465 167t-167 474q0 309 167 478t465 169zM702 281q140 0 216.5 87.5t76.5 254.5q0 171 -76.5 259.5t-216.5 88.5
q-141 0 -217.5 -88.5t-76.5 -259.5q0 -167 76.5 -254.5t217.5 -87.5z" />
    <glyph glyph-name="Otilde" unicode="&#xd5;" horiz-adv-x="1402" 
d="M944 1618l119 -4q-3 -77 -28.5 -133t-63 -84t-83.5 -39.5t-91 -5.5t-84 24l-113 54q-23 12 -40 15t-33.5 -5t-31.5 -23.5t-36 -44.5l-111 4q4 76 28 131t60 82.5t80 38t87.5 4.5t84.5 -24l111 -54q25 -12 43 -14t35 7t31 25t36 46zM702 1270q297 0 464 -169.5t167 -477.5
q0 -307 -167 -474t-464 -167q-298 0 -465 167t-167 474q0 309 167 478t465 169zM702 281q140 0 216.5 87.5t76.5 254.5q0 171 -76.5 259.5t-216.5 88.5q-141 0 -217.5 -88.5t-76.5 -259.5q0 -167 76.5 -254.5t217.5 -87.5z" />
    <glyph glyph-name="Odieresis" unicode="&#xd6;" horiz-adv-x="1402" 
d="M489 1647q64 0 107 -38.5t43 -105.5q0 -65 -43 -103t-107 -38q-59 0 -103 38.5t-44 102.5q0 66 44 105t103 39zM913 1647q59 0 103.5 -39t44.5 -105q0 -64 -44.5 -102.5t-103.5 -38.5q-64 0 -105.5 37.5t-41.5 103.5q0 67 41.5 105.5t105.5 38.5zM702 1270
q297 0 464 -169.5t167 -477.5q0 -307 -167 -474t-464 -167q-298 0 -465 167t-167 474q0 309 167 478t465 169zM702 281q140 0 216.5 87.5t76.5 254.5q0 171 -76.5 259.5t-216.5 88.5q-141 0 -217.5 -88.5t-76.5 -259.5q0 -167 76.5 -254.5t217.5 -87.5z" />
    <glyph glyph-name="multiply" unicode="&#xd7;" 
d="M297 137l-166 164l213 213l-219 219l168 166l217 -217l219 217l160 -168l-213 -215l213 -213l-166 -166l-213 213z" />
    <glyph glyph-name="Oslash" unicode="&#xd8;" horiz-adv-x="1402" 
d="M1309 1149l-97 -100q121 -169 121 -428q0 -305 -167.5 -472t-465.5 -167q-245 0 -399 112l-106 -110l-119 116l106 113q-112 154 -112 408q0 310 167 479.5t465 169.5q234 0 390 -107l98 103zM428 469l438 459q-67 43 -166 43q-140 0 -216 -89t-76 -261q0 -91 20 -152z
M969 795l-443 -465q67 -49 174 -49q141 0 218 86.5t77 253.5q0 103 -26 174z" />
    <glyph glyph-name="Ugrave" unicode="&#xd9;" horiz-adv-x="1357" 
d="M864 1391l-80 -84q-124 47 -207 88.5t-182 109.5v64l236 129zM1249 1249v-653q0 -312 -141 -463t-430 -151q-288 0 -428.5 151.5t-140.5 462.5v653h333v-653q0 -315 236 -315q237 0 237 315v653h334z" />
    <glyph glyph-name="Uacute" unicode="&#xda;" horiz-adv-x="1357" 
d="M952 1575v-66q-97 -65 -180 -107t-207 -89l-80 82l232 307zM1249 1249v-653q0 -312 -141 -463t-430 -151q-288 0 -428.5 151.5t-140.5 462.5v653h333v-653q0 -315 236 -315q237 0 237 315v653h334z" />
    <glyph glyph-name="Ucircumflex" unicode="&#xdb;" horiz-adv-x="1357" 
d="M678 1475l-281 -170l-80 86l269 282h186l268 -282l-82 -86zM1249 1249v-653q0 -312 -141 -463t-430 -151q-288 0 -428.5 151.5t-140.5 462.5v653h333v-653q0 -315 236 -315q237 0 237 315v653h334z" />
    <glyph glyph-name="Udieresis" unicode="&#xdc;" horiz-adv-x="1357" 
d="M467 1647q64 0 105.5 -38.5t41.5 -105.5q0 -66 -41.5 -103.5t-105.5 -37.5q-59 0 -103.5 38.5t-44.5 102.5q0 66 44.5 105t103.5 39zM891 1647q59 0 103 -39t44 -105q0 -64 -44 -102.5t-103 -38.5q-64 0 -107 38t-43 103q0 67 43 105.5t107 38.5zM1249 1249v-653
q0 -312 -141 -463t-430 -151q-288 0 -428.5 151.5t-140.5 462.5v653h333v-653q0 -315 236 -315q237 0 237 315v653h334z" />
    <glyph glyph-name="Yacute" unicode="&#xdd;" horiz-adv-x="1306" 
d="M928 1575v-66q-97 -65 -180 -107t-207 -89l-80 82l231 307zM819 393v-393h-332v393l-469 856h351l209 -393q46 -84 75 -158q26 67 76 158l209 393h350z" />
    <glyph glyph-name="Thorn" unicode="&#xde;" horiz-adv-x="1212" 
d="M453 1081h165q283 0 417 -115t134 -354q0 -237 -130 -344.5t-404 -107.5h-182v-160h-334v1249h334v-168zM453 424h180q213 0 213 188q0 185 -230 185h-163v-373z" />
    <glyph glyph-name="germandbls" unicode="&#xdf;" horiz-adv-x="1265" 
d="M-2 989l149 -2q59 146 199 228.5t332 82.5q203 0 330 -96t127 -252q0 -206 -215 -270q142 -36 213 -120t71 -224q0 -160 -110.5 -257t-292.5 -97q-137 0 -246 32l23 230q128 -13 170 -13q73 0 114 38.5t41 103.5q0 141 -266 141h-55v242h55q91 0 140.5 40.5t49.5 114.5
q0 59 -37.5 90t-107.5 31q-116 0 -179 -61t-63 -176v-795h-327v735l-115 19v235z" />
    <glyph glyph-name="agrave" unicode="&#xe0;" horiz-adv-x="1077" 
d="M758 1157l-80 -84q-231 97 -389 213v66l205 143zM195 713l-50 221q166 43 260 58.5t173 15.5q216 0 310.5 -96t94.5 -312v-600h-319v117q-132 -135 -289 -135q-164 0 -245 71t-81 240q0 157 103.5 232t314.5 75h197q0 86 -31.5 121t-116.5 35q-125 0 -321 -43zM664 426
h-154q-87 0 -124.5 -17.5t-37.5 -76.5q0 -54 36 -85.5t97 -31.5q100 0 183 86v125z" />
    <glyph glyph-name="aacute" unicode="&#xe1;" horiz-adv-x="1077" 
d="M813 1352v-66q-160 -118 -387 -213l-80 84l262 338zM195 713l-50 221q166 43 260 58.5t173 15.5q216 0 310.5 -96t94.5 -312v-600h-319v117q-132 -135 -289 -135q-164 0 -245 71t-81 240q0 157 103.5 232t314.5 75h197q0 86 -31.5 121t-116.5 35q-125 0 -321 -43z
M664 426h-154q-87 0 -124.5 -17.5t-37.5 -76.5q0 -54 36 -85.5t97 -31.5q100 0 183 86v125z" />
    <glyph glyph-name="acircumflex" unicode="&#xe2;" horiz-adv-x="1077" 
d="M895 1161l-78 -82q-52 33 -143.5 86.5t-126.5 75.5q-31 -19 -123 -73.5t-145 -88.5l-78 82l258 287h178zM195 713l-50 221q166 43 260 58.5t173 15.5q216 0 310.5 -96t94.5 -312v-600h-319v117q-132 -135 -289 -135q-164 0 -245 71t-81 240q0 157 103.5 232t314.5 75h197
q0 86 -31.5 121t-116.5 35q-125 0 -321 -43zM664 426h-154q-87 0 -124.5 -17.5t-37.5 -76.5q0 -54 36 -85.5t97 -31.5q100 0 183 86v125z" />
    <glyph glyph-name="atilde" unicode="&#xe3;" horiz-adv-x="1077" 
d="M782 1413l119 -4q-4 -77 -29.5 -133t-63 -84t-83.5 -39.5t-90.5 -5.5t-83.5 24l-113 54q-47 23 -74 10.5t-67 -68.5l-111 4q3 76 27 131t60 82.5t80.5 38t88 4.5t84.5 -24l111 -53q25 -12 43 -14t35 6.5t31 24.5t36 46zM195 713l-50 221q166 43 260 58.5t173 15.5
q216 0 310.5 -96t94.5 -312v-600h-319v117q-132 -135 -289 -135q-164 0 -245 71t-81 240q0 157 103.5 232t314.5 75h197q0 86 -31.5 121t-116.5 35q-125 0 -321 -43zM664 426h-154q-87 0 -124.5 -17.5t-37.5 -76.5q0 -54 36 -85.5t97 -31.5q100 0 183 86v125z" />
    <glyph glyph-name="adieresis" unicode="&#xe4;" horiz-adv-x="1077" 
d="M328 1419q67 0 111 -39.5t44 -109.5q0 -68 -44 -108t-111 -40q-62 0 -109 40.5t-47 107.5q0 68 46.5 108.5t109.5 40.5zM752 1419q63 0 109 -40.5t46 -108.5q0 -67 -46.5 -107.5t-108.5 -40.5q-66 0 -110 40t-44 108q0 69 44 109t110 40zM195 713l-50 221
q166 43 260 58.5t173 15.5q216 0 310.5 -96t94.5 -312v-600h-319v117q-132 -135 -289 -135q-164 0 -245 71t-81 240q0 157 103.5 232t314.5 75h197q0 86 -31.5 121t-116.5 35q-125 0 -321 -43zM664 426h-154q-87 0 -124.5 -17.5t-37.5 -76.5q0 -54 36 -85.5t97 -31.5
q100 0 183 86v125z" />
    <glyph glyph-name="aring" unicode="&#xe5;" horiz-adv-x="1077" 
d="M557 1524q99 0 161 -60.5t62 -158.5q0 -95 -62.5 -154t-162.5 -59q-98 0 -159.5 59t-61.5 154q0 98 61.5 158.5t161.5 60.5zM555 1225q40 0 64 21.5t24 58.5q0 41 -23.5 63.5t-62.5 22.5t-63.5 -23t-24.5 -63q0 -36 24.5 -58t61.5 -22zM195 713l-50 221q166 43 260 58.5
t173 15.5q216 0 310.5 -96t94.5 -312v-600h-319v117q-132 -135 -289 -135q-164 0 -245 71t-81 240q0 157 103.5 232t314.5 75h197q0 86 -31.5 121t-116.5 35q-125 0 -321 -43zM664 426h-154q-87 0 -124.5 -17.5t-37.5 -76.5q0 -54 36 -85.5t97 -31.5q100 0 183 86v125z" />
    <glyph glyph-name="ae" unicode="&#xe6;" horiz-adv-x="1687" 
d="M1618 399h-639q34 -163 199 -163q100 0 179 20.5t171 69.5l92 -185q-111 -84 -221 -121.5t-236 -37.5q-231 0 -364 127q-189 -127 -383 -127q-193 0 -280 69.5t-87 241.5q0 299 418 299h190q0 90 -29 131t-112 41q-125 0 -321 -43l-50 213q166 43 260 58.5t173 15.5
q186 0 276 -84q125 84 311 84q213 0 336.5 -122.5t124.5 -353.5q0 -65 -8 -133zM977 594h369q-12 186 -181 186q-162 0 -188 -186zM657 399h-147q-92 0 -126 -16t-34 -68q0 -46 37 -73t105 -27q93 0 208 47q-24 71 -32 137h-11z" />
    <glyph glyph-name="ccedilla" unicode="&#xe7;" horiz-adv-x="1007" 
d="M559 -18v-43q113 -9 155 -46.5t42 -119.5q0 -85 -54 -139t-149 -54q-115 0 -242 45l29 121q87 -18 139 -18q82 0 82 61q0 42 -22.5 58t-81.5 16h-56l27 129q-166 32 -267.5 160t-101.5 337q0 126 35.5 225.5t100 163.5t152 97t192.5 33q220 0 405 -109l-90 -207
q-132 56 -270 56q-97 0 -150 -67.5t-53 -191.5q0 -119 52 -183t149 -64q157 0 301 75l96 -186q-97 -76 -193.5 -111t-226.5 -38z" />
    <glyph glyph-name="egrave" unicode="&#xe8;" horiz-adv-x="1083" 
d="M754 1159l-80 -84q-218 89 -387 213v64l205 145zM924 326l92 -185q-111 -84 -221 -121.5t-236 -37.5q-233 0 -366.5 129t-133.5 376q0 254 133 387.5t369 133.5q213 0 336.5 -122.5t124.5 -353.5q0 -65 -8 -133h-639q34 -163 198 -163q100 0 179.5 20.5t171.5 69.5z
M373 594h368q-12 186 -180 186q-162 0 -188 -186z" />
    <glyph glyph-name="eacute" unicode="&#xe9;" horiz-adv-x="1083" 
d="M809 1352v-64q-163 -122 -387 -213l-80 84l264 338zM924 326l92 -185q-111 -84 -221 -121.5t-236 -37.5q-233 0 -366.5 129t-133.5 376q0 254 133 387.5t369 133.5q213 0 336.5 -122.5t124.5 -353.5q0 -65 -8 -133h-639q34 -163 198 -163q100 0 179.5 20.5t171.5 69.5z
M373 594h368q-12 186 -180 186q-162 0 -188 -186z" />
    <glyph glyph-name="ecircumflex" unicode="&#xea;" horiz-adv-x="1083" 
d="M893 1163l-78 -82q-173 103 -270 162q-47 -29 -137 -82t-134 -80l-77 82l258 285h178zM924 326l92 -185q-111 -84 -221 -121.5t-236 -37.5q-233 0 -366.5 129t-133.5 376q0 254 133 387.5t369 133.5q213 0 336.5 -122.5t124.5 -353.5q0 -65 -8 -133h-639
q34 -163 198 -163q100 0 179.5 20.5t171.5 69.5zM373 594h368q-12 186 -180 186q-162 0 -188 -186z" />
    <glyph glyph-name="edieresis" unicode="&#xeb;" horiz-adv-x="1083" 
d="M324 1419q67 0 111 -39.5t44 -109.5q0 -68 -44 -108t-111 -40q-62 0 -109 40.5t-47 107.5q0 68 46.5 108.5t109.5 40.5zM748 1419q63 0 109 -40.5t46 -108.5q0 -67 -46.5 -107.5t-108.5 -40.5q-66 0 -110 40t-44 108q0 69 44 109t110 40zM924 326l92 -185
q-111 -84 -221 -121.5t-236 -37.5q-233 0 -366.5 129t-133.5 376q0 254 133 387.5t369 133.5q213 0 336.5 -122.5t124.5 -353.5q0 -65 -8 -133h-639q34 -163 198 -163q100 0 179.5 20.5t171.5 69.5zM373 594h368q-12 186 -180 186q-162 0 -188 -186z" />
    <glyph glyph-name="igrave" unicode="&#xec;" horiz-adv-x="550" 
d="M494 1157l-80 -84q-231 97 -389 213v66l204 143zM440 0h-327v989h327v-989z" />
    <glyph glyph-name="iacute" unicode="&#xed;" horiz-adv-x="550" 
d="M549 1352v-66q-160 -118 -387 -213l-80 84l262 338zM440 0h-327v989h327v-989z" />
    <glyph glyph-name="icircumflex" unicode="&#xee;" horiz-adv-x="550" 
d="M631 1161l-78 -82q-52 33 -143.5 86.5t-126.5 75.5q-34 -21 -125 -75t-144 -87l-80 82l261 287h178zM440 0h-327v989h327v-989z" />
    <glyph glyph-name="idieresis" unicode="&#xef;" horiz-adv-x="550" 
d="M63 1419q67 0 111.5 -39.5t44.5 -109.5q0 -68 -44.5 -108t-111.5 -40q-62 0 -108.5 40.5t-46.5 107.5q0 68 46 108.5t109 40.5zM487 1419q63 0 109.5 -40.5t46.5 -108.5q0 -67 -47 -107.5t-109 -40.5q-65 0 -109 40t-44 108q0 70 43.5 109.5t109.5 39.5zM440 0h-327v989
h327v-989z" />
    <glyph glyph-name="eth" unicode="&#xf0;" horiz-adv-x="1148" 
d="M895 1249l-121 -49q164 -170 240 -330t76 -381q0 -242 -136 -374.5t-381 -132.5q-244 0 -379 132.5t-135 374.5q0 102 33.5 187.5t97.5 150t165.5 100.5t230.5 36q-56 59 -117 112l-205 -84l-41 109l142 57q-48 38 -123 86v43l319 117q23 -22 64 -60t59 -55l172 70z
M573 242q97 0 145 57.5t48 189.5q0 153 -51 277q-102 -3 -166.5 -20t-102 -54t-51.5 -88t-14 -131q0 -122 48 -176.5t144 -54.5z" />
    <glyph glyph-name="ntilde" unicode="&#xf1;" horiz-adv-x="1159" 
d="M825 1413l119 -4q-4 -77 -29.5 -133t-63 -84t-83.5 -39.5t-90.5 -5.5t-83.5 24l-113 54q-47 23 -74 10.5t-67 -68.5l-111 4q3 76 27 131t60 82.5t80.5 38t88 4.5t84.5 -24l111 -53q25 -12 43 -14t35 6.5t31 24.5t36 46zM428 989v-129q164 148 326 148q160 0 235.5 -90.5
t75.5 -288.5v-629h-328v537q0 94 -23 129.5t-91 35.5q-107 0 -195 -112v-590h-328v989h328z" />
    <glyph glyph-name="ograve" unicode="&#xf2;" horiz-adv-x="1148" 
d="M791 1159l-80 -84q-218 89 -387 213v64l204 145zM573 1008q245 0 381 -135.5t136 -383.5q0 -242 -136 -374.5t-381 -132.5q-244 0 -379 132.5t-135 374.5q0 248 135 383.5t379 135.5zM573 242q97 0 146 57.5t49 189.5q0 138 -49 198.5t-146 60.5q-96 0 -144 -60.5
t-48 -198.5q0 -133 47.5 -190t144.5 -57z" />
    <glyph glyph-name="oacute" unicode="&#xf3;" horiz-adv-x="1148" 
d="M846 1352v-64q-163 -122 -387 -213l-80 84l264 338zM573 1008q245 0 381 -135.5t136 -383.5q0 -242 -136 -374.5t-381 -132.5q-244 0 -379 132.5t-135 374.5q0 248 135 383.5t379 135.5zM573 242q97 0 146 57.5t49 189.5q0 138 -49 198.5t-146 60.5q-96 0 -144 -60.5
t-48 -198.5q0 -133 47.5 -190t144.5 -57z" />
    <glyph glyph-name="ocircumflex" unicode="&#xf4;" horiz-adv-x="1148" 
d="M930 1163l-78 -82q-173 103 -270 162q-47 -29 -137 -82t-134 -80l-78 82l259 285h178zM573 1008q245 0 381 -135.5t136 -383.5q0 -242 -136 -374.5t-381 -132.5q-244 0 -379 132.5t-135 374.5q0 248 135 383.5t379 135.5zM573 242q97 0 146 57.5t49 189.5
q0 138 -49 198.5t-146 60.5q-96 0 -144 -60.5t-48 -198.5q0 -133 47.5 -190t144.5 -57z" />
    <glyph glyph-name="otilde" unicode="&#xf5;" horiz-adv-x="1148" 
d="M815 1397l119 -4q-4 -77 -29.5 -133t-63 -84t-83.5 -39.5t-90.5 -5.5t-83.5 24l-113 53q-47 23 -74 11t-67 -68l-111 4q4 94 39 155t86.5 82t106.5 19t108 -25l111 -53q25 -12 42.5 -14t34.5 7.5t31 24.5t37 46zM573 1008q245 0 381 -135.5t136 -383.5
q0 -242 -136 -374.5t-381 -132.5q-244 0 -379 132.5t-135 374.5q0 248 135 383.5t379 135.5zM573 242q97 0 146 57.5t49 189.5q0 138 -49 198.5t-146 60.5q-96 0 -144 -60.5t-48 -198.5q0 -133 47.5 -190t144.5 -57z" />
    <glyph glyph-name="odieresis" unicode="&#xf6;" horiz-adv-x="1148" 
d="M360 1419q67 0 111.5 -39t44.5 -108q0 -70 -44.5 -109t-111.5 -39q-62 0 -107.5 39.5t-45.5 108.5q0 68 45 107.5t108 39.5zM786 1419q63 0 109.5 -39.5t46.5 -107.5t-46.5 -108t-109.5 -40q-67 0 -111 39t-44 109t44 108.5t111 38.5zM573 1008q245 0 381 -135.5
t136 -383.5q0 -242 -136 -374.5t-381 -132.5q-244 0 -379 132.5t-135 374.5q0 248 135 383.5t379 135.5zM573 242q97 0 146 57.5t49 189.5q0 138 -49 198.5t-146 60.5q-96 0 -144 -60.5t-48 -198.5q0 -133 47.5 -190t144.5 -57z" />
    <glyph glyph-name="divide" unicode="&#xf7;" horiz-adv-x="1015" 
d="M395 831q0 50 32.5 83.5t82.5 33.5q52 0 84.5 -33.5t32.5 -83.5t-32.5 -82t-84.5 -32q-51 0 -83 32t-32 82zM92 385v231h832v-231h-832zM395 172q0 50 32 82.5t83 32.5q52 0 84.5 -32.5t32.5 -82.5t-32.5 -83.5t-84.5 -33.5q-50 0 -82.5 33.5t-32.5 83.5z" />
    <glyph glyph-name="oslash" unicode="&#xf8;" horiz-adv-x="1122" 
d="M1049 920l-72 -74q110 -134 110 -357q0 -242 -135.5 -374.5t-380.5 -132.5q-202 0 -331 94l-76 -80l-86 86l76 78q-97 129 -97 329q0 248 135 383.5t379 135.5q189 0 316 -82l76 78zM385 401l301 316q-48 31 -115 31q-96 0 -144 -60.5t-48 -198.5q0 -47 6 -88zM754 610
l-314 -325q43 -43 131 -43q97 0 146 57.5t49 189.5q0 71 -12 121z" />
    <glyph glyph-name="ugrave" unicode="&#xf9;" horiz-adv-x="1165" 
d="M799 1157l-78 -84q-228 94 -389 213v66l205 143zM733 0v117q-123 -81 -163 -100q-74 -35 -154 -35q-160 0 -241 91.5t-81 288.5v627h328v-543q0 -93 24 -130t91 -37q106 0 196 114v596h328v-989h-328z" />
    <glyph glyph-name="uacute" unicode="&#xfa;" horiz-adv-x="1165" 
d="M856 1352v-66q-161 -119 -389 -213l-78 84l262 338zM733 0v117q-123 -81 -163 -100q-74 -35 -154 -35q-160 0 -241 91.5t-81 288.5v627h328v-543q0 -93 24 -130t91 -37q106 0 196 114v596h328v-989h-328z" />
    <glyph glyph-name="ucircumflex" unicode="&#xfb;" horiz-adv-x="1165" 
d="M938 1161l-78 -82q-52 33 -143.5 86.5t-126.5 75.5q-37 -22 -128 -75.5t-143 -86.5l-77 82l260 287h178zM733 0v117q-123 -81 -163 -100q-74 -35 -154 -35q-160 0 -241 91.5t-81 288.5v627h328v-543q0 -93 24 -130t91 -37q106 0 196 114v596h328v-989h-328z" />
    <glyph glyph-name="udieresis" unicode="&#xfc;" horiz-adv-x="1165" 
d="M371 1419q66 0 109.5 -39.5t43.5 -109.5q0 -68 -44 -108t-109 -40q-62 0 -109 40.5t-47 107.5q0 68 46.5 108.5t109.5 40.5zM795 1419q63 0 109 -40.5t46 -108.5q0 -67 -46.5 -107.5t-108.5 -40.5q-67 0 -111.5 40t-44.5 108q0 70 44.5 109.5t111.5 39.5zM733 0v117
q-123 -81 -163 -100q-74 -35 -154 -35q-160 0 -241 91.5t-81 288.5v627h328v-543q0 -93 24 -130t91 -37q106 0 196 114v596h328v-989h-328z" />
    <glyph glyph-name="yacute" unicode="&#xfd;" horiz-adv-x="1134" 
d="M842 1352v-66q-161 -119 -389 -213l-78 84l262 338zM784 989l344 -2q-4 -13 -30 -87.5t-32.5 -92t-30 -84t-32 -89t-30 -80t-33 -84.5t-31 -74.5t-34 -77.5t-32.5 -66.5t-36 -67.5q-111 -199 -247 -323.5t-337 -192.5l-106 244q164 73 250 162l-365 913h336l174 -452
l49 -158q61 125 110.5 265t112.5 347z" />
    <glyph glyph-name="thorn" unicode="&#xfe;" horiz-adv-x="1163" 
d="M428 1249v-352q82 56 153 83.5t152 27.5q185 0 278 -121.5t93 -382.5q0 -135 -31.5 -237.5t-87 -163.5t-124.5 -91t-150 -30q-96 0 -154.5 25t-128.5 83v-405h-328v1564h328zM428 649v-319q42 -42 82 -61t96 -19q82 0 128 62t46 192q0 121 -42 176t-124 55
q-94 0 -186 -86z" />
    <glyph glyph-name="ydieresis" unicode="&#xff;" horiz-adv-x="1134" 
d="M356 1419q66 0 110 -40t44 -109q0 -68 -44 -108t-110 -40q-62 0 -108.5 40.5t-46.5 107.5q0 68 46 108.5t109 40.5zM780 1419q63 0 109.5 -40.5t46.5 -108.5q0 -67 -47 -107.5t-109 -40.5q-67 0 -111 40t-44 108q0 70 44 109.5t111 39.5zM784 989l344 -2
q-4 -13 -30 -87.5t-32.5 -92t-30 -84t-32 -89t-30 -80t-33 -84.5t-31 -74.5t-34 -77.5t-32.5 -66.5t-36 -67.5q-111 -199 -247 -323.5t-337 -192.5l-106 244q164 73 250 162l-365 913h336l174 -452l49 -158q61 125 110.5 265t112.5 347z" />
    <glyph glyph-name="Amacron" unicode="&#x100;" horiz-adv-x="1423" 
d="M1020 1380h-614v224h614v-224zM446 199l-69 -199h-359l467 1249h455l465 -1249h-356l-70 199h-533zM872 502l-124 358q-32 104 -35 115q-5 -17 -17.5 -55t-19.5 -60l-125 -358h321z" />
    <glyph glyph-name="amacron" unicode="&#x101;" horiz-adv-x="1077" 
d="M856 1153h-631v231h631v-231zM195 713l-50 221q166 43 260 58.5t173 15.5q216 0 310.5 -96t94.5 -312v-600h-319v117q-132 -135 -289 -135q-164 0 -245 71t-81 240q0 157 103.5 232t314.5 75h197q0 86 -31.5 121t-116.5 35q-125 0 -321 -43zM664 426h-154
q-87 0 -124.5 -17.5t-37.5 -76.5q0 -54 36 -85.5t97 -31.5q100 0 183 86v125z" />
    <glyph glyph-name="Abreve" unicode="&#x102;" horiz-adv-x="1423" 
d="M842 1622h182q0 -135 -78.5 -207t-232.5 -72q-152 0 -231 72t-79 207h183q3 -43 36 -71.5t91 -28.5q60 0 93.5 29t35.5 71zM446 199l-69 -199h-359l467 1249h455l465 -1249h-356l-70 199h-533zM872 502l-124 358q-32 104 -35 115q-5 -17 -17.5 -55t-19.5 -60l-125 -358
h321z" />
    <glyph glyph-name="abreve" unicode="&#x103;" horiz-adv-x="1077" 
d="M684 1407h182q0 -293 -311 -293t-311 293h184q0 -54 33.5 -85.5t93.5 -31.5q61 0 95 32t34 85zM195 713l-50 221q166 43 260 58.5t173 15.5q216 0 310.5 -96t94.5 -312v-600h-319v117q-132 -135 -289 -135q-164 0 -245 71t-81 240q0 157 103.5 232t314.5 75h197
q0 86 -31.5 121t-116.5 35q-125 0 -321 -43zM664 426h-154q-87 0 -124.5 -17.5t-37.5 -76.5q0 -54 36 -85.5t97 -31.5q100 0 183 86v125z" />
    <glyph glyph-name="Aogonek" unicode="&#x104;" horiz-adv-x="1423" 
d="M1405 0h-109q-116 -8 -178.5 -35.5t-62.5 -73.5q0 -37 33 -59t90 -22q31 0 161 20l33 -156q-141 -55 -282 -55q-110 0 -176 51t-66 135q0 73 50 133.5t140 90.5l-59 170h-533l-69 -199h-359l467 1249h455zM872 502l-124 358q-32 104 -35 115q-5 -17 -17.5 -55t-19.5 -60
l-125 -358h321z" />
    <glyph glyph-name="aogonek" unicode="&#x105;" horiz-adv-x="1077" 
d="M967 -170l32 -156q-141 -55 -282 -55q-110 0 -176 51t-66 135q0 74 50.5 134.5t138.5 91.5v86q-132 -135 -289 -135q-164 0 -245 71t-81 240q0 157 103.5 232t314.5 75h197q0 86 -31.5 121t-116.5 35q-125 0 -321 -43l-48 221q162 43 255.5 58.5t175.5 15.5
q217 0 311 -96t94 -312v-600h-123q-83 -8 -130.5 -36t-47.5 -73q0 -37 33.5 -59t91.5 -22q30 0 160 20zM664 426h-154q-87 0 -124.5 -17.5t-37.5 -76.5q0 -54 36 -85.5t97 -31.5q100 0 183 86v125z" />
    <glyph glyph-name="Cacute" unicode="&#x106;" horiz-adv-x="1253" 
d="M956 1589v-63q-98 -68 -181 -110.5t-206 -88.5l-80 84l234 307zM1110 373l109 -248q-135 -75 -261.5 -109t-271.5 -34q-287 0 -451.5 167.5t-164.5 473.5q0 309 168 478t469 169q251 0 467 -113l-101 -250q-223 64 -350 64q-156 0 -235.5 -87.5t-79.5 -260.5
q0 -154 80.5 -248t213.5 -94q103 0 192 20t216 72z" />
    <glyph glyph-name="cacute" unicode="&#x107;" horiz-adv-x="1007" 
d="M805 1352v-64q-163 -122 -387 -213l-80 84l264 338zM883 317l96 -186q-101 -79 -203 -114t-241 -35q-99 0 -185 32.5t-151 94.5t-102.5 159.5t-37.5 220.5q0 126 35.5 225.5t100 163.5t152 97t192.5 33q220 0 405 -109l-90 -207q-132 56 -270 56q-97 0 -150 -67.5
t-53 -191.5q0 -119 52 -183t149 -64q157 0 301 75z" />
    <glyph glyph-name="Cdotaccent" unicode="&#x10a;" horiz-adv-x="1253" 
d="M684 1675q65 0 113.5 -42.5t48.5 -114.5q0 -70 -49 -112t-113 -42q-70 0 -117 41.5t-47 112.5q0 74 46.5 115.5t117.5 41.5zM1110 373l109 -248q-135 -75 -261.5 -109t-271.5 -34q-287 0 -451.5 167.5t-164.5 473.5q0 309 168 478t469 169q251 0 467 -113l-101 -250
q-223 64 -350 64q-156 0 -235.5 -87.5t-79.5 -260.5q0 -154 80.5 -248t213.5 -94q103 0 192 20t216 72z" />
    <glyph glyph-name="cdotaccent" unicode="&#x10b;" horiz-adv-x="1007" 
d="M532 1444q68 0 119 -45t51 -121q0 -73 -51.5 -117.5t-118.5 -44.5q-73 0 -121.5 44t-48.5 118q0 77 48.5 121.5t121.5 44.5zM883 317l96 -186q-101 -79 -203 -114t-241 -35q-99 0 -185 32.5t-151 94.5t-102.5 159.5t-37.5 220.5q0 126 35.5 225.5t100 163.5t152 97
t192.5 33q220 0 405 -109l-90 -207q-132 56 -270 56q-97 0 -150 -67.5t-53 -191.5q0 -119 52 -183t149 -64q157 0 301 75z" />
    <glyph glyph-name="Ccaron" unicode="&#x10c;" horiz-adv-x="1253" 
d="M776 1335h-186l-268 283l81 84l281 -170l281 170l79 -84zM1110 373l109 -248q-135 -75 -261.5 -109t-271.5 -34q-287 0 -451.5 167.5t-164.5 473.5q0 309 168 478t469 169q251 0 467 -113l-101 -250q-223 64 -350 64q-156 0 -235.5 -87.5t-79.5 -260.5q0 -154 80.5 -248
t213.5 -94q103 0 192 20t216 72z" />
    <glyph glyph-name="ccaron" unicode="&#x10d;" horiz-adv-x="1007" 
d="M623 1090h-179l-260 286l78 82q55 -34 150 -91.5t120 -72.5q30 18 123.5 74t147.5 90l78 -82zM883 317l96 -186q-101 -79 -203 -114t-241 -35q-99 0 -185 32.5t-151 94.5t-102.5 159.5t-37.5 220.5q0 126 35.5 225.5t100 163.5t152 97t192.5 33q220 0 405 -109l-90 -207
q-132 56 -270 56q-97 0 -150 -67.5t-53 -191.5q0 -119 52 -183t149 -64q157 0 301 75z" />
    <glyph glyph-name="Dcaron" unicode="&#x10e;" horiz-adv-x="1345" 
d="M707 1319h-189l-266 283l80 86l280 -170l281 170l82 -86zM119 1249h442q337 0 526 -169.5t189 -456.5q0 -283 -192 -453t-523 -170h-442v1249zM453 293h108q189 0 283 81t94 249q0 171 -91.5 252t-285.5 81h-108v-663z" />
    <glyph glyph-name="dcaron" unicode="&#x10f;" horiz-adv-x="1173" 
d="M748 0v111q-48 -47 -80 -70.5t-86.5 -41t-128.5 -17.5q-80 0 -149 30t-125 91t-88 164t-32 237q0 257 98 380.5t275 123.5q94 0 170 -31.5t146 -104.5v449h327v-1321h-327zM1391 1321v-25q-15 -195 -93 -352h-145l6 377h232zM748 356v267q-83 112 -199 112
q-168 0 -168 -231q0 -130 47.5 -192t130.5 -62q65 0 107.5 25.5t81.5 80.5z" />
    <glyph glyph-name="Dcroat" unicode="&#x110;" horiz-adv-x="1341" 
d="M115 1249h442q337 0 526 -169.5t189 -456.5q0 -283 -192 -453t-523 -170h-442v494h-105v256h105v499zM449 293h108q189 0 283 81t94 249q0 171 -91.5 252t-285.5 81h-108v-206h198v-256h-198v-201z" />
    <glyph glyph-name="dcroat" unicode="&#x111;" horiz-adv-x="1179" 
d="M1145 1061h-70v-1061h-327v111q-48 -47 -80 -70.5t-86.5 -41t-128.5 -17.5q-80 0 -149 30t-125 91t-88 164t-32 237q0 257 98 380.5t275 123.5q94 0 170 -31.5t146 -104.5v189h-240v149h240v111h327v-111h70v-149zM748 356v267q-83 112 -199 112q-168 0 -168 -231
q0 -130 47.5 -192t130.5 -62q65 0 107.5 25.5t81.5 80.5z" />
    <glyph glyph-name="Emacron" unicode="&#x112;" horiz-adv-x="1146" 
d="M872 1380h-614v224h614v-224zM1057 0h-938v1249h921v-303h-587v-188h501v-287h-501v-174h604v-297z" />
    <glyph glyph-name="emacron" unicode="&#x113;" horiz-adv-x="1083" 
d="M866 1122h-630v232h630v-232zM924 326l92 -185q-111 -84 -221 -121.5t-236 -37.5q-233 0 -366.5 129t-133.5 376q0 254 133 387.5t369 133.5q213 0 336.5 -122.5t124.5 -353.5q0 -65 -8 -133h-639q34 -163 198 -163q100 0 179.5 20.5t171.5 69.5zM373 594h368
q-12 186 -180 186q-162 0 -188 -186z" />
    <glyph glyph-name="Edotaccent" unicode="&#x116;" horiz-adv-x="1146" 
d="M565 1659q66 0 115 -42.5t49 -113.5t-49 -113t-115 -42q-70 0 -116 41t-46 114t46 114.5t116 41.5zM1057 0h-938v1249h921v-303h-587v-188h501v-287h-501v-174h604v-297z" />
    <glyph glyph-name="edotaccent" unicode="&#x117;" horiz-adv-x="1083" 
d="M545 1442q67 0 118.5 -45t51.5 -119t-51.5 -119t-118.5 -45q-74 0 -123 44t-49 120t49 120t123 44zM924 326l92 -185q-111 -84 -221 -121.5t-236 -37.5q-233 0 -366.5 129t-133.5 376q0 254 133 387.5t369 133.5q213 0 336.5 -122.5t124.5 -353.5q0 -65 -8 -133h-639
q34 -163 198 -163q100 0 179.5 20.5t171.5 69.5zM373 594h368q-12 186 -180 186q-162 0 -188 -186z" />
    <glyph glyph-name="Eogonek" unicode="&#x118;" horiz-adv-x="1146" 
d="M1057 0h-148q-83 -8 -130.5 -36t-47.5 -73q0 -37 33.5 -59t91.5 -22q30 0 160 20l33 -156q-138 -55 -283 -55q-108 0 -174 51.5t-66 134.5q0 122 121 195h-528v1249h921v-303h-587v-188h501v-287h-501v-174h604v-297z" />
    <glyph glyph-name="eogonek" unicode="&#x119;" horiz-adv-x="1083" 
d="M924 326l92 -185q-172 -131 -367 -155q-48 -12 -74 -36.5t-26 -58.5q0 -37 33 -59t90 -22q32 0 162 20l32 -156q-141 -55 -282 -55q-110 0 -176 51t-66 135q0 54 28 102.5t79 82.5q-184 30 -287 156t-103 341q0 254 133 387.5t369 133.5q213 0 336.5 -122.5t124.5 -353.5
q0 -65 -8 -133h-639q34 -163 198 -163q100 0 179.5 20.5t171.5 69.5zM373 594h368q-12 186 -180 186q-162 0 -188 -186z" />
    <glyph glyph-name="Ecaron" unicode="&#x11a;" horiz-adv-x="1146" 
d="M659 1319h-188l-266 283l80 86l280 -170l281 170l82 -86zM1057 0h-938v1249h921v-303h-587v-188h501v-287h-501v-174h604v-297z" />
    <glyph glyph-name="ecaron" unicode="&#x11b;" horiz-adv-x="1083" 
d="M627 1090h-178l-261 286l78 82q54 -34 147.5 -90t123.5 -74q25 15 120 72.5t150 91.5l78 -82zM924 326l92 -185q-111 -84 -221 -121.5t-236 -37.5q-233 0 -366.5 129t-133.5 376q0 254 133 387.5t369 133.5q213 0 336.5 -122.5t124.5 -353.5q0 -65 -8 -133h-639
q34 -163 198 -163q100 0 179.5 20.5t171.5 69.5zM373 594h368q-12 186 -180 186q-162 0 -188 -186z" />
    <glyph glyph-name="Gbreve" unicode="&#x11e;" horiz-adv-x="1378" 
d="M815 1622h182q0 -135 -78.5 -207t-232.5 -72q-152 0 -230.5 72t-78.5 207h182q3 -43 36 -71.5t91 -28.5q60 0 93.5 29t35.5 71zM1288 711v-574q-166 -83 -308.5 -119t-297.5 -36q-285 0 -448.5 167.5t-163.5 473.5q0 291 170.5 469t451.5 178q125 0 270 -28.5t271 -84.5
l-84 -248q-132 36 -228.5 53t-197.5 17q-142 0 -228.5 -98t-86.5 -258q0 -167 76 -257t212 -90q173 0 303 48v125h-319v262h608z" />
    <glyph glyph-name="gbreve" unicode="&#x11f;" horiz-adv-x="1163" 
d="M729 1407h182q0 -293 -311 -293q-309 0 -309 293h182q0 -52 33.5 -83.5t93.5 -31.5q62 0 95.5 31.5t33.5 83.5zM1073 989v-817q0 -277 -124.5 -402.5t-377.5 -125.5q-111 0 -231.5 23t-204.5 61l43 223q234 -60 348 -60t166.5 63.5t52.5 217.5v6q-62 -76 -127.5 -105.5
t-179.5 -29.5q-177 0 -278 120.5t-101 354.5q0 251 94 370.5t279 119.5q162 0 313 -129v110h328zM745 403v220q-83 112 -196 112q-86 0 -127 -49.5t-41 -167.5q0 -120 45.5 -171.5t132.5 -51.5q65 0 106 25.5t80 82.5z" />
    <glyph glyph-name="Gdotaccent" unicode="&#x120;" horiz-adv-x="1378" 
d="M686 1659q66 0 115 -42.5t49 -113.5t-49 -113t-115 -42q-70 0 -116 41t-46 114t46 114.5t116 41.5zM1288 711v-574q-166 -83 -308.5 -119t-297.5 -36q-285 0 -448.5 167.5t-163.5 473.5q0 291 170.5 469t451.5 178q125 0 270 -28.5t271 -84.5l-84 -248q-132 36 -228.5 53
t-197.5 17q-142 0 -228.5 -98t-86.5 -258q0 -167 76 -257t212 -90q173 0 303 48v125h-319v262h608z" />
    <glyph glyph-name="gdotaccent" unicode="&#x121;" horiz-adv-x="1163" 
d="M586 1444q68 0 119 -45t51 -121q0 -73 -51.5 -117.5t-118.5 -44.5q-73 0 -121.5 44t-48.5 118q0 77 48.5 121.5t121.5 44.5zM1073 989v-817q0 -277 -124.5 -402.5t-377.5 -125.5q-111 0 -231.5 23t-204.5 61l43 223q234 -60 348 -60t166.5 63.5t52.5 217.5v6
q-62 -76 -127.5 -105.5t-179.5 -29.5q-177 0 -278 120.5t-101 354.5q0 251 94 370.5t279 119.5q162 0 313 -129v110h328zM745 403v220q-83 112 -196 112q-86 0 -127 -49.5t-41 -167.5q0 -120 45.5 -171.5t132.5 -51.5q65 0 106 25.5t80 82.5z" />
    <glyph glyph-name="Gcommaaccent" unicode="&#x122;" horiz-adv-x="1378" 
d="M1288 711v-574q-166 -83 -308.5 -119t-297.5 -36q-285 0 -448.5 167.5t-163.5 473.5q0 291 170.5 469t451.5 178q125 0 270 -28.5t271 -84.5l-84 -248q-132 36 -228.5 53t-197.5 17q-142 0 -228.5 -98t-86.5 -258q0 -167 76 -257t212 -90q173 0 303 48v125h-319v262h608z
M598 -481l-31 80q68 45 84 73q-39 12 -62.5 45.5t-23.5 75.5q0 56 35.5 92.5t91.5 36.5q58 0 93.5 -39.5t35.5 -99.5q0 -90 -61 -162.5t-162 -101.5z" />
    <glyph glyph-name="gcommaaccent" unicode="&#x123;" horiz-adv-x="1163" 
d="M680 1552l37 -88q-65 -40 -96 -78q46 -15 73 -52.5t27 -86.5q0 -62 -41 -103.5t-105 -41.5t-105.5 46t-41.5 114q0 96 59 164.5t193 125.5zM1073 989v-817q0 -277 -124.5 -402.5t-377.5 -125.5q-111 0 -231.5 23t-204.5 61l43 223q234 -60 348 -60t166.5 63.5t52.5 217.5
v6q-62 -76 -127.5 -105.5t-179.5 -29.5q-177 0 -278 120.5t-101 354.5q0 251 94 370.5t279 119.5q162 0 313 -129v110h328zM745 403v220q-83 112 -196 112q-86 0 -127 -49.5t-41 -167.5q0 -120 45.5 -171.5t132.5 -51.5q65 0 106 25.5t80 82.5z" />
    <glyph glyph-name="Hbar" unicode="&#x126;" horiz-adv-x="1396" 
d="M1358 866h-88v-866h-334v416h-475v-416h-332v866h-90v219h90v164h332v-164h475v164h334v-164h88v-219zM936 866h-475v-161h475v161z" />
    <glyph glyph-name="hbar" unicode="&#x127;" horiz-adv-x="1155" 
d="M424 1061v-223q78 88 156 129t170 41q160 0 235.5 -90.5t75.5 -288.5v-629h-328v516q0 94 -23.5 130t-91.5 36q-104 0 -194 -115v-567h-328v1061h-65v149h65v111h328v-111h244v-149h-244z" />
    <glyph glyph-name="Imacron" unicode="&#x12a;" horiz-adv-x="571" 
d="M594 1380h-614v224h614v-224zM453 0h-334v1249h334v-1249z" />
    <glyph glyph-name="imacron" unicode="&#x12b;" horiz-adv-x="550" 
d="M592 1153h-633v231h633v-231zM440 0h-327v989h327v-989z" />
    <glyph glyph-name="Iogonek" unicode="&#x12e;" horiz-adv-x="571" 
d="M496 -170l32 -156q-141 -55 -282 -55q-110 0 -176 51t-66 135q0 58 32 108.5t89 86.5h-6v1249h334v-1249h-64q-84 -8 -131 -36t-47 -73q0 -37 33 -59t90 -22q32 0 162 20z" />
    <glyph glyph-name="iogonek" unicode="&#x12f;" horiz-adv-x="550" 
d="M276 1114q-74 0 -123 44t-49 120t49 120t123 44q67 0 118.5 -45t51.5 -119t-51.5 -119t-118.5 -45zM504 -170l33 -156q-138 -55 -283 -55q-110 0 -176 51t-66 135q0 58 32 109t91 86h-22v989h327v-989h-43q-83 -8 -130.5 -36t-47.5 -73q0 -37 33.5 -59t91.5 -22
q30 0 160 20z" />
    <glyph glyph-name="Idotaccent" unicode="&#x130;" horiz-adv-x="571" 
d="M287 1659q66 0 115 -42.5t49 -113.5t-49 -113t-115 -42q-70 0 -116 41t-46 114t46 114.5t116 41.5zM453 0h-334v1249h334v-1249z" />
    <glyph glyph-name="dotlessi" unicode="&#x131;" horiz-adv-x="550" 
d="M440 0h-327v989h327v-989z" />
    <glyph glyph-name="IJ" unicode="&#x132;" horiz-adv-x="1564" 
d="M453 0h-334v1249h334v-1249zM1438 1249v-753q0 -267 -100.5 -390.5t-323.5 -123.5q-198 0 -420 110l76 242q158 -49 266 -49q85 0 126.5 50t41.5 161v753h334z" />
    <glyph glyph-name="ij" unicode="&#x133;" horiz-adv-x="1060" 
d="M92 1278q0 79 53.5 122.5t130.5 43.5t131 -43.5t54 -122.5q0 -80 -54 -124t-131 -44t-130.5 44t-53.5 124zM782 1110q-77 0 -130.5 44t-53.5 124q0 79 53.5 122.5t130.5 43.5t131 -43.5t54 -122.5q0 -80 -54 -124t-131 -44zM440 0h-327v989h327v-989zM948 989v-870
q0 -203 -87 -317t-304 -162l-65 217q79 42 104 97.5t25 164.5v870h327z" />
    <glyph glyph-name="Kcommaaccent" unicode="&#x136;" horiz-adv-x="1320" 
d="M614 430l-161 -192v-238h-334v1249h334v-553l467 553h360v-22l-449 -535l469 -669v-23h-376zM569 -481l-30 80q67 42 84 73q-39 12 -62.5 45.5t-23.5 75.5q0 56 35.5 92.5t93.5 36.5q56 0 91.5 -40t35.5 -99q0 -89 -61.5 -162t-162.5 -102z" />
    <glyph glyph-name="kcommaaccent" unicode="&#x137;" horiz-adv-x="1142" 
d="M1116 989v-22l-375 -400l383 -544v-23h-366l-232 326l-98 -109v-217h-328v1321h328v-676l322 344h366zM479 -481l-28 80q64 42 81 73q-38 12 -62 46t-24 75q0 56 35.5 92.5t93.5 36.5q56 0 91.5 -40t35.5 -99q0 -90 -60.5 -162.5t-162.5 -101.5z" />
    <glyph glyph-name="Lacute" unicode="&#x139;" horiz-adv-x="1064" 
d="M584 1575v-66q-98 -66 -180.5 -107.5t-206.5 -88.5l-80 82l233 307zM1010 0h-891v1249h334v-946h557v-303z" />
    <glyph glyph-name="lacute" unicode="&#x13a;" horiz-adv-x="528" 
d="M557 1683v-63q-163 -122 -387 -213l-80 84l264 338zM428 0h-328v1321h328v-1321z" />
    <glyph glyph-name="Lcommaaccent" unicode="&#x13b;" horiz-adv-x="1064" 
d="M1010 0h-891v1249h334v-946h557v-303zM446 -481l-28 80q64 42 84 73q-39 12 -62.5 45.5t-23.5 75.5q0 56 35.5 92.5t91.5 36.5q58 0 93.5 -39.5t35.5 -99.5q0 -90 -62 -162.5t-164 -101.5z" />
    <glyph glyph-name="lcommaaccent" unicode="&#x13c;" horiz-adv-x="528" 
d="M428 0h-328v1321h328v-1321zM170 -481l-29 80q65 43 82 73q-38 12 -62 46t-24 75q0 56 35.5 92.5t93.5 36.5q56 0 91.5 -40t35.5 -99q0 -90 -60.5 -162.5t-162.5 -101.5z" />
    <glyph glyph-name="Lcaron" unicode="&#x13d;" horiz-adv-x="1064" 
d="M1010 0h-891v1249h334v-946h557v-303zM895 1249v-24q-15 -199 -92 -353h-146l7 377h231z" />
    <glyph glyph-name="lcaron" unicode="&#x13e;" horiz-adv-x="550" 
d="M428 0h-328v1321h328v-1321zM762 1321v-25q-15 -205 -92 -352h-144l4 377h232z" />
    <glyph glyph-name="Ldot" unicode="&#x13f;" horiz-adv-x="1064" 
d="M1010 0h-891v1249h334v-946h557v-303zM604 690q0 79 51 131.5t133 52.5t133.5 -52.5t51.5 -131.5t-51.5 -132.5t-133.5 -53.5t-133 53.5t-51 132.5z" />
    <glyph glyph-name="ldot" unicode="&#x140;" horiz-adv-x="901" 
d="M428 0h-328v1321h328v-1321zM512 655q0 79 51 132t133 53t133.5 -53t51.5 -132t-51.5 -132.5t-133.5 -53.5t-133 53.5t-51 132.5z" />
    <glyph glyph-name="Lslash" unicode="&#x141;" horiz-adv-x="1081" 
d="M1004 303v-303h-889v475l-95 -26v258l95 26v516h334v-424l260 72v-258l-260 -72v-264h555z" />
    <glyph glyph-name="lslash" unicode="&#x142;" horiz-adv-x="550" 
d="M535 639l-101 -33v-606h-328v494l-86 -29v258l86 29v569h328v-459l101 35v-258z" />
    <glyph glyph-name="Nacute" unicode="&#x143;" horiz-adv-x="1402" 
d="M975 1575v-66q-97 -65 -180 -107t-207 -89l-80 82l231 307zM1284 0h-303l-528 705v-705h-334v1249h303l528 -712v712h334v-1249z" />
    <glyph glyph-name="nacute" unicode="&#x144;" horiz-adv-x="1159" 
d="M856 1352v-66q-160 -118 -387 -213l-80 84l262 338zM428 989v-129q164 148 326 148q160 0 235.5 -90.5t75.5 -288.5v-629h-328v537q0 94 -23 129.5t-91 35.5q-107 0 -195 -112v-590h-328v989h328z" />
    <glyph glyph-name="Ncommaaccent" unicode="&#x145;" horiz-adv-x="1402" 
d="M1284 0h-303l-528 705v-705h-334v1249h303l528 -712v712h334v-1249zM602 -481l-31 80q68 45 84 73q-39 12 -62.5 45.5t-23.5 75.5q0 56 35.5 92.5t91.5 36.5q58 0 93.5 -39.5t35.5 -99.5q0 -90 -61 -162.5t-162 -101.5z" />
    <glyph glyph-name="ncommaaccent" unicode="&#x146;" horiz-adv-x="1159" 
d="M428 989v-129q164 148 326 148q160 0 235.5 -90.5t75.5 -288.5v-629h-328v537q0 94 -23 129.5t-91 35.5q-107 0 -195 -112v-590h-328v989h328zM483 -481l-28 80q65 43 82 73q-38 12 -62 46t-24 75q0 56 35.5 92.5t93.5 36.5q56 0 91.5 -40t35.5 -99q0 -90 -61 -162.5
t-163 -101.5z" />
    <glyph glyph-name="Ncaron" unicode="&#x147;" horiz-adv-x="1402" 
d="M795 1319h-189l-266 283l80 86l280 -170l281 170l82 -86zM1284 0h-303l-528 705v-705h-334v1249h303l528 -712v712h334v-1249z" />
    <glyph glyph-name="ncaron" unicode="&#x148;" horiz-adv-x="1159" 
d="M672 1090h-178l-258 284l77 82q42 -26 86.5 -53t99 -59t85.5 -50q31 19 123 73.5t145 88.5l78 -82zM428 989v-129q164 148 326 148q160 0 235.5 -90.5t75.5 -288.5v-629h-328v537q0 94 -23 129.5t-91 35.5q-107 0 -195 -112v-590h-328v989h328z" />
    <glyph glyph-name="Omacron" unicode="&#x14c;" horiz-adv-x="1402" 
d="M1010 1380h-617v224h617v-224zM702 1270q297 0 464 -169.5t167 -477.5q0 -307 -167 -474t-464 -167q-298 0 -465 167t-167 474q0 309 167 478t465 169zM702 281q140 0 216.5 87.5t76.5 254.5q0 171 -76.5 259.5t-216.5 88.5q-141 0 -217.5 -88.5t-76.5 -259.5
q0 -167 76.5 -254.5t217.5 -87.5z" />
    <glyph glyph-name="omacron" unicode="&#x14d;" horiz-adv-x="1148" 
d="M889 1155h-631v231h631v-231zM573 1008q245 0 381 -135.5t136 -383.5q0 -242 -136 -374.5t-381 -132.5q-244 0 -379 132.5t-135 374.5q0 248 135 383.5t379 135.5zM573 242q97 0 146 57.5t49 189.5q0 138 -49 198.5t-146 60.5q-96 0 -144 -60.5t-48 -198.5
q0 -133 47.5 -190t144.5 -57z" />
    <glyph glyph-name="Ohungarumlaut" unicode="&#x150;" horiz-adv-x="1402" 
d="M791 1599v-61q-173 -136 -295 -219l-107 70l193 319zM1163 1599v-61q-160 -129 -293 -219l-106 70l190 319zM702 1270q297 0 464 -169.5t167 -477.5q0 -307 -167 -474t-464 -167q-298 0 -465 167t-167 474q0 309 167 478t465 169zM702 281q140 0 216.5 87.5t76.5 254.5
q0 171 -76.5 259.5t-216.5 88.5q-141 0 -217.5 -88.5t-76.5 -259.5q0 -167 76.5 -254.5t217.5 -87.5z" />
    <glyph glyph-name="ohungarumlaut" unicode="&#x151;" horiz-adv-x="1148" 
d="M664 1386v-63q-123 -117 -293 -233l-92 69l192 336zM1022 1386v-63q-123 -117 -293 -233l-92 69l192 336zM573 1008q245 0 381 -135.5t136 -383.5q0 -242 -136 -374.5t-381 -132.5q-244 0 -379 132.5t-135 374.5q0 248 135 383.5t379 135.5zM573 242q97 0 146 57.5
t49 189.5q0 138 -49 198.5t-146 60.5q-96 0 -144 -60.5t-48 -198.5q0 -133 47.5 -190t144.5 -57z" />
    <glyph glyph-name="OE" unicode="&#x152;" horiz-adv-x="1923" 
d="M1833 297v-297h-938v12q-85 -30 -193 -30q-298 0 -465 166.5t-167 472.5q0 310 167 479.5t465 169.5q105 0 193 -31v10h922v-303h-588v-188h502v-287h-502v-174h604zM895 344v563q-73 64 -195 64q-140 0 -216 -88.5t-76 -259.5q0 -167 76 -254.5t216 -87.5q123 0 195 63z
" />
    <glyph glyph-name="oe" unicode="&#x153;" horiz-adv-x="1798" 
d="M1729 399h-637q29 -163 196 -163q100 0 179 20.5t171 69.5l93 -185q-111 -84 -221 -121.5t-236 -37.5q-218 0 -346 110q-131 -110 -355 -110q-244 0 -379 132.5t-135 374.5q0 248 135 383.5t379 135.5q223 0 357 -113q128 113 346 113q213 0 336.5 -122.5t124.5 -353.5
q0 -65 -8 -133zM1087 594h369q-12 186 -180 186q-163 0 -189 -186zM573 242q97 0 146 57.5t49 189.5q0 138 -49 198.5t-146 60.5q-96 0 -144 -60.5t-48 -198.5q0 -133 47.5 -190t144.5 -57z" />
    <glyph glyph-name="Racute" unicode="&#x154;" horiz-adv-x="1245" 
d="M877 1575v-66q-96 -65 -179.5 -106.5t-208.5 -89.5l-79 82l231 307zM1229 27v-27h-357l-249 348h-170v-348h-334v1249h518q264 0 407.5 -121.5t143.5 -345.5q0 -274 -238 -379zM453 608h188q104 0 160.5 45.5t56.5 128.5q0 86 -56.5 133.5t-160.5 47.5h-188v-355z" />
    <glyph glyph-name="racute" unicode="&#x155;" horiz-adv-x="835" 
d="M684 1352v-66q-160 -118 -387 -213l-80 84l262 338zM428 989v-182q52 101 116 151t148 50q59 0 123 -7l-22 -329q-49 4 -117 4q-98 0 -158.5 -40t-89.5 -142v-494h-328v989h328z" />
    <glyph glyph-name="Rcommaaccent" unicode="&#x156;" horiz-adv-x="1245" 
d="M1229 27v-27h-357l-249 348h-170v-348h-334v1249h518q264 0 407.5 -121.5t143.5 -345.5q0 -274 -238 -379zM453 608h188q104 0 160.5 45.5t56.5 128.5q0 86 -56.5 133.5t-160.5 47.5h-188v-355zM532 -481l-30 80q68 45 84 73q-39 12 -62.5 45.5t-23.5 75.5
q0 56 35.5 92.5t91.5 36.5q58 0 93.5 -39.5t35.5 -99.5q0 -89 -61.5 -162t-162.5 -102z" />
    <glyph glyph-name="rcommaaccent" unicode="&#x157;" horiz-adv-x="835" 
d="M428 989v-182q52 101 116 151t148 50q59 0 123 -7l-22 -329q-49 4 -117 4q-98 0 -158.5 -40t-89.5 -142v-494h-328v989h328zM166 -481l-29 80q68 45 84 73q-39 12 -62.5 45.5t-23.5 75.5q0 56 35.5 92.5t91.5 36.5q58 0 93.5 -39.5t35.5 -99.5q0 -90 -61.5 -162.5
t-163.5 -101.5z" />
    <glyph glyph-name="Rcaron" unicode="&#x158;" horiz-adv-x="1245" 
d="M510 1319l-268 283l80 86l280 -170l281 170l82 -86l-269 -283h-186zM1229 27v-27h-357l-249 348h-170v-348h-334v1249h518q264 0 407.5 -121.5t143.5 -345.5q0 -274 -238 -379zM453 608h188q104 0 160.5 45.5t56.5 128.5q0 86 -56.5 133.5t-160.5 47.5h-188v-355z" />
    <glyph glyph-name="rcaron" unicode="&#x159;" horiz-adv-x="872" 
d="M537 1090h-179l-258 284l78 82q42 -26 86.5 -53t99 -59t85.5 -50q31 19 123 73.5t145 88.5l78 -82zM465 989v-182q52 101 116 151t148 50q59 0 123 -7l-23 -329q-49 4 -116 4q-98 0 -158.5 -40t-89.5 -142v-494h-328v989h328z" />
    <glyph glyph-name="Sacute" unicode="&#x15a;" horiz-adv-x="1191" 
d="M866 1575v-66q-97 -65 -180 -107t-207 -89l-80 82l232 307zM1079 1151l-98 -244q-142 53 -232 73.5t-174 20.5q-57 0 -94 -21.5t-37 -59.5q0 -22 10.5 -37.5t48.5 -35.5t93.5 -40.5t163.5 -56.5q191 -65 263.5 -149t72.5 -241q0 -173 -121 -275.5t-338 -102.5
q-126 0 -295.5 47.5t-294.5 122.5l125 260q267 -146 446 -146q55 0 85 22t30 62q0 28 -19 46.5t-75 40.5t-180 59q-357 106 -357 399q0 165 115.5 270t321.5 105q134 0 259.5 -25t280.5 -94z" />
    <glyph glyph-name="sacute" unicode="&#x15b;" horiz-adv-x="976" 
d="M723 1358v-64q-163 -122 -387 -213l-80 84l264 338zM895 932l-80 -225q-219 59 -344 59q-70 0 -70 -55q0 -13 4.5 -23t17 -18.5t24.5 -15t36.5 -14t44 -12.5t56 -14.5t63.5 -17.5q149 -41 207.5 -101.5t58.5 -185.5q0 -160 -105.5 -243.5t-307.5 -83.5q-209 0 -443 116
l78 219q249 -92 369 -92q82 0 82 49q0 11 -4 19.5t-14.5 16t-21 13t-32 13t-39.5 12.5t-51 15t-59 18q-271 84 -271 291q0 158 93 248t262 90q208 0 446 -78z" />
    <glyph glyph-name="Scedilla" unicode="&#x15e;" horiz-adv-x="1191" 
d="M1079 1151l-98 -244q-142 53 -232 73.5t-174 20.5q-57 0 -94 -21.5t-37 -59.5q0 -22 10.5 -37.5t48.5 -35.5t93.5 -40.5t163.5 -56.5q191 -65 263.5 -149t72.5 -241q0 -173 -121 -275.5t-338 -102.5h-31v-43q113 -9 155 -46.5t42 -119.5q0 -85 -54 -139t-149 -54
q-115 0 -242 45l29 121q87 -18 139 -18q82 0 82 61q0 42 -22.5 58t-81.5 16h-55l28 135q-245 43 -430 154l125 260q267 -146 446 -146q55 0 85 22t30 62q0 28 -19 46.5t-75 40.5t-180 59q-357 106 -357 399q0 165 115.5 270t321.5 105q134 0 259.5 -25t280.5 -94z" />
    <glyph glyph-name="scedilla" unicode="&#x15f;" horiz-adv-x="976" 
d="M895 932l-80 -225q-219 59 -344 59q-70 0 -70 -55q0 -13 4.5 -23t17 -18.5t24.5 -15t36.5 -14t44 -12.5t56 -14.5t63.5 -17.5q149 -41 207.5 -101.5t58.5 -185.5q0 -160 -105.5 -243.5t-307.5 -83.5h-4v-43q112 -9 154 -46.5t42 -119.5q0 -85 -54 -139t-149 -54
q-114 0 -241 45l28 121q87 -18 140 -18q82 0 82 61q0 42 -22.5 58t-82.5 16h-55l27 129q-145 23 -308 106l78 219q249 -92 369 -92q82 0 82 49q0 11 -4 19.5t-14.5 16t-21 13t-32 13t-39.5 12.5t-51 15t-59 18q-271 84 -271 291q0 158 93 248t262 90q208 0 446 -78z" />
    <glyph glyph-name="Scaron" unicode="&#x160;" horiz-adv-x="1191" 
d="M686 1319h-188l-267 283l80 86l281 -170l280 170l82 -86zM1079 1151l-98 -244q-142 53 -232 73.5t-174 20.5q-57 0 -94 -21.5t-37 -59.5q0 -22 10.5 -37.5t48.5 -35.5t93.5 -40.5t163.5 -56.5q191 -65 263.5 -149t72.5 -241q0 -173 -121 -275.5t-338 -102.5
q-126 0 -295.5 47.5t-294.5 122.5l125 260q267 -146 446 -146q55 0 85 22t30 62q0 28 -19 46.5t-75 40.5t-180 59q-357 106 -357 399q0 165 115.5 270t321.5 105q134 0 259.5 -25t280.5 -94z" />
    <glyph glyph-name="scaron" unicode="&#x161;" horiz-adv-x="976" 
d="M541 1096h-179l-260 286l78 82q54 -34 147.5 -90t123.5 -74q25 15 120 72.5t150 91.5l78 -82zM895 932l-80 -225q-219 59 -344 59q-70 0 -70 -55q0 -13 4.5 -23t17 -18.5t24.5 -15t36.5 -14t44 -12.5t56 -14.5t63.5 -17.5q149 -41 207.5 -101.5t58.5 -185.5
q0 -160 -105.5 -243.5t-307.5 -83.5q-209 0 -443 116l78 219q249 -92 369 -92q82 0 82 49q0 11 -4 19.5t-14.5 16t-21 13t-32 13t-39.5 12.5t-51 15t-59 18q-271 84 -271 291q0 158 93 248t262 90q208 0 446 -78z" />
    <glyph glyph-name="Tcaron" unicode="&#x164;" horiz-adv-x="1179" 
d="M684 1319h-188l-267 283l80 86l281 -170l280 170l82 -86zM1143 946h-387v-946h-334v946h-385v303h1106v-303z" />
    <glyph glyph-name="tcaron" unicode="&#x165;" horiz-adv-x="825" 
d="M795 1427v-24q-15 -195 -93 -352h-145l6 376h232zM743 250l31 -197q-54 -30 -132.5 -48.5t-154.5 -18.5q-174 0 -250.5 87t-76.5 289v359h-140v268h140v219h327v-219h242v-268h-242v-344q0 -69 27 -100t96 -31q78 0 133 4z" />
    <glyph glyph-name="Umacron" unicode="&#x16a;" horiz-adv-x="1357" 
d="M987 1380h-616v224h616v-224zM1249 1249v-653q0 -312 -141 -463t-430 -151q-288 0 -428.5 151.5t-140.5 462.5v653h333v-653q0 -315 236 -315q237 0 237 315v653h334z" />
    <glyph glyph-name="umacron" unicode="&#x16b;" horiz-adv-x="1165" 
d="M897 1153h-631v231h631v-231zM733 0v117q-123 -81 -163 -100q-74 -35 -154 -35q-160 0 -241 91.5t-81 288.5v627h328v-543q0 -93 24 -130t91 -37q106 0 196 114v596h328v-989h-328z" />
    <glyph glyph-name="Uring" unicode="&#x16e;" horiz-adv-x="1357" 
d="M678 1759q100 0 161.5 -60.5t61.5 -158.5q0 -95 -61.5 -154t-161.5 -59q-99 0 -161 59t-62 154q0 98 62 158.5t161 60.5zM678 1460q40 0 64 21.5t24 58.5q0 41 -24 63.5t-64 22.5q-39 0 -62.5 -22.5t-23.5 -63.5q0 -36 23.5 -58t62.5 -22zM1249 1249v-653
q0 -312 -141 -463t-430 -151q-288 0 -428.5 151.5t-140.5 462.5v653h333v-653q0 -315 236 -315q237 0 237 315v653h334z" />
    <glyph glyph-name="uring" unicode="&#x16f;" horiz-adv-x="1165" 
d="M582 1524q100 0 161.5 -60.5t61.5 -158.5q0 -95 -61.5 -154t-161.5 -59q-99 0 -161.5 59t-62.5 154q0 98 62.5 158.5t161.5 60.5zM582 1225q40 0 64 21.5t24 58.5q0 41 -24 63.5t-64 22.5q-39 0 -62.5 -22.5t-23.5 -63.5q0 -36 23.5 -58t62.5 -22zM733 0v117
q-123 -81 -163 -100q-74 -35 -154 -35q-160 0 -241 91.5t-81 288.5v627h328v-543q0 -93 24 -130t91 -37q106 0 196 114v596h328v-989h-328z" />
    <glyph glyph-name="Uhungarumlaut" unicode="&#x170;" horiz-adv-x="1357" 
d="M768 1599v-61q-173 -136 -295 -219l-106 70l192 319zM1141 1599v-61q-160 -129 -293 -219l-109 70l193 319zM1249 1249v-653q0 -312 -141 -463t-430 -151q-288 0 -428.5 151.5t-140.5 462.5v653h333v-653q0 -315 236 -315q237 0 237 315v653h334z" />
    <glyph glyph-name="uhungarumlaut" unicode="&#x171;" horiz-adv-x="1165" 
d="M672 1384v-61q-124 -121 -293 -236l-92 70l192 336zM1030 1384v-61q-124 -121 -293 -236l-92 70l193 336zM733 0v117q-123 -81 -163 -100q-74 -35 -154 -35q-160 0 -241 91.5t-81 288.5v627h328v-543q0 -93 24 -130t91 -37q106 0 196 114v596h328v-989h-328z" />
    <glyph glyph-name="Uogonek" unicode="&#x172;" horiz-adv-x="1357" 
d="M1249 1249v-655q0 -295 -127 -445.5t-385 -164.5q-90 -28 -90 -93q0 -37 33.5 -59t91.5 -22q30 0 160 20l33 -156q-138 -55 -283 -55q-110 0 -176 51t-66 135q0 53 28.5 102t78.5 83q-221 32 -329.5 182t-108.5 424v653h333v-653q0 -315 236 -315q237 0 237 315v653h334z
" />
    <glyph glyph-name="uogonek" unicode="&#x173;" horiz-adv-x="1165" 
d="M1042 -170l33 -156q-138 -55 -282 -55q-110 0 -176 51t-66 135q0 72 49 132.5t133 91.5v88q-123 -81 -163 -100q-74 -35 -154 -35q-160 0 -241 91.5t-81 288.5v627h328v-543q0 -93 24 -130t91 -37q106 0 196 114v596h328v-989h-125q-83 -8 -130.5 -36t-47.5 -73
q0 -37 33.5 -59t91.5 -22q29 0 159 20z" />
    <glyph glyph-name="Wcircumflex" unicode="&#x174;" horiz-adv-x="1904" 
d="M952 1475l-280 -170l-80 86l266 282h189l268 -282l-82 -86zM1538 0h-395l-156 571q-26 140 -35 193q-15 -91 -34 -193l-156 -571h-395l-328 1249h350l172 -743q16 -80 25 -162q3 20 26 162l160 743h361l159 -743q16 -93 25 -156q10 89 24 156l175 743h350z" />
    <glyph glyph-name="wcircumflex" unicode="&#x175;" horiz-adv-x="1579" 
d="M1147 1161l-78 -82q-51 31 -139.5 83.5t-130.5 78.5q-37 -22 -128 -75.5t-143 -86.5l-77 82l258 287h178zM1292 0h-368l-133 532l-134 -532h-368l-266 989h311l145 -545q14 -93 17 -122q9 59 24 122l156 545h227l156 -545q15 -72 24 -137q3 60 19 137l143 545h314z" />
    <glyph glyph-name="Ycircumflex" unicode="&#x176;" horiz-adv-x="1306" 
d="M653 1475l-280 -170l-80 86l266 282h189l268 -282l-82 -86zM819 393v-393h-332v393l-469 856h351l209 -393q46 -84 75 -158q26 67 76 158l209 393h350z" />
    <glyph glyph-name="ycircumflex" unicode="&#x177;" horiz-adv-x="1134" 
d="M924 1161l-78 -82q-52 33 -143 86.5t-128 75.5q-35 -22 -126.5 -75.5t-143.5 -86.5l-78 82l260 287h179zM784 989l344 -2q-4 -13 -30 -87.5t-32.5 -92t-30 -84t-32 -89t-30 -80t-33 -84.5t-31 -74.5t-34 -77.5t-32.5 -66.5t-36 -67.5q-111 -199 -247 -323.5t-337 -192.5
l-106 244q164 73 250 162l-365 913h336l174 -452l49 -158q61 125 110.5 265t112.5 347z" />
    <glyph glyph-name="Ydieresis" unicode="&#x178;" horiz-adv-x="1306" 
d="M440 1647q65 0 107.5 -38.5t42.5 -105.5q0 -66 -42.5 -103.5t-107.5 -37.5q-58 0 -102.5 38.5t-44.5 102.5q0 65 44.5 104.5t102.5 39.5zM866 1647q59 0 103.5 -39t44.5 -105q0 -64 -44.5 -102.5t-103.5 -38.5q-64 0 -106.5 38t-42.5 103q0 67 42.5 105.5t106.5 38.5z
M819 393v-393h-332v393l-469 856h351l209 -393q46 -84 75 -158q26 67 76 158l209 393h350z" />
    <glyph glyph-name="Zacute" unicode="&#x179;" horiz-adv-x="1239" 
d="M895 1575v-66q-97 -65 -180 -107t-207 -89l-80 82l231 307zM1165 0h-1083v244l641 710q-180 -8 -270 -8h-324v303h1028v-260l-596 -696q147 10 258 10h346v-303z" />
    <glyph glyph-name="zacute" unicode="&#x17a;" horiz-adv-x="1077" 
d="M811 1352v-66q-154 -115 -387 -213l-80 84l264 338zM1004 0h-930v205l475 522q-94 -6 -191 -6h-266v268h887v-198l-455 -533q120 6 209 6h271v-264z" />
    <glyph glyph-name="Zdotaccent" unicode="&#x17b;" horiz-adv-x="1239" 
d="M621 1659q66 0 114.5 -42.5t48.5 -113.5t-48.5 -113t-114.5 -42q-70 0 -116 41t-46 114t46 114.5t116 41.5zM1165 0h-1083v244l641 710q-180 -8 -270 -8h-324v303h1028v-260l-596 -696q147 10 258 10h346v-303z" />
    <glyph glyph-name="zdotaccent" unicode="&#x17c;" horiz-adv-x="1077" 
d="M539 1442q67 0 118.5 -45t51.5 -119t-51.5 -119t-118.5 -45q-73 0 -121.5 44t-48.5 120t48.5 120t121.5 44zM1004 0h-930v205l475 522q-94 -6 -191 -6h-266v268h887v-198l-455 -533q120 6 209 6h271v-264z" />
    <glyph glyph-name="Zcaron" unicode="&#x17d;" horiz-adv-x="1239" 
d="M715 1319h-189l-266 283l80 86l281 -170l280 170l82 -86zM1165 0h-1083v244l641 710q-180 -8 -270 -8h-324v303h1028v-260l-596 -696q147 10 258 10h346v-303z" />
    <glyph glyph-name="zcaron" unicode="&#x17e;" horiz-adv-x="1077" 
d="M629 1090h-178l-261 284l78 82q52 -33 143 -86.5t128 -75.5q35 22 126.5 75.5t143.5 86.5l78 -82zM1004 0h-930v205l475 522q-94 -6 -191 -6h-266v268h887v-198l-455 -533q120 6 209 6h271v-264z" />
    <glyph glyph-name="florin" unicode="&#x192;" horiz-adv-x="1181" 
d="M1157 1036l-90 -198q-165 53 -274 53q-100 0 -167 -71t-98 -236l-4 -21h387l-41 -209h-385l-65 -354h-320l64 354h-113l41 209h111l4 21q54 290 185 427.5t353 137.5q110 0 206.5 -25.5t205.5 -87.5z" />
    <glyph glyph-name="Acaron" unicode="&#x1cd;" horiz-adv-x="1423" 
d="M807 1319h-189l-266 283l80 86l281 -170l280 170l82 -86zM446 199l-69 -199h-359l467 1249h455l465 -1249h-356l-70 199h-533zM872 502l-124 358q-32 104 -35 115q-5 -17 -17.5 -55t-19.5 -60l-125 -358h321z" />
    <glyph glyph-name="Scommaaccent" unicode="&#x218;" horiz-adv-x="1191" 
d="M1079 1151l-98 -244q-142 53 -232 73.5t-174 20.5q-57 0 -94 -21.5t-37 -59.5q0 -22 10.5 -37.5t48.5 -35.5t93.5 -40.5t163.5 -56.5q191 -65 263.5 -149t72.5 -241q0 -173 -121 -275.5t-338 -102.5q-126 0 -295.5 47.5t-294.5 122.5l125 260q267 -146 446 -146
q55 0 85 22t30 62q0 28 -19 46.5t-75 40.5t-180 59q-357 106 -357 399q0 165 115.5 270t321.5 105q134 0 259.5 -25t280.5 -94zM494 -481l-29 80q65 43 82 73q-38 12 -62 46t-24 75q0 56 35.5 92.5t93.5 36.5q56 0 91.5 -40t35.5 -99q0 -90 -60.5 -162.5t-162.5 -101.5z" />
    <glyph glyph-name="scommaaccent" unicode="&#x219;" horiz-adv-x="976" 
d="M895 932l-80 -225q-219 59 -344 59q-70 0 -70 -55q0 -13 4.5 -23t17 -18.5t24.5 -15t36.5 -14t44 -12.5t56 -14.5t63.5 -17.5q149 -41 207.5 -101.5t58.5 -185.5q0 -160 -105.5 -243.5t-307.5 -83.5q-209 0 -443 116l78 219q249 -92 369 -92q82 0 82 49q0 11 -4 19.5
t-14.5 16t-21 13t-32 13t-39.5 12.5t-51 15t-59 18q-271 84 -271 291q0 158 93 248t262 90q208 0 446 -78zM383 -481l-29 80q65 43 82 73q-38 12 -62 46t-24 75q0 56 35.5 92.5t93.5 36.5q56 0 91.5 -40t35.5 -99q0 -90 -60.5 -162.5t-162.5 -101.5z" />
    <glyph glyph-name="uni021A" unicode="&#x21a;" horiz-adv-x="1179" 
d="M1143 946h-387v-946h-334v946h-385v303h1106v-303zM496 -481l-29 80q65 43 82 73q-38 12 -62 46t-24 75q0 56 35.5 92.5t93.5 36.5q56 0 91.5 -40t35.5 -99q0 -90 -60.5 -162.5t-162.5 -101.5z" />
    <glyph glyph-name="uni021B" unicode="&#x21b;" horiz-adv-x="804" 
d="M743 250l31 -197q-54 -30 -132.5 -48.5t-154.5 -18.5q-174 0 -250.5 87t-76.5 289v359h-140v268h140v219h327v-219h242v-268h-242v-344q0 -69 27 -100t96 -31q78 0 133 4zM328 -477l-31 80q68 45 84 73q-39 12 -62.5 45.5t-23.5 75.5q0 56 35.5 92.5t91.5 36.5
q58 0 93.5 -39.5t35.5 -99.5q0 -90 -61 -162.5t-162 -101.5z" />
    <glyph glyph-name="circumflex" unicode="&#x2c6;" 
d="M862 1161l-78 -82q-52 33 -143.5 86.5t-126.5 75.5q-31 -19 -123 -73.5t-145 -88.5l-78 82l258 287h178z" />
    <glyph glyph-name="caron" unicode="&#x2c7;" 
d="M596 1090h-178l-258 284l78 82l270 -162q31 19 123 73.5t145 88.5l78 -82z" />
    <glyph glyph-name="breve" unicode="&#x2d8;" 
d="M651 1407h183q0 -293 -312 -293q-311 0 -311 293h184q0 -54 33.5 -85.5t93.5 -31.5q61 0 95 32t34 85z" />
    <glyph glyph-name="dotaccent" unicode="&#x2d9;" 
d="M508 1442q67 0 118.5 -45t51.5 -119t-51.5 -119t-118.5 -45q-74 0 -123 44t-49 120t49 120t123 44z" />
    <glyph glyph-name="ring" unicode="&#x2da;" 
d="M508 1524q99 0 161 -60.5t62 -158.5q0 -95 -62.5 -154t-162.5 -59q-98 0 -159.5 59t-61.5 154q0 98 61.5 158.5t161.5 60.5zM506 1225q40 0 64 21.5t24 58.5q0 41 -23.5 63.5t-62.5 22.5t-63.5 -23t-24.5 -63q0 -36 24.5 -58t61.5 -22z" />
    <glyph glyph-name="ogonek" unicode="&#x2db;" 
d="M719 -170l33 -156q-138 -55 -283 -55q-108 0 -174 51.5t-66 134.5q0 98 86.5 169.5t223.5 80.5l73 -55q-83 -8 -130.5 -36t-47.5 -73q0 -37 33.5 -59t91.5 -22q30 0 160 20z" />
    <glyph glyph-name="tilde" unicode="&#x2dc;" 
d="M750 1413l118 -4q-4 -77 -29.5 -133t-63 -84t-83.5 -39.5t-90.5 -5.5t-83.5 24l-112 54q-47 23 -74.5 10.5t-67.5 -68.5l-110 4q3 76 27 131t59.5 82.5t80 38t88.5 4.5t85 -24l110 -53q25 -12 42.5 -14t35 7t31.5 24.5t37 45.5z" />
    <glyph glyph-name="hungarumlaut" unicode="&#x2dd;" 
d="M588 1384v-61q-128 -123 -295 -236l-92 70l192 336zM946 1384v-61q-128 -123 -295 -236l-92 70l193 336z" />
    <glyph glyph-name="commaturnedabovecomb" unicode="&#x312;" horiz-adv-x="0" 
d="M598 1552l37 -88q-65 -40 -96 -78q46 -15 73 -52.5t27 -86.5q0 -62 -40.5 -103.5t-104.5 -41.5t-106 46t-42 114q0 96 59 164.5t193 125.5z" />
    <glyph glyph-name="commaaccentcomb" unicode="&#x326;" horiz-adv-x="0" 
d="M408 -481l-29 80q64 42 84 73q-39 12 -62.5 45.5t-23.5 75.5q0 56 35.5 92.5t91.5 36.5q58 0 93.5 -39.5t35.5 -99.5q0 -90 -61.5 -162.5t-163.5 -101.5z" />
    <glyph glyph-name="Wgrave" unicode="&#x1e80;" horiz-adv-x="1904" 
d="M1137 1391l-78 -84q-126 47 -209 89t-180 109v64l235 129zM1538 0h-395l-156 571q-26 140 -35 193q-15 -91 -34 -193l-156 -571h-395l-328 1249h350l172 -743q16 -80 25 -162q3 20 26 162l160 743h361l159 -743q16 -93 25 -156q10 89 24 156l175 743h350z" />
    <glyph glyph-name="wgrave" unicode="&#x1e81;" horiz-adv-x="1579" 
d="M1008 1157l-80 -84q-227 95 -387 213v66l204 143zM1292 0h-368l-133 532l-134 -532h-368l-266 989h311l145 -545q14 -93 17 -122q9 59 24 122l156 545h227l156 -545q15 -72 24 -137q3 60 19 137l143 545h314z" />
    <glyph glyph-name="Wacute" unicode="&#x1e82;" horiz-adv-x="1904" 
d="M1227 1575v-66q-97 -65 -180 -107t-207 -89l-80 82l231 307zM1538 0h-395l-156 571q-26 140 -35 193q-15 -91 -34 -193l-156 -571h-395l-328 1249h350l172 -743q16 -80 25 -162q3 20 26 162l160 743h361l159 -743q16 -93 25 -156q10 89 24 156l175 743h350z" />
    <glyph glyph-name="wacute" unicode="&#x1e83;" horiz-adv-x="1579" 
d="M1063 1352v-66q-154 -115 -387 -213l-80 84l264 338zM1292 0h-368l-133 532l-134 -532h-368l-266 989h311l145 -545q14 -93 17 -122q9 59 24 122l156 545h227l156 -545q15 -72 24 -137q3 60 19 137l143 545h314z" />
    <glyph glyph-name="Wdieresis" unicode="&#x1e84;" horiz-adv-x="1904" 
d="M739 1647q65 0 107.5 -38.5t42.5 -105.5q0 -66 -42.5 -103.5t-107.5 -37.5q-58 0 -102.5 38.5t-44.5 102.5q0 65 44.5 104.5t102.5 39.5zM1165 1647q59 0 103.5 -39t44.5 -105q0 -64 -44.5 -102.5t-103.5 -38.5q-64 0 -106.5 38t-42.5 103q0 67 42.5 105.5t106.5 38.5z
M1538 0h-395l-156 571q-26 140 -35 193q-15 -91 -34 -193l-156 -571h-395l-328 1249h350l172 -743q16 -80 25 -162q3 20 26 162l160 743h361l159 -743q16 -93 25 -156q10 89 24 156l175 743h350z" />
    <glyph glyph-name="wdieresis" unicode="&#x1e85;" horiz-adv-x="1579" 
d="M578 1419q67 0 111 -39.5t44 -109.5q0 -68 -44 -108t-111 -40q-62 0 -108 40.5t-46 107.5q0 69 46 109t108 40zM1004 1419q63 0 109 -40.5t46 -108.5q0 -67 -46.5 -107.5t-108.5 -40.5q-67 0 -111.5 40t-44.5 108q0 70 44.5 109.5t111.5 39.5zM1292 0h-368l-133 532
l-134 -532h-368l-266 989h311l145 -545q14 -93 17 -122q9 59 24 122l156 545h227l156 -545q15 -72 24 -137q3 60 19 137l143 545h314z" />
    <glyph glyph-name="Ygrave" unicode="&#x1ef2;" horiz-adv-x="1306" 
d="M838 1391l-78 -84q-126 47 -209 89t-180 109v64l235 129zM819 393v-393h-332v393l-469 856h351l209 -393q46 -84 75 -158q26 67 76 158l209 393h350z" />
    <glyph glyph-name="ygrave" unicode="&#x1ef3;" horiz-adv-x="1134" 
d="M784 1157l-77 -84q-230 95 -390 213v66l205 143zM784 989l344 -2q-4 -13 -30 -87.5t-32.5 -92t-30 -84t-32 -89t-30 -80t-33 -84.5t-31 -74.5t-34 -77.5t-32.5 -66.5t-36 -67.5q-111 -199 -247 -323.5t-337 -192.5l-106 244q164 73 250 162l-365 913h336l174 -452
l49 -158q61 125 110.5 265t112.5 347z" />
    <glyph glyph-name="uni2009" unicode="&#x2009;" horiz-adv-x="174" 
 />
    <glyph glyph-name="endash" unicode="&#x2013;" horiz-adv-x="1021" 
d="M905 676v-242h-788v242h788z" />
    <glyph glyph-name="emdash" unicode="&#x2014;" horiz-adv-x="1902" 
d="M1786 676v-242h-1669v242h1669z" />
    <glyph glyph-name="quoteleft" unicode="&#x2018;" horiz-adv-x="575" 
d="M416 1356l76 -94q-60 -47 -93 -87t-53 -92q58 -15 93.5 -63t35.5 -111q0 -79 -51 -132.5t-133 -53.5t-134.5 57.5t-52.5 143.5q0 112 84.5 231t227.5 201z" />
    <glyph glyph-name="quoteright" unicode="&#x2019;" horiz-adv-x="575" 
d="M166 723l-76 94q60 47 93 87t53 91q-59 15 -94.5 63.5t-35.5 112.5q0 79 51.5 132t133.5 53t134 -57.5t52 -143.5q0 -113 -84 -231.5t-227 -200.5z" />
    <glyph glyph-name="quotesinglbase" unicode="&#x201a;" horiz-adv-x="575" 
d="M166 -260l-76 94q60 47 93 87t53 91q-59 15 -94.5 63.5t-35.5 112.5q0 79 51.5 132t133.5 53t134 -57.5t52 -143.5q0 -113 -84 -231.5t-227 -200.5z" />
    <glyph glyph-name="quotedblleft" unicode="&#x201c;" horiz-adv-x="1026" 
d="M416 1356l76 -94q-60 -47 -93 -87t-53 -92q58 -15 93.5 -63t35.5 -111q0 -79 -51 -132.5t-133 -53.5t-134.5 57.5t-52.5 143.5q0 112 84.5 231t227.5 201zM866 1356l76 -94q-59 -46 -92 -86.5t-53 -92.5q58 -15 93.5 -63t35.5 -111q0 -79 -51.5 -132.5t-133.5 -53.5
t-134 57.5t-52 143.5q0 113 84 231.5t227 200.5z" />
    <glyph glyph-name="quotedblright" unicode="&#x201d;" horiz-adv-x="1026" 
d="M166 723l-76 94q60 47 93 87t53 91q-59 15 -94.5 63.5t-35.5 112.5q0 79 51.5 132t133.5 53t134 -57.5t52 -143.5q0 -113 -84 -231.5t-227 -200.5zM616 723l-75 94q59 46 92 86t53 92q-58 15 -93.5 63t-35.5 111q0 80 51 133.5t133 53.5t134.5 -57.5t52.5 -143.5
q0 -112 -84 -231t-228 -201z" />
    <glyph glyph-name="quotedblbase" unicode="&#x201e;" horiz-adv-x="1026" 
d="M166 -260l-76 94q60 47 93 87t53 91q-59 15 -94.5 63.5t-35.5 112.5q0 79 51.5 132t133.5 53t134 -57.5t52 -143.5q0 -113 -84 -231.5t-227 -200.5zM616 -260l-75 94q59 46 92 86t53 92q-58 15 -93.5 63t-35.5 111q0 80 51 133.5t133 53.5t134.5 -57.5t52.5 -143.5
q0 -112 -84 -231t-228 -201z" />
    <glyph glyph-name="dagger" unicode="&#x2020;" horiz-adv-x="1071" 
d="M645 664l-24 -863h-172l-25 863l-338 22v170l342 23l21 370h172l22 -370l340 -23v-170z" />
    <glyph glyph-name="daggerdbl" unicode="&#x2021;" horiz-adv-x="1071" 
d="M649 397l334 -22v-170l-340 -23l-22 -370h-172l-21 370l-342 23v170l334 22v267l-334 22v170l342 23l21 370h172l22 -370l340 -23v-170l-334 -22v-267z" />
    <glyph glyph-name="bullet" unicode="&#x2022;" horiz-adv-x="710" 
d="M111 551q0 106 68 176t177 70t177.5 -70t68.5 -176t-68.5 -176t-177.5 -70t-177 70t-68 176z" />
    <glyph glyph-name="ellipsis" unicode="&#x2026;" horiz-adv-x="1687" 
d="M285 356q82 0 133 -52.5t51 -131.5t-51 -132.5t-133 -53.5t-133.5 53.5t-51.5 132.5t51.5 131.5t133.5 52.5zM844 356q82 0 133 -52.5t51 -131.5t-51 -132.5t-133 -53.5t-133.5 53.5t-51.5 132.5t51.5 131.5t133.5 52.5zM1403 356q82 0 133 -52.5t51 -131.5t-51 -132.5
t-133 -53.5t-133 53.5t-51 132.5t51 131.5t133 52.5z" />
    <glyph glyph-name="perthousand" unicode="&#x2030;" horiz-adv-x="2594" 
d="M408 1270q342 0 342 -387q0 -381 -342 -381q-345 0 -345 381q0 387 345 387zM1337 1249l-702 -1249h-182l702 1249h182zM408 692q71 0 100 46t29 145q0 103 -28.5 149.5t-100.5 46.5q-73 0 -102.5 -46.5t-29.5 -149.5q0 -99 29.5 -145t102.5 -46zM1393 752
q342 0 342 -387q0 -383 -342 -383t-342 383q0 387 342 387zM2189 752q342 0 342 -387q0 -383 -342 -383q-344 0 -344 383q0 387 344 387zM1393 172q71 0 101 47t30 146q0 101 -29.5 148.5t-101.5 47.5q-71 0 -100 -47t-29 -149q0 -99 29 -146t100 -47zM2189 172q71 0 100 47
t29 146q0 102 -29 149t-100 47q-73 0 -102 -47t-29 -149q0 -99 29.5 -146t101.5 -47z" />
    <glyph glyph-name="guilsinglleft" unicode="&#x2039;" horiz-adv-x="780" 
d="M684 803l-207 -209q-34 -34 -82 -72q37 -26 84 -69l205 -211l-162 -156l-456 438l454 441z" />
    <glyph glyph-name="guilsinglright" unicode="&#x203a;" horiz-adv-x="780" 
d="M258 86l-160 156l203 211q33 31 84 71q-58 46 -82 70l-205 209l162 162l455 -441z" />
    <glyph glyph-name="fraction" unicode="&#x2044;" horiz-adv-x="432" 
d="M659 1249l-704 -1249h-182l702 1249h184z" />
    <glyph glyph-name="Euro" unicode="&#x20ac;" horiz-adv-x="1150" 
d="M1010 332l104 -199q-105 -81 -208.5 -116t-248.5 -35q-114 0 -210 39.5t-171 130t-104 223.5h-125v127h109l-2 55v16h-107v127h119q36 210 170.5 325.5t325.5 115.5q110 0 208 -26t207 -85l-90 -211q-152 66 -278 66q-78 0 -136.5 -43.5t-83.5 -141.5h402l-37 -127h-379
v-16v-57h354l-36 -125h-293q48 -137 205 -137q159 0 305 94z" />
    <glyph glyph-name="uni2116" unicode="&#x2116;" horiz-adv-x="2371" 
d="M1280 0h-303l-528 705v-705h-334v1249h303l528 -712v712h334v-1249zM1851 1157q191 0 292.5 -104.5t101.5 -292.5q0 -185 -101 -287t-293 -102q-191 0 -292 102t-101 287q0 188 101 292.5t292 104.5zM1851 606q121 0 121 154q0 82 -29 120t-92 38t-91.5 -38t-28.5 -120
q0 -78 29 -116t91 -38zM2206 0h-709v242h709v-242z" />
    <glyph glyph-name="trademark" unicode="&#x2122;" horiz-adv-x="1605" 
d="M641 1079h-207v-438h-192v438h-211v170h610v-170zM1294 969l-133 -328h-141l-133 326l-8 -326h-189l27 608h209l149 -342q5 -9 10.5 -27t6.5 -20q2 5 6.5 22t7.5 25l151 342h207l29 -608h-190z" />
    <glyph glyph-name="oneeighth" unicode="&#x215b;" horiz-adv-x="1896" 
d="M662 473h-560v178h177v367q-105 -25 -179 -35l-39 133q140 52 256 133h170v-598h175v-178zM1364 1249l-705 -1249h-182l703 1249h184zM1442 -18q-355 0 -355 231q0 120 148 188q-115 61 -115 166q0 103 84 158t236 55q145 0 221 -52.5t76 -149.5q0 -108 -131 -162
q86 -37 127 -83.5t41 -117.5q3 -111 -86.5 -173t-245.5 -60zM1432 647q-49 0 -79 -21.5t-30 -56.5q0 -33 29 -54.5t102 -47.5q90 38 90 106q0 34 -30 54t-82 20zM1423 139q57 0 92 23.5t35 60.5q0 36 -37.5 61t-134.5 58q-90 -45 -90 -113q0 -42 37 -66t98 -24z" />
    <glyph glyph-name="threeeighths" unicode="&#x215c;" horiz-adv-x="1871" 
d="M94 1057l-43 139q181 74 324 74q124 0 201 -59t77 -158q0 -63 -32 -107.5t-84 -64.5q69 -27 102 -66.5t33 -101.5q0 -115 -80.5 -177.5t-222.5 -62.5q-191 0 -342 84l57 143q139 -65 274 -65q54 0 84.5 21t30.5 59q0 84 -162 84h-112v155h112q79 0 113.5 16t34.5 54
q0 41 -29.5 62.5t-83.5 21.5q-104 0 -252 -51zM1343 1249l-702 -1249h-182l702 1249h182zM1423 -18q-356 0 -356 231q0 119 147 188q-112 61 -112 166q0 102 83 157.5t236 55.5q144 0 220.5 -53t76.5 -149q0 -107 -133 -162q87 -37 128.5 -84t41.5 -119q1 -109 -88.5 -171
t-243.5 -60zM1411 647q-47 0 -76.5 -21.5t-29.5 -56.5q0 -33 28.5 -55t100.5 -47q92 38 92 106q0 34 -31.5 54t-83.5 20zM1405 139q55 0 90 23.5t35 60.5q0 36 -37 61t-133 58q-92 -45 -92 -113q0 -42 37.5 -66t99.5 -24z" />
    <glyph glyph-name="fiveeighths" unicode="&#x215d;" horiz-adv-x="1910" 
d="M291 1075l-12 -155q86 55 182 55q117 0 180.5 -64t63.5 -180q0 -127 -86.5 -197.5t-221.5 -70.5q-195 0 -350 84l57 151q149 -63 263 -63q60 0 98.5 28.5t38.5 77.5q0 45 -29.5 71t-81.5 26q-59 0 -127 -52l-170 25l27 438h549v-174h-381zM1368 1249l-704 -1249h-183
l703 1249h184zM1462 -18q-354 0 -354 231q0 120 147 188q-114 60 -114 166q0 103 83.5 158t235.5 55q145 0 221 -52.5t76 -149.5q0 -108 -131 -162q86 -37 127 -83.5t41 -117.5q1 -112 -88 -173.5t-244 -59.5zM1452 647q-49 0 -79 -21.5t-30 -56.5q0 -33 29.5 -54.5
t102.5 -47.5q90 38 90 106q0 34 -30.5 54t-82.5 20zM1444 139q57 0 92 23.5t35 60.5q0 36 -37.5 61t-134.5 58q-90 -45 -90 -113q0 -42 37 -66t98 -24z" />
    <glyph glyph-name="seveneighths" unicode="&#x215e;" horiz-adv-x="1736" 
d="M639 1249v-157q-90 -128 -166 -294t-117 -325h-245q55 161 134 320t167 280h-379v176h606zM1174 1249l-705 -1249h-182l702 1249h185zM1282 -18q-354 0 -354 231q0 120 147 188q-114 60 -114 166q0 103 83.5 158t235.5 55q145 0 221 -52.5t76 -149.5q0 -108 -131 -162
q86 -37 127 -83.5t41 -117.5q3 -111 -86.5 -173t-245.5 -60zM1272 647q-49 0 -79 -21.5t-30 -56.5q0 -33 29 -54.5t102 -47.5q90 38 90 106q0 34 -30 54t-82 20zM1264 139q57 0 92 23.5t35 60.5q0 36 -37.5 61t-134.5 58q-91 -46 -91 -113q0 -42 37.5 -66t98.5 -24z" />
    <glyph glyph-name="arrowleft" unicode="&#x2190;" horiz-adv-x="1327" 
d="M539 479l284 -289l-190 -190l-586 612l586 617l190 -191l-286 -290h751v-269h-749z" />
    <glyph glyph-name="arrowup" unicode="&#x2191;" horiz-adv-x="1345" 
d="M809 782v-782h-270v782l-289 -272l-189 190l613 566l610 -566l-188 -190z" />
    <glyph glyph-name="arrowright" unicode="&#x2192;" horiz-adv-x="1327" 
d="M694 0l-190 190l282 289h-747v269h749l-284 290l190 191l586 -617z" />
    <glyph glyph-name="arrowdown" unicode="&#x2193;" horiz-adv-x="1345" 
d="M674 -16l-613 565l189 190l289 -272v782h270v-782l287 272l188 -190z" />
    <glyph glyph-name="arrowupleft" unicode="&#x2196;" horiz-adv-x="1386" 
d="M354 795l8 -449h-270v903h901v-268l-448 6l796 -797l-192 -190z" />
    <glyph glyph-name="arrowupright" unicode="&#x2197;" horiz-adv-x="1386" 
d="M1294 346h-268l6 449l-794 -795l-191 190l795 797l-449 -6v268h901v-903z" />
    <glyph glyph-name="arrowdownright" unicode="&#x2198;" horiz-adv-x="1386" 
d="M1294 0h-901v268l449 -6l-795 797l191 190l794 -794l-6 448h268v-903z" />
    <glyph glyph-name="arrowdownleft" unicode="&#x2199;" horiz-adv-x="1386" 
d="M993 268v-268h-901v903h270l-8 -448l795 794l192 -190l-796 -797z" />
    <glyph glyph-name="minus" unicode="&#x2212;" horiz-adv-x="1015" 
d="M92 381v231h832v-231h-832z" />
    <glyph glyph-name="J.ss01" horiz-adv-x="624" 
d="M506 1249v-985q0 -149 -36 -247.5t-112 -165t-211 -123.5l-131 215q61 34 91.5 62.5t47.5 75t17 120.5v1048h334z" />
    <glyph glyph-name="K.ss02" horiz-adv-x="1298" 
d="M453 446v-446h-334v1249h334v-458h145l301 458h361v-26l-373 -590l391 -606v-27h-389l-279 446h-157z" />
    <glyph glyph-name="Kcommaaccent.ss02" horiz-adv-x="1298" 
d="M453 446v-446h-334v1249h334v-458h145l301 458h361v-26l-373 -590l391 -606v-27h-389l-279 446h-157zM553 -481l-31 80q67 42 84 73q-39 12 -62.5 45.5t-23.5 75.5q0 56 35.5 92.5t93.5 36.5q56 0 91.5 -40t35.5 -99q0 -90 -61 -162.5t-162 -101.5z" />
    <glyph glyph-name="Q.ss03" horiz-adv-x="1372" 
d="M1282 -66l-233 -184q-132 143 -207 246q-66 -14 -156 -14q-296 0 -456 166t-160 473q0 312 160 480.5t456 168.5t456.5 -168.5t160.5 -480.5q0 -344 -197 -506q64 -72 176 -181zM408 621q0 -340 278 -340q279 0 279 340q0 350 -279 350q-278 0 -278 -350z" />
    <glyph glyph-name="R.ss04" horiz-adv-x="1310" 
d="M119 1249h516q264 0 407.5 -120t143.5 -343q0 -145 -54 -221t-163 -108q42 -21 77 -52.5t61 -74.5t44.5 -79.5t34.5 -90.5t23.5 -82t19.5 -78h-381q-14 55 -27.5 97t-34.5 88t-45 76t-58.5 49.5t-74.5 19.5h-157v-330h-332v1249zM451 608h188q106 0 162 46t55 132
q0 85 -56.5 131t-160.5 46h-188v-355z" />
    <glyph glyph-name="Racute.ss04" horiz-adv-x="1310" 
d="M901 1575v-66q-97 -65 -180 -107t-207 -89l-80 82l232 307zM119 1249h516q264 0 407.5 -120t143.5 -343q0 -145 -54 -221t-163 -108q42 -21 77 -52.5t61 -74.5t44.5 -79.5t34.5 -90.5t23.5 -82t19.5 -78h-381q-14 55 -27.5 97t-34.5 88t-45 76t-58.5 49.5t-74.5 19.5
h-157v-330h-332v1249zM451 608h188q106 0 162 46t55 132q0 85 -56.5 131t-160.5 46h-188v-355z" />
    <glyph glyph-name="Rcaron.ss04" horiz-adv-x="1310" 
d="M532 1319l-266 283l80 86l281 -170l280 170l82 -86l-268 -283h-189zM119 1249h516q264 0 407.5 -120t143.5 -343q0 -145 -54 -221t-163 -108q42 -21 77 -52.5t61 -74.5t44.5 -79.5t34.5 -90.5t23.5 -82t19.5 -78h-381q-14 55 -27.5 97t-34.5 88t-45 76t-58.5 49.5
t-74.5 19.5h-157v-330h-332v1249zM451 608h188q106 0 162 46t55 132q0 85 -56.5 131t-160.5 46h-188v-355z" />
    <glyph glyph-name="Rcommaaccent.ss04" horiz-adv-x="1310" 
d="M119 1249h516q264 0 407.5 -120t143.5 -343q0 -145 -54 -221t-163 -108q42 -21 77 -52.5t61 -74.5t44.5 -79.5t34.5 -90.5t23.5 -82t19.5 -78h-381q-14 55 -27.5 97t-34.5 88t-45 76t-58.5 49.5t-74.5 19.5h-157v-330h-332v1249zM451 608h188q106 0 162 46t55 132
q0 85 -56.5 131t-160.5 46h-188v-355zM528 -481l-28 80q65 43 82 73q-38 12 -62 46t-24 75q0 56 35.5 92.5t93.5 36.5q56 0 91.5 -40t35.5 -99q0 -90 -61 -162.5t-163 -101.5z" />
    <glyph glyph-name="k.ss02" horiz-adv-x="1132" 
d="M428 367v-367h-328v1321h328v-657h115l202 325h349v-24l-299 -445l319 -493v-27h-362l-215 367h-109z" />
    <glyph glyph-name="kcommaaccent.ss02" horiz-adv-x="1132" 
d="M428 367v-367h-328v1321h328v-657h115l202 325h349v-24l-299 -445l319 -493v-27h-362l-215 367h-109zM461 -481l-29 80q64 42 84 73q-39 12 -62.5 45.5t-23.5 75.5q0 56 35.5 92.5t91.5 36.5q58 0 93.5 -39.5t35.5 -99.5q0 -90 -61.5 -162.5t-163.5 -101.5z" />
    <glyph glyph-name="a.ss05" horiz-adv-x="1173" 
d="M745 0v111q-72 -71 -129 -100t-163 -29q-80 0 -149 30t-125 91t-88 164t-32 237q0 257 98 380.5t275 123.5q175 0 313 -115v96h328v-989h-328zM745 356v267q-83 112 -196 112q-82 0 -123 -55t-41 -176q0 -254 174 -254q65 0 106.5 25t79.5 81z" />
    <glyph glyph-name="aacute.ss05" horiz-adv-x="1173" 
d="M891 1352v-64q-163 -122 -387 -213l-80 84l264 338zM745 0v111q-72 -71 -129 -100t-163 -29q-80 0 -149 30t-125 91t-88 164t-32 237q0 257 98 380.5t275 123.5q175 0 313 -115v96h328v-989h-328zM745 356v267q-83 112 -196 112q-82 0 -123 -55t-41 -176q0 -254 174 -254
q65 0 106.5 25t79.5 81z" />
    <glyph glyph-name="abreve.ss05" horiz-adv-x="1173" 
d="M762 1407h182q0 -293 -311 -293q-309 0 -309 293h182q0 -52 33.5 -83.5t93.5 -31.5q62 0 95.5 31.5t33.5 83.5zM745 0v111q-72 -71 -129 -100t-163 -29q-80 0 -149 30t-125 91t-88 164t-32 237q0 257 98 380.5t275 123.5q175 0 313 -115v96h328v-989h-328zM745 356v267
q-83 112 -196 112q-82 0 -123 -55t-41 -176q0 -254 174 -254q65 0 106.5 25t79.5 81z" />
    <glyph glyph-name="acircumflex.ss05" horiz-adv-x="1173" 
d="M975 1163l-78 -82q-173 103 -270 162q-47 -29 -137 -82t-134 -80l-77 82l258 285h178zM745 0v111q-72 -71 -129 -100t-163 -29q-80 0 -149 30t-125 91t-88 164t-32 237q0 257 98 380.5t275 123.5q175 0 313 -115v96h328v-989h-328zM745 356v267q-83 112 -196 112
q-82 0 -123 -55t-41 -176q0 -254 174 -254q65 0 106.5 25t79.5 81z" />
    <glyph glyph-name="adieresis.ss05" horiz-adv-x="1173" 
d="M406 1419q67 0 111 -38.5t44 -108.5t-44 -109t-111 -39q-63 0 -108.5 40t-45.5 108t45.5 107.5t108.5 39.5zM831 1419q63 0 109.5 -39.5t46.5 -107.5t-46.5 -108t-109.5 -40q-67 0 -111 39t-44 109t44 108.5t111 38.5zM745 0v111q-72 -71 -129 -100t-163 -29
q-80 0 -149 30t-125 91t-88 164t-32 237q0 257 98 380.5t275 123.5q175 0 313 -115v96h328v-989h-328zM745 356v267q-83 112 -196 112q-82 0 -123 -55t-41 -176q0 -254 174 -254q65 0 106.5 25t79.5 81z" />
    <glyph glyph-name="agrave.ss05" horiz-adv-x="1173" 
d="M836 1159l-80 -84q-218 89 -387 213v64l204 145zM745 0v111q-72 -71 -129 -100t-163 -29q-80 0 -149 30t-125 91t-88 164t-32 237q0 257 98 380.5t275 123.5q175 0 313 -115v96h328v-989h-328zM745 356v267q-83 112 -196 112q-82 0 -123 -55t-41 -176q0 -254 174 -254
q65 0 106.5 25t79.5 81z" />
    <glyph glyph-name="amacron.ss05" horiz-adv-x="1173" 
d="M934 1155h-631v231h631v-231zM745 0v111q-72 -71 -129 -100t-163 -29q-80 0 -149 30t-125 91t-88 164t-32 237q0 257 98 380.5t275 123.5q175 0 313 -115v96h328v-989h-328zM745 356v267q-83 112 -196 112q-82 0 -123 -55t-41 -176q0 -254 174 -254q65 0 106.5 25
t79.5 81z" />
    <glyph glyph-name="aogonek.ss05" horiz-adv-x="1173" 
d="M1069 -170l33 -156q-141 -55 -283 -55q-110 0 -175.5 51t-65.5 135q0 69 44.5 127.5t122.5 90.5v88q-72 -71 -129 -100t-163 -29q-80 0 -149 30t-125 91t-88 164t-32 237q0 257 98 380.5t275 123.5q175 0 313 -115v96h328v-989h-110q-84 -8 -131.5 -36t-47.5 -73
q0 -37 33 -59t90 -22q32 0 162 20zM745 356v267q-83 112 -196 112q-82 0 -123 -55t-41 -176q0 -254 174 -254q65 0 106.5 25t79.5 81z" />
    <glyph glyph-name="aring.ss05" horiz-adv-x="1173" 
d="M618 1524q99 0 161.5 -60t62.5 -159q0 -93 -62.5 -152t-161.5 -59q-98 0 -160.5 58.5t-62.5 152.5q0 99 62 159t161 60zM618 1225q40 0 64.5 21.5t24.5 58.5q0 41 -24.5 64.5t-64.5 23.5q-39 0 -63.5 -23.5t-24.5 -64.5q0 -36 24.5 -58t63.5 -22zM745 0v111
q-72 -71 -129 -100t-163 -29q-80 0 -149 30t-125 91t-88 164t-32 237q0 257 98 380.5t275 123.5q175 0 313 -115v96h328v-989h-328zM745 356v267q-83 112 -196 112q-82 0 -123 -55t-41 -176q0 -254 174 -254q65 0 106.5 25t79.5 81z" />
    <glyph glyph-name="atilde.ss05" horiz-adv-x="1173" 
d="M860 1415l121 -4q-4 -77 -29.5 -133t-63 -84t-84 -39.5t-91 -6.5t-84.5 23l-113 56q-47 22 -73.5 9.5t-67.5 -69.5l-111 4q4 76 28 131t60 82.5t80 38.5t87.5 5.5t84.5 -23.5l113 -53q49 -21 75 -8t68 71zM745 0v111q-72 -71 -129 -100t-163 -29q-80 0 -149 30t-125 91
t-88 164t-32 237q0 257 98 380.5t275 123.5q175 0 313 -115v96h328v-989h-328zM745 356v267q-83 112 -196 112q-82 0 -123 -55t-41 -176q0 -254 174 -254q65 0 106.5 25t79.5 81z" />
    <glyph glyph-name="g.ss06" horiz-adv-x="1193" 
d="M1149 827h-86q-39 0 -68 -6q33 -78 33 -170q0 -197 -104.5 -280.5t-350.5 -83.5q-155 0 -247 35q-29 -26 -29 -56q0 -38 21 -48.5t88 -10.5h364q199 0 273.5 -62t74.5 -225q0 -198 -130.5 -283.5t-428.5 -85.5q-278 0 -405 57.5t-127 188.5q0 140 131 183q-78 62 -78 194
q0 77 28.5 123t120.5 76q-110 88 -110 278q0 192 104 274.5t350 82.5q172 0 281 -50q45 30 98.5 48t96.5 18q77 0 122 -18zM573 498q78 0 112 35t34 118q0 162 -146 162q-77 0 -110 -37.5t-33 -124.5q0 -153 143 -153zM770 -86h-375q-71 -3 -91.5 -15.5t-20.5 -41.5
q0 -63 67.5 -87t208.5 -24q165 0 226 21.5t61 85.5q0 34 -18 47.5t-58 13.5z" />
    <glyph glyph-name="gbreve.ss06" horiz-adv-x="1193" 
d="M739 1407h183q0 -293 -312 -293q-311 0 -311 293h184q0 -54 33.5 -85.5t93.5 -31.5q61 0 95 32t34 85zM1149 827h-86q-39 0 -68 -6q33 -78 33 -170q0 -197 -104.5 -280.5t-350.5 -83.5q-155 0 -247 35q-29 -26 -29 -56q0 -38 21 -48.5t88 -10.5h364q199 0 273.5 -62
t74.5 -225q0 -198 -130.5 -283.5t-428.5 -85.5q-278 0 -405 57.5t-127 188.5q0 140 131 183q-78 62 -78 194q0 77 28.5 123t120.5 76q-110 88 -110 278q0 192 104 274.5t350 82.5q172 0 281 -50q45 30 98.5 48t96.5 18q77 0 122 -18zM573 498q78 0 112 35t34 118
q0 162 -146 162q-77 0 -110 -37.5t-33 -124.5q0 -153 143 -153zM770 -86h-375q-71 -3 -91.5 -15.5t-20.5 -41.5q0 -63 67.5 -87t208.5 -24q165 0 226 21.5t61 85.5q0 34 -18 47.5t-58 13.5z" />
    <glyph glyph-name="gcommaaccent.ss06" horiz-adv-x="1193" 
d="M688 1573l37 -88q-65 -40 -96 -78q46 -15 73 -52.5t27 -86.5q0 -62 -41.5 -104t-105.5 -42t-105 46t-41 114q0 96 59 165.5t193 125.5zM1149 827h-86q-39 0 -68 -6q33 -78 33 -170q0 -197 -104.5 -280.5t-350.5 -83.5q-155 0 -247 35q-29 -26 -29 -56q0 -38 21 -48.5
t88 -10.5h364q199 0 273.5 -62t74.5 -225q0 -198 -130.5 -283.5t-428.5 -85.5q-278 0 -405 57.5t-127 188.5q0 140 131 183q-78 62 -78 194q0 77 28.5 123t120.5 76q-110 88 -110 278q0 192 104 274.5t350 82.5q172 0 281 -50q45 30 98.5 48t96.5 18q77 0 122 -18zM573 498
q78 0 112 35t34 118q0 162 -146 162q-77 0 -110 -37.5t-33 -124.5q0 -153 143 -153zM770 -86h-375q-71 -3 -91.5 -15.5t-20.5 -41.5q0 -63 67.5 -87t208.5 -24q165 0 226 21.5t61 85.5q0 34 -18 47.5t-58 13.5z" />
    <glyph glyph-name="gdotaccent.ss06" horiz-adv-x="1193" 
d="M596 1442q67 0 118.5 -45t51.5 -119t-51.5 -119t-118.5 -45q-74 0 -123 44t-49 120t49 120t123 44zM1149 827h-86q-39 0 -68 -6q33 -78 33 -170q0 -197 -104.5 -280.5t-350.5 -83.5q-155 0 -247 35q-29 -26 -29 -56q0 -38 21 -48.5t88 -10.5h364q199 0 273.5 -62
t74.5 -225q0 -198 -130.5 -283.5t-428.5 -85.5q-278 0 -405 57.5t-127 188.5q0 140 131 183q-78 62 -78 194q0 77 28.5 123t120.5 76q-110 88 -110 278q0 192 104 274.5t350 82.5q172 0 281 -50q45 30 98.5 48t96.5 18q77 0 122 -18zM573 498q78 0 112 35t34 118
q0 162 -146 162q-77 0 -110 -37.5t-33 -124.5q0 -153 143 -153zM770 -86h-375q-71 -3 -91.5 -15.5t-20.5 -41.5q0 -63 67.5 -87t208.5 -24q165 0 226 21.5t61 85.5q0 34 -18 47.5t-58 13.5z" />
    <glyph glyph-name="y.ss07" horiz-adv-x="1200" 
d="M1110 989v-817q0 -277 -124.5 -402.5t-377.5 -125.5q-113 0 -233.5 23t-204.5 61l45 217q207 -60 346 -60q112 0 166.5 63.5t54.5 203.5v6q-62 -62 -129.5 -88.5t-179.5 -26.5q-194 0 -286.5 116t-92.5 359v471h328v-471q0 -120 42.5 -166.5t129.5 -46.5q65 0 107 26
t81 83v575h328z" />
    <glyph glyph-name="yacute.ss07" horiz-adv-x="1200" 
d="M881 1352v-66q-160 -118 -387 -213l-80 84l262 338zM1110 989v-817q0 -277 -124.5 -402.5t-377.5 -125.5q-113 0 -233.5 23t-204.5 61l45 217q207 -60 346 -60q112 0 166.5 63.5t54.5 203.5v6q-62 -62 -129.5 -88.5t-179.5 -26.5q-194 0 -286.5 116t-92.5 359v471h328
v-471q0 -120 42.5 -166.5t129.5 -46.5q65 0 107 26t81 83v575h328z" />
    <glyph glyph-name="ycircumflex.ss07" horiz-adv-x="1200" 
d="M963 1161l-78 -82q-52 33 -143 86.5t-128 75.5q-31 -19 -123 -73.5t-145 -88.5l-78 82l258 287h179zM1110 989v-817q0 -277 -124.5 -402.5t-377.5 -125.5q-113 0 -233.5 23t-204.5 61l45 217q207 -60 346 -60q112 0 166.5 63.5t54.5 203.5v6q-62 -62 -129.5 -88.5
t-179.5 -26.5q-194 0 -286.5 116t-92.5 359v471h328v-471q0 -120 42.5 -166.5t129.5 -46.5q65 0 107 26t81 83v575h328z" />
    <glyph glyph-name="ydieresis.ss07" horiz-adv-x="1200" 
d="M395 1419q67 0 111.5 -39.5t44.5 -109.5q0 -68 -44.5 -108t-111.5 -40q-62 0 -108.5 40.5t-46.5 107.5q0 68 46 108.5t109 40.5zM819 1419q63 0 109.5 -40.5t46.5 -108.5q0 -67 -47 -107.5t-109 -40.5q-65 0 -109 40t-44 108q0 70 43.5 109.5t109.5 39.5zM1110 989v-817
q0 -277 -124.5 -402.5t-377.5 -125.5q-113 0 -233.5 23t-204.5 61l45 217q207 -60 346 -60q112 0 166.5 63.5t54.5 203.5v6q-62 -62 -129.5 -88.5t-179.5 -26.5q-194 0 -286.5 116t-92.5 359v471h328v-471q0 -120 42.5 -166.5t129.5 -46.5q65 0 107 26t81 83v575h328z" />
    <glyph glyph-name="ygrave.ss07" horiz-adv-x="1200" 
d="M825 1157l-80 -84q-231 97 -389 213v66l205 143zM1110 989v-817q0 -277 -124.5 -402.5t-377.5 -125.5q-113 0 -233.5 23t-204.5 61l45 217q207 -60 346 -60q112 0 166.5 63.5t54.5 203.5v6q-62 -62 -129.5 -88.5t-179.5 -26.5q-194 0 -286.5 116t-92.5 359v471h328v-471
q0 -120 42.5 -166.5t129.5 -46.5q65 0 107 26t81 83v575h328z" />
    <glyph glyph-name="uni00660062" horiz-adv-x="1929" 
d="M1182 1382v-503q149 127 315 127q185 0 278.5 -120.5t94.5 -381.5q0 -134 -32 -237t-87.5 -164t-124.5 -91t-149 -30q-74 0 -128.5 17t-87 40.5t-79.5 69.5v-109h-328v1149q-104 6 -244 6q-72 0 -97.5 -33t-25.5 -102v-33h244v-266h-244v-721h-327v721h-137v266h137v33
q0 198 92.5 288.5t296.5 90.5q98 0 305 -47v30h328zM1182 623v-269q39 -54 82 -79t106 -25q174 0 174 254q0 121 -42 176t-124 55q-113 0 -196 -112z" />
    <glyph glyph-name="uni006600660062" horiz-adv-x="2613" 
d="M1866 1382v-503q151 129 315 129q185 0 279 -121.5t94 -382.5q0 -134 -32 -237t-87.5 -164t-124.5 -91t-149 -30q-74 0 -128.5 17.5t-86.5 41t-80 70.5v-111h-328v1149q-61 4 -148.5 6t-93.5 2q-73 -1 -99 -34.5t-26 -102.5v-33h246v-266h-246v-721h-327v721h-365v-721
h-327v721h-129v266h129v33q0 197 96 288t301 91q101 0 213 -23l-23 -223q-47 2 -129 2q-73 0 -102 -34.5t-29 -102.5v-31h365v31q0 199 93 290t298 91q26 0 121.5 -13.5t181.5 -31.5v28h328zM1866 623v-267q39 -55 81 -80.5t107 -25.5q174 0 174 254q0 121 -41 176t-123 55
q-115 0 -198 -112z" />
    <glyph glyph-name="uni006600660066" horiz-adv-x="2236" 
d="M2241 1376l-23 -223q-94 4 -129 4q-73 0 -102 -34.5t-29 -102.5v-31h252v-268h-252v-721h-328v721h-411v-721h-328v721h-412v-721h-327v721h-129v268h129v31q0 197 96 288t301 91q101 0 213 -23l-23 -223q-94 4 -129 4q-73 0 -102 -34.5t-29 -102.5v-31h412v31
q0 197 96 288t301 91q101 0 213 -23l-22 -223q-94 4 -129 4q-73 0 -102 -34.5t-29 -102.5v-31h411v31q0 197 96.5 288t301.5 91q101 0 213 -23z" />
    <glyph glyph-name="uni006600660068" horiz-adv-x="2605" 
d="M1874 1382v-524q99 76 179 112t167 36q157 0 224 -88t67 -289v-629h-328v537q0 94 -22.5 129.5t-89.5 35.5q-109 0 -197 -112v-590h-328v1149q-104 6 -241 6q-73 0 -99 -33t-26 -102v-33h245v-266h-245v-721h-328v721h-373v-721h-327v721h-129v266h129v33q0 197 96 288
t301 91q101 0 213 -23l-23 -223q-47 2 -129 2q-73 0 -102 -34.5t-29 -102.5v-31h373v33q0 198 93 288.5t298 90.5q89 0 303 -45v28h328z" />
    <glyph glyph-name="uni00660066006A" horiz-adv-x="1990" 
d="M1712 1110q-77 0 -130.5 44t-53.5 124q0 79 53.5 122.5t130.5 43.5t130.5 -43.5t53.5 -122.5q0 -80 -53.5 -124t-130.5 -44zM1180 989h688v-870q0 -101 -18.5 -175.5t-62.5 -135.5t-120 -102.5t-188 -65.5l-66 217q79 42 103 97t24 165v602h-360v-721h-328v721h-373v-721
h-327v721h-129v268h129v31q0 197 96 288t301 91q101 0 213 -23l-23 -223q-94 4 -129 4q-73 0 -102 -34.5t-29 -102.5v-31h373v31q0 198 93 288.5t298 90.5q75 0 203 -25l-23 -221q-22 1 -48.5 2t-42 1.5t-27.5 0.5q-73 0 -99 -34t-26 -103v-31z" />
    <glyph glyph-name="uni00660066006B" horiz-adv-x="2605" 
d="M2566 989l-375 -424q111 -127 222 -278t192 -287h-364q-122 196 -254 334l-111 -125v-209h-328v1149q-131 8 -243 8q-73 0 -99 -34t-26 -103v-31h245v-268h-245v-721h-328v721h-373v-721h-327v721h-129v268h129v31q0 197 96 288t301 91q101 0 213 -23l-23 -223
q-94 4 -129 4q-73 0 -102 -34.5t-29 -102.5v-31h373v31q0 198 93 288.5t298 90.5q102 0 305 -45v28h328v-747l319 354h371z" />
    <glyph glyph-name="uni006600660074" horiz-adv-x="2236" 
d="M2175 250l31 -197q-54 -30 -132.5 -48.5t-154.5 -18.5q-174 0 -251 87.5t-77 288.5v359h-372v-721h-328v721h-412v-721h-327v721h-129v268h129v31q0 197 96 288t301 91q101 0 213 -23l-23 -223q-94 4 -129 4q-73 0 -102 -34.5t-29 -102.5v-31h412v31q0 197 96 288t301 91
q101 0 213 -23l-22 -223q-94 4 -129 4q-73 0 -102 -34.5t-29 -102.5v-31h372v219h328v-219h242v-268h-242v-344q0 -69 27 -100t96 -31q78 0 133 4z" />
    <glyph glyph-name="uni00660068" horiz-adv-x="1912" 
d="M1182 1382v-524q97 76 178 112t168 36q157 0 224 -88t67 -289v-629h-328v537q0 94 -23 129.5t-90 35.5q-108 0 -196 -112v-590h-328v1149q-104 6 -244 6q-72 0 -97.5 -33t-25.5 -102v-33h244v-266h-244v-721h-327v721h-137v266h137v33q0 198 92.5 288.5t296.5 90.5
q98 0 305 -47v30h328z" />
    <glyph glyph-name="uni0066006A" horiz-adv-x="1298" 
d="M1020 1110q-77 0 -130.5 44t-53.5 124q0 79 53.5 122.5t130.5 43.5t130.5 -43.5t53.5 -122.5q0 -80 -53.5 -124t-130.5 -44zM1176 989v-870q0 -203 -86.5 -317t-305.5 -162l-63 217q79 42 103 97t24 165v602h-361v-721h-327v721h-137v268h137v31q0 198 92.5 288.5
t296.5 90.5q85 0 227 -29l-26 -217q-132 4 -140 4q-72 0 -97.5 -34t-25.5 -103v-31h689z" />
    <glyph glyph-name="uni0066006B" horiz-adv-x="1910" 
d="M1182 643l321 346h371l-377 -422q236 -270 414 -567h-363q-116 189 -258 338l-108 -121v-217h-328v1149q-104 6 -244 6q-72 0 -97.5 -33t-25.5 -102v-33h244v-266h-244v-721h-327v721h-137v266h137v33q0 198 92.5 288.5t296.5 90.5q98 0 305 -47v30h328v-739z" />
    <glyph glyph-name="uni00660074" horiz-adv-x="1503" 
d="M1442 250l31 -197q-54 -30 -132.5 -48.5t-154.5 -18.5q-174 0 -251 87.5t-77 288.5v359h-379v-721h-327v721h-129v268h129v31q0 197 96 288t301 91q101 0 213 -23l-23 -223q-94 4 -129 4q-73 0 -102 -34.5t-29 -102.5v-31h379v219h328v-219h241v-268h-241v-344
q0 -69 27 -100t96 -31q78 0 133 4z" />
    <glyph glyph-name="uni00720066" horiz-adv-x="1636" 
d="M1640 1366l-32 -213q-144 4 -162 4q-73 0 -99 -34t-26 -103v-31h246v-268h-246v-721h-328v721h-104v268h104v31q0 198 93.5 288.5t297.5 90.5q130 0 256 -33zM428 989v-182q52 101 116 151t148 50q59 0 123 -7l-22 -329q-49 4 -117 4q-98 0 -158.5 -40t-89.5 -142v-494
h-328v989h328z" />
    <glyph glyph-name="uni00720074" horiz-adv-x="1630" 
d="M1567 250l32 -197q-55 -31 -133 -49t-153 -18q-174 0 -252 87.5t-78 288.5v359h-102v268h102v219h328v-219h243v-268h-243v-344q0 -69 27 -100t98 -31q78 0 131 4zM428 989v-182q52 101 116 151t148 50q59 0 123 -7l-22 -329q-49 4 -117 4q-98 0 -158.5 -40t-89.5 -142
v-494h-328v989h328z" />
    <glyph glyph-name="zero.osf" horiz-adv-x="1239" 
d="M621 1096q268 0 408 -153t140 -408q0 -252 -140 -402.5t-408 -150.5q-136 0 -242 40.5t-173 114.5t-101.5 174.5t-34.5 223.5q0 167 59.5 291.5t185 197t306.5 72.5zM621 281q112 0 161 70t49 184q0 262 -210 262q-113 0 -163 -71.5t-50 -190.5q0 -114 50.5 -184
t162.5 -70z" />
    <glyph glyph-name="one.osf" horiz-adv-x="1046" 
d="M977 0h-883v279h301v434q-132 -36 -284 -58l-64 205q217 78 412 215h270v-796h248v-279z" />
    <glyph glyph-name="two.osf" horiz-adv-x="1101" 
d="M1040 0h-977v236q302 146 380 190q196 110 233 195q10 23 10 47q0 72 -45 110.5t-119 38.5q-148 0 -399 -104l-90 231q178 80 302 116t247 36q203 0 325.5 -104t122.5 -273q0 -71 -26.5 -131.5t-70 -105.5t-110.5 -85.5t-136.5 -69t-158.5 -57.5q162 9 203 9h309v-279z
" />
    <glyph glyph-name="three.osf" horiz-adv-x="1138" 
d="M143 754l-69 219q283 123 514 123q196 0 321 -98t125 -255q1 -101 -50 -170t-134 -100q110 -43 164.5 -110.5t54.5 -167.5q0 -182 -131.5 -283.5t-359.5 -101.5q-296 0 -545 133l92 225q237 -105 438 -105q88 0 138.5 37t50.5 101q0 66 -66 101.5t-192 35.5h-175v244h175
q125 0 180 25.5t55 86.5q0 68 -49 106t-135 38q-153 0 -402 -84z" />
    <glyph glyph-name="four.osf" horiz-adv-x="1267" 
d="M1049 0v-205h-328v205h-670l-16 225l686 830h328v-797h178v-258h-178zM721 258v451q-58 -77 -94 -117l-164 -203q-67 -78 -123 -131h381z" />
    <glyph glyph-name="five.osf" horiz-adv-x="1161" 
d="M426 780l-23 -264q141 88 295 88q186 0 290 -102.5t104 -282.5q0 -136 -68 -235.5t-179 -148t-249 -48.5q-141 0 -289 33t-274 100l92 242q237 -105 424 -105q96 0 161.5 49t65.5 127q0 70 -50.5 114t-135.5 44q-97 0 -203 -82l-268 39l43 707h878v-275h-614z" />
    <glyph glyph-name="six.osf" horiz-adv-x="1193" 
d="M1098 1188l-80 -232q-179 45 -295 45q-276 -3 -324 -299q138 107 344 107q179 0 289.5 -107t110.5 -278q0 -204 -133.5 -323t-368.5 -119q-275 0 -423 155.5t-148 427.5q0 326 175.5 515.5t461.5 189.5q196 0 391 -82zM641 246q85 0 137.5 51.5t52.5 140.5
q0 73 -53 117.5t-141 44.5q-69 0 -133 -32.5t-105 -90.5q39 -231 242 -231z" />
    <glyph glyph-name="seven.osf" horiz-adv-x="1021" 
d="M999 1055v-248q-142 -205 -262.5 -474t-191.5 -528h-387q92 266 217 523.5t266 445.5h-612v281h970z" />
    <glyph glyph-name="eight.osf" horiz-adv-x="1187" 
d="M872 682q142 -59 208.5 -134.5t66.5 -191.5q0 -178 -143 -276t-390 -98q-300 0 -436.5 94.5t-136.5 279.5q0 196 240 301q-187 101 -187 267t135 256t381 90q233 0 356.5 -86.5t123.5 -243.5q0 -172 -218 -258zM596 1061q-81 0 -130.5 -36t-49.5 -95q0 -56 47.5 -91.5
t169.5 -76.5q84 32 118.5 74.5t34.5 97.5q0 57 -52 92t-138 35zM584 231q96 0 152.5 38t56.5 102q0 59 -61.5 100t-223.5 96q-148 -70 -148 -186q0 -71 60.5 -110.5t163.5 -39.5z" />
    <glyph glyph-name="nine.osf" horiz-adv-x="1193" 
d="M102 -106l80 231q182 -49 299 -49q136 1 207 71.5t90 214.5q-63 -54 -139.5 -79t-187.5 -25q-178 0 -289 112t-111 285q0 204 134 322.5t374 118.5q270 0 410.5 -155t140.5 -429q0 -349 -157.5 -527t-454.5 -178q-200 0 -396 87zM557 477q60 0 119.5 32.5t103.5 82.5
q-14 117 -69.5 178t-151.5 61q-89 0 -143 -51t-54 -141q0 -73 53.5 -117.5t141.5 -44.5z" />
    <glyph glyph-name="zero.tf" horiz-adv-x="1157" 
d="M580 1270q274 0 414.5 -166.5t140.5 -480.5q0 -312 -140.5 -476.5t-414.5 -164.5q-276 0 -416.5 164.5t-140.5 476.5q0 314 140.5 480.5t416.5 166.5zM580 281q117 0 167 84t50 258q0 178 -50 263t-167 85t-168.5 -85t-51.5 -263q0 -173 51.5 -257.5t168.5 -84.5z" />
    <glyph glyph-name="one.tf" horiz-adv-x="1157" 
d="M1016 0h-862v279h280v604q-132 -36 -284 -58l-64 209q217 78 412 215h270v-970h248v-279z" />
    <glyph glyph-name="two.tf" horiz-adv-x="1157" 
d="M1063 0h-977v236q54 43 142 112t134.5 106t112 91t100 88.5t70 74.5t50 72.5t14.5 61.5q0 72 -45 111.5t-119 39.5q-144 0 -400 -106l-90 233q179 79 302.5 114.5t246.5 35.5q204 0 326.5 -115t122.5 -307q0 -43 -10 -83.5t-32 -79t-47.5 -72.5t-66 -71.5t-77 -68
t-91.5 -69t-99.5 -68t-109.5 -70.5q178 13 234 13h309v-279z" />
    <glyph glyph-name="three.tf" horiz-adv-x="1157" 
d="M150 926l-70 219q283 123 522 123q196 0 321.5 -98t125.5 -255q0 -101 -51.5 -172t-133.5 -102q111 -44 165 -109.5t54 -164.5q0 -182 -131.5 -283.5t-359.5 -101.5q-299 0 -551 133l90 225q217 -96 444 -96q91 0 141 33t50 96q0 66 -67.5 101.5t-198.5 35.5h-174v244
h174q130 0 186.5 25.5t56.5 86.5q0 68 -49.5 106t-136.5 38q-158 0 -407 -84z" />
    <glyph glyph-name="four.tf" horiz-adv-x="1157" 
d="M997 227v-227h-327v227h-641l-15 226l656 796h327v-764h148v-258h-148zM670 485v424q-22 -39 -58 -82l-204 -252q-5 -5 -33.5 -39t-44.5 -51h340z" />
    <glyph glyph-name="five.tf" horiz-adv-x="1157" 
d="M461 971l-21 -250q115 78 273 78q185 0 289 -102t104 -283q0 -136 -68 -235.5t-179 -148t-249 -48.5q-139 0 -287.5 33.5t-275.5 99.5l92 241q217 -96 424 -96q97 0 162.5 45.5t65.5 122.5q0 70 -51 114t-136 44q-97 0 -203 -82l-268 39l43 706h879v-278h-594z" />
    <glyph glyph-name="six.tf" horiz-adv-x="1157" 
d="M1073 1188l-80 -232q-181 45 -295 45q-279 -3 -323 -299q138 107 344 107q179 0 289 -107t110 -278q0 -204 -134 -323t-370 -119q-275 0 -422 155.5t-147 427.5q0 326 175.5 515.5t461.5 189.5q193 0 391 -82zM614 246q86 0 139.5 51.5t53.5 140.5q0 73 -53.5 117.5
t-141.5 44.5q-70 0 -134 -32.5t-103 -90.5q39 -231 239 -231z" />
    <glyph glyph-name="seven.tf" horiz-adv-x="1157" 
d="M1063 1249v-248q-142 -206 -263.5 -474.5t-191.5 -526.5h-389q94 267 220 524t266 445h-613v280h971z" />
    <glyph glyph-name="eight.tf" horiz-adv-x="1157" 
d="M856 682q142 -59 208 -134.5t66 -191.5q0 -178 -142.5 -276t-389.5 -98q-300 0 -436.5 94.5t-136.5 279.5q0 196 239 301q-186 100 -186 267q0 166 135 256t381 90q232 0 355.5 -86.5t123.5 -243.5q0 -173 -217 -258zM580 1061q-82 0 -131.5 -36t-49.5 -95
q0 -56 47.5 -91.5t169.5 -76.5q84 32 119 74.5t35 97.5q0 57 -52 92t-138 35zM567 231q95 0 152 38t57 102q0 59 -61 100t-223 96q-148 -70 -148 -186q0 -71 60 -110.5t163 -39.5z" />
    <glyph glyph-name="nine.tf" horiz-adv-x="1157" 
d="M92 70l80 229q180 -49 299 -49q136 1 207 72t90 215q-63 -54 -140 -79.5t-188 -25.5q-178 0 -288.5 111.5t-110.5 285.5q0 204 134 322.5t374 118.5q269 0 409 -155t140 -429q1 -349 -156.5 -526.5t-454.5 -177.5q-203 0 -395 88zM547 651q59 0 119 32.5t104 82.5
q-31 240 -221 240q-89 0 -144 -52t-55 -141q0 -73 54.5 -117.5t142.5 -44.5z" />
    <glyph glyph-name="zero.zero" horiz-adv-x="1280" 
d="M641 1270q285 0 427 -166t142 -481q0 -313 -142 -477t-427 -164t-428 164t-143 477q0 315 143 481t428 166zM412 518l381 402q-54 51 -152 51q-128 0 -180.5 -84t-52.5 -264q0 -39 4 -105zM864 752l-389 -410q55 -61 166 -61q126 0 178.5 83.5t52.5 258.5q0 77 -8 129z
" />
    <glyph glyph-name="zero.dnom" horiz-adv-x="817" 
d="M410 780q177 0 265.5 -102.5t88.5 -298.5q0 -193 -89 -295t-265 -102q-178 0 -267.5 102t-89.5 295q0 196 89.5 298.5t267.5 102.5zM410 172q79 0 110 49t31 158q0 113 -31 163t-110 50q-81 0 -112.5 -50t-31.5 -163q0 -108 31.5 -157.5t112.5 -49.5z" />
    <glyph glyph-name="one.dnom" horiz-adv-x="700" 
d="M662 0h-560v178h177v367q-106 -25 -179 -35l-39 133q140 52 256 133h170v-598h175v-178z" />
    <glyph glyph-name="two.dnom" horiz-adv-x="731" 
d="M666 0h-607v150q34 27 88 69.5t82.5 65.5t68.5 56t61 53.5t42 45t30 44.5t9 38q0 45 -25.5 67.5t-70.5 22.5q-97 0 -246 -65l-59 149q113 48 189.5 70t154.5 22q126 0 201 -71t75 -191q0 -42 -18 -82t-42.5 -70.5t-73 -69.5t-86.5 -65t-105 -69q98 8 139 8h193v-178z" />
    <glyph glyph-name="three.dnom" horiz-adv-x="737" 
d="M94 565l-43 140q179 73 324 73q124 0 201 -59t77 -158q0 -63 -32 -107.5t-84 -64.5q69 -27 102 -66.5t33 -101.5q0 -114 -80.5 -176.5t-222.5 -62.5q-191 0 -342 84l57 143q141 -66 274 -66q54 0 84.5 21t30.5 59q0 84 -162 84h-112v156h112q79 0 113.5 15.5t34.5 53.5
q0 41 -29.5 62.5t-83.5 21.5q-104 0 -252 -51z" />
    <glyph glyph-name="four.dnom" horiz-adv-x="815" 
d="M659 137v-137h-202v137h-416l-10 144l426 495h202v-475h113v-164h-113zM457 301v260q-31 -40 -56 -65l-104 -117q-35 -41 -76 -78h236z" />
    <glyph glyph-name="five.dnom" horiz-adv-x="759" 
d="M291 594l-12 -156q88 56 182 56q117 0 180.5 -64t63.5 -180q0 -127 -86.5 -197.5t-221.5 -70.5q-195 0 -350 84l57 151q149 -63 263 -63q60 0 98.5 28.5t38.5 77.5q0 45 -29.5 70.5t-81.5 25.5q-61 0 -127 -51l-170 25l27 438h549v-174h-381z" />
    <glyph glyph-name="six.dnom" horiz-adv-x="774" 
d="M694 731l-49 -147q-99 26 -182 26q-181 0 -203 -196q89 75 217 75q112 0 180 -64t68 -169q2 -125 -80.5 -199.5t-232.5 -74.5q-171 0 -265 97t-94 265q0 203 109.5 319.5t290.5 116.5q124 0 241 -49zM412 150q53 0 84.5 31t31.5 85q0 43 -32.5 69.5t-85.5 26.5
q-40 0 -81.5 -17.5t-66.5 -47.5q11 -71 50 -109t100 -38z" />
    <glyph glyph-name="seven.dnom" horiz-adv-x="679" 
d="M639 776v-158q-90 -129 -166 -294t-117 -324h-245q55 161 134 320t167 280h-379v176h606z" />
    <glyph glyph-name="eight.dnom" horiz-adv-x="784" 
d="M403 -18q-354 0 -354 231q0 120 148 188q-115 61 -115 166q0 103 83.5 158t235.5 55q145 0 221 -52.5t76 -149.5q0 -108 -131 -162q86 -37 127 -83.5t41 -117.5q3 -111 -86.5 -173t-245.5 -60zM393 647q-49 0 -78.5 -21.5t-29.5 -56.5q0 -33 29 -54.5t102 -47.5
q90 38 90 106q0 34 -30.5 54t-82.5 20zM385 139q57 0 92 23.5t35 60.5q0 36 -37.5 61t-134.5 58q-90 -45 -90 -113q0 -42 37 -66t98 -24z" />
    <glyph glyph-name="nine.dnom" horiz-adv-x="753" 
d="M76 35l51 147q106 -30 184 -30q88 0 131 45.5t52 142.5q-85 -64 -203 -64q-111 0 -178.5 63.5t-67.5 168.5q0 127 82.5 199.5t230.5 72.5q168 0 255 -95t87 -265q0 -217 -97 -327.5t-281 -110.5q-128 0 -246 53zM358 401q82 0 138 56q-15 157 -138 157q-55 0 -86.5 -29.5
t-31.5 -84.5q0 -47 31 -73t87 -26z" />
    <glyph glyph-name="zero.numr" horiz-adv-x="817" 
d="M410 1270q177 0 265.5 -103t88.5 -299q0 -193 -89 -295t-265 -102q-178 0 -267.5 102t-89.5 295q0 196 89.5 299t267.5 103zM410 662q79 0 110 49t31 157q0 113 -31 163t-110 50q-81 0 -112.5 -50t-31.5 -163q0 -108 31.5 -157t112.5 -49z" />
    <glyph glyph-name="one.numr" horiz-adv-x="700" 
d="M662 473h-560v178h177v367q-105 -25 -179 -35l-39 133q140 52 256 133h170v-598h175v-178z" />
    <glyph glyph-name="two.numr" horiz-adv-x="731" 
d="M666 481h-607v150q33 26 88 69.5t83 65.5t68 56t60.5 54.5t42.5 45t30.5 44.5t8.5 38q0 45 -25.5 67.5t-70.5 22.5q-95 0 -246 -66l-59 148q111 50 188 72t156 22q126 0 201 -71.5t75 -190.5q0 -42 -18 -82t-42.5 -71t-72.5 -70t-86.5 -65t-105.5 -69q98 8 139 8h193
v-178z" />
    <glyph glyph-name="three.numr" horiz-adv-x="737" 
d="M94 1057l-43 139q181 74 324 74q124 0 201 -59t77 -158q0 -63 -32 -107.5t-84 -64.5q69 -27 102 -66.5t33 -101.5q0 -115 -80.5 -177.5t-222.5 -62.5q-191 0 -342 84l57 143q139 -65 274 -65q54 0 84.5 21t30.5 59q0 84 -162 84h-112v155h112q79 0 113.5 16t34.5 54
q0 41 -29.5 62.5t-83.5 21.5q-104 0 -252 -51z" />
    <glyph glyph-name="four.numr" horiz-adv-x="815" 
d="M659 610v-137h-202v137h-416l-10 144l426 495h202v-475h113v-164h-113zM457 774v260q-31 -41 -56 -65l-104 -117q-35 -41 -76 -78h236z" />
    <glyph glyph-name="five.numr" horiz-adv-x="759" 
d="M291 1075l-12 -155q86 55 182 55q117 0 180.5 -64t63.5 -180q0 -127 -86.5 -197.5t-221.5 -70.5q-195 0 -350 84l57 151q149 -63 263 -63q60 0 98.5 28.5t38.5 77.5q0 45 -29.5 71t-81.5 26q-59 0 -127 -52l-170 25l27 438h549v-174h-381z" />
    <glyph glyph-name="six.numr" horiz-adv-x="774" 
d="M694 1221l-49 -148q-103 27 -182 27q-181 0 -203 -197q90 76 217 76q112 0 180 -64.5t68 -169.5q2 -125 -80.5 -199.5t-232.5 -74.5q-171 0 -265 97.5t-94 265.5q0 203 109.5 319.5t290.5 116.5q124 0 241 -49zM412 639q53 0 84.5 31.5t31.5 85.5q0 43 -32.5 69.5
t-85.5 26.5q-39 0 -80.5 -18t-67.5 -48q11 -71 50 -109t100 -38z" />
    <glyph glyph-name="seven.numr" horiz-adv-x="679" 
d="M639 1249v-157q-90 -128 -166 -294t-117 -325h-245q55 161 134 320t167 280h-379v176h606z" />
    <glyph glyph-name="eight.numr" horiz-adv-x="784" 
d="M403 471q-354 0 -354 231q0 121 148 189q-115 61 -115 166q0 103 83.5 158t235.5 55q145 0 221 -52.5t76 -150.5q0 -108 -131 -162q86 -37 127 -83t41 -117q3 -111 -87 -173.5t-245 -60.5zM393 1137q-49 0 -78.5 -21.5t-29.5 -56.5q0 -33 29.5 -55.5t101.5 -47.5
q90 38 90 107q0 34 -30.5 54t-82.5 20zM385 629q57 0 92 23.5t35 60.5q0 36 -37 60t-135 58q-90 -45 -90 -112q0 -42 37 -66t98 -24z" />
    <glyph glyph-name="nine.numr" horiz-adv-x="753" 
d="M76 524l51 148q109 -31 184 -31q88 0 131 45.5t52 142.5q-84 -63 -203 -63q-111 0 -178.5 63t-67.5 168q0 127 82.5 200t230.5 73q168 0 255 -95.5t87 -265.5q0 -217 -97 -327.5t-281 -110.5q-128 0 -246 53zM358 891q83 0 138 55q-15 158 -138 158q-55 0 -86.5 -30
t-31.5 -85q0 -47 31 -72.5t87 -25.5z" />
    <glyph glyph-name="backslash.case" horiz-adv-x="907" 
d="M819 -127h-270l-459 1468h277z" />
    <glyph glyph-name="bullet.case" horiz-adv-x="710" 
d="M111 612q0 106 68 176t177 70t177.5 -70t68.5 -176t-68.5 -175.5t-177.5 -69.5t-177 69.5t-68 175.5z" />
    <glyph glyph-name="exclamdown.case" horiz-adv-x="536" 
d="M268 954q-68 0 -110.5 45t-42.5 111t42.5 110t110.5 44t111 -44t43 -110t-43 -111t-111 -45zM442 0h-348l47 805h254z" />
    <glyph glyph-name="periodcentered.case" horiz-adv-x="589" 
d="M106 633q0 79 51.5 131.5t133.5 52.5t133 -52.5t51 -131.5q0 -80 -51 -133.5t-133 -53.5t-133.5 54t-51.5 133z" />
    <glyph glyph-name="questiondown.case" horiz-adv-x="1105" 
d="M623 956q-68 0 -111 45t-43 111t43 110t111 44t110.5 -44t42.5 -110t-42.5 -111t-110.5 -45zM979 365l90 -232q-177 -79 -301 -115t-248 -36q-202 0 -325 110t-123 281q0 145 112.5 244t315.5 139l-4 100h260l47 -303q-147 -4 -235 -23.5t-120 -48t-32 -71.5
q0 -72 45 -112t119 -40q141 0 399 107z" />
    <glyph glyph-name="slash.case" horiz-adv-x="921" 
d="M836 1341l-476 -1523h-270l469 1523h277z" />
    <glyph glyph-name="braceleft.case" horiz-adv-x="829" 
d="M586 295v-35q0 -80 43.5 -118t175.5 -54l-19 -229q-272 6 -389.5 99t-117.5 302v35q0 63 -9 100t-35.5 61.5t-67 35.5t-110.5 16v231q131 12 176.5 58t45.5 157v33q0 211 118 304.5t389 97.5l19 -228q-132 -18 -175.5 -55.5t-43.5 -118.5v-33q0 -153 -56.5 -227
t-177.5 -100q122 -24 178 -98t56 -234z" />
    <glyph glyph-name="braceright.case" horiz-adv-x="829" 
d="M250 260v35q0 160 55.5 234t177.5 98q-121 26 -177 99.5t-56 227.5v33q0 81 -43.5 118.5t-175.5 55.5l18 228q273 -4 390.5 -97.5t117.5 -304.5v-33q0 -111 45.5 -157t177.5 -58v-231q-136 -11 -179.5 -51.5t-43.5 -161.5v-35q0 -209 -117.5 -302t-390.5 -99l-18 229
q132 16 175.5 54t43.5 118z" />
    <glyph glyph-name="bracketleft.case" horiz-adv-x="798" 
d="M758 1100h-285v-967h285v-250h-582v1469h582v-252z" />
    <glyph glyph-name="bracketright.case" horiz-adv-x="798" 
d="M629 1352v-1469h-582v250h285v967h-285v252h582z" />
    <glyph glyph-name="parenleft.case" horiz-adv-x="694" 
d="M455 1354l192 -109q-49 -72 -75 -112t-60.5 -105t-50.5 -119.5t-28.5 -130.5t-12.5 -162t12 -162t28.5 -130t51 -119t60.5 -104.5t75 -110.5l-192 -111q-85 95 -138.5 167.5t-100 162t-67 188.5t-20.5 219q0 121 21 220.5t66.5 189t99.5 162t139 166.5z" />
    <glyph glyph-name="parenright.case" horiz-adv-x="677" 
d="M37 1245l192 109q85 -94 139 -166.5t100.5 -162t67.5 -189t21 -220.5q0 -120 -21 -219t-67.5 -188.5t-100 -161.5t-139.5 -168l-192 111q61 86 93.5 139t68 131t50.5 163.5t15 192.5t-15 193t-50.5 164.5t-68 131.5t-93.5 140z" />
    <glyph glyph-name="emdash.case" horiz-adv-x="1902" 
d="M1786 756v-242h-1669v242h1669z" />
    <glyph glyph-name="endash.case" horiz-adv-x="1021" 
d="M905 756v-242h-788v242h788z" />
    <glyph glyph-name="hyphen.case" horiz-adv-x="837" 
d="M721 786v-286h-604v286h604z" />
    <glyph glyph-name="guillemotleft.case" horiz-adv-x="1261" 
d="M684 897l-207 -209q-34 -34 -82 -72q37 -26 84 -69l205 -211l-162 -156l-456 438l454 441zM1165 897l-207 -209q-38 -38 -81 -72q37 -26 84 -69l204 -211l-161 -156l-457 438l454 441z" />
    <glyph glyph-name="guillemotright.case" horiz-adv-x="1261" 
d="M258 180l-160 156l203 211q33 31 84 71q-58 46 -82 70l-205 209l162 162l455 -441zM739 180l-159 156l202 211q33 31 84 71q-58 46 -82 70l-204 209l161 162l455 -441z" />
    <glyph glyph-name="guilsinglleft.case" horiz-adv-x="780" 
d="M684 897l-207 -209q-34 -34 -82 -72q37 -26 84 -69l205 -211l-162 -156l-456 438l454 441z" />
    <glyph glyph-name="guilsinglright.case" horiz-adv-x="780" 
d="M258 180l-160 156l203 211q33 31 84 71q-58 46 -82 70l-205 209l162 162l455 -441z" />
    <glyph glyph-name="florin.tf" horiz-adv-x="1157" 
d="M1130 1036l-90 -198q-165 53 -274 53q-100 0 -166.5 -71t-97.5 -236l-4 -21h387l-41 -209h-385l-66 -354h-319l65 354h-114l41 209h110l4 21q54 289 186 427t353 138q111 0 208 -25.5t203 -87.5z" />
    <glyph glyph-name="cent.tf" horiz-adv-x="1157" 
d="M961 332l104 -199q-155 -123 -336 -145v-107h-213v109q-86 14 -158.5 53.5t-130.5 107t-90.5 171.5t-32.5 235q0 242 113 393t299 183v116h213v-116q135 -19 301 -103l-92 -211q-134 58 -279 58q-110 0 -168.5 -80t-58.5 -240q0 -311 225 -311q170 0 304 86z" />
    <glyph glyph-name="dollar.tf" horiz-adv-x="1157" 
d="M1028 1036l-74 -227q-267 92 -395 92q-55 0 -87 -22.5t-32 -57.5q0 -44 47 -66.5t234 -76.5q182 -53 261 -134t79 -218q0 -144 -100.5 -234.5t-282.5 -105.5v-113h-211v123q-210 31 -391 143l104 232q257 -144 428 -144q67 0 102 24.5t35 63.5q0 42 -54.5 70t-227.5 82
q-188 58 -262 139.5t-74 212.5q0 132 89.5 217.5t250.5 98.5v120h211v-127q148 -18 350 -92z" />
    <glyph glyph-name="Euro.tf" horiz-adv-x="1157" 
d="M1001 332l105 -199q-105 -81 -208.5 -116t-248.5 -35q-114 0 -210 39.5t-171 130t-104 223.5h-125v127h108l-2 55v16h-106v127h119q36 210 170 325.5t325 115.5q110 0 208.5 -26t207.5 -85l-90 -211q-152 66 -279 66q-172 0 -219 -185h402l-37 -127h-379v-16v-57h354
l-37 -125h-292q48 -137 204 -137q159 0 305 94z" />
    <glyph glyph-name="sterling.tf" horiz-adv-x="1157" 
d="M506 268h538v-268h-989v240l131 20l17 176h-148v172h166q30 279 150.5 410t337.5 131q228 0 411 -113l-90 -209q-154 64 -274 64q-94 0 -144.5 -63t-70.5 -220h333v-172h-350z" />
    <glyph glyph-name="yen.tf" horiz-adv-x="1157" 
d="M784 438l-32 -67h309v-127h-316v-244h-333v244h-308v127h302l-33 67h-269v127h207l-276 559h340l157 -327q6 -17 21.5 -68.5t26.5 -79.5q10 26 24 74.5t23 73.5l155 327h342l-276 -559h213v-127h-277z" />
    <glyph glyph-name="arrowdown.ss08" horiz-adv-x="1308" 
d="M655 1163q160 0 296.5 -79.5t216 -216t79.5 -296.5q0 -161 -79.5 -298t-216 -216.5t-296.5 -79.5q-161 0 -298 79.5t-216.5 216.5t-79.5 298q0 160 79.5 296.5t216.5 216t298 79.5zM588 492l-150 143l-96 -96l313 -293l312 291l-97 98l-145 -143v372h-137v-372z" />
    <glyph glyph-name="arrowdownleft.ss08" horiz-adv-x="1308" 
d="M1247 569q0 161 -79.5 298t-216 217t-296.5 81q-161 -1 -298 -81t-216.5 -217t-79.5 -298q0 -160 79.5 -296.5t216.5 -216t298 -79.5q160 0 296.5 79.5t216 216t79.5 296.5zM410 768h137v-207l266 264l96 -96l-264 -268h205v-133h-440v440z" />
    <glyph glyph-name="arrowdownright.ss08" horiz-adv-x="1308" 
d="M1247 569q0 161 -79.5 298t-216 217t-296.5 81q-161 -1 -298 -81t-216.5 -217t-79.5 -298q0 -160 79.5 -296.5t216.5 -216t298 -79.5q160 0 296.5 79.5t216 216t79.5 296.5zM662 461l-265 268l97 96l268 -264v207h137v-440h-442v133h205z" />
    <glyph glyph-name="arrowleft.ss08" horiz-adv-x="1308" 
d="M655 1165q160 -1 296.5 -81t216 -217t79.5 -298q0 -160 -79.5 -296.5t-216 -216t-296.5 -79.5q-161 0 -298 79.5t-216.5 216t-79.5 296.5q0 161 79.5 298t216.5 217t298 81zM621 258l98 96l-144 148h373v137h-373l144 147l-96 97l-293 -314z" />
    <glyph glyph-name="arrowright.ss08" horiz-adv-x="1308" 
d="M653 1165q161 -1 298 -81t216.5 -217t79.5 -298q0 -160 -79.5 -296.5t-216.5 -216t-298 -79.5q-160 0 -296.5 79.5t-216 216t-79.5 296.5q0 161 79.5 298t216 217t296.5 81zM735 639h-375v-137h375l-145 -148l98 -96l291 311l-291 314l-98 -97z" />
    <glyph glyph-name="arrowup.ss08" horiz-adv-x="1308" 
d="M655 1163q160 0 296.5 -79.5t216 -216.5t79.5 -298q0 -160 -79.5 -296.5t-216 -216t-296.5 -79.5q-161 0 -298 79.5t-216.5 216t-79.5 296.5q0 161 79.5 298t216.5 216.5t298 79.5zM438 506l150 145v-375h137v375l145 -143l97 96l-312 291l-313 -291z" />
    <glyph glyph-name="arrowupleft.ss08" horiz-adv-x="1308" 
d="M1247 573q0 160 -79.5 296.5t-216 216t-296.5 79.5q-161 0 -298 -79.5t-216.5 -216t-79.5 -296.5q0 -161 79.5 -298t216.5 -217t298 -81q160 1 296.5 81t216 217t79.5 298zM645 682l264 -268l-96 -97l-266 265v-207h-137v440h440v-133h-205z" />
    <glyph glyph-name="arrowupright.ss08" horiz-adv-x="1308" 
d="M1247 573q0 160 -79.5 296.5t-216.5 216t-298 79.5q-160 0 -296.5 -79.5t-216 -216t-79.5 -296.5q0 -161 79.5 -298t216 -217t296.5 -81q161 1 298 81t216.5 217t79.5 298zM899 375h-135v207l-268 -265l-97 97l265 268h-205v133h440v-440z" />
    <glyph glyph-name="arrowdown.ss13" horiz-adv-x="1009" 
d="M506 1014q181 0 311.5 -130.5t130.5 -312.5q0 -120 -59.5 -222.5t-161.5 -162t-221 -59.5q-183 0 -314 130.5t-131 313.5q0 119 60 221t162.5 162t222.5 60zM506 936q-150 0 -257.5 -107.5t-107.5 -257.5q0 -151 107 -257.5t258 -106.5q150 0 257 107t107 257
q0 149 -107.5 257t-256.5 108zM455 514l-109 107l-76 -76l236 -217l233 217l-75 76l-107 -107v277h-102v-277z" />
    <glyph glyph-name="arrowdownleft.ss13" horiz-adv-x="1009" 
d="M506 1014q181 0 311.5 -130.5t130.5 -312.5q0 -120 -59.5 -222.5t-161.5 -162t-221 -59.5q-183 0 -314 130.5t-131 313.5q0 118 59.5 220t162 162.5t223.5 60.5zM506 936q-150 0 -257.5 -107.5t-107.5 -257.5q0 -151 107 -257.5t258 -106.5q150 0 257 107t107 257
q0 149 -107.5 257t-256.5 108zM514 492h150v-101h-330v330h104v-154l199 197l74 -74z" />
    <glyph glyph-name="arrowdownright.ss13" horiz-adv-x="1009" 
d="M504 1014q121 0 224 -60.5t161.5 -162.5t58.5 -220q0 -183 -130.5 -313.5t-313.5 -130.5q-119 0 -221 59.5t-162 162t-60 222.5q0 119 60 221t162 162t221 60zM504 936q-149 0 -256 -108t-107 -257q0 -151 106.5 -257.5t256.5 -106.5q151 0 258.5 106.5t107.5 257.5
q0 149 -108 257t-258 108zM571 721h105v-330h-330v101h150l-195 198l72 74l198 -197v154z" />
    <glyph glyph-name="arrowleft.ss13" horiz-adv-x="1009" 
d="M506 1014q181 0 311.5 -130.5t130.5 -312.5q0 -120 -59.5 -222.5t-161.5 -162t-221 -59.5q-183 0 -314 130.5t-131 313.5q0 119 60 221t162.5 162t222.5 60zM506 936q-150 0 -257.5 -107.5t-107.5 -257.5q0 -151 107 -257.5t258 -106.5q150 0 257 107t107 257
q0 149 -107.5 257t-256.5 108zM449 621l106 108l-76 76l-217 -236l217 -233l76 76l-106 106h276v103h-276z" />
    <glyph glyph-name="arrowright.ss13" horiz-adv-x="1009" 
d="M504 1014q120 0 222.5 -60t162 -162t59.5 -221q0 -183 -130.5 -313.5t-313.5 -130.5q-119 0 -221 59.5t-162 162t-60 222.5q0 119 60 221t162 162t221 60zM504 936q-149 0 -256 -108t-107 -257q0 -151 106.5 -257.5t256.5 -106.5q151 0 258.5 106.5t107.5 257.5
q0 149 -108 257t-258 108zM457 412l73 -76l218 233l-218 236l-75 -76l106 -108h-276v-103h276z" />
    <glyph glyph-name="arrowup.ss13" horiz-adv-x="1009" 
d="M506 127q-120 0 -222.5 59.5t-162.5 161.5t-60 221q0 183 131 314t314 131q119 0 221 -60t161.5 -162.5t59.5 -222.5q0 -119 -59.5 -221t-161.5 -161.5t-221 -59.5zM506 207q149 0 256.5 106.5t107.5 255.5q0 151 -107.5 259t-256.5 108q-151 0 -258 -108t-107 -259
q0 -149 107 -255.5t258 -106.5zM664 522l75 74l-233 217l-236 -217l76 -76l109 107v-277h102v277z" />
    <glyph glyph-name="arrowupleft.ss13" horiz-adv-x="1009" 
d="M506 127q-121 0 -223.5 60t-162 162t-59.5 220q0 183 131 314t314 131q119 0 221 -60t161.5 -162.5t59.5 -222.5q0 -119 -59.5 -221t-161.5 -161.5t-221 -59.5zM506 207q149 0 256.5 106.5t107.5 255.5q0 151 -107.5 259t-256.5 108q-151 0 -258 -108t-107 -259
q0 -149 107 -255.5t258 -106.5zM438 422h-104v328h330v-101h-150l197 -198l-74 -72l-199 194v-151z" />
    <glyph glyph-name="arrowupright.ss13" horiz-adv-x="1009" 
d="M504 127q-182 0 -312.5 130.5t-130.5 311.5q0 120 60 222.5t162 162.5t221 60q183 0 313.5 -131t130.5 -314q0 -181 -129.5 -311.5t-314.5 -130.5zM504 207q151 0 258.5 106.5t107.5 255.5q0 151 -107.5 259t-258.5 108q-149 0 -256 -108t-107 -259q0 -149 107 -255.5
t256 -106.5zM496 649h-150v101h330v-328h-105v151l-198 -194l-72 72z" />
    <glyph glyph-name="at.case" horiz-adv-x="1810" 
d="M1325 1008v-578q0 -87 15.5 -116t52.5 -29q19 0 38.5 5.5t44 19t45.5 41t39 66.5t29.5 101t12.5 139q0 289 -179 462t-487 173q-160 0 -295 -52.5t-229.5 -146.5t-147.5 -229t-53 -295q0 -313 183.5 -494t490.5 -181q145 0 262.5 24.5t243.5 73.5l45 -111
q-106 -59 -253.5 -93t-297.5 -34q-242 0 -427 101.5t-286.5 286.5t-101.5 427q0 188 65.5 347.5t180 269.5t274.5 171.5t346 61.5q180 0 330.5 -56t255 -155.5t162 -241t57.5 -309.5q-1 -97 -18 -176.5t-43.5 -133t-64 -94t-74.5 -63.5t-80 -36.5t-76.5 -18t-67.5 -4.5
q-43 0 -75.5 4.5t-67 17.5t-61 40.5t-42.5 68.5q-79 -76 -145.5 -103.5t-165.5 -27.5q-324 0 -324 444q0 232 83.5 340.5t248.5 108.5q153 0 276 -117v101h281zM1044 430v275q-74 83 -174 83q-80 0 -119.5 -48t-39.5 -165q0 -125 37 -175t116 -50q52 0 92.5 17.5t87.5 56.5
v6z" />
    <glyph glyph-name="registered.ss04" horiz-adv-x="1499" 
d="M752 1270q175 0 322.5 -86.5t233 -235t85.5 -323.5q0 -176 -85.5 -324t-233 -233.5t-322.5 -85.5q-176 0 -324 85.5t-233.5 233.5t-85.5 324q0 175 85.5 323.5t233.5 235t324 86.5zM752 57q153 0 283 75.5t206 206.5t76 286q0 154 -76 285t-206 207.5t-283 76.5
q-116 0 -221.5 -45t-181 -121.5t-120.5 -182t-45 -220.5q0 -116 45 -221.5t120.5 -181t181 -120.5t221.5 -45zM453 989h303q165 0 242 -63.5t77 -188.5q0 -171 -127 -227l156 -244h-225l-127 215h-101v-217h-198v725zM651 645h125q57 0 81 21t24 63q0 98 -123 98h-107v-182z
" />
    <glyph glyph-name="ampersand.ss09" horiz-adv-x="1288" 
d="M1270 592v-264q-46 0 -140 4q-38 -179 -158 -264.5t-356 -85.5q-265 0 -403.5 94t-138.5 280q0 101 54.5 173.5t186.5 140.5q-71 70 -98 137t-27 145q0 151 111.5 234.5t312.5 83.5q168 0 269.5 -84t101.5 -223q0 -109 -65.5 -201t-208.5 -150q-37 -15 -86.5 -34
t-74 -28.5t-56.5 -24t-46.5 -25.5t-29.5 -26.5t-20 -34t-5 -42.5q0 -139 223 -139q66 0 109.5 12t71.5 34t42 65t18.5 92.5t4.5 130.5h408zM479 940q0 -78 92 -158q85 33 126.5 71t41.5 87q0 58 -32.5 88.5t-92.5 30.5q-58 0 -96.5 -32t-38.5 -87z" />
    <glyph glyph-name="ampersand.ss10" horiz-adv-x="1058" 
d="M934 322l96 -228q-163 -79 -332 -102v-119h-241v113q-396 29 -396 313q0 112 56 178t170 96q-154 66 -154 228q0 290 318 332v122h241v-122q153 -18 297 -82l-92 -232q-173 55 -315 55q-86 0 -127 -24.5t-41 -79.5q0 -50 50.5 -68t172.5 -18h129v-229h-201
q-101 0 -147.5 -22.5t-46.5 -84.5q0 -104 190 -104q102 0 178.5 16.5t194.5 61.5z" />
    <glyph glyph-name="copyright.ss11" horiz-adv-x="974" 
d="M487 477q-165 0 -280 115t-115 280t115 281.5t280 116.5t280.5 -116.5t115.5 -281.5q0 -164 -115.5 -279.5t-280.5 -115.5zM487 539q138 0 235 98t97 235q0 138 -97 237t-235 99t-234.5 -99t-96.5 -237q0 -137 97 -235t234 -98zM635 801l47 -88q-89 -68 -195 -68
q-95 0 -156 59.5t-61 161.5q0 109 58 170.5t157 61.5q92 0 183 -51l-41 -97q-71 31 -121 31q-47 0 -69.5 -27.5t-22.5 -87.5q0 -104 92 -104q56 0 129 39z" />
    <glyph glyph-name="registered.ss12" horiz-adv-x="974" 
d="M487 477q-165 0 -280 115t-115 280t115 281.5t280 116.5t280.5 -116.5t115.5 -281.5q0 -164 -115.5 -279.5t-280.5 -115.5zM487 539q138 0 235 98t97 235q0 138 -97 237t-235 99t-234.5 -99t-96.5 -237q0 -137 97 -235t234 -98zM311 1090h181q194 0 194 -148
q0 -90 -76 -113q57 -31 88 -159h-145q-23 83 -38 103q-14 18 -34 18h-49v-121h-121v420zM442 881h62q27 0 40 15t13 40q0 55 -65 55h-50v-110z" />
    <glyph glyph-name="caron.alt" 
d="M614 1456v-24q-15 -199 -92 -353h-145l6 377h231z" />
    <glyph glyph-name="acute.case" 
d="M780 1575v-66q-97 -65 -180 -107t-207 -89l-80 82l232 307z" />
    <glyph glyph-name="breve.case" 
d="M635 1622h182q0 -135 -78.5 -207t-232.5 -72q-152 0 -230.5 72t-78.5 207h182q3 -43 36 -71.5t91 -28.5q60 0 93.5 29t35.5 71z" />
    <glyph glyph-name="caron.case" 
d="M600 1319h-186l-269 283l82 86l281 -170l280 170l80 -86z" />
    <glyph glyph-name="circumflex.case" 
d="M508 1475l-281 -170l-82 86l269 282h186l268 -282l-80 -86z" />
    <glyph glyph-name="dieresis.case" 
d="M295 1647q64 0 106.5 -38.5t42.5 -105.5q0 -65 -42.5 -103t-106.5 -38q-59 0 -103.5 38.5t-44.5 102.5q0 66 44.5 105t103.5 39zM719 1647q59 0 103 -39t44 -105q0 -64 -44 -102.5t-103 -38.5q-64 0 -106 38t-42 103q0 67 42 105.5t106 38.5z" />
    <glyph glyph-name="dotaccent.case" 
d="M508 1659q64 0 113 -42.5t49 -113.5t-48.5 -113t-113.5 -42q-70 0 -117 41.5t-47 113.5q0 73 47 114.5t117 41.5z" />
    <glyph glyph-name="grave.case" 
d="M694 1391l-80 -84q-124 47 -207 88.5t-182 109.5v64l236 129z" />
    <glyph glyph-name="hungarumlaut.case" 
d="M557 1599v-61q-173 -136 -295 -219l-106 70l192 319zM930 1599v-61q-160 -129 -293 -219l-109 70l193 319z" />
    <glyph glyph-name="macron.case" 
d="M815 1380h-616v224h616v-224z" />
    <glyph glyph-name="ring.case" 
d="M508 1759q99 0 161 -60.5t62 -158.5q0 -95 -62.5 -154t-162.5 -59q-98 0 -159.5 59t-61.5 154q0 98 61.5 158.5t161.5 60.5zM506 1460q40 0 64 21.5t24 58.5q0 41 -23.5 63.5t-62.5 22.5t-63.5 -23t-24.5 -63q0 -36 24.5 -58t61.5 -22z" />
    <glyph glyph-name="tilde.case" 
d="M750 1618l118 -4q-4 -77 -29.5 -133t-63 -84t-83.5 -39.5t-90.5 -5.5t-83.5 24l-112 54q-47 23 -74.5 10.5t-67.5 -68.5l-110 4q3 76 27 131t59.5 82.5t80 38t88.5 4.5t85 -24l110 -54q25 -12 42.5 -14t35 7t31.5 24.5t37 46.5z" />
    </font>
</defs>
</svg>
