<?xml version="1.0" standalone="no"?>
<!DOCTYPE svg PUBLIC "-//W3C//DTD SVG 1.1//EN" "http://www.w3.org/Graphics/SVG/1.1/DTD/svg11.dtd" >
<svg xmlns="http://www.w3.org/2000/svg" xmlns:xlink="http://www.w3.org/1999/xlink" version="1.1">
<metadata>
Created by FontForge 20170731 at Tue Jul 25 09:29:20 2023
 By Aleksey,,,
Copyright (c) 2013 by Rene Bieder. All rights reserved.
</metadata>
<defs>
<font id="Gentona-Book" horiz-adv-x="1142" >
  <font-face 
    font-family="Gentona Book"
    font-weight="400"
    font-stretch="normal"
    units-per-em="2048"
    panose-1="0 0 5 0 0 0 0 0 0 0"
    ascent="1638"
    descent="-410"
    x-height="965"
    cap-height="1249"
    bbox="-201 -492 2423 1792"
    underline-thickness="102"
    underline-position="-307"
    unicode-range="U+0020-FB02"
  />
<missing-glyph horiz-adv-x="1542" 
d="M1350 0h-1157v1249h1157v-1249zM274 1167v-1085h994v1085h-994zM705 483l-11 135q224 24 224 156q0 53 -37.5 85t-98.5 32q-94 0 -217 -45l-22 59q132 53 239 53q95 0 154 -49.5t59 -134.5q0 -84 -62.5 -137.5t-160.5 -67.5v-86h-67zM737 367q20 0 32.5 -12.5t12.5 -32.5
q0 -23 -12.5 -36.5t-32.5 -13.5q-47 0 -47 50q0 45 47 45z" />
    <glyph glyph-name="fi" unicode="fi" horiz-adv-x="1150" 
d="M999 0h-184v811h-448v-811h-185v811h-139v156h139v75q0 171 75.5 252.5t244.5 81.5q64 0 223 -24l-16 -138q-129 11 -177 11q-94 0 -129.5 -43.5t-35.5 -139.5v-75h632v-967zM911 1145q-47 0 -78.5 27t-31.5 75q0 49 31.5 76t78.5 27t79 -27t32 -76q0 -47 -32 -74.5
t-79 -27.5z" />
    <glyph glyph-name="fl" unicode="fl" horiz-adv-x="1140" 
d="M997 0h-184v1204q-177 21 -281 21q-94 0 -129.5 -43.5t-35.5 -139.5v-75h292v-156h-292v-811h-185v811h-139v156h139v75q0 171 75.5 252.5t244.5 81.5q83 0 311 -43v35h184v-1368z" />
    <glyph glyph-name="f_f" unicode="ff" horiz-adv-x="1345" 
d="M1358 1358l-15 -139q-64 6 -143 6q-95 0 -132.5 -44t-37.5 -139v-75h297v-156h-297v-811h-184v811h-484v-811h-184v811h-135v156h135v75q0 171 77 252.5t247 81.5q112 0 188 -18l-14 -139q-64 6 -144 6q-95 0 -132.5 -44t-37.5 -139v-75h484v75q0 171 76.5 252.5
t246.5 81.5q113 0 189 -18z" />
    <glyph glyph-name="f_f_i" unicode="ffi" horiz-adv-x="1802" 
d="M1018 967h635v-967h-185v811h-450v-811h-184v811h-472v-811h-184v811h-135v156h135v75q0 171 77 252.5t247 81.5q112 0 188 -18l-14 -139q-64 6 -144 6q-95 0 -132.5 -44t-37.5 -139v-75h472v75q0 172 75 253t244 81q73 0 211 -22l-14 -129q-112 10 -166 10
q-93 0 -129.5 -48t-36.5 -145v-75zM1563 1145q-47 0 -79 27.5t-32 74.5q0 49 32 76t79 27t78.5 -27t31.5 -76q0 -48 -31.5 -75t-78.5 -27z" />
    <glyph glyph-name="f_f_l" unicode="ffl" horiz-adv-x="1785" 
d="M1642 1366v-1366h-184v1204q-177 21 -282 21q-94 0 -129 -43.5t-35 -139.5v-75h291v-156h-291v-811h-185v811h-465v-811h-184v811h-135v156h135v75q0 170 77.5 252t246.5 82q96 0 188 -18l-14 -139q-64 6 -144 6q-95 0 -132.5 -44t-37.5 -139v-75h465v75q0 170 75.5 252
t242.5 82q85 0 313 -43v35z" />
    <glyph glyph-name=".notdef" horiz-adv-x="1542" 
d="M1350 0h-1157v1249h1157v-1249zM274 1167v-1085h994v1085h-994zM705 483l-11 135q224 24 224 156q0 53 -37.5 85t-98.5 32q-94 0 -217 -45l-22 59q132 53 239 53q95 0 154 -49.5t59 -134.5q0 -84 -62.5 -137.5t-160.5 -67.5v-86h-67zM737 367q20 0 32.5 -12.5t12.5 -32.5
q0 -23 -12.5 -36.5t-32.5 -13.5q-47 0 -47 50q0 45 47 45z" />
    <glyph glyph-name=".null" horiz-adv-x="0" 
 />
    <glyph glyph-name="nonmarkingreturn" horiz-adv-x="682" 
 />
    <glyph glyph-name="space" unicode=" " horiz-adv-x="450" 
 />
    <glyph glyph-name="exclam" unicode="!" horiz-adv-x="450" 
d="M152 408l-27 841h199l-27 -841h-145zM225 186q44 0 70.5 -27t26.5 -69t-27 -70t-70 -28q-42 0 -69 28t-27 70t27 69t69 27z" />
    <glyph glyph-name="quotedbl" unicode="&#x22;" horiz-adv-x="653" 
d="M295 1337l-49 -524h-123v524h172zM543 1337l-49 -524h-123v524h172z" />
    <glyph glyph-name="numbersign" unicode="#" horiz-adv-x="1415" 
d="M979 399h254l-27 -135h-258l-61 -264h-150l62 264h-324l-61 -264h-150l62 264h-238l27 135h241l78 330h-239l26 135h244l61 262h150l-62 -262h324l61 262h150l-62 -262h252l-26 -135h-256zM584 729l-78 -330h323l78 330h-323z" />
    <glyph glyph-name="dollar" unicode="$" horiz-adv-x="1083" 
d="M932 1014l-45 -131q-236 98 -385 98q-91 0 -146 -39.5t-55 -103.5q0 -72 57.5 -109.5t251.5 -97.5q203 -61 284 -137t81 -203q0 -136 -104.5 -220.5t-284.5 -88.5v-117h-125v123q-216 27 -395 166l67 131q204 -160 434 -160q106 0 167 44t61 116q0 75 -63 117.5
t-257 105.5q-200 64 -276 134t-76 196q0 122 90 198t246 82v133h127v-137q155 -19 346 -100z" />
    <glyph glyph-name="percent" unicode="%" horiz-adv-x="1726" 
d="M395 1270q154 0 234 -95.5t80 -279.5q0 -183 -80 -277t-234 -94t-232.5 94t-78.5 277q0 185 78.5 280t232.5 95zM1274 1249l-727 -1249h-113l725 1249h115zM395 637q189 0 189 258q0 262 -189 262q-186 0 -186 -262q0 -258 186 -258zM1331 727q154 0 232.5 -95t78.5 -280
q0 -183 -78.5 -276.5t-232.5 -93.5t-233.5 93.5t-79.5 276.5q0 184 79.5 279.5t233.5 95.5zM1331 96q187 0 187 256q0 262 -187 262q-186 0 -186 -262q0 -256 186 -256z" />
    <glyph glyph-name="ampersand" unicode="&#x26;" horiz-adv-x="1323" 
d="M1184 0l-197 162q-89 -97 -185 -138.5t-220 -41.5q-233 0 -360.5 92t-127.5 264q0 105 68 178.5t223 145.5q-94 89 -130 158.5t-36 154.5q0 136 99.5 215.5t269.5 79.5q155 0 247.5 -80.5t92.5 -220.5q0 -104 -66.5 -192t-210.5 -146l314 -254q44 61 129 213l125 -76
q-80 -147 -140 -231l193 -156zM387 969q0 -64 32.5 -116.5t115.5 -127.5q142 58 195.5 110t53.5 123q0 90 -52 138.5t-142 48.5t-146.5 -47.5t-56.5 -128.5zM870 258l-374 309q-118 -53 -170 -99t-52 -110q0 -110 85 -170.5t223 -60.5q86 0 155 31t133 100z" />
    <glyph glyph-name="quotesingle" unicode="'" horiz-adv-x="403" 
d="M305 1337l-49 -524h-123v524h172z" />
    <glyph glyph-name="parenleft" unicode="(" horiz-adv-x="647" 
d="M479 1352l115 -70q-260 -368 -260 -784q0 -417 260 -785l-115 -69q-313 378 -313 854t313 854z" />
    <glyph glyph-name="parenright" unicode=")" horiz-adv-x="641" 
d="M59 1282l115 70q313 -378 313 -854t-313 -854l-115 69q260 363 260 785q0 421 -260 784z" />
    <glyph glyph-name="asterisk" unicode="*" horiz-adv-x="864" 
d="M684 674l-72 -62l-180 195l-182 -195l-70 62l152 205l-232 98l29 88l240 -70l12 254h100l15 -256l239 72l31 -88l-236 -98z" />
    <glyph glyph-name="plus" unicode="+" horiz-adv-x="972" 
d="M551 418v-340h-135v340h-342v137h342v342h135v-342h344v-137h-344z" />
    <glyph glyph-name="comma" unicode="," horiz-adv-x="524" 
d="M166 -262l-49 55q59 50 86.5 97.5t40.5 107.5q-38 9 -61 37.5t-23 68.5q0 50 30 81.5t80 31.5t81.5 -35t31.5 -88q0 -95 -54.5 -188.5t-162.5 -167.5z" />
    <glyph glyph-name="hyphen" unicode="-" horiz-adv-x="806" 
d="M678 657v-163h-549v163h549z" />
    <glyph glyph-name="period" unicode="." horiz-adv-x="507" 
d="M141 104q0 50 31 81.5t82 31.5t82 -31.5t31 -81.5q0 -48 -31.5 -80t-81.5 -32t-81.5 32t-31.5 80z" />
    <glyph glyph-name="slash" unicode="/" horiz-adv-x="860" 
d="M756 1356l-537 -1778h-156l533 1778h160z" />
    <glyph glyph-name="zero" unicode="0" horiz-adv-x="1259" 
d="M629 1270q262 0 398 -166.5t136 -480.5q0 -310 -136 -475.5t-398 -165.5q-261 0 -397 165.5t-136 475.5q0 314 136 480.5t397 166.5zM629 152q344 0 344 471q0 477 -344 477q-342 0 -342 -477q0 -231 85.5 -351t256.5 -120z" />
    <glyph glyph-name="one" unicode="1" horiz-adv-x="991" 
d="M891 0h-758v160h307v874q-149 -54 -278 -78l-37 115q213 80 354 178h148v-1089h264v-160z" />
    <glyph glyph-name="two" unicode="2" horiz-adv-x="1064" 
d="M1008 0h-928v135q56 46 133 107.5t130.5 103.5t118 96t108.5 94t88.5 87t70.5 86.5t42.5 81.5t16.5 81q0 114 -65 176t-182 62q-194 0 -420 -109l-53 136q282 133 503 133q191 0 300.5 -105.5t109.5 -287.5q0 -60 -18.5 -117.5t-65.5 -117.5t-87 -104.5t-124.5 -111.5
t-133.5 -103.5t-156 -113.5q-52 -38 -79 -57q140 8 195 8h496v-160z" />
    <glyph glyph-name="three" unicode="3" horiz-adv-x="1091" 
d="M127 1018l-43 127q251 119 494 119q182 0 296.5 -95t114.5 -249q0 -101 -56.5 -174t-148.5 -105q121 -41 181.5 -113t60.5 -186q0 -165 -123.5 -262.5t-331.5 -97.5q-129 0 -267 31.5t-251 92.5l53 132q111 -54 232.5 -79.5t226.5 -25.5q128 0 204.5 57t76.5 156
q0 108 -85.5 161.5t-244.5 53.5h-180v160h180q151 0 225 42t74 132q0 101 -70.5 161t-189.5 60q-194 0 -428 -98z" />
    <glyph glyph-name="four" unicode="4" horiz-adv-x="1226" 
d="M975 0h-187v279h-725l-6 143l731 827h187v-809h209v-161h-209v-279zM788 440v582q-58 -78 -104 -129l-289 -324q-66 -78 -121 -129h514z" />
    <glyph glyph-name="five" unicode="5" horiz-adv-x="1112" 
d="M342 1090l-33 -404q166 78 320 78q186 0 295.5 -102t109.5 -275q0 -187 -130.5 -296t-336.5 -109q-129 0 -265 31.5t-249 92.5l53 138q220 -103 439 -103q137 0 223 69t86 185q0 108 -76 175t-203 67q-137 0 -286 -84l-156 25l47 671h807v-159h-645z" />
    <glyph glyph-name="six" unicode="6" horiz-adv-x="1165" 
d="M1044 1202l-47 -135q-152 49 -286 49q-190 -2 -306 -133.5t-126 -359.5q148 178 403 178q188 0 302 -106t114 -283q0 -202 -127 -316t-342 -114q-260 0 -396.5 155t-136.5 436q0 316 168.5 505.5t437.5 191.5q181 0 342 -68zM629 133q129 0 211 76t82 211q0 118 -80 187
t-213 69q-115 0 -206.5 -56.5t-137.5 -146.5q22 -165 108.5 -252.5t235.5 -87.5z" />
    <glyph glyph-name="seven" unicode="7" horiz-adv-x="950" 
d="M938 1249v-141q-169 -216 -312.5 -517t-219.5 -591h-220q89 295 233 589.5t312 500.5h-706v159h913z" />
    <glyph glyph-name="eight" unicode="8" horiz-adv-x="1191" 
d="M807 666q161 -47 237 -126.5t76 -201.5q0 -168 -138.5 -262t-377.5 -94q-263 0 -397.5 92.5t-134.5 263.5q0 223 286 315q-229 89 -229 285q0 154 128 243t349 89q212 0 333.5 -87.5t121.5 -236.5q0 -203 -254 -280zM598 1145q-129 0 -208 -57t-79 -148q0 -89 72 -143.5
t238 -89.5q141 30 203.5 89t62.5 148q0 90 -79.5 145.5t-209.5 55.5zM590 127q153 0 242.5 58.5t89.5 160.5q0 98 -89 157.5t-307 100.5q-149 -37 -211.5 -102t-62.5 -152q0 -105 91 -164t247 -59z" />
    <glyph glyph-name="nine" unicode="9" horiz-adv-x="1165" 
d="M137 63l49 134q148 -60 293 -60q191 0 291 123t109 361q-148 -175 -396 -175q-187 0 -301 108.5t-114 285.5q0 203 129 316.5t352 113.5q248 0 380 -155.5t132 -436.5q0 -340 -149 -518t-427 -178q-115 0 -186.5 17.5t-161.5 63.5zM537 575q107 0 195 54.5t142 138.5
q-19 170 -102 260t-223 90q-137 0 -221 -75.5t-84 -211.5q0 -118 80 -187t213 -69z" />
    <glyph glyph-name="colon" unicode=":" horiz-adv-x="507" 
d="M141 782q0 50 31 81.5t82 31.5t82 -31.5t31 -81.5q0 -48 -31.5 -80t-81.5 -32t-81.5 32t-31.5 80zM141 104q0 50 31 81.5t82 31.5t82 -31.5t31 -81.5q0 -48 -31.5 -80t-81.5 -32t-81.5 32t-31.5 80z" />
    <glyph glyph-name="semicolon" unicode=";" horiz-adv-x="524" 
d="M143 782q0 48 30.5 80.5t80.5 32.5t81.5 -32.5t31.5 -80.5q0 -50 -31 -81t-82 -31t-81 31t-30 81zM156 -262l-50 55q59 50 86.5 97.5t40.5 107.5q-38 9 -60.5 37.5t-22.5 68.5q0 50 30 81.5t80 31.5t81.5 -35t31.5 -88q0 -95 -54.5 -188.5t-162.5 -167.5z" />
    <glyph glyph-name="less" unicode="&#x3c;" horiz-adv-x="823" 
d="M702 825l-327 -270q-13 -8 -36.5 -25.5t-35.5 -25.5l74 -53l325 -271l-84 -96l-516 420l514 422z" />
    <glyph glyph-name="equal" unicode="=" horiz-adv-x="952" 
d="M74 598v121h800v-121h-800zM74 293v121h800v-121h-800z" />
    <glyph glyph-name="greater" unicode="&#x3e;" horiz-adv-x="827" 
d="M133 825l86 101l514 -422l-516 -420l-84 96l326 271l73 53q-13 8 -35.5 25.5t-35.5 25.5z" />
    <glyph glyph-name="question" unicode="?" horiz-adv-x="1050" 
d="M100 991l-53 146q282 133 504 133q184 0 297 -104.5t113 -274.5q0 -146 -113 -242t-324 -131l6 -145h-151l-27 282q200 15 308 71.5t108 145.5q0 103 -68 165.5t-180 62.5q-194 0 -420 -109zM457 186q44 0 70 -27t26 -69t-26.5 -70t-69.5 -28q-42 0 -69.5 28t-27.5 70
t27 69t70 27z" />
    <glyph glyph-name="at" unicode="@" horiz-adv-x="1865" 
d="M1325 850v-627q0 -80 24 -112.5t74 -32.5q34 0 67 13t67.5 46t60.5 81t43 125t18 173q0 304 -193.5 487t-522.5 183q-227 0 -403.5 -95t-275 -270t-98.5 -401q0 -333 204 -533t538 -200q271 0 495 116l35 -69q-105 -65 -243 -101t-287 -36q-185 0 -340.5 59.5
t-263.5 166.5t-168 260.5t-60 336.5q0 251 111.5 445t308.5 299.5t447 105.5q182 0 333 -55t255 -153.5t161 -238.5t57 -307q-1 -121 -26.5 -216.5t-65 -153.5t-91.5 -96.5t-101.5 -53t-100.5 -14.5q-82 0 -135 31.5t-73 111.5q-84 -76 -159 -109.5t-183 -33.5
q-340 0 -340 446q0 224 95 331t267 107q159 0 309 -104v88h160zM1165 256v356q-71 61 -130 89t-130 28q-256 0 -256 -301q0 -174 60.5 -245.5t175.5 -71.5q79 0 138.5 35t141.5 110z" />
    <glyph glyph-name="A" unicode="A" horiz-adv-x="1351" 
d="M354 295l-121 -295h-202l520 1249h252l520 -1249h-203l-121 295h-645zM928 469l-205 498q-27 73 -47 149q-20 -76 -47 -149l-205 -498h504z" />
    <glyph glyph-name="B" unicode="B" horiz-adv-x="1220" 
d="M172 1249h420q239 0 354 -84.5t115 -259.5q0 -94 -51.5 -158t-149.5 -94q139 -32 211 -111t72 -194q0 -178 -129 -263t-398 -85h-444v1249zM360 1073v-342h304q104 0 161.5 42t57.5 118q0 94 -71 138t-220 44h-232zM360 557v-379h261q167 0 247 44t80 136q0 95 -74 147
t-210 52h-304z" />
    <glyph glyph-name="C" unicode="C" horiz-adv-x="1271" 
d="M1126 279l72 -146q-210 -151 -514 -151q-278 0 -433 167.5t-155 473.5q0 311 158.5 479t450.5 168q116 0 235.5 -28.5t208.5 -80.5l-59 -143q-180 76 -379 76q-207 0 -314.5 -119.5t-107.5 -351.5q0 -220 106.5 -342.5t296.5 -122.5q241 0 434 121z" />
    <glyph glyph-name="D" unicode="D" horiz-adv-x="1339" 
d="M172 1249h393q325 0 501.5 -159.5t176.5 -454.5q0 -305 -176.5 -470t-501.5 -165h-393v1249zM360 176h205q233 0 359.5 119.5t126.5 339.5q0 211 -126.5 324.5t-359.5 113.5h-205v-897z" />
    <glyph glyph-name="E" unicode="E" horiz-adv-x="1155" 
d="M1034 0h-862v1249h844v-176h-656v-358h572v-176h-572v-363h674v-176z" />
    <glyph glyph-name="F" unicode="F" horiz-adv-x="1069" 
d="M360 682h555v-176h-555v-506h-188v1249h825v-176h-637v-391z" />
    <glyph glyph-name="G" unicode="G" horiz-adv-x="1370" 
d="M1251 649v-497q-142 -89 -281.5 -129.5t-299.5 -40.5q-268 0 -421 168t-153 473q0 301 159.5 474t440.5 173q267 0 496 -92l-53 -156q-210 72 -426 72q-203 0 -313.5 -122.5t-110.5 -346.5q0 -227 102 -347t287 -120q122 0 216 21t177 75v223h-420v172h600z" />
    <glyph glyph-name="H" unicode="H" horiz-adv-x="1398" 
d="M1227 0h-189v549h-678v-549h-188v1249h188v-524h678v524h189v-1249z" />
    <glyph glyph-name="I" unicode="I" horiz-adv-x="532" 
d="M360 0h-188v1249h188v-1249z" />
    <glyph glyph-name="J" unicode="J" horiz-adv-x="983" 
d="M817 1249v-817q0 -203 -106 -326.5t-281 -123.5q-177 0 -387 106l53 154q56 -24 89.5 -36.5t92.5 -26t113 -13.5q107 0 172.5 73t65.5 193v817h188z" />
    <glyph glyph-name="K" unicode="K" horiz-adv-x="1306" 
d="M621 582l-261 -285v-297h-188v1249h188v-686l637 686h224v-12l-478 -518l512 -705v-14h-208z" />
    <glyph glyph-name="L" unicode="L" horiz-adv-x="1038" 
d="M973 0h-801v1249h188v-1069h613v-180z" />
    <glyph glyph-name="M" unicode="M" horiz-adv-x="1710" 
d="M1350 0l-27 838v67l-393 -905h-150l-391 905v-63l-29 -842h-190l45 1249h227l385 -899q13 -29 27 -76q10 33 29 76l385 899h229l45 -1249h-192z" />
    <glyph glyph-name="N" unicode="N" horiz-adv-x="1413" 
d="M1241 0h-172l-709 928v-928h-188v1249h172l709 -932v932h188v-1249z" />
    <glyph glyph-name="O" unicode="O" horiz-adv-x="1382" 
d="M690 1270q284 0 440 -168t156 -479q0 -307 -156 -474t-440 -167q-282 0 -438 167t-156 474q0 311 155.5 479t438.5 168zM690 158q195 0 299.5 119t104.5 346q0 230 -104.5 350.5t-299.5 120.5q-193 0 -297 -120.5t-104 -350.5q0 -227 104 -346t297 -119z" />
    <glyph glyph-name="P" unicode="P" horiz-adv-x="1179" 
d="M172 1249h432q246 0 379 -115.5t133 -330.5q0 -214 -131 -329.5t-373 -115.5h-252v-358h-188v1249zM360 535h250q156 0 239.5 69.5t82.5 198.5q0 129 -85.5 199.5t-242.5 70.5h-244v-538z" />
    <glyph glyph-name="Q" unicode="Q" horiz-adv-x="1366" 
d="M1270 623q0 -308 -152.5 -474.5t-433.5 -166.5q-283 0 -435.5 166.5t-152.5 474.5q0 312 152.5 479.5t435.5 167.5q282 0 434 -167.5t152 -479.5zM289 623q0 -229 100.5 -347t294.5 -118q192 0 292.5 118.5t100.5 346.5q0 231 -100.5 351t-292.5 120q-194 0 -294.5 -120
t-100.5 -351zM551 -207l37 109q147 -73 277.5 -103t312.5 -30v-150q-352 0 -627 174z" />
    <glyph glyph-name="R" unicode="R" horiz-adv-x="1226" 
d="M1176 14v-14h-207l-318 393h-291v-393h-188v1249h461q247 0 380.5 -112.5t133.5 -319.5q0 -146 -81.5 -251t-223.5 -148zM360 569h277q152 0 234.5 64.5t82.5 183.5q0 121 -82.5 187.5t-234.5 68.5h-277v-504z" />
    <glyph glyph-name="S" unicode="S" horiz-adv-x="1124" 
d="M981 1171l-57 -151q-209 84 -402 84q-94 0 -149.5 -45.5t-55.5 -106.5q0 -39 12.5 -68.5t27.5 -48t57.5 -39t71.5 -31t101 -33.5q41 -14 64 -21q73 -24 122 -44.5t99 -52t79 -67.5t47 -88t18 -117q0 -90 -32 -160.5t-88 -113t-128 -64.5t-156 -22q-128 0 -278 43.5
t-271 111.5l74 148q124 -60 249 -95.5t218 -35.5q100 0 158.5 41t58.5 118q0 99 -65 147.5t-267 108.5q-52 15 -84 26t-75 29t-69.5 35.5t-55.5 45t-45 59t-26.5 75t-10.5 95.5q0 151 108.5 243.5t292.5 92.5q224 0 457 -99z" />
    <glyph glyph-name="T" unicode="T" horiz-adv-x="1118" 
d="M1090 1073h-437v-1073h-188v1073h-436v176h1061v-176z" />
    <glyph glyph-name="U" unicode="U" horiz-adv-x="1357" 
d="M1212 1249v-680q0 -282 -138.5 -434.5t-393.5 -152.5t-394 152.5t-139 434.5v680h189v-680q0 -197 89.5 -302t254.5 -105q166 0 255 104.5t89 302.5v680h188z" />
    <glyph glyph-name="V" unicode="V" horiz-adv-x="1306" 
d="M762 0h-217l-514 1249h211l364 -907q30 -82 47 -154q17 63 47 154l373 907h205z" />
    <glyph glyph-name="W" unicode="W" horiz-adv-x="1826" 
d="M1438 0h-275l-219 817q-1 7 -13 63t-18 91q-5 -34 -28 -154l-221 -817h-275l-358 1249h211l250 -907q19 -88 28 -172q14 69 37 172l252 907h209l252 -907q23 -102 35 -170q14 99 30 170l252 907h211z" />
    <glyph glyph-name="X" unicode="X" horiz-adv-x="1239" 
d="M1198 0h-227l-318 475q-26 39 -32 51q-6 -9 -18 -26.5t-17 -24.5l-318 -475h-227l430 637l-418 612h232l301 -442q11 -15 35 -53q7 15 32 53l301 442h230l-420 -612z" />
    <glyph glyph-name="Y" unicode="Y" horiz-adv-x="1187" 
d="M688 410v-410h-188v410l-463 839h192l318 -555q20 -34 47 -106q16 49 47 106l317 555h193z" />
    <glyph glyph-name="Z" unicode="Z" horiz-adv-x="1204" 
d="M1118 0h-1018v145l766 934q-23 -1 -65 -2.5t-76 -2.5t-63 -1h-523v176h969v-153l-741 -926q22 1 63.5 2.5t74 2.5t58.5 1h555v-176z" />
    <glyph glyph-name="bracketleft" unicode="[" horiz-adv-x="741" 
d="M686 1206h-321v-1421h321v-145h-489v1712h489v-146z" />
    <glyph glyph-name="backslash" unicode="\" horiz-adv-x="860" 
d="M809 -422h-156l-536 1778h159z" />
    <glyph glyph-name="bracketright" unicode="]" horiz-adv-x="741" 
d="M559 1352v-1712h-489v145h321v1421h-321v146h489z" />
    <glyph glyph-name="asciicircum" unicode="^" horiz-adv-x="976" 
d="M729 702l-184 373q-41 73 -56 131h-4q-18 -68 -53 -131l-184 -373h-148l328 635h121l328 -635h-148z" />
    <glyph glyph-name="underscore" unicode="_" horiz-adv-x="952" 
d="M117 -244v138h719v-138h-719z" />
    <glyph glyph-name="grave" unicode="`" horiz-adv-x="999" 
d="M645 1163l-59 -59q-104 55 -163.5 96.5t-150.5 116.5l-2 37l152 96z" />
    <glyph glyph-name="a" unicode="a" horiz-adv-x="1050" 
d="M203 770l-31 150q247 65 393 65q199 0 278 -93.5t79 -311.5v-580h-185v121q-81 -66 -157 -102.5t-177 -36.5q-166 0 -246.5 69t-80.5 223q0 310 403 310q168 0 258 -2q0 142 -40 190.5t-162 48.5q-127 0 -332 -51zM737 451h-235q-135 0 -195.5 -34t-60.5 -124
q0 -174 211 -174q74 0 147.5 40.5t132.5 106.5v185z" />
    <glyph glyph-name="b" unicode="b" horiz-adv-x="1155" 
d="M328 1337v-503q159 149 358 149q185 0 284 -118t99 -378q0 -106 -22 -192t-60 -143.5t-90.5 -96.5t-110 -56t-122.5 -17q-113 0 -184.5 35t-151.5 110v-127h-185v1337h185zM328 666v-367q149 -164 282 -164q57 0 105.5 19.5t88 60t62.5 110t23 162.5q0 342 -260 342
q-150 0 -301 -163z" />
    <glyph glyph-name="c" unicode="c" horiz-adv-x="1013" 
d="M885 244l67 -123q-105 -79 -195.5 -109t-221.5 -30q-201 0 -325 136.5t-124 358.5q0 229 131 368.5t346 139.5q193 0 352 -94l-63 -125q-128 63 -287 63q-134 0 -215.5 -97t-81.5 -255q0 -154 79.5 -246t211.5 -92q91 0 164 23t162 82z" />
    <glyph glyph-name="d" unicode="d" horiz-adv-x="1157" 
d="M829 0v127q-80 -75 -152 -110t-185 -35q-82 0 -152.5 28.5t-128.5 86.5t-91.5 158t-33.5 232q0 258 101.5 378t281.5 120q207 0 360 -143v495h185v-1337h-185zM829 299v367q-137 163 -301 163q-260 0 -260 -342q0 -93 22.5 -162.5t62 -110t87.5 -60t105 -19.5
q61 0 115.5 25.5t87 55.5t81.5 83z" />
    <glyph glyph-name="e" unicode="e" horiz-adv-x="1073" 
d="M905 248l68 -119q-100 -79 -197.5 -113t-228.5 -34q-209 0 -335 122.5t-126 370.5q0 130 35 229t99 160t148 91t187 30q201 0 313.5 -122t116.5 -347q0 -47 -6 -84h-717q11 -157 88.5 -230t204.5 -73q97 0 177.5 27.5t172.5 91.5zM266 575h555q-10 127 -78.5 194
t-187.5 67q-115 0 -192.5 -64t-96.5 -197z" />
    <glyph glyph-name="f" unicode="f" horiz-adv-x="675" 
d="M690 1358l-14 -139q-64 6 -144 6q-95 0 -132.5 -44t-37.5 -139v-75h297v-156h-297v-811h-184v811h-135v156h135v75q0 171 77 252.5t247 81.5q112 0 188 -18z" />
    <glyph glyph-name="g" unicode="g" horiz-adv-x="1126" 
d="M1014 967l-2 -820q0 -244 -115 -359.5t-326 -115.5q-240 0 -428 103l54 139q174 -78 352 -78q138 0 208 71.5t70 239.5v41q-74 -75 -150.5 -110t-193.5 -35q-84 0 -154.5 26.5t-125.5 79.5t-86 141.5t-31 203.5q0 491 383 491q186 0 360 -141v123h185zM827 354v312
q-77 82 -147.5 122.5t-153.5 40.5q-125 0 -192.5 -77.5t-67.5 -257.5q0 -83 22.5 -144t62.5 -95.5t88 -50.5t106 -16q87 0 148.5 42t133.5 124z" />
    <glyph glyph-name="h" unicode="h" horiz-adv-x="1138" 
d="M328 1337v-524q175 170 374 170q162 0 232 -90t70 -289v-604h-185v549q0 141 -33.5 197.5t-138.5 56.5q-165 0 -319 -178v-625h-185v1337h185z" />
    <glyph glyph-name="i" unicode="i" horiz-adv-x="481" 
d="M129 1247q0 49 32 76t79 27t78.5 -27t31.5 -76q0 -48 -32 -75t-78 -27q-47 0 -79 27.5t-32 74.5zM334 0h-184v967h184v-967z" />
    <glyph glyph-name="j" unicode="j" horiz-adv-x="481" 
d="M240 1145q-47 0 -79 27.5t-32 74.5q0 49 32 76t79 27t78.5 -27t31.5 -76q0 -48 -32 -75t-78 -27zM332 967v-908q0 -178 -58 -273t-204 -132l-41 145q71 35 94.5 87t23.5 173v908h185z" />
    <glyph glyph-name="k" unicode="k" horiz-adv-x="1073" 
d="M1008 967v-13l-379 -383l432 -557v-14h-217l-350 436l-166 -168v-268h-185v1337h185v-827l454 457h226z" />
    <glyph glyph-name="l" unicode="l" horiz-adv-x="468" 
d="M328 0h-185v1337h185v-1337z" />
    <glyph glyph-name="m" unicode="m" horiz-adv-x="1732" 
d="M328 967l-2 -144q82 78 159.5 119t167.5 41q225 0 283 -186q98 100 180 143t174 43q155 0 231 -92.5t76 -286.5v-604h-184v559q0 136 -31.5 194t-121.5 58q-131 0 -295 -170v-641h-185v559q0 135 -33.5 193.5t-123.5 58.5q-144 0 -295 -170v-641h-185v967h185z" />
    <glyph glyph-name="n" unicode="n" horiz-adv-x="1138" 
d="M328 967v-142q86 78 169.5 118t184.5 40q165 0 243.5 -91.5t78.5 -287.5v-604h-185v559q0 141 -33.5 196.5t-138.5 55.5q-171 0 -319 -172v-639h-185v967h185z" />
    <glyph glyph-name="o" unicode="o" 
d="M571 985q218 0 352 -139.5t134 -368.5q0 -223 -134 -359t-354 -136q-218 0 -350.5 136t-132.5 359q0 229 133.5 368.5t351.5 139.5zM569 139q138 0 223 93t85 245q0 158 -84.5 254t-221.5 96t-221 -96t-84 -254q0 -152 83.5 -245t219.5 -93z" />
    <glyph glyph-name="p" unicode="p" horiz-adv-x="1155" 
d="M328 967v-121q169 137 358 137q185 0 284 -118t99 -380q0 -131 -33.5 -230.5t-91 -157.5t-128.5 -86.5t-152 -28.5q-111 0 -183 34.5t-153 106.5v-455h-185v1299h185zM328 668v-371q147 -162 303 -162q117 0 186.5 84t69.5 266q0 185 -59 264.5t-179 79.5q-83 0 -171 -47
t-150 -114z" />
    <glyph glyph-name="q" unicode="q" horiz-adv-x="1155" 
d="M1012 -332h-185v453q-80 -71 -151.5 -105t-183.5 -34q-81 0 -152 28.5t-129 86.5t-91.5 157.5t-33.5 230.5q0 498 383 498q199 0 360 -135v119h185zM827 293v379q-146 157 -301 157q-258 0 -258 -342q0 -93 22.5 -162.5t62 -110t87.5 -60t105 -19.5q86 0 149 40.5
t133 117.5z" />
    <glyph glyph-name="r" unicode="r" horiz-adv-x="776" 
d="M328 967v-189q39 93 116 149t172 56q68 0 123 -6l-12 -182q-49 4 -117 4q-98 0 -171.5 -63t-110.5 -179v-557h-185v967h185z" />
    <glyph glyph-name="s" unicode="s" horiz-adv-x="913" 
d="M803 901l-49 -139q-209 78 -316 78q-78 0 -120 -31.5t-42 -89.5q0 -18 4.5 -32.5t17 -26.5t22.5 -19.5t34.5 -17t38.5 -14.5t48 -15.5t51 -15.5q68 -22 108 -36.5t84 -35.5t67 -42t43.5 -51t28.5 -67.5t8 -87.5q0 -128 -94 -202t-254 -74q-232 0 -424 141l78 129
q89 -63 164 -90t180 -27q82 0 130 31t48 90q0 23 -4.5 41t-11 31.5t-21.5 25t-27 19t-38.5 17t-44.5 15t-56 16.5t-63 19q-156 48 -222.5 104.5t-66.5 168.5q0 132 87.5 203t250.5 71q158 0 361 -86z" />
    <glyph glyph-name="t" unicode="t" horiz-adv-x="741" 
d="M676 172l20 -135q-125 -45 -225 -45q-153 0 -221 76t-68 247v496h-145v156h145v241h185v-241h286v-156h-286v-489q0 -95 36.5 -127.5t128.5 -32.5q72 0 144 10z" />
    <glyph glyph-name="u" unicode="u" horiz-adv-x="1134" 
d="M807 0v139q-93 -75 -179.5 -116t-183.5 -41q-162 0 -238.5 93.5t-76.5 289.5v602h184v-559q0 -136 42.5 -197t148.5 -61q80 0 159.5 51.5t143.5 128.5v637h184v-967h-184z" />
    <glyph glyph-name="v" unicode="v" horiz-adv-x="1060" 
d="M633 0h-205l-412 967h189l274 -621q8 -21 51 -151q26 92 54 151l272 621h188z" />
    <glyph glyph-name="w" unicode="w" horiz-adv-x="1492" 
d="M1165 0h-225l-192 662l-193 -662h-227l-308 967h179l213 -645q20 -79 30 -132q24 93 35 132l182 645h177l180 -645q6 -21 17.5 -66t17.5 -66q13 61 32 132l211 645h179z" />
    <glyph glyph-name="x" unicode="x" horiz-adv-x="995" 
d="M770 0l-217 293q-2 3 -23 33t-32 51q-10 -17 -58 -84l-215 -293h-202l344 487l-336 480h207l202 -287q48 -67 58 -84q11 21 32 51t23 33l205 285h207l-336 -478l342 -487h-201z" />
    <glyph glyph-name="y" unicode="y" horiz-adv-x="1044" 
d="M823 965h203q-4 -10 -33.5 -83.5t-35.5 -88t-33 -80.5t-35.5 -86.5t-32.5 -78t-36 -84t-33.5 -75t-37 -80.5t-34.5 -72t-37 -75q-91 -175 -203.5 -291t-265.5 -176l-66 158q159 76 252 184l-389 928h193l252 -598q7 -15 59 -152q31 62 61 126.5t63.5 146.5t55.5 137.5
t66 169t67 170.5z" />
    <glyph glyph-name="z" unicode="z" horiz-adv-x="1021" 
d="M944 0h-866v121l610 696q-74 -6 -178 -6h-418v156h834v-117l-594 -703q10 0 80.5 3.5t101.5 3.5h430v-154z" />
    <glyph glyph-name="braceleft" unicode="{" horiz-adv-x="788" 
d="M508 162v-137q0 -109 51 -166t180 -78l-12 -129q-208 13 -299.5 101.5t-91.5 271.5v137q0 158 -48 213t-194 61v129q145 6 193.5 61.5t48.5 213.5v137q0 181 91.5 269.5t299.5 101.5l12 -129q-128 -20 -179.5 -77t-51.5 -165v-137q0 -167 -51 -242.5t-170 -97.5
q119 -21 170 -96t51 -242z" />
    <glyph glyph-name="bar" unicode="|" horiz-adv-x="616" 
d="M231 -410v1747h154v-1747h-154z" />
    <glyph glyph-name="braceright" unicode="}" horiz-adv-x="788" 
d="M293 25v137q0 167 51 242t170 96q-119 22 -170 97.5t-51 242.5v137q0 108 -51.5 165t-180.5 77l13 129q208 -13 299.5 -101.5t91.5 -269.5v-137q0 -157 49 -213t193 -62v-129q-144 -6 -193 -61.5t-49 -212.5v-137q0 -183 -91.5 -271.5t-299.5 -101.5l-13 129
q130 21 181 78t51 166z" />
    <glyph glyph-name="asciitilde" unicode="~" horiz-adv-x="913" 
d="M758 668l78 -52q-46 -87 -96.5 -130t-105.5 -46t-120 23l-168 78q-57 28 -101.5 10t-92.5 -94l-78 51q67 125 145 157.5t174 -12.5l168 -75q59 -29 105 -9t92 99z" />
    <glyph glyph-name="exclamdown" unicode="&#xa1;" horiz-adv-x="450" 
d="M215 793q-42 0 -69 27t-27 69t27 70t69 28q43 0 69.5 -28t26.5 -70t-26 -69t-70 -27zM313 -270h-198l26 841h146z" />
    <glyph glyph-name="cent" unicode="&#xa2;" horiz-adv-x="1052" 
d="M930 250l67 -111q-75 -72 -158.5 -109t-191.5 -46v-115h-127v115q-68 6 -128 28t-115 66.5t-94.5 107t-63 155t-23.5 206.5q0 136 34 243.5t94 175t134.5 106t161.5 48.5v129h127v-129q166 -15 314 -108l-60 -119q-130 78 -299 78q-65 0 -121.5 -23.5t-103.5 -72
t-74 -132.5t-27 -196q0 -109 26 -191t71.5 -129.5t101 -70.5t119.5 -23q202 0 336 117z" />
    <glyph glyph-name="sterling" unicode="&#xa3;" horiz-adv-x="1130" 
d="M420 154h614v-154h-958v135l164 15l22 274h-180v127h190l4 47q23 278 133 404t310 126q213 0 371 -108l-60 -121q-136 82 -287 82q-128 0 -198 -87t-88 -296l-4 -47h403v-127h-414z" />
    <glyph glyph-name="yen" unicode="&#xa5;" horiz-adv-x="1087" 
d="M698 504h256v-103h-315l-2 -2v-104h317v-102h-317v-193h-186v193h-310v102h310v104l-2 2h-308v103h248l-358 612h192l281 -461q8 -19 23 -51t18 -39l41 90l278 461h195z" />
    <glyph glyph-name="brokenbar" unicode="&#xa6;" horiz-adv-x="616" 
d="M231 643v694h154v-694h-154zM231 -410v695h154v-695h-154z" />
    <glyph glyph-name="section" unicode="&#xa7;" horiz-adv-x="1208" 
d="M174 18l57 127q85 -67 194 -105t200 -38q84 0 130 33.5t46 93.5t-55.5 93t-223.5 83q-217 68 -305 134.5t-88 174.5q0 69 38 118t118 104q-70 64 -70 168q0 123 88.5 194.5t245.5 71.5q100 0 206.5 -23.5t194.5 -64.5l-47 -131q-81 39 -174.5 62.5t-165.5 23.5
q-84 0 -130 -34t-46 -95q0 -59 55.5 -91.5t223.5 -85.5q216 -66 304.5 -133.5t88.5 -175.5q0 -69 -36.5 -118t-117.5 -103q68 -65 68 -168q0 -123 -90.5 -197.5t-249.5 -74.5q-114 0 -242.5 42.5t-216.5 114.5zM375 776q-47 -47 -63.5 -75.5t-16.5 -61.5q0 -19 5.5 -35
t19.5 -31t28 -26.5t42 -25.5t49 -23t62 -23.5t68.5 -23t79.5 -25.5q76 -23 164 -64q45 45 62.5 75.5t17.5 62.5q0 29 -16 53t-41.5 42.5t-73 38.5t-93.5 35.5t-119 39.5q-9 3 -13 4q-102 31 -162 63z" />
    <glyph glyph-name="dieresis" unicode="&#xa8;" horiz-adv-x="999" 
d="M305 1362q50 0 81.5 -29.5t31.5 -81.5q0 -50 -31 -78t-82 -28q-45 0 -77.5 28.5t-32.5 77.5q0 50 32.5 80.5t77.5 30.5zM692 1362q46 0 79.5 -30.5t33.5 -80.5q0 -49 -33 -77.5t-80 -28.5q-49 0 -80.5 28t-31.5 78q0 51 31.5 81t80.5 30z" />
    <glyph glyph-name="copyright" unicode="&#xa9;" horiz-adv-x="1515" 
d="M758 -18q-176 0 -324 85.5t-233.5 233.5t-85.5 324q0 175 85.5 323.5t233.5 235t324 86.5q175 0 322.5 -86.5t233 -235t85.5 -323.5q0 -176 -85.5 -324t-233 -233.5t-322.5 -85.5zM758 41q159 0 293.5 78t213 212.5t78.5 293.5q0 158 -78.5 293t-213.5 213.5t-293 78.5
q-159 0 -293.5 -78.5t-212.5 -213t-78 -293.5t78 -293.5t212.5 -212.5t293.5 -78zM1022 455l51 -82q-129 -123 -307 -123q-154 0 -254 100t-100 266q0 174 94.5 276.5t253.5 102.5q157 0 284 -88l-47 -88q-109 64 -223 64q-106 0 -167.5 -71t-61.5 -196q0 -119 65 -187.5
t170 -68.5q129 0 242 95z" />
    <glyph glyph-name="ordfeminine" unicode="&#xaa;" horiz-adv-x="786" 
d="M166 1118l-23 105q160 47 281 47q145 0 203.5 -64t58.5 -225v-414h-137v88q-55 -48 -111.5 -75t-130.5 -27q-117 0 -175 53t-58 164q0 109 71.5 161t219.5 52q121 0 184 -2q0 100 -31 135t-117 35q-100 0 -235 -33zM549 891h-170q-92 0 -134 -25t-42 -82q0 -125 143 -125
q42 0 82.5 17t64.5 36t56 50v129z" />
    <glyph glyph-name="guillemotleft" unicode="&#xab;" horiz-adv-x="1112" 
d="M608 834l-248 -259q-4 -4 -84 -73q54 -40 86 -72l246 -258l-94 -88l-422 420l420 422zM983 834l-248 -259q-4 -4 -84 -73q54 -40 86 -72l246 -258l-94 -90l-422 422l420 422z" />
    <glyph glyph-name="registered" unicode="&#xae;" horiz-adv-x="1515" 
d="M758 -18q-176 0 -324 85.5t-233.5 233.5t-85.5 324q0 175 85.5 323.5t233.5 235t324 86.5q175 0 322.5 -86.5t233 -235t85.5 -323.5q0 -176 -85.5 -324t-233 -233.5t-322.5 -85.5zM758 41q159 0 293.5 78t213 212.5t78.5 293.5q0 158 -78.5 293t-213.5 213.5t-293 78.5
q-159 0 -293.5 -78.5t-212.5 -213t-78 -293.5t78 -293.5t212.5 -212.5t293.5 -78zM487 985h277q301 0 301 -237q0 -82 -41 -132.5t-117 -64.5q56 -27 99.5 -100t85.5 -185h-142q-48 121 -88 181.5t-82 60.5h-174v-242h-119v719zM614 608h183q69 0 104 35.5t35 101.5t-44 102
t-128 36h-150v-275z" />
    <glyph glyph-name="macron" unicode="&#xaf;" horiz-adv-x="999" 
d="M756 1157h-512v162h512v-162z" />
    <glyph glyph-name="degree" unicode="&#xb0;" horiz-adv-x="700" 
d="M350 1270q115 0 183.5 -69t68.5 -185q0 -109 -69 -175.5t-183 -66.5t-182 66.5t-68 175.5q0 116 68 185t182 69zM350 881q66 0 104 36.5t38 98.5q0 68 -38 108.5t-104 40.5q-64 0 -102.5 -40.5t-38.5 -108.5q0 -62 38.5 -98.5t102.5 -36.5z" />
    <glyph glyph-name="plusminus" unicode="&#xb1;" horiz-adv-x="972" 
d="M893 598h-350v-281h-119v281h-350v121h350v280h121v-280h348v-121zM887 227v-121h-813v121h813z" />
    <glyph glyph-name="twosuperior" unicode="&#xb2;" horiz-adv-x="704" 
d="M637 686h-578v92q41 33 109 87t105 83.5t85.5 73t73 73.5t42.5 66t18 68q0 67 -38 103t-106 36q-118 0 -258 -65l-37 90q178 82 314 82q119 0 186.5 -65.5t67.5 -180.5q0 -32 -10.5 -63.5t-24 -57t-44 -58.5t-52 -54t-67.5 -56.5t-71 -54t-81 -58.5q-11 -8 -17 -12.5
t-15.5 -11t-17.5 -12.5q78 4 107 4h309v-109z" />
    <glyph glyph-name="threesuperior" unicode="&#xb3;" horiz-adv-x="704" 
d="M84 1522l-33 86q155 73 307 73q118 0 187 -57t69 -156q0 -65 -36 -109.5t-95 -64.5q154 -50 154 -184q0 -108 -74.5 -166.5t-208.5 -58.5q-173 0 -321 80l39 86q135 -66 278 -66q80 0 123 33t43 94q0 131 -194 131h-125v105h125q89 0 132.5 24.5t43.5 79.5
q0 62 -40.5 94.5t-113.5 32.5q-128 0 -260 -57z" />
    <glyph glyph-name="acute" unicode="&#xb4;" horiz-adv-x="999" 
d="M723 1325l-2 -37q-92 -76 -151 -117t-162 -96l-60 60l225 286z" />
    <glyph glyph-name="paragraph" unicode="&#xb6;" horiz-adv-x="1124" 
d="M1034 1106l-213 -16v-1090h-174v422h-39q-272 0 -390 94t-118 315q0 226 117.5 322t390.5 96h426v-143z" />
    <glyph glyph-name="periodcentered" unicode="&#xb7;" horiz-adv-x="559" 
d="M156 573q0 50 30.5 81.5t81.5 31.5t82 -31.5t31 -81.5q0 -48 -31.5 -80t-81.5 -32t-81 32t-31 80z" />
    <glyph glyph-name="cedilla" unicode="&#xb8;" horiz-adv-x="999" 
d="M516 53l-8 -119q120 0 165.5 -37t45.5 -137q0 -94 -54.5 -142t-154.5 -48q-92 0 -209 37l23 106q86 -18 145 -18q64 0 94 12.5t29 54.5q0 47 -25.5 57.5t-111.5 10.5h-88l45 223h104z" />
    <glyph glyph-name="onesuperior" unicode="&#xb9;" horiz-adv-x="655" 
d="M606 678h-520v108h209v525q-118 -36 -209 -56l-25 82q146 58 258 117h101v-668h186v-108z" />
    <glyph glyph-name="ordmasculine" unicode="&#xba;" horiz-adv-x="884" 
d="M442 1270q166 0 256 -95t90 -270q0 -168 -91 -260t-257 -92q-164 0 -254 91.5t-90 260.5q0 175 90 270t256 95zM440 672q215 0 215 233q0 248 -213 248t-213 -248q0 -233 211 -233z" />
    <glyph glyph-name="guillemotright" unicode="&#xbb;" horiz-adv-x="1112" 
d="M203 82l-92 90l245 258q12 12 84 74q-53 42 -82 71l-247 259l94 92l418 -422zM578 82l-93 90l246 258q12 12 84 74q-53 42 -82 71l-248 259l95 92l417 -422z" />
    <glyph glyph-name="onequarter" unicode="&#xbc;" horiz-adv-x="1798" 
d="M606 473h-520v109h209v524q-106 -32 -209 -55l-25 82q154 61 258 116h101v-667h186v-109zM1307 1249l-727 -1249h-113l727 1249h113zM1534 164v-164h-121v164h-450l-5 90l455 522h121v-512h125v-100h-125zM1413 264v373q-26 -37 -53 -64l-205 -227q-27 -33 -76 -82h334z
" />
    <glyph glyph-name="onehalf" unicode="&#xbd;" horiz-adv-x="1816" 
d="M606 473h-520v109h209v524q-106 -32 -209 -55l-25 82q154 61 258 116h101v-667h186v-109zM1307 1249l-727 -1249h-113l727 1249h113zM1690 0h-578v92q40 33 108.5 87t105 83.5t85 73t73 73.5t42.5 66t18 68q0 67 -37.5 103t-105.5 36q-116 0 -258 -66l-37 91
q176 81 313 81q119 0 186.5 -65t67.5 -180q0 -72 -56.5 -148t-111.5 -120t-186 -138l-45 -33q98 5 106 5h310v-109z" />
    <glyph glyph-name="threequarters" unicode="&#xbe;" horiz-adv-x="1773" 
d="M84 1112l-33 86q157 74 307 74q118 0 187 -57t69 -156q0 -65 -36 -109.5t-95 -64.5q154 -50 154 -185q0 -108 -74.5 -166.5t-208.5 -58.5q-173 0 -321 80l39 86q135 -66 278 -66q80 0 123 33t43 94q0 132 -194 132h-125v104h125q89 0 132.5 24.5t43.5 79.5
q0 62 -40.5 94.5t-113.5 32.5q-128 0 -260 -57zM1307 1249l-727 -1249h-113l725 1249h115zM1530 164v-164h-123v164h-451l-4 90l455 522h123v-512h123v-100h-123zM1407 264v373q-25 -36 -51 -64l-205 -227q-43 -49 -76 -82h332z" />
    <glyph glyph-name="questiondown" unicode="&#xbf;" horiz-adv-x="1050" 
d="M608 793q-44 0 -70 27t-26 69t26.5 70t69.5 28q42 0 69.5 -28t27.5 -70q0 -41 -27.5 -68.5t-69.5 -27.5zM965 -12l53 -146q-282 -133 -504 -133q-184 0 -297 104.5t-113 274.5q0 146 113 242t324 131l-6 145h151l27 -282q-199 -15 -307.5 -72t-108.5 -146q0 -103 68 -165
t180 -62q194 0 420 109z" />
    <glyph glyph-name="Agrave" unicode="&#xc0;" horiz-adv-x="1351" 
d="M778 1409l-59 -59q-102 40 -160.5 77t-152.5 115l-3 37l152 96zM354 295l-121 -295h-202l520 1249h252l520 -1249h-203l-121 295h-645zM928 469l-205 498q-27 73 -47 149q-20 -76 -47 -149l-205 -498h504z" />
    <glyph glyph-name="Aacute" unicode="&#xc1;" horiz-adv-x="1351" 
d="M944 1591l-2 -37q-94 -78 -152.5 -115t-160.5 -77l-60 59l226 267zM354 295l-121 -295h-202l520 1249h252l520 -1249h-203l-121 295h-645zM928 469l-205 498q-27 73 -47 149q-20 -76 -47 -149l-205 -498h504z" />
    <glyph glyph-name="Acircumflex" unicode="&#xc2;" horiz-adv-x="1351" 
d="M678 1501l-242 -145l-71 74l249 221h125l252 -221l-71 -74zM354 295l-121 -295h-202l520 1249h252l520 -1249h-203l-121 295h-645zM928 469l-205 498q-27 73 -47 149q-20 -76 -47 -149l-205 -498h504z" />
    <glyph glyph-name="Atilde" unicode="&#xc3;" horiz-adv-x="1351" 
d="M905 1612l96 -23q-12 -68 -44 -115.5t-73.5 -67.5t-87.5 -19.5t-89 22.5l-113 57q-56 27 -88.5 12t-54.5 -75l-95 22q13 67 43.5 112t70.5 63.5t86 17.5t91 -23l113 -53q57 -26 90 -9.5t55 79.5zM354 295l-121 -295h-202l520 1249h252l520 -1249h-203l-121 295h-645z
M928 469l-205 498q-27 73 -47 149q-20 -76 -47 -149l-205 -498h504z" />
    <glyph glyph-name="Adieresis" unicode="&#xc4;" horiz-adv-x="1351" 
d="M483 1614q50 0 81.5 -29.5t31.5 -81.5q0 -50 -31 -78t-82 -28q-45 0 -77.5 28.5t-32.5 77.5q0 50 32.5 80.5t77.5 30.5zM870 1614q46 0 79.5 -30.5t33.5 -80.5q0 -49 -33 -77.5t-80 -28.5q-49 0 -80.5 28t-31.5 78q0 51 31.5 81t80.5 30zM354 295l-121 -295h-202
l520 1249h252l520 -1249h-203l-121 295h-645zM928 469l-205 498q-27 73 -47 149q-20 -76 -47 -149l-205 -498h504z" />
    <glyph glyph-name="Aring" unicode="&#xc5;" horiz-adv-x="1351" 
d="M678 1741q88 0 143.5 -54.5t55.5 -144.5q0 -83 -56 -135.5t-145 -52.5q-86 0 -141.5 52.5t-55.5 135.5q0 90 55.5 144.5t143.5 54.5zM676 1458q43 0 68.5 23t25.5 61q0 44 -25 70t-67 26t-67 -26t-25 -70q0 -38 25 -61t65 -23zM354 295l-121 -295h-202l520 1249h252
l520 -1249h-203l-121 295h-645zM928 469l-205 498q-27 73 -47 149q-20 -76 -47 -149l-205 -498h504z" />
    <glyph glyph-name="AE" unicode="&#xc6;" horiz-adv-x="1951" 
d="M1821 176v-176h-863v291h-516l-194 -291h-217l850 1249h921v-176h-655v-358h571v-176h-571v-363h674zM958 465v596l-399 -596h399z" />
    <glyph glyph-name="Ccedilla" unicode="&#xc7;" horiz-adv-x="1271" 
d="M666 -18l-4 -48q120 0 165 -37t45 -137q0 -94 -54 -142t-154 -48q-92 0 -209 37l22 106q86 -18 146 -18q63 0 93 12.5t29 54.5q0 47 -25.5 57.5t-111.5 10.5h-88l33 162q-218 37 -337.5 200t-119.5 431q0 311 157.5 479t448.5 168q118 0 238 -28.5t209 -80.5l-62 -143
q-177 76 -376 76q-207 0 -314.5 -119.5t-107.5 -351.5q0 -220 106.5 -342.5t296.5 -122.5q241 0 434 121l72 -146q-210 -151 -516 -151h-16z" />
    <glyph glyph-name="Egrave" unicode="&#xc8;" horiz-adv-x="1155" 
d="M686 1409l-59 -59q-103 40 -162 77.5t-152 114.5l-2 37l152 96zM1034 0h-862v1249h844v-176h-656v-358h572v-176h-572v-363h674v-176z" />
    <glyph glyph-name="Eacute" unicode="&#xc9;" horiz-adv-x="1155" 
d="M850 1591l-2 -37q-94 -78 -152.5 -115t-160.5 -77l-60 59l225 267zM1034 0h-862v1249h844v-176h-656v-358h572v-176h-572v-363h674v-176z" />
    <glyph glyph-name="Ecircumflex" unicode="&#xca;" horiz-adv-x="1155" 
d="M584 1501l-242 -145l-72 74l250 221h125l252 -221l-72 -74zM1034 0h-862v1249h844v-176h-656v-358h572v-176h-572v-363h674v-176z" />
    <glyph glyph-name="Edieresis" unicode="&#xcb;" horiz-adv-x="1155" 
d="M389 1614q50 0 81.5 -29.5t31.5 -81.5q0 -50 -31 -78t-82 -28q-45 0 -77.5 28.5t-32.5 77.5q0 50 32.5 80.5t77.5 30.5zM776 1614q46 0 79.5 -30.5t33.5 -80.5q0 -49 -33 -77.5t-80 -28.5q-49 0 -80.5 28t-31.5 78q0 51 31.5 81t80.5 30zM1034 0h-862v1249h844v-176h-656
v-358h572v-176h-572v-363h674v-176z" />
    <glyph glyph-name="Igrave" unicode="&#xcc;" horiz-adv-x="532" 
d="M369 1409l-60 -59q-102 40 -160.5 77t-152.5 115l-2 37l151 96zM360 0h-188v1249h188v-1249z" />
    <glyph glyph-name="Iacute" unicode="&#xcd;" horiz-adv-x="532" 
d="M535 1591l-3 -37q-94 -78 -152.5 -115t-160.5 -77l-59 59l225 267zM360 0h-188v1249h188v-1249z" />
    <glyph glyph-name="Icircumflex" unicode="&#xce;" horiz-adv-x="532" 
d="M268 1501l-241 -145l-72 74l250 221h125l252 -221l-72 -74zM360 0h-188v1249h188v-1249z" />
    <glyph glyph-name="Idieresis" unicode="&#xcf;" horiz-adv-x="532" 
d="M74 1614q50 0 81 -29.5t31 -81.5q0 -50 -30.5 -78t-81.5 -28q-45 0 -78 28.5t-33 77.5q0 50 33 80.5t78 30.5zM461 1614q46 0 79 -30t33 -81q0 -49 -32.5 -77.5t-79.5 -28.5q-49 0 -81 28.5t-32 77.5q0 51 32 81t81 30zM360 0h-188v1249h188v-1249z" />
    <glyph glyph-name="Eth" unicode="&#xd0;" horiz-adv-x="1339" 
d="M164 1249h393q325 0 501.5 -159.5t176.5 -454.5q0 -305 -176.5 -470t-501.5 -165h-393v543h-137v149h137v557zM352 176h205q233 0 359 119.5t126 339.5q0 211 -126 324.5t-359 113.5h-205v-381h256v-149h-256v-367z" />
    <glyph glyph-name="Ntilde" unicode="&#xd1;" horiz-adv-x="1413" 
d="M934 1612l96 -23q-12 -68 -44 -115.5t-73.5 -67.5t-88 -19.5t-89.5 22.5l-112 57q-56 27 -89 11.5t-55 -74.5l-94 22q13 67 43.5 112t70.5 63.5t86 17.5t91 -23l112 -53q57 -26 90.5 -9.5t55.5 79.5zM1241 0h-172l-709 928v-928h-188v1249h172l709 -932v932h188v-1249z
" />
    <glyph glyph-name="Ograve" unicode="&#xd2;" horiz-adv-x="1382" 
d="M793 1409l-60 -59q-102 40 -160.5 77t-152.5 115l-2 37l151 96zM690 1270q284 0 440 -168t156 -479q0 -307 -156 -474t-440 -167q-282 0 -438 167t-156 474q0 311 155.5 479t438.5 168zM690 158q195 0 299.5 119t104.5 346q0 230 -104.5 350.5t-299.5 120.5
q-193 0 -297 -120.5t-104 -350.5q0 -227 104 -346t297 -119z" />
    <glyph glyph-name="Oacute" unicode="&#xd3;" horiz-adv-x="1382" 
d="M956 1591l-2 -37q-94 -78 -152.5 -115t-160.5 -77l-59 59l225 267zM690 1270q284 0 440 -168t156 -479q0 -307 -156 -474t-440 -167q-282 0 -438 167t-156 474q0 311 155.5 479t438.5 168zM690 158q195 0 299.5 119t104.5 346q0 230 -104.5 350.5t-299.5 120.5
q-193 0 -297 -120.5t-104 -350.5q0 -227 104 -346t297 -119z" />
    <glyph glyph-name="Ocircumflex" unicode="&#xd4;" horiz-adv-x="1382" 
d="M692 1501l-241 -145l-72 74l250 221h125l252 -221l-72 -74zM690 1270q284 0 440 -168t156 -479q0 -307 -156 -474t-440 -167q-282 0 -438 167t-156 474q0 311 155.5 479t438.5 168zM690 158q195 0 299.5 119t104.5 346q0 230 -104.5 350.5t-299.5 120.5
q-193 0 -297 -120.5t-104 -350.5q0 -227 104 -346t297 -119z" />
    <glyph glyph-name="Otilde" unicode="&#xd5;" horiz-adv-x="1382" 
d="M918 1612l96 -23q-12 -68 -44 -115.5t-73.5 -67.5t-88 -19.5t-89.5 22.5l-113 57q-56 27 -88.5 12t-54.5 -75l-94 22q13 67 43.5 112t70.5 63.5t85.5 17.5t90.5 -23l113 -53q57 -26 90.5 -9.5t55.5 79.5zM690 1270q284 0 440 -168t156 -479q0 -307 -156 -474t-440 -167
q-282 0 -438 167t-156 474q0 311 155.5 479t438.5 168zM690 158q195 0 299.5 119t104.5 346q0 230 -104.5 350.5t-299.5 120.5q-193 0 -297 -120.5t-104 -350.5q0 -227 104 -346t297 -119z" />
    <glyph glyph-name="Odieresis" unicode="&#xd6;" horiz-adv-x="1382" 
d="M498 1614q50 0 81 -29.5t31 -81.5q0 -50 -30.5 -78t-81.5 -28q-45 0 -78 28.5t-33 77.5q0 50 33 80.5t78 30.5zM885 1614q46 0 79 -30t33 -81q0 -49 -32.5 -77.5t-79.5 -28.5q-49 0 -81 28.5t-32 77.5q0 51 32 81t81 30zM690 1270q284 0 440 -168t156 -479
q0 -307 -156 -474t-440 -167q-282 0 -438 167t-156 474q0 311 155.5 479t438.5 168zM690 158q195 0 299.5 119t104.5 346q0 230 -104.5 350.5t-299.5 120.5q-193 0 -297 -120.5t-104 -350.5q0 -227 104 -346t297 -119z" />
    <glyph glyph-name="multiply" unicode="&#xd7;" horiz-adv-x="962" 
d="M233 156l-98 98l254 252l-250 250l99 98l249 -248l248 246l96 -96l-245 -248l254 -254l-99 -98l-254 254z" />
    <glyph glyph-name="Oslash" unicode="&#xd8;" horiz-adv-x="1382" 
d="M1260 1192l-111 -125q127 -169 127 -444q0 -307 -156 -474t-440 -167q-242 0 -393 124l-107 -120l-76 71l111 123q-129 167 -129 443q0 311 155.5 479t438.5 168q247 0 395 -127l109 121zM346 328l604 676q-104 90 -270 90q-193 0 -297 -120.5t-104 -350.5
q0 -185 67 -295zM1016 920l-602 -674q102 -88 266 -88q195 0 299 119t104 346q0 187 -67 297z" />
    <glyph glyph-name="Ugrave" unicode="&#xd9;" horiz-adv-x="1357" 
d="M782 1409l-59 -59q-102 40 -160.5 77t-152.5 115l-2 37l151 96zM1212 1249v-680q0 -282 -138.5 -434.5t-393.5 -152.5t-394 152.5t-139 434.5v680h189v-680q0 -197 89.5 -302t254.5 -105q166 0 255 104.5t89 302.5v680h188z" />
    <glyph glyph-name="Uacute" unicode="&#xda;" horiz-adv-x="1357" 
d="M946 1591l-2 -37q-94 -78 -152.5 -115t-160.5 -77l-60 59l226 267zM1212 1249v-680q0 -282 -138.5 -434.5t-393.5 -152.5t-394 152.5t-139 434.5v680h189v-680q0 -197 89.5 -302t254.5 -105q166 0 255 104.5t89 302.5v680h188z" />
    <glyph glyph-name="Ucircumflex" unicode="&#xdb;" horiz-adv-x="1357" 
d="M680 1501l-242 -145l-71 74l249 221h125l252 -221l-71 -74zM1212 1249v-680q0 -282 -138.5 -434.5t-393.5 -152.5t-394 152.5t-139 434.5v680h189v-680q0 -197 89.5 -302t254.5 -105q166 0 255 104.5t89 302.5v680h188z" />
    <glyph glyph-name="Udieresis" unicode="&#xdc;" horiz-adv-x="1357" 
d="M485 1614q50 0 81.5 -29.5t31.5 -81.5q0 -50 -31 -78t-82 -28q-45 0 -77.5 28.5t-32.5 77.5q0 50 32.5 80.5t77.5 30.5zM872 1614q46 0 79.5 -30.5t33.5 -80.5q0 -49 -33 -77.5t-80 -28.5q-49 0 -80.5 28t-31.5 78q0 51 31.5 81t80.5 30zM1212 1249v-680
q0 -282 -138.5 -434.5t-393.5 -152.5t-394 152.5t-139 434.5v680h189v-680q0 -197 89.5 -302t254.5 -105q166 0 255 104.5t89 302.5v680h188z" />
    <glyph glyph-name="Yacute" unicode="&#xdd;" horiz-adv-x="1187" 
d="M860 1591l-2 -37q-94 -78 -152.5 -115t-160.5 -77l-60 59l226 267zM688 410v-410h-188v410l-463 839h192l318 -555q20 -34 47 -106q16 49 47 106l317 555h193z" />
    <glyph glyph-name="Thorn" unicode="&#xde;" horiz-adv-x="1179" 
d="M360 1042h244q264 0 389 -106t125 -328q0 -220 -123.5 -323t-382.5 -103h-252v-182h-188v1249h188v-207zM360 336h252q164 0 243 67t79 205t-80.5 205.5t-249.5 67.5h-244v-545z" />
    <glyph glyph-name="germandbls" unicode="&#xdf;" horiz-adv-x="1208" 
d="M-6 965h162q37 160 167.5 253t319.5 93q180 0 294 -92t114 -240q0 -110 -56.5 -186t-150.5 -115q132 -40 202 -128.5t70 -221.5q0 -156 -107 -251t-284 -95q-126 0 -246 30l17 135q116 -22 202 -22q112 0 179 61t67 160q0 118 -89 183t-241 65h-102v139h102
q120 0 191.5 61t71.5 164q0 93 -63.5 147t-166.5 54q-147 0 -233 -83.5t-86 -227.5v-848h-185v817l-149 14v134z" />
    <glyph glyph-name="agrave" unicode="&#xe0;" horiz-adv-x="1050" 
d="M672 1163l-60 -59q-103 55 -162 96t-151 117l-2 37l152 96zM203 770l-31 150q247 65 393 65q199 0 278 -93.5t79 -311.5v-580h-185v121q-81 -66 -157 -102.5t-177 -36.5q-166 0 -246.5 69t-80.5 223q0 310 403 310q168 0 258 -2q0 142 -40 190.5t-162 48.5
q-127 0 -332 -51zM737 451h-235q-135 0 -195.5 -34t-60.5 -124q0 -174 211 -174q74 0 147.5 40.5t132.5 106.5v185z" />
    <glyph glyph-name="aacute" unicode="&#xe1;" horiz-adv-x="1050" 
d="M750 1325l-2 -37q-91 -75 -150.5 -116.5t-163.5 -96.5l-59 60l225 286zM203 770l-31 150q247 65 393 65q199 0 278 -93.5t79 -311.5v-580h-185v121q-81 -66 -157 -102.5t-177 -36.5q-166 0 -246.5 69t-80.5 223q0 310 403 310q168 0 258 -2q0 142 -40 190.5t-162 48.5
q-127 0 -332 -51zM737 451h-235q-135 0 -195.5 -34t-60.5 -124q0 -174 211 -174q74 0 147.5 40.5t132.5 106.5v185z" />
    <glyph glyph-name="acircumflex" unicode="&#xe2;" horiz-adv-x="1050" 
d="M768 1090l-242 165q-40 -28 -120.5 -83t-120.5 -82l-72 73l250 242h125l252 -242zM203 770l-31 150q247 65 393 65q199 0 278 -93.5t79 -311.5v-580h-185v121q-81 -66 -157 -102.5t-177 -36.5q-166 0 -246.5 69t-80.5 223q0 310 403 310q168 0 258 -2q0 142 -40 190.5
t-162 48.5q-127 0 -332 -51zM737 451h-235q-135 0 -195.5 -34t-60.5 -124q0 -174 211 -174q74 0 147.5 40.5t132.5 106.5v185z" />
    <glyph glyph-name="atilde" unicode="&#xe3;" horiz-adv-x="1050" 
d="M754 1374l96 -22q-12 -68 -44 -116t-73.5 -67.5t-88 -19.5t-89.5 22l-113 58q-56 27 -88.5 11.5t-54.5 -75.5l-94 23q13 67 43.5 112t70.5 63.5t86 17.5t91 -23l112 -53q57 -27 90.5 -10.5t55.5 79.5zM203 770l-31 150q247 65 393 65q199 0 278 -93.5t79 -311.5v-580
h-185v121q-81 -66 -157 -102.5t-177 -36.5q-166 0 -246.5 69t-80.5 223q0 310 403 310q168 0 258 -2q0 142 -40 190.5t-162 48.5q-127 0 -332 -51zM737 451h-235q-135 0 -195.5 -34t-60.5 -124q0 -174 211 -174q74 0 147.5 40.5t132.5 106.5v185z" />
    <glyph glyph-name="adieresis" unicode="&#xe4;" horiz-adv-x="1050" 
d="M332 1362q50 0 81 -29.5t31 -81.5q0 -50 -30.5 -78t-81.5 -28q-45 0 -78 28.5t-33 77.5q0 50 33 80.5t78 30.5zM719 1362q46 0 79 -30t33 -81q0 -49 -32.5 -77.5t-79.5 -28.5q-49 0 -81 28.5t-32 77.5q0 51 32 81t81 30zM203 770l-31 150q247 65 393 65q199 0 278 -93.5
t79 -311.5v-580h-185v121q-81 -66 -157 -102.5t-177 -36.5q-166 0 -246.5 69t-80.5 223q0 310 403 310q168 0 258 -2q0 142 -40 190.5t-162 48.5q-127 0 -332 -51zM737 451h-235q-135 0 -195.5 -34t-60.5 -124q0 -174 211 -174q74 0 147.5 40.5t132.5 106.5v185z" />
    <glyph glyph-name="aring" unicode="&#xe5;" horiz-adv-x="1050" 
d="M535 1470q88 0 143 -54t55 -144q0 -83 -56 -136t-145 -53q-86 0 -141 53t-55 136q0 90 55 144t144 54zM532 1188q43 0 69 23t26 61q0 44 -25 70t-67 26t-67.5 -26t-25.5 -70q0 -38 25 -61t65 -23zM203 770l-31 150q247 65 393 65q199 0 278 -93.5t79 -311.5v-580h-185
v121q-81 -66 -157 -102.5t-177 -36.5q-166 0 -246.5 69t-80.5 223q0 310 403 310q168 0 258 -2q0 142 -40 190.5t-162 48.5q-127 0 -332 -51zM737 451h-235q-135 0 -195.5 -34t-60.5 -124q0 -174 211 -174q74 0 147.5 40.5t132.5 106.5v185z" />
    <glyph glyph-name="ae" unicode="&#xe6;" horiz-adv-x="1726" 
d="M203 786l-31 134q237 65 393 65q208 0 281 -139q125 137 352 137q203 2 315.5 -119.5t116.5 -347.5q0 -47 -6 -86h-719q11 -156 89.5 -229.5t203.5 -73.5q98 2 178.5 29t171.5 90l70 -117q-100 -79 -197.5 -113t-228.5 -34q-245 0 -365 155q-179 -155 -385 -155
q-191 0 -278.5 72.5t-87.5 228.5q0 137 102.5 216t300.5 79q49 0 124.5 -1.5t125.5 -1.5q2 147 -36.5 203t-157.5 56q-139 0 -332 -48zM909 575h557q-10 127 -78.5 194t-187.5 67q-115 0 -192.5 -64t-98.5 -197zM731 432h-2h-227q-135 0 -194.5 -31.5t-59.5 -105.5
q0 -85 56 -126.5t177 -41.5q144 0 291 109q-35 84 -41 196z" />
    <glyph glyph-name="ccedilla" unicode="&#xe7;" horiz-adv-x="1013" 
d="M539 -18l-2 -48q120 0 165.5 -37t45.5 -137q0 -94 -54.5 -142t-154.5 -48q-92 0 -209 37l22 106q86 -18 146 -18q64 0 94 12.5t29 54.5q0 47 -26 57.5t-112 10.5h-88l33 164q-158 34 -250 163t-92 320q0 229 131 368.5t346 139.5q193 0 352 -94l-63 -125q-128 63 -287 63
q-134 0 -215.5 -97t-81.5 -255q0 -154 79.5 -246t211.5 -92q91 0 164 23t162 82l67 -123q-104 -79 -193.5 -109t-219.5 -30z" />
    <glyph glyph-name="egrave" unicode="&#xe8;" horiz-adv-x="1073" 
d="M680 1163l-59 -59q-104 55 -163.5 96.5t-150.5 116.5l-2 37l152 96zM905 248l68 -119q-100 -79 -197.5 -113t-228.5 -34q-209 0 -335 122.5t-126 370.5q0 130 35 229t99 160t148 91t187 30q201 0 313.5 -122t116.5 -347q0 -47 -6 -84h-717q11 -157 88.5 -230t204.5 -73
q97 0 177.5 27.5t172.5 91.5zM266 575h555q-10 127 -78.5 194t-187.5 67q-115 0 -192.5 -64t-96.5 -197z" />
    <glyph glyph-name="eacute" unicode="&#xe9;" horiz-adv-x="1073" 
d="M758 1325l-2 -37q-91 -75 -150.5 -116.5t-163.5 -96.5l-59 60l225 286zM905 248l68 -119q-100 -79 -197.5 -113t-228.5 -34q-209 0 -335 122.5t-126 370.5q0 130 35 229t99 160t148 91t187 30q201 0 313.5 -122t116.5 -347q0 -47 -6 -84h-717q11 -157 88.5 -230
t204.5 -73q97 0 177.5 27.5t172.5 91.5zM266 575h555q-10 127 -78.5 194t-187.5 67q-115 0 -192.5 -64t-96.5 -197z" />
    <glyph glyph-name="ecircumflex" unicode="&#xea;" horiz-adv-x="1073" 
d="M776 1090l-241 165q-40 -27 -121 -82t-121 -83l-72 73l250 242h125l252 -242zM905 248l68 -119q-100 -79 -197.5 -113t-228.5 -34q-209 0 -335 122.5t-126 370.5q0 130 35 229t99 160t148 91t187 30q201 0 313.5 -122t116.5 -347q0 -47 -6 -84h-717q11 -157 88.5 -230
t204.5 -73q97 0 177.5 27.5t172.5 91.5zM266 575h555q-10 127 -78.5 194t-187.5 67q-115 0 -192.5 -64t-96.5 -197z" />
    <glyph glyph-name="edieresis" unicode="&#xeb;" horiz-adv-x="1073" 
d="M340 1362q50 0 81.5 -29.5t31.5 -81.5q0 -50 -31 -78t-82 -28q-45 0 -78 28.5t-33 77.5q0 50 33 80.5t78 30.5zM727 1362q46 0 79.5 -30.5t33.5 -80.5q0 -49 -33 -77.5t-80 -28.5q-49 0 -81 28.5t-32 77.5q0 51 32 81t81 30zM905 248l68 -119q-100 -79 -197.5 -113
t-228.5 -34q-209 0 -335 122.5t-126 370.5q0 130 35 229t99 160t148 91t187 30q201 0 313.5 -122t116.5 -347q0 -47 -6 -84h-717q11 -157 88.5 -230t204.5 -73q97 0 177.5 27.5t172.5 91.5zM266 575h555q-10 127 -78.5 194t-187.5 67q-115 0 -192.5 -64t-96.5 -197z" />
    <glyph glyph-name="igrave" unicode="&#xec;" horiz-adv-x="481" 
d="M387 1163l-59 -59q-104 55 -163.5 96.5t-150.5 116.5l-2 37l152 96zM334 0h-184v967h184v-967z" />
    <glyph glyph-name="iacute" unicode="&#xed;" horiz-adv-x="481" 
d="M465 1325l-2 -37q-92 -76 -151 -117t-162 -96l-60 60l225 286zM334 0h-184v967h184v-967z" />
    <glyph glyph-name="icircumflex" unicode="&#xee;" horiz-adv-x="481" 
d="M483 1090l-241 165q-80 -55 -244 -165l-72 73l252 242h125l252 -242zM334 0h-184v967h184v-967z" />
    <glyph glyph-name="idieresis" unicode="&#xef;" horiz-adv-x="481" 
d="M47 1362q50 0 81.5 -29.5t31.5 -81.5q0 -50 -31 -78t-82 -28q-47 0 -80 28.5t-33 77.5q0 50 33.5 80.5t79.5 30.5zM434 1362q46 0 79.5 -30.5t33.5 -80.5q0 -49 -33 -77.5t-80 -28.5q-49 0 -80.5 28t-31.5 78q0 51 31.5 81t80.5 30zM334 0h-184v967h184v-967z" />
    <glyph glyph-name="eth" unicode="&#xf0;" 
d="M862 1264l-153 -74q189 -163 267.5 -324.5t78.5 -390.5q0 -236 -127 -364.5t-359 -128.5q-231 0 -357 128.5t-126 364.5q0 486 612 486q-69 78 -157 147l-254 -123l-49 109l196 96q-104 69 -153 98v25l170 73q97 -67 155 -112l203 98zM569 131q148 0 225.5 86.5
t77.5 257.5q0 205 -77 348q-209 -1 -324.5 -38.5t-160 -112t-44.5 -205.5q0 -166 78 -251t225 -85z" />
    <glyph glyph-name="ntilde" unicode="&#xf1;" horiz-adv-x="1138" 
d="M809 1374l96 -22q-12 -68 -44 -116t-73.5 -67.5t-88 -19.5t-89.5 22l-112 58q-56 27 -89 11.5t-55 -75.5l-94 23q13 67 43.5 112t70.5 63.5t86 17.5t91 -23l113 -53q57 -27 90 -10.5t55 79.5zM328 967v-142q86 78 169.5 118t184.5 40q165 0 243.5 -91.5t78.5 -287.5v-604
h-185v559q0 141 -33.5 196.5t-138.5 55.5q-171 0 -319 -172v-639h-185v967h185z" />
    <glyph glyph-name="ograve" unicode="&#xf2;" 
d="M717 1163l-60 -59q-103 55 -162 96t-151 117l-2 37l152 96zM571 985q218 0 352 -139.5t134 -368.5q0 -223 -134 -359t-354 -136q-218 0 -350.5 136t-132.5 359q0 229 133.5 368.5t351.5 139.5zM569 139q138 0 223 93t85 245q0 158 -84.5 254t-221.5 96t-221 -96t-84 -254
q0 -152 83.5 -245t219.5 -93z" />
    <glyph glyph-name="oacute" unicode="&#xf3;" 
d="M795 1325l-2 -37q-91 -75 -150.5 -116.5t-163.5 -96.5l-59 60l225 286zM571 985q218 0 352 -139.5t134 -368.5q0 -223 -134 -359t-354 -136q-218 0 -350.5 136t-132.5 359q0 229 133.5 368.5t351.5 139.5zM569 139q138 0 223 93t85 245q0 158 -84.5 254t-221.5 96
t-221 -96t-84 -254q0 -152 83.5 -245t219.5 -93z" />
    <glyph glyph-name="ocircumflex" unicode="&#xf4;" 
d="M813 1090l-242 165q-40 -28 -120.5 -83t-120.5 -82l-72 73l250 242h125l252 -242zM571 985q218 0 352 -139.5t134 -368.5q0 -223 -134 -359t-354 -136q-218 0 -350.5 136t-132.5 359q0 229 133.5 368.5t351.5 139.5zM569 139q138 0 223 93t85 245q0 158 -84.5 254
t-221.5 96t-221 -96t-84 -254q0 -152 83.5 -245t219.5 -93z" />
    <glyph glyph-name="otilde" unicode="&#xf5;" 
d="M799 1366l96 -23q-12 -68 -44 -115.5t-73.5 -67.5t-88 -19.5t-89.5 22.5l-113 58q-56 27 -88.5 11.5t-54.5 -75.5l-94 23q13 67 43.5 112t70.5 63.5t86 17.5t91 -23l112 -54q57 -26 90.5 -9.5t55.5 79.5zM571 985q218 0 352 -139.5t134 -368.5q0 -223 -134 -359
t-354 -136q-218 0 -350.5 136t-132.5 359q0 229 133.5 368.5t351.5 139.5zM569 139q138 0 223 93t85 245q0 158 -84.5 254t-221.5 96t-221 -96t-84 -254q0 -152 83.5 -245t219.5 -93z" />
    <glyph glyph-name="odieresis" unicode="&#xf6;" 
d="M377 1362q50 0 81 -29.5t31 -81.5q0 -50 -30.5 -78t-81.5 -28q-45 0 -78 28.5t-33 77.5q0 50 33 80.5t78 30.5zM764 1362q46 0 79.5 -30.5t33.5 -80.5q0 -49 -33 -77.5t-80 -28.5q-49 0 -81 28.5t-32 77.5q0 51 32 81t81 30zM571 985q218 0 352 -139.5t134 -368.5
q0 -223 -134 -359t-354 -136q-218 0 -350.5 136t-132.5 359q0 229 133.5 368.5t351.5 139.5zM569 139q138 0 223 93t85 245q0 158 -84.5 254t-221.5 96t-221 -96t-84 -254q0 -152 83.5 -245t219.5 -93z" />
    <glyph glyph-name="divide" unicode="&#xf7;" horiz-adv-x="964" 
d="M393 815q0 37 24 61.5t62 24.5q39 0 62.5 -24.5t23.5 -61.5q0 -39 -23.5 -63.5t-62.5 -24.5q-38 0 -62 25t-24 63zM74 420v137h813v-137h-813zM393 176q0 38 24 63t62 25q39 0 62.5 -24.5t23.5 -63.5q0 -37 -23.5 -61.5t-62.5 -24.5q-38 0 -62 24.5t-24 61.5z" />
    <glyph glyph-name="oslash" unicode="&#xf8;" horiz-adv-x="1128" 
d="M997 924l-77 -86q124 -136 124 -363q2 -221 -131.5 -357t-353.5 -136q-193 0 -315 104l-72 -80l-57 55l71 80q-110 128 -110 334q0 230 133 370t350 138q176 3 301 -92l78 90zM307 274l438 492q-77 61 -184 61q-137 0 -221 -96t-84 -254q0 -123 51 -203zM801 707
l-443 -494q80 -74 201 -74q138 0 222.5 93t84.5 245q0 136 -65 230z" />
    <glyph glyph-name="ugrave" unicode="&#xf9;" horiz-adv-x="1134" 
d="M713 1163l-60 -59q-103 55 -162 96t-151 117l-2 37l151 96zM807 0v139q-93 -75 -179.5 -116t-183.5 -41q-162 0 -238.5 93.5t-76.5 289.5v602h184v-559q0 -136 42.5 -197t148.5 -61q80 0 159.5 51.5t143.5 128.5v637h184v-967h-184z" />
    <glyph glyph-name="uacute" unicode="&#xfa;" horiz-adv-x="1134" 
d="M791 1325l-3 -37q-92 -76 -151 -117t-162 -96l-59 60l225 286zM807 0v139q-93 -75 -179.5 -116t-183.5 -41q-162 0 -238.5 93.5t-76.5 289.5v602h184v-559q0 -136 42.5 -197t148.5 -61q80 0 159.5 51.5t143.5 128.5v637h184v-967h-184z" />
    <glyph glyph-name="ucircumflex" unicode="&#xfb;" horiz-adv-x="1134" 
d="M809 1090l-242 165q-40 -28 -120.5 -83t-120.5 -82l-72 73l250 242h125l252 -242zM807 0v139q-93 -75 -179.5 -116t-183.5 -41q-162 0 -238.5 93.5t-76.5 289.5v602h184v-559q0 -136 42.5 -197t148.5 -61q80 0 159.5 51.5t143.5 128.5v637h184v-967h-184z" />
    <glyph glyph-name="udieresis" unicode="&#xfc;" horiz-adv-x="1134" 
d="M373 1362q50 0 81 -29.5t31 -81.5q0 -50 -30.5 -78t-81.5 -28q-45 0 -78 28.5t-33 77.5q0 50 33 80.5t78 30.5zM760 1362q46 0 79 -30t33 -81q0 -49 -32.5 -77.5t-79.5 -28.5q-49 0 -81 28.5t-32 77.5q0 51 32 81t81 30zM807 0v139q-93 -75 -179.5 -116t-183.5 -41
q-162 0 -238.5 93.5t-76.5 289.5v602h184v-559q0 -136 42.5 -197t148.5 -61q80 0 159.5 51.5t143.5 128.5v637h184v-967h-184z" />
    <glyph glyph-name="yacute" unicode="&#xfd;" horiz-adv-x="1044" 
d="M745 1325l-2 -37q-92 -76 -151 -117t-162 -96l-59 60l225 286zM823 965h203q-4 -10 -33.5 -83.5t-35.5 -88t-33 -80.5t-35.5 -86.5t-32.5 -78t-36 -84t-33.5 -75t-37 -80.5t-34.5 -72t-37 -75q-91 -175 -203.5 -291t-265.5 -176l-66 158q159 76 252 184l-389 928h193
l252 -598q7 -15 59 -152q31 62 61 126.5t63.5 146.5t55.5 137.5t66 169t67 170.5z" />
    <glyph glyph-name="thorn" unicode="&#xfe;" horiz-adv-x="1150" 
d="M328 1300v-448q173 131 354 131q383 0 383 -498q0 -131 -33.5 -230.5t-91.5 -157.5t-129 -86.5t-152 -28.5q-109 0 -179 32.5t-152 102.5v-449h-185v1632h185zM328 680l-2 -397q54 -51 85 -76.5t84 -48.5t111 -23q57 0 105 19.5t87.5 60t62 110t22.5 162.5
q0 342 -260 342q-138 0 -295 -149z" />
    <glyph glyph-name="ydieresis" unicode="&#xff;" horiz-adv-x="1044" 
d="M328 1362q50 0 81 -29.5t31 -81.5q0 -50 -30.5 -78t-81.5 -28q-45 0 -78 28.5t-33 77.5q0 50 33 80.5t78 30.5zM715 1362q46 0 79 -30t33 -81q0 -49 -32.5 -77.5t-79.5 -28.5q-49 0 -81 28.5t-32 77.5q0 51 32 81t81 30zM823 965h203q-4 -10 -33.5 -83.5t-35.5 -88
t-33 -80.5t-35.5 -86.5t-32.5 -78t-36 -84t-33.5 -75t-37 -80.5t-34.5 -72t-37 -75q-91 -175 -203.5 -291t-265.5 -176l-66 158q159 76 252 184l-389 928h193l252 -598q7 -15 59 -152q31 62 61 126.5t63.5 146.5t55.5 137.5t66 169t67 170.5z" />
    <glyph glyph-name="Amacron" unicode="&#x100;" horiz-adv-x="1351" 
d="M934 1423h-512v162h512v-162zM354 295l-121 -295h-202l520 1249h252l520 -1249h-203l-121 295h-645zM928 469l-205 498q-27 73 -47 149q-20 -76 -47 -149l-205 -498h504z" />
    <glyph glyph-name="amacron" unicode="&#x101;" horiz-adv-x="1050" 
d="M782 1157h-512v162h512v-162zM203 770l-31 150q247 65 393 65q199 0 278 -93.5t79 -311.5v-580h-185v121q-81 -66 -157 -102.5t-177 -36.5q-166 0 -246.5 69t-80.5 223q0 310 403 310q168 0 258 -2q0 142 -40 190.5t-162 48.5q-127 0 -332 -51zM737 451h-235
q-135 0 -195.5 -34t-60.5 -124q0 -174 211 -174q74 0 147.5 40.5t132.5 106.5v185z" />
    <glyph glyph-name="Abreve" unicode="&#x102;" horiz-adv-x="1351" 
d="M831 1622h138q0 -124 -71.5 -185t-221.5 -61q-147 0 -218 61t-71 185h137q6 -56 42 -84.5t110 -28.5t110 28t45 85zM354 295l-121 -295h-202l520 1249h252l520 -1249h-203l-121 295h-645zM928 469l-205 498q-27 73 -47 149q-20 -76 -47 -149l-205 -498h504z" />
    <glyph glyph-name="abreve" unicode="&#x103;" horiz-adv-x="1050" 
d="M680 1360h137q0 -138 -71.5 -204t-221.5 -66q-147 0 -217.5 65.5t-70.5 202.5h137q6 -70 41 -102.5t110 -32.5t111 32.5t45 104.5zM203 770l-31 150q247 65 393 65q199 0 278 -93.5t79 -311.5v-580h-185v121q-81 -66 -157 -102.5t-177 -36.5q-166 0 -246.5 69t-80.5 223
q0 310 403 310q168 0 258 -2q0 142 -40 190.5t-162 48.5q-127 0 -332 -51zM737 451h-235q-135 0 -195.5 -34t-60.5 -124q0 -174 211 -174q74 0 147.5 40.5t132.5 106.5v185z" />
    <glyph glyph-name="Aogonek" unicode="&#x104;" horiz-adv-x="1351" 
d="M1298 -221l23 -127q-109 -39 -219 -39q-108 0 -170 52.5t-62 141.5q0 70 57 133.5t165 106.5l-103 248h-645l-123 -295h-203l521 1249h254l518 -1249h-97q-96 -31 -141 -66t-45 -79q0 -46 31.5 -71.5t89.5 -25.5q25 0 149 21zM918 469l-205 498q-27 73 -47 149
q-17 -68 -48 -149l-204 -498h504z" />
    <glyph glyph-name="aogonek" unicode="&#x105;" horiz-adv-x="1050" 
d="M965 -221l24 -127q-109 -39 -221 -39q-110 0 -171.5 52t-61.5 153q0 72 53.5 132.5t148.5 102.5v68q-81 -66 -157 -102.5t-177 -36.5q-166 0 -246.5 69t-80.5 223q0 310 403 310q168 0 258 -2q0 142 -40 190.5t-162 48.5q-127 0 -332 -51l-31 150q247 65 393 65
q199 0 278 -93.5t79 -311.5v-580h-103q-68 -25 -107.5 -63.5t-39.5 -81.5t40.5 -70t104.5 -27q28 0 148 21zM737 451h-235q-135 0 -195.5 -34t-60.5 -124q0 -174 211 -174q74 0 147.5 40.5t132.5 106.5v185z" />
    <glyph glyph-name="Cacute" unicode="&#x106;" horiz-adv-x="1271" 
d="M950 1599l-2 -36q-95 -79 -153 -116t-160 -77l-60 60l226 266zM1126 279l72 -146q-210 -151 -514 -151q-278 0 -433 167.5t-155 473.5q0 311 158.5 479t450.5 168q116 0 235.5 -28.5t208.5 -80.5l-59 -143q-180 76 -379 76q-207 0 -314.5 -119.5t-107.5 -351.5
q0 -220 106.5 -342.5t296.5 -122.5q241 0 434 121z" />
    <glyph glyph-name="cacute" unicode="&#x107;" horiz-adv-x="1013" 
d="M760 1325l-2 -37q-91 -75 -150.5 -116.5t-163.5 -96.5l-59 60l225 286zM885 244l67 -123q-105 -79 -195.5 -109t-221.5 -30q-201 0 -325 136.5t-124 358.5q0 229 131 368.5t346 139.5q193 0 352 -94l-63 -125q-128 63 -287 63q-134 0 -215.5 -97t-81.5 -255
q0 -154 79.5 -246t211.5 -92q91 0 164 23t162 82z" />
    <glyph glyph-name="Cdotaccent" unicode="&#x10a;" horiz-adv-x="1271" 
d="M684 1640q55 0 93 -35t38 -94q0 -58 -38 -92.5t-93 -34.5q-57 0 -95 34.5t-38 92.5q0 60 38 94.5t95 34.5zM1126 279l72 -146q-210 -151 -514 -151q-278 0 -433 167.5t-155 473.5q0 311 158.5 479t450.5 168q116 0 235.5 -28.5t208.5 -80.5l-59 -143q-180 76 -379 76
q-207 0 -314.5 -119.5t-107.5 -351.5q0 -220 106.5 -342.5t296.5 -122.5q241 0 434 121z" />
    <glyph glyph-name="cdotaccent" unicode="&#x10b;" horiz-adv-x="1013" 
d="M537 1386q55 0 93 -35t38 -94q0 -58 -38 -92.5t-93 -34.5q-57 0 -95.5 34.5t-38.5 92.5q0 60 38 94.5t96 34.5zM885 244l67 -123q-105 -79 -195.5 -109t-221.5 -30q-201 0 -325 136.5t-124 358.5q0 229 131 368.5t346 139.5q193 0 352 -94l-63 -125q-128 63 -287 63
q-134 0 -215.5 -97t-81.5 -255q0 -154 79.5 -246t211.5 -92q91 0 164 23t162 82z" />
    <glyph glyph-name="Ccaron" unicode="&#x10c;" horiz-adv-x="1271" 
d="M748 1382h-125l-250 222l71 73l242 -143l242 143l71 -73zM1126 279l72 -146q-210 -151 -514 -151q-278 0 -433 167.5t-155 473.5q0 311 158.5 479t450.5 168q116 0 235.5 -28.5t208.5 -80.5l-59 -143q-180 76 -379 76q-207 0 -314.5 -119.5t-107.5 -351.5
q0 -220 106.5 -342.5t296.5 -122.5q241 0 434 121z" />
    <glyph glyph-name="ccaron" unicode="&#x10d;" horiz-adv-x="1013" 
d="M598 1087h-125l-250 242l72 74q40 -28 121 -82t121 -82q40 27 120.5 82t120.5 82l72 -74zM885 244l67 -123q-105 -79 -195.5 -109t-221.5 -30q-201 0 -325 136.5t-124 358.5q0 229 131 368.5t346 139.5q193 0 352 -94l-63 -125q-128 63 -287 63q-134 0 -215.5 -97
t-81.5 -255q0 -154 79.5 -246t211.5 -92q91 0 164 23t162 82z" />
    <glyph glyph-name="Dcaron" unicode="&#x10e;" horiz-adv-x="1339" 
d="M700 1374h-125l-249 221l71 74l242 -143l242 143l71 -74zM172 1249h393q325 0 501.5 -159.5t176.5 -454.5q0 -305 -176.5 -470t-501.5 -165h-393v1249zM360 176h205q233 0 359.5 119.5t126.5 339.5q0 211 -126.5 324.5t-359.5 113.5h-205v-897z" />
    <glyph glyph-name="dcaron" unicode="&#x10f;" horiz-adv-x="1155" 
d="M1282 1337v-26q-13 -181 -61 -322h-109l12 348h158zM829 0v127q-80 -75 -152 -110t-185 -35q-82 0 -152.5 28.5t-128.5 86.5t-91.5 158t-33.5 232q0 258 101.5 378t281.5 120q207 0 360 -143v495h185v-1337h-185zM829 299v367q-137 163 -301 163q-260 0 -260 -342
q0 -93 22.5 -162.5t62 -110t87.5 -60t105 -19.5q61 0 115.5 25.5t87 55.5t81.5 83z" />
    <glyph glyph-name="Dcroat" unicode="&#x110;" horiz-adv-x="1337" 
d="M160 1249h393q325 0 501.5 -159.5t176.5 -454.5q0 -305 -176.5 -470t-501.5 -165h-393v543h-133v149h133v557zM348 176h205q233 0 359 119.5t126 339.5q0 211 -126 324.5t-359 113.5h-205v-381h260v-149h-260v-367z" />
    <glyph glyph-name="dcroat" unicode="&#x111;" horiz-adv-x="1159" 
d="M1106 1063h-102v-1063h-185v127q-53 -49 -93.5 -77t-103.5 -48t-141 -20q-65 0 -122.5 17t-110 56t-90.5 96.5t-60 143.5t-22 192q0 258 101.5 378t281.5 120q207 0 360 -143v221h-268v137h268v137h185v-137h102v-137zM819 299v367q-137 163 -301 163q-260 0 -260 -342
q0 -93 22.5 -162.5t62 -110t87.5 -60t105 -19.5q61 0 115.5 25.5t87 55.5t81.5 83z" />
    <glyph glyph-name="Emacron" unicode="&#x112;" horiz-adv-x="1155" 
d="M840 1423h-512v162h512v-162zM1034 0h-862v1249h844v-176h-656v-358h572v-176h-572v-363h674v-176z" />
    <glyph glyph-name="emacron" unicode="&#x113;" horiz-adv-x="1073" 
d="M797 1143h-512v162h512v-162zM905 248l68 -119q-100 -79 -197.5 -113t-228.5 -34q-209 0 -335 122.5t-126 370.5q0 130 35 229t99 160t148 91t187 30q201 0 313.5 -122t116.5 -347q0 -47 -6 -84h-717q11 -157 88.5 -230t204.5 -73q97 0 177.5 27.5t172.5 91.5zM266 575
h555q-10 127 -78.5 194t-187.5 67q-115 0 -192.5 -64t-96.5 -197z" />
    <glyph glyph-name="Edotaccent" unicode="&#x116;" horiz-adv-x="1155" 
d="M584 1632q55 0 93 -35t38 -94q0 -58 -38 -92.5t-93 -34.5q-57 0 -95 34.5t-38 92.5q0 60 38 94.5t95 34.5zM1034 0h-862v1249h844v-176h-656v-358h572v-176h-572v-363h674v-176z" />
    <glyph glyph-name="edotaccent" unicode="&#x117;" horiz-adv-x="1073" 
d="M539 1386q55 0 93 -35t38 -94q0 -58 -38 -92.5t-93 -34.5q-57 0 -95 34.5t-38 92.5q0 60 38 94.5t95 34.5zM905 248l68 -119q-100 -79 -197.5 -113t-228.5 -34q-209 0 -335 122.5t-126 370.5q0 130 35 229t99 160t148 91t187 30q201 0 313.5 -122t116.5 -347
q0 -47 -6 -84h-717q11 -157 88.5 -230t204.5 -73q97 0 177.5 27.5t172.5 91.5zM266 575h555q-10 127 -78.5 194t-187.5 67q-115 0 -192.5 -64t-96.5 -197z" />
    <glyph glyph-name="Eogonek" unicode="&#x118;" horiz-adv-x="1155" 
d="M1053 -221l24 -127q-109 -39 -221 -39q-110 0 -171.5 52t-61.5 153q0 104 108 182h-559v1249h844v-176h-656v-358h572v-176h-572v-363h672v-176h-125q-68 -25 -107.5 -63.5t-39.5 -81.5t40.5 -70t104.5 -27q28 0 148 21z" />
    <glyph glyph-name="eogonek" unicode="&#x119;" horiz-adv-x="1073" 
d="M813 -221l25 -127q-109 -39 -222 -39q-110 0 -171.5 52t-61.5 153q0 94 90 168q-178 21 -282.5 142.5t-104.5 346.5q0 130 35 228.5t98.5 159t147 90.5t186.5 30q203 2 315.5 -119.5t116.5 -347.5q0 -47 -6 -86h-717q11 -156 88.5 -229.5t202.5 -73.5q98 2 178.5 29
t171.5 90l70 -117q-84 -66 -164 -100t-178 -43q-52 -25 -81.5 -59.5t-29.5 -71.5q0 -43 41 -70t105 -27q27 0 147 21zM266 575h555q-10 127 -78.5 194t-187.5 67q-115 0 -192.5 -64t-96.5 -197z" />
    <glyph glyph-name="Ecaron" unicode="&#x11a;" horiz-adv-x="1155" 
d="M645 1374h-125l-250 221l72 74l242 -143l241 143l72 -74zM1034 0h-862v1249h844v-176h-656v-358h572v-176h-572v-363h674v-176z" />
    <glyph glyph-name="ecaron" unicode="&#x11b;" horiz-adv-x="1073" 
d="M596 1087h-125l-250 242l72 74q40 -28 121 -82t121 -82q40 27 120.5 82t120.5 82l72 -74zM905 248l68 -119q-100 -79 -197.5 -113t-228.5 -34q-209 0 -335 122.5t-126 370.5q0 130 35 229t99 160t148 91t187 30q201 0 313.5 -122t116.5 -347q0 -47 -6 -84h-717
q11 -157 88.5 -230t204.5 -73q97 0 177.5 27.5t172.5 91.5zM266 575h555q-10 127 -78.5 194t-187.5 67q-115 0 -192.5 -64t-96.5 -197z" />
    <glyph glyph-name="Gbreve" unicode="&#x11e;" horiz-adv-x="1370" 
d="M838 1622h137q0 -124 -71.5 -185t-221.5 -61q-147 0 -218 61t-71 185h137q6 -56 42 -84.5t110 -28.5t110.5 28.5t45.5 84.5zM1251 649v-497q-142 -89 -281.5 -129.5t-299.5 -40.5q-268 0 -421 168t-153 473q0 301 159.5 474t440.5 173q267 0 496 -92l-53 -156
q-210 72 -426 72q-203 0 -313.5 -122.5t-110.5 -346.5q0 -227 102 -347t287 -120q122 0 216 21t177 75v223h-420v172h600z" />
    <glyph glyph-name="gbreve" unicode="&#x11f;" horiz-adv-x="1126" 
d="M719 1360h137q0 -138 -71.5 -204t-221.5 -66q-148 0 -218.5 65.5t-70.5 202.5h138q6 -70 41 -102.5t110 -32.5t111 32.5t45 104.5zM1014 967l-2 -820q0 -244 -115 -359.5t-326 -115.5q-240 0 -428 103l54 139q174 -78 352 -78q138 0 208 71.5t70 239.5v41
q-74 -75 -150.5 -110t-193.5 -35q-84 0 -154.5 26.5t-125.5 79.5t-86 141.5t-31 203.5q0 491 383 491q186 0 360 -141v123h185zM827 354v312q-77 82 -147.5 122.5t-153.5 40.5q-125 0 -192.5 -77.5t-67.5 -257.5q0 -83 22.5 -144t62.5 -95.5t88 -50.5t106 -16q87 0 148.5 42
t133.5 124z" />
    <glyph glyph-name="Gdotaccent" unicode="&#x120;" horiz-adv-x="1370" 
d="M684 1632q55 0 93 -35t38 -94q0 -58 -38 -92.5t-93 -34.5q-57 0 -95 34.5t-38 92.5q0 60 38 94.5t95 34.5zM1251 649v-497q-142 -89 -281.5 -129.5t-299.5 -40.5q-268 0 -421 168t-153 473q0 301 159.5 474t440.5 173q267 0 496 -92l-53 -156q-210 72 -426 72
q-203 0 -313.5 -122.5t-110.5 -346.5q0 -227 102 -347t287 -120q122 0 216 21t177 75v223h-420v172h600z" />
    <glyph glyph-name="gdotaccent" unicode="&#x121;" horiz-adv-x="1126" 
d="M565 1386q55 0 93 -35t38 -94q0 -58 -38 -92.5t-93 -34.5q-57 0 -95 34.5t-38 92.5q0 60 38 94.5t95 34.5zM1014 967l-2 -820q0 -244 -115 -359.5t-326 -115.5q-240 0 -428 103l54 139q174 -78 352 -78q138 0 208 71.5t70 239.5v41q-74 -75 -150.5 -110t-193.5 -35
q-84 0 -154.5 26.5t-125.5 79.5t-86 141.5t-31 203.5q0 491 383 491q186 0 360 -141v123h185zM827 354v312q-77 82 -147.5 122.5t-153.5 40.5q-125 0 -192.5 -77.5t-67.5 -257.5q0 -83 22.5 -144t62.5 -95.5t88 -50.5t106 -16q87 0 148.5 42t133.5 124z" />
    <glyph glyph-name="Gcommaaccent" unicode="&#x122;" horiz-adv-x="1370" 
d="M1251 649v-497q-142 -89 -281.5 -129.5t-299.5 -40.5q-268 0 -421 168t-153 473q0 301 159.5 474t440.5 173q267 0 496 -92l-53 -156q-210 72 -426 72q-203 0 -313.5 -122.5t-110.5 -346.5q0 -227 102 -347t287 -120q122 0 216 21t177 75v223h-420v172h600zM606 -492
l-31 60q85 76 101 145q-34 11 -54 36.5t-20 60.5q0 45 28 73.5t75 28.5q43 0 70.5 -32t27.5 -79q0 -83 -51.5 -161.5t-145.5 -131.5z" />
    <glyph glyph-name="gcommaaccent" unicode="&#x123;" horiz-adv-x="1126" 
d="M643 1468l33 -59q-76 -67 -101 -135q34 -8 56 -34.5t22 -61.5q0 -44 -29 -73.5t-73 -29.5q-45 0 -73.5 32t-28.5 79q0 160 194 282zM1014 967l-2 -820q0 -244 -115 -359.5t-326 -115.5q-240 0 -428 103l54 139q174 -78 352 -78q138 0 208 71.5t70 239.5v41
q-74 -75 -150.5 -110t-193.5 -35q-84 0 -154.5 26.5t-125.5 79.5t-86 141.5t-31 203.5q0 491 383 491q186 0 360 -141v123h185zM827 354v312q-77 82 -147.5 122.5t-153.5 40.5q-125 0 -192.5 -77.5t-67.5 -257.5q0 -83 22.5 -144t62.5 -95.5t88 -50.5t106 -16q87 0 148.5 42
t133.5 124z" />
    <glyph glyph-name="Hbar" unicode="&#x126;" horiz-adv-x="1388" 
d="M1223 909v-909h-189v508h-680v-508h-188v909h-100v150h100v190h188v-190h680v190h189v-190h100v-150h-100zM1034 909h-680v-225h680v225z" />
    <glyph glyph-name="hbar" unicode="&#x127;" horiz-adv-x="1136" 
d="M315 1090v-277q175 170 375 170q162 0 231.5 -90t69.5 -289v-604h-184v549q0 141 -33.5 197.5t-138.5 56.5q-166 0 -320 -178v-625h-184v1090h-84v94h84v153h184v-153h285v-94h-285z" />
    <glyph glyph-name="Imacron" unicode="&#x12a;" horiz-adv-x="532" 
d="M524 1423h-512v162h512v-162zM360 0h-188v1249h188v-1249z" />
    <glyph glyph-name="imacron" unicode="&#x12b;" horiz-adv-x="481" 
d="M498 1157h-514v162h514v-162zM334 0h-184v967h184v-967z" />
    <glyph glyph-name="Iogonek" unicode="&#x12e;" horiz-adv-x="532" 
d="M434 -221l25 -127q-109 -39 -221 -39q-110 0 -172 52t-62 153q0 128 168 219v1212h188v-1249h-71q-68 -25 -108 -64t-40 -81q0 -43 41 -70t105 -27q27 0 147 21z" />
    <glyph glyph-name="iogonek" unicode="&#x12f;" horiz-adv-x="481" 
d="M242 1130q-57 0 -95 34.5t-38 92.5q0 60 38 94.5t95 34.5q55 0 93 -35t38 -94q0 -58 -38 -92.5t-93 -34.5zM418 -221l24 -127q-109 -39 -221 -39q-110 0 -171.5 52t-61.5 153q0 129 159 215v934h185v-967h-60q-68 -25 -107.5 -63.5t-39.5 -81.5t40.5 -70t104.5 -27
q28 0 148 21z" />
    <glyph glyph-name="Idotaccent" unicode="&#x130;" horiz-adv-x="532" 
d="M268 1632q55 0 93 -35t38 -94q0 -58 -38 -92.5t-93 -34.5q-57 0 -95 34.5t-38 92.5q0 60 38 94.5t95 34.5zM360 0h-188v1249h188v-1249z" />
    <glyph glyph-name="dotlessi" unicode="&#x131;" horiz-adv-x="481" 
d="M334 0h-184v967h184v-967z" />
    <glyph glyph-name="IJ" unicode="&#x132;" horiz-adv-x="1515" 
d="M360 0h-188v1249h188v-1249zM1350 1249v-817q0 -203 -106 -326.5t-281 -123.5q-178 0 -388 106l54 154q56 -24 89.5 -36.5t92.5 -26t113 -13.5q107 0 172 73t65 193v817h189z" />
    <glyph glyph-name="ij" unicode="&#x133;" horiz-adv-x="921" 
d="M129 1247q0 49 32 76t79 27t78.5 -27t31.5 -76q0 -48 -32 -75t-78 -27q-47 0 -79 27.5t-32 74.5zM680 1145q-47 0 -79 27.5t-32 74.5q0 49 32 76t79 27t79 -27t32 -76q0 -47 -32 -74.5t-79 -27.5zM334 0h-184v967h184v-967zM772 967v-908q0 -178 -58 -273t-204 -132
l-41 145q72 35 95.5 87t23.5 173v908h184z" />
    <glyph glyph-name="Kcommaaccent" unicode="&#x136;" horiz-adv-x="1306" 
d="M621 582l-261 -285v-297h-188v1249h188v-686l637 686h224v-12l-478 -518l512 -705v-14h-208zM559 -492l-31 60q85 76 101 145q-34 11 -54 36.5t-20 60.5q0 45 27.5 73.5t74.5 28.5q43 0 71 -32t28 -79q0 -83 -51.5 -161.5t-145.5 -131.5z" />
    <glyph glyph-name="kcommaaccent" unicode="&#x137;" horiz-adv-x="1073" 
d="M1008 967v-13l-379 -383l432 -557v-14h-217l-350 436l-166 -168v-268h-185v1337h185v-827l454 457h226zM467 -492l-31 60q85 76 101 145q-34 11 -54 36.5t-20 60.5q0 45 27.5 73.5t74.5 28.5q43 0 71 -32t28 -79q0 -83 -51.5 -161.5t-145.5 -131.5z" />
    <glyph glyph-name="Lacute" unicode="&#x139;" horiz-adv-x="1038" 
d="M545 1591l-2 -37q-93 -77 -152 -114.5t-162 -77.5l-59 59l225 267zM973 0h-801v1249h188v-1069h613v-180z" />
    <glyph glyph-name="lacute" unicode="&#x13a;" horiz-adv-x="468" 
d="M510 1696l-2 -37q-92 -76 -151 -117t-162 -96l-60 59l225 287zM328 0h-185v1337h185v-1337z" />
    <glyph glyph-name="Lcommaaccent" unicode="&#x13b;" horiz-adv-x="1038" 
d="M973 0h-801v1249h188v-1069h613v-180zM465 -492l-31 60q85 76 101 145q-34 11 -54 36.5t-20 60.5q0 45 27.5 73.5t74.5 28.5q43 0 71 -32t28 -79q0 -83 -51.5 -161.5t-145.5 -131.5z" />
    <glyph glyph-name="lcommaaccent" unicode="&#x13c;" horiz-adv-x="468" 
d="M328 0h-185v1337h185v-1337zM143 -492l-30 60q84 75 100 145q-34 11 -54 36.5t-20 60.5q0 45 28 73.5t75 28.5q43 0 70.5 -32t27.5 -79q0 -83 -51.5 -161.5t-145.5 -131.5z" />
    <glyph glyph-name="Lcaron" unicode="&#x13d;" horiz-adv-x="1038" 
d="M791 1249v-24q-12 -176 -62 -324h-106l12 348h156zM973 0h-801v1249h188v-1069h613v-180z" />
    <glyph glyph-name="lcaron" unicode="&#x13e;" horiz-adv-x="481" 
d="M592 1337v-26q-12 -178 -62 -322h-108l14 348h156zM328 0h-185v1337h185v-1337z" />
    <glyph glyph-name="Ldot" unicode="&#x13f;" horiz-adv-x="1038" 
d="M973 0h-801v1249h188v-1069h613v-180zM600 641q0 50 31 81.5t82 31.5t81.5 -31.5t30.5 -81.5q0 -48 -31 -80.5t-81 -32.5t-81.5 32.5t-31.5 80.5z" />
    <glyph glyph-name="ldot" unicode="&#x140;" horiz-adv-x="675" 
d="M328 0h-185v1337h185v-1337zM430 664q0 50 31 81t82 31t81.5 -31t30.5 -81q0 -48 -31 -80.5t-81 -32.5t-81.5 32.5t-31.5 80.5z" />
    <glyph glyph-name="Lslash" unicode="&#x141;" horiz-adv-x="1044" 
d="M961 180v-180h-801v532l-117 -36v149l117 37v567h188v-508l322 101v-150l-322 -100v-412h613z" />
    <glyph glyph-name="lslash" unicode="&#x142;" horiz-adv-x="481" 
d="M446 696l-127 -51v-645h-184v571l-92 -36v149l92 37v616h184v-542l127 51v-150z" />
    <glyph glyph-name="Nacute" unicode="&#x143;" horiz-adv-x="1413" 
d="M973 1591l-2 -37q-93 -77 -152 -114.5t-162 -77.5l-59 59l225 267zM1241 0h-172l-709 928v-928h-188v1249h172l709 -932v932h188v-1249z" />
    <glyph glyph-name="nacute" unicode="&#x144;" horiz-adv-x="1138" 
d="M805 1325l-2 -37q-91 -75 -150.5 -116.5t-163.5 -96.5l-59 60l225 286zM328 967v-142q86 78 169.5 118t184.5 40q165 0 243.5 -91.5t78.5 -287.5v-604h-185v559q0 141 -33.5 196.5t-138.5 55.5q-171 0 -319 -172v-639h-185v967h185z" />
    <glyph glyph-name="Ncommaaccent" unicode="&#x145;" horiz-adv-x="1413" 
d="M1241 0h-172l-709 928v-928h-188v1249h172l709 -932v932h188v-1249zM604 -492l-31 60q85 76 101 145q-34 11 -54 36.5t-20 60.5q0 45 27.5 73.5t74.5 28.5q43 0 71 -32t28 -79q0 -83 -51.5 -161.5t-145.5 -131.5z" />
    <glyph glyph-name="ncommaaccent" unicode="&#x146;" horiz-adv-x="1138" 
d="M328 967v-142q86 78 169.5 118t184.5 40q165 0 243.5 -91.5t78.5 -287.5v-604h-185v559q0 141 -33.5 196.5t-138.5 55.5q-171 0 -319 -172v-639h-185v967h185zM477 -492l-31 60q85 76 101 145q-34 11 -54 36.5t-20 60.5q0 45 27.5 73.5t74.5 28.5q43 0 71 -32t28 -79
q0 -83 -51.5 -161.5t-145.5 -131.5z" />
    <glyph glyph-name="Ncaron" unicode="&#x147;" horiz-adv-x="1413" 
d="M768 1374h-125l-250 221l72 74l242 -143l241 143l72 -74zM1241 0h-172l-709 928v-928h-188v1249h172l709 -932v932h188v-1249z" />
    <glyph glyph-name="ncaron" unicode="&#x148;" horiz-adv-x="1138" 
d="M643 1087h-125l-250 242l72 74q40 -28 121 -82t121 -82q40 27 120.5 82t120.5 82l72 -74zM328 967v-142q86 78 169.5 118t184.5 40q165 0 243.5 -91.5t78.5 -287.5v-604h-185v559q0 141 -33.5 196.5t-138.5 55.5q-171 0 -319 -172v-639h-185v967h185z" />
    <glyph glyph-name="Omacron" unicode="&#x14c;" horiz-adv-x="1382" 
d="M948 1423h-512v162h512v-162zM690 1270q284 0 440 -168t156 -479q0 -307 -156 -474t-440 -167q-282 0 -438 167t-156 474q0 311 155.5 479t438.5 168zM690 158q195 0 299.5 119t104.5 346q0 230 -104.5 350.5t-299.5 120.5q-193 0 -297 -120.5t-104 -350.5
q0 -227 104 -346t297 -119z" />
    <glyph glyph-name="omacron" unicode="&#x14d;" 
d="M827 1157h-512v162h512v-162zM571 985q218 0 352 -139.5t134 -368.5q0 -223 -134 -359t-354 -136q-218 0 -350.5 136t-132.5 359q0 229 133.5 368.5t351.5 139.5zM569 139q138 0 223 93t85 245q0 158 -84.5 254t-221.5 96t-221 -96t-84 -254q0 -152 83.5 -245t219.5 -93z
" />
    <glyph glyph-name="Ohungarumlaut" unicode="&#x150;" horiz-adv-x="1382" 
d="M805 1622v-39q-65 -58 -91 -80.5t-75 -60t-96 -66.5l-82 41l203 273zM1096 1622l-2 -39q-61 -55 -90 -79.5t-77.5 -61.5t-95.5 -66l-81 41l204 273zM690 1270q284 0 440 -168t156 -479q0 -307 -156 -474t-440 -167q-282 0 -438 167t-156 474q0 311 155.5 479t438.5 168z
M690 158q195 0 299.5 119t104.5 346q0 230 -104.5 350.5t-299.5 120.5q-193 0 -297 -120.5t-104 -350.5q0 -227 104 -346t297 -119z" />
    <glyph glyph-name="ohungarumlaut" unicode="&#x151;" 
d="M670 1376v-39q-171 -152 -262 -227l-82 41l202 293zM961 1376l-3 -39q-171 -152 -262 -227l-82 41l205 293zM571 985q218 0 352 -139.5t134 -368.5q0 -223 -134 -359t-354 -136q-218 0 -350.5 136t-132.5 359q0 229 133.5 368.5t351.5 139.5zM569 139q138 0 223 93
t85 245q0 158 -84.5 254t-221.5 96t-221 -96t-84 -254q0 -152 83.5 -245t219.5 -93z" />
    <glyph glyph-name="OE" unicode="&#x152;" horiz-adv-x="1955" 
d="M1823 176v-176h-860v49q-110 -67 -273 -67q-282 0 -438 167t-156 474q0 311 155.5 479t438.5 168q161 0 273 -68v47h843v-176h-655v-358h571v-176h-571v-363h672zM963 246v760q-98 88 -273 88q-193 0 -297 -120.5t-104 -350.5q0 -227 104 -346t297 -119q175 0 273 88z
" />
    <glyph glyph-name="oe" unicode="&#x153;" horiz-adv-x="1863" 
d="M1044 432v-6q11 -154 88.5 -225.5t202.5 -71.5q97 0 178 27.5t173 91.5l67 -119q-100 -79 -197.5 -113t-228.5 -34q-260 0 -379 178q-63 -85 -163.5 -131.5t-225.5 -46.5q-218 0 -350.5 136t-132.5 359q0 229 133.5 368.5t351.5 139.5q125 0 225.5 -48t163.5 -136
q121 184 385 184q203 0 315.5 -122t116.5 -347q0 -47 -6 -84h-717zM1047 575h557q-10 127 -80 194t-189 67q-115 0 -192 -64t-96 -197zM559 139q138 0 222.5 93t84.5 245q0 158 -84 254t-221 96t-221 -96t-84 -254q0 -152 83.5 -245t219.5 -93z" />
    <glyph glyph-name="Racute" unicode="&#x154;" horiz-adv-x="1226" 
d="M866 1591l-2 -37q-94 -78 -152.5 -115t-160.5 -77l-59 59l225 267zM1176 14v-14h-207l-318 393h-291v-393h-188v1249h461q247 0 380.5 -112.5t133.5 -319.5q0 -146 -81.5 -251t-223.5 -148zM360 569h277q152 0 234.5 64.5t82.5 183.5q0 121 -82.5 187.5t-234.5 68.5h-277
v-504z" />
    <glyph glyph-name="racute" unicode="&#x155;" horiz-adv-x="776" 
d="M608 1325l-2 -37q-92 -76 -151 -117t-162 -96l-60 60l226 286zM328 967v-189q39 93 116 149t172 56q68 0 123 -6l-12 -182q-49 4 -117 4q-98 0 -171.5 -63t-110.5 -179v-557h-185v967h185z" />
    <glyph glyph-name="Rcommaaccent" unicode="&#x156;" horiz-adv-x="1226" 
d="M1176 14v-14h-207l-318 393h-291v-393h-188v1249h461q247 0 380.5 -112.5t133.5 -319.5q0 -146 -81.5 -251t-223.5 -148zM360 569h277q152 0 234.5 64.5t82.5 183.5q0 121 -82.5 187.5t-234.5 68.5h-277v-504zM537 -492l-31 60q84 75 100 145q-34 11 -54 36.5t-20 60.5
q0 45 28 73.5t75 28.5q43 0 70.5 -32t27.5 -79q0 -83 -51 -161.5t-145 -131.5z" />
    <glyph glyph-name="rcommaaccent" unicode="&#x157;" horiz-adv-x="776" 
d="M328 967v-189q39 93 116 149t172 56q68 0 123 -6l-12 -182q-49 4 -117 4q-98 0 -171.5 -63t-110.5 -179v-557h-185v967h185zM141 -492l-30 60q84 75 100 145q-34 11 -54 36.5t-20 60.5q0 45 28 73.5t75 28.5q43 0 70.5 -32t27.5 -79q0 -83 -51.5 -161.5t-145.5 -131.5z
" />
    <glyph glyph-name="Rcaron" unicode="&#x158;" horiz-adv-x="1226" 
d="M537 1374l-250 221l71 74l242 -143l242 143l71 -74l-251 -221h-125zM1176 14v-14h-207l-318 393h-291v-393h-188v1249h461q247 0 380.5 -112.5t133.5 -319.5q0 -146 -81.5 -251t-223.5 -148zM360 569h277q152 0 234.5 64.5t82.5 183.5q0 121 -82.5 187.5t-234.5 68.5
h-277v-504z" />
    <glyph glyph-name="rcaron" unicode="&#x159;" horiz-adv-x="794" 
d="M465 1087h-125l-250 242l72 74q40 -28 120.5 -82t120.5 -82q40 27 121 81.5t121 82.5l72 -74zM346 967v-189q39 92 116.5 148.5t172.5 56.5q68 0 123 -6l-13 -182q-49 4 -116 4q-98 0 -172 -63.5t-111 -178.5v-557h-184v967h184z" />
    <glyph glyph-name="Sacute" unicode="&#x15a;" horiz-adv-x="1124" 
d="M817 1591l-2 -37q-94 -78 -152.5 -115t-160.5 -77l-60 59l226 267zM981 1171l-57 -151q-209 84 -402 84q-94 0 -149.5 -45.5t-55.5 -106.5q0 -39 12.5 -68.5t27.5 -48t57.5 -39t71.5 -31t101 -33.5q41 -14 64 -21q73 -24 122 -44.5t99 -52t79 -67.5t47 -88t18 -117
q0 -90 -32 -160.5t-88 -113t-128 -64.5t-156 -22q-128 0 -278 43.5t-271 111.5l74 148q124 -60 249 -95.5t218 -35.5q100 0 158.5 41t58.5 118q0 99 -65 147.5t-267 108.5q-52 15 -84 26t-75 29t-69.5 35.5t-55.5 45t-45 59t-26.5 75t-10.5 95.5q0 151 108.5 243.5
t292.5 92.5q224 0 457 -99z" />
    <glyph glyph-name="sacute" unicode="&#x15b;" horiz-adv-x="913" 
d="M684 1329l-2 -37q-92 -76 -151 -117t-162 -96l-60 60l226 286zM803 901l-49 -139q-209 78 -316 78q-78 0 -120 -31.5t-42 -89.5q0 -18 4.5 -32.5t17 -26.5t22.5 -19.5t34.5 -17t38.5 -14.5t48 -15.5t51 -15.5q68 -22 108 -36.5t84 -35.5t67 -42t43.5 -51t28.5 -67.5
t8 -87.5q0 -128 -94 -202t-254 -74q-232 0 -424 141l78 129q89 -63 164 -90t180 -27q82 0 130 31t48 90q0 23 -4.5 41t-11 31.5t-21.5 25t-27 19t-38.5 17t-44.5 15t-56 16.5t-63 19q-156 48 -222.5 104.5t-66.5 168.5q0 132 87.5 203t250.5 71q158 0 361 -86z" />
    <glyph glyph-name="Scedilla" unicode="&#x15e;" horiz-adv-x="1124" 
d="M981 1171l-57 -151q-209 84 -402 84q-94 0 -149.5 -45.5t-55.5 -106.5q0 -39 12.5 -68.5t27.5 -48t57.5 -39t71.5 -31t101 -33.5q41 -14 64 -21q73 -24 122 -44.5t99 -52t79 -67.5t47 -88t18 -117q0 -90 -32 -160.5t-88 -113t-128 -64.5t-156 -22q-39 0 -57 2l-4 -50
q120 0 165.5 -37t45.5 -137q0 -94 -54.5 -142t-154.5 -48q-92 0 -209 37l23 106q85 -18 145 -18q64 0 94 12.5t29 54.5q0 47 -25.5 57.5t-111.5 10.5h-88l34 168q-208 42 -381 139l74 148q124 -60 249 -95.5t218 -35.5q100 0 158.5 41t58.5 118q0 99 -65 147.5t-267 108.5
q-52 15 -84 26t-75 29t-69.5 35.5t-55.5 45t-45 59t-26.5 75t-10.5 95.5q0 151 108.5 243.5t292.5 92.5q224 0 457 -99z" />
    <glyph glyph-name="scedilla" unicode="&#x15f;" horiz-adv-x="913" 
d="M803 901l-49 -139q-209 78 -316 78q-78 0 -120 -31.5t-42 -89.5q0 -18 4.5 -32.5t17 -26.5t22.5 -19.5t34.5 -17t38.5 -14.5t48 -15.5t51 -15.5q68 -22 108 -36.5t84 -35.5t67 -42t43.5 -51t28.5 -67.5t8 -87.5q0 -128 -94 -202t-254 -74h-10l-4 -48q120 0 165.5 -37
t45.5 -137q0 -94 -54.5 -142t-154.5 -48q-92 0 -209 37l23 106q85 -18 145 -18q64 0 94 12.5t29 54.5q0 47 -25.5 57.5t-111.5 10.5h-88l32 162q-165 30 -301 131l78 129q89 -63 164 -90t180 -27q82 0 130 31t48 90q0 23 -4.5 41t-11 31.5t-21.5 25t-27 19t-38.5 17
t-44.5 15t-56 16.5t-63 19q-156 48 -222.5 104.5t-66.5 168.5q0 132 87.5 203t250.5 71q158 0 361 -86z" />
    <glyph glyph-name="Scaron" unicode="&#x160;" horiz-adv-x="1124" 
d="M612 1374h-125l-249 221l71 74l242 -143l242 143l71 -74zM981 1171l-57 -151q-209 84 -402 84q-94 0 -149.5 -45.5t-55.5 -106.5q0 -39 12.5 -68.5t27.5 -48t57.5 -39t71.5 -31t101 -33.5q41 -14 64 -21q73 -24 122 -44.5t99 -52t79 -67.5t47 -88t18 -117
q0 -90 -32 -160.5t-88 -113t-128 -64.5t-156 -22q-128 0 -278 43.5t-271 111.5l74 148q124 -60 249 -95.5t218 -35.5q100 0 158.5 41t58.5 118q0 99 -65 147.5t-267 108.5q-52 15 -84 26t-75 29t-69.5 35.5t-55.5 45t-45 59t-26.5 75t-10.5 95.5q0 151 108.5 243.5
t292.5 92.5q224 0 457 -99z" />
    <glyph glyph-name="scaron" unicode="&#x161;" horiz-adv-x="913" 
d="M522 1092h-125l-250 241l72 74q40 -27 121 -81.5t121 -82.5q40 28 120.5 82.5t120.5 81.5l72 -74zM803 901l-49 -139q-209 78 -316 78q-78 0 -120 -31.5t-42 -89.5q0 -18 4.5 -32.5t17 -26.5t22.5 -19.5t34.5 -17t38.5 -14.5t48 -15.5t51 -15.5q68 -22 108 -36.5
t84 -35.5t67 -42t43.5 -51t28.5 -67.5t8 -87.5q0 -128 -94 -202t-254 -74q-232 0 -424 141l78 129q89 -63 164 -90t180 -27q82 0 130 31t48 90q0 23 -4.5 41t-11 31.5t-21.5 25t-27 19t-38.5 17t-44.5 15t-56 16.5t-63 19q-156 48 -222.5 104.5t-66.5 168.5q0 132 87.5 203
t250.5 71q158 0 361 -86z" />
    <glyph glyph-name="Tcaron" unicode="&#x164;" horiz-adv-x="1118" 
d="M621 1374h-125l-250 221l71 74l242 -143l242 143l71 -74zM1090 1073h-437v-1073h-188v1073h-436v176h1061v-176z" />
    <glyph glyph-name="tcaron" unicode="&#x165;" horiz-adv-x="751" 
d="M635 1391v-27q-12 -178 -62 -322h-106l12 349h156zM676 172l20 -135q-125 -45 -225 -45q-153 0 -221 76t-68 247v496h-145v156h145v241h185v-241h286v-156h-286v-489q0 -95 36.5 -127.5t128.5 -32.5q72 0 144 10z" />
    <glyph glyph-name="Umacron" unicode="&#x16a;" horiz-adv-x="1357" 
d="M936 1423h-512v162h512v-162zM1212 1249v-680q0 -282 -138.5 -434.5t-393.5 -152.5t-394 152.5t-139 434.5v680h189v-680q0 -197 89.5 -302t254.5 -105q166 0 255 104.5t89 302.5v680h188z" />
    <glyph glyph-name="umacron" unicode="&#x16b;" horiz-adv-x="1134" 
d="M823 1157h-512v162h512v-162zM807 0v139q-93 -75 -179.5 -116t-183.5 -41q-162 0 -238.5 93.5t-76.5 289.5v602h184v-559q0 -136 42.5 -197t148.5 -61q80 0 159.5 51.5t143.5 128.5v637h184v-967h-184z" />
    <glyph glyph-name="Uring" unicode="&#x16e;" horiz-adv-x="1357" 
d="M680 1741q88 0 143.5 -54.5t55.5 -144.5q0 -83 -56 -135.5t-145 -52.5q-86 0 -141.5 52.5t-55.5 135.5q0 90 55.5 144.5t143.5 54.5zM678 1458q43 0 68.5 23t25.5 61q0 44 -25 70t-67 26t-67 -26t-25 -70q0 -38 25 -61t65 -23zM1212 1249v-680q0 -282 -138.5 -434.5
t-393.5 -152.5t-394 152.5t-139 434.5v680h189v-680q0 -197 89.5 -302t254.5 -105q166 0 255 104.5t89 302.5v680h188z" />
    <glyph glyph-name="uring" unicode="&#x16f;" horiz-adv-x="1134" 
d="M567 1470q89 0 144 -54t55 -144q0 -83 -56 -136t-145 -53q-86 0 -141 53t-55 136q0 90 55 144t143 54zM565 1188q43 0 68.5 23t25.5 61q0 44 -25 70t-67 26t-67 -26t-25 -70q0 -38 25 -61t65 -23zM807 0v139q-93 -75 -179.5 -116t-183.5 -41q-162 0 -238.5 93.5
t-76.5 289.5v602h184v-559q0 -136 42.5 -197t148.5 -61q80 0 159.5 51.5t143.5 128.5v637h184v-967h-184z" />
    <glyph glyph-name="Uhungarumlaut" unicode="&#x170;" horiz-adv-x="1357" 
d="M795 1622v-39q-61 -55 -90 -79.5t-77.5 -61.5t-95.5 -66l-81 41l202 273zM1085 1622l-2 -39q-65 -58 -91 -80.5t-75 -60t-96 -66.5l-82 41l205 273zM1212 1249v-680q0 -282 -138.5 -434.5t-393.5 -152.5t-394 152.5t-139 434.5v680h189v-680q0 -197 89.5 -302t254.5 -105
q166 0 255 104.5t89 302.5v680h188z" />
    <glyph glyph-name="uhungarumlaut" unicode="&#x171;" horiz-adv-x="1134" 
d="M668 1376v-39q-171 -152 -262 -227l-82 41l202 293zM958 1376l-2 -39q-171 -152 -262 -227l-82 41l205 293zM807 0v139q-93 -75 -179.5 -116t-183.5 -41q-162 0 -238.5 93.5t-76.5 289.5v602h184v-559q0 -136 42.5 -197t148.5 -61q80 0 159.5 51.5t143.5 128.5v637h184
v-967h-184z" />
    <glyph glyph-name="Uogonek" unicode="&#x172;" horiz-adv-x="1357" 
d="M1212 1249v-680q0 -275 -131 -426.5t-374 -160.5q-50 -25 -77.5 -58.5t-27.5 -68.5q0 -43 41 -70t105 -27q27 0 147 21l25 -127q-109 -39 -222 -39q-110 0 -171.5 52t-61.5 153q0 94 96 174q-200 32 -307 180.5t-107 396.5v680h189v-680q0 -197 89.5 -302t254.5 -105
q166 0 255 104.5t89 302.5v680h188z" />
    <glyph glyph-name="uogonek" unicode="&#x173;" horiz-adv-x="1134" 
d="M1034 -221l25 -127q-109 -39 -221 -39q-110 0 -172 52t-62 153q0 72 54 132t149 103v86q-93 -75 -180 -116t-185 -41q-161 0 -237 93.5t-76 289.5v602h184v-559q0 -136 42.5 -197t148.5 -61q80 0 159.5 51.5t143.5 128.5v637h184v-967h-102q-68 -25 -108 -64t-40 -81
q0 -43 41 -70t105 -27q27 0 147 21z" />
    <glyph glyph-name="Wcircumflex" unicode="&#x174;" horiz-adv-x="1826" 
d="M913 1501l-241 -145l-72 74l250 221h125l252 -221l-72 -74zM1438 0h-275l-219 817q-1 7 -13 63t-18 91q-5 -34 -28 -154l-221 -817h-275l-358 1249h211l250 -907q19 -88 28 -172q14 69 37 172l252 907h209l252 -907q23 -102 35 -170q14 99 30 170l252 907h211z" />
    <glyph glyph-name="wcircumflex" unicode="&#x175;" horiz-adv-x="1492" 
d="M989 1090l-241 165q-40 -27 -121 -82t-121 -83l-72 73l250 242h125l252 -242zM1165 0h-225l-192 662l-193 -662h-227l-308 967h179l213 -645q20 -79 30 -132q24 93 35 132l182 645h177l180 -645q6 -21 17.5 -66t17.5 -66q13 61 32 132l211 645h179z" />
    <glyph glyph-name="Ycircumflex" unicode="&#x176;" horiz-adv-x="1187" 
d="M594 1501l-242 -145l-71 74l249 221h125l252 -221l-71 -74zM688 410v-410h-188v410l-463 839h192l318 -555q20 -34 47 -106q16 49 47 106l317 555h193z" />
    <glyph glyph-name="ycircumflex" unicode="&#x177;" horiz-adv-x="1044" 
d="M764 1090l-242 165q-40 -28 -120.5 -83t-120.5 -82l-72 73l250 242h125l252 -242zM823 965h203q-4 -10 -33.5 -83.5t-35.5 -88t-33 -80.5t-35.5 -86.5t-32.5 -78t-36 -84t-33.5 -75t-37 -80.5t-34.5 -72t-37 -75q-91 -175 -203.5 -291t-265.5 -176l-66 158
q159 76 252 184l-389 928h193l252 -598q7 -15 59 -152q31 62 61 126.5t63.5 146.5t55.5 137.5t66 169t67 170.5z" />
    <glyph glyph-name="Ydieresis" unicode="&#x178;" horiz-adv-x="1187" 
d="M399 1614q50 0 81.5 -29.5t31.5 -81.5q0 -50 -31 -78t-82 -28q-45 0 -77.5 28.5t-32.5 77.5q0 50 32.5 80.5t77.5 30.5zM786 1614q46 0 79.5 -30.5t33.5 -80.5q0 -49 -33 -77.5t-80 -28.5q-49 0 -80.5 28t-31.5 78q0 51 31.5 81t80.5 30zM688 410v-410h-188v410l-463 839
h192l318 -555q20 -34 47 -106q16 49 47 106l317 555h193z" />
    <glyph glyph-name="Zacute" unicode="&#x179;" horiz-adv-x="1204" 
d="M868 1591l-2 -37q-94 -78 -152.5 -115t-160.5 -77l-59 59l225 267zM1118 0h-1018v145l766 934q-23 -1 -65 -2.5t-76 -2.5t-63 -1h-523v176h969v-153l-741 -926q22 1 63.5 2.5t74 2.5t58.5 1h555v-176z" />
    <glyph glyph-name="zacute" unicode="&#x17a;" horiz-adv-x="1021" 
d="M735 1325l-2 -37q-92 -76 -151 -117t-162 -96l-60 60l226 286zM944 0h-866v121l610 696q-74 -6 -178 -6h-418v156h834v-117l-594 -703q10 0 80.5 3.5t101.5 3.5h430v-154z" />
    <glyph glyph-name="Zdotaccent" unicode="&#x17b;" horiz-adv-x="1204" 
d="M602 1632q55 0 93 -35t38 -94q0 -58 -38 -92.5t-93 -34.5q-57 0 -95 34.5t-38 92.5q0 60 38 94.5t95 34.5zM1118 0h-1018v145l766 934q-23 -1 -65 -2.5t-76 -2.5t-63 -1h-523v176h969v-153l-741 -926q22 1 63.5 2.5t74 2.5t58.5 1h555v-176z" />
    <glyph glyph-name="zdotaccent" unicode="&#x17c;" horiz-adv-x="1021" 
d="M512 1386q55 0 93 -35t38 -94q0 -58 -38 -92.5t-93 -34.5q-57 0 -95 34.5t-38 92.5q0 60 38 94.5t95 34.5zM944 0h-866v121l610 696q-74 -6 -178 -6h-418v156h834v-117l-594 -703q10 0 80.5 3.5t101.5 3.5h430v-154z" />
    <glyph glyph-name="Zcaron" unicode="&#x17d;" horiz-adv-x="1204" 
d="M664 1374h-125l-250 221l71 74l242 -143l242 143l71 -74zM1118 0h-1018v145l766 934q-23 -1 -65 -2.5t-76 -2.5t-63 -1h-523v176h969v-153l-741 -926q22 1 63.5 2.5t74 2.5t58.5 1h555v-176z" />
    <glyph glyph-name="zcaron" unicode="&#x17e;" horiz-adv-x="1021" 
d="M573 1087h-124l-250 242l71 74q40 -28 121 -82t121 -82q40 27 121 81.5t121 82.5l71 -74zM944 0h-866v121l610 696q-74 -6 -178 -6h-418v156h834v-117l-594 -703q10 0 80.5 3.5t101.5 3.5h430v-154z" />
    <glyph glyph-name="florin" unicode="&#x192;" horiz-adv-x="1130" 
d="M1098 1020l-58 -115q-143 76 -288 76q-129 0 -214.5 -89.5t-125.5 -293.5l-13 -72h467l-24 -123h-467l-78 -403h-180l78 403h-127l22 123h127l14 72q53 275 175.5 402.5t320.5 127.5q210 0 371 -108z" />
    <glyph glyph-name="Acaron" unicode="&#x1cd;" horiz-adv-x="1351" 
d="M739 1374h-125l-249 221l71 74l242 -143l242 143l71 -74zM354 295l-121 -295h-202l520 1249h252l520 -1249h-203l-121 295h-645zM928 469l-205 498q-27 73 -47 149q-20 -76 -47 -149l-205 -498h504z" />
    <glyph glyph-name="Scommaaccent" unicode="&#x218;" horiz-adv-x="1124" 
d="M981 1171l-57 -151q-209 84 -402 84q-94 0 -149.5 -45.5t-55.5 -106.5q0 -39 12.5 -68.5t27.5 -48t57.5 -39t71.5 -31t101 -33.5q41 -14 64 -21q73 -24 122 -44.5t99 -52t79 -67.5t47 -88t18 -117q0 -90 -32 -160.5t-88 -113t-128 -64.5t-156 -22q-128 0 -278 43.5
t-271 111.5l74 148q124 -60 249 -95.5t218 -35.5q100 0 158.5 41t58.5 118q0 99 -65 147.5t-267 108.5q-52 15 -84 26t-75 29t-69.5 35.5t-55.5 45t-45 59t-26.5 75t-10.5 95.5q0 151 108.5 243.5t292.5 92.5q224 0 457 -99zM451 -492l-31 60q84 75 100 145q-34 11 -54 36.5
t-20 60.5q0 45 28 73.5t75 28.5q43 0 70.5 -32t27.5 -79q0 -83 -51 -161.5t-145 -131.5z" />
    <glyph glyph-name="scommaaccent" unicode="&#x219;" horiz-adv-x="913" 
d="M803 901l-49 -139q-209 78 -316 78q-78 0 -120 -31.5t-42 -89.5q0 -18 4.5 -32.5t17 -26.5t22.5 -19.5t34.5 -17t38.5 -14.5t48 -15.5t51 -15.5q68 -22 108 -36.5t84 -35.5t67 -42t43.5 -51t28.5 -67.5t8 -87.5q0 -128 -94 -202t-254 -74q-232 0 -424 141l78 129
q89 -63 164 -90t180 -27q82 0 130 31t48 90q0 23 -4.5 41t-11 31.5t-21.5 25t-27 19t-38.5 17t-44.5 15t-56 16.5t-63 19q-156 48 -222.5 104.5t-66.5 168.5q0 132 87.5 203t250.5 71q158 0 361 -86zM369 -492l-31 60q84 75 100 145q-34 11 -53.5 36.5t-19.5 60.5
q0 45 27.5 73.5t74.5 28.5q43 0 70.5 -32t27.5 -79q0 -83 -51 -161.5t-145 -131.5z" />
    <glyph glyph-name="uni021A" unicode="&#x21a;" horiz-adv-x="1118" 
d="M1090 1073h-437v-1073h-188v1073h-436v176h1061v-176zM469 -492l-31 60q85 76 101 145q-34 11 -54 36.5t-20 60.5q0 45 27.5 73.5t74.5 28.5q43 0 71 -32t28 -79q0 -83 -51.5 -161.5t-145.5 -131.5z" />
    <glyph glyph-name="uni021B" unicode="&#x21b;" horiz-adv-x="741" 
d="M676 172l20 -135q-125 -45 -225 -45q-153 0 -221 76t-68 247v496h-145v156h145v241h185v-241h286v-156h-286v-489q0 -95 36.5 -127.5t128.5 -32.5q72 0 144 10zM295 -479l-31 59q85 76 101 146q-34 11 -54 36t-20 60q0 45 27.5 73.5t74.5 28.5q44 0 71.5 -31.5
t27.5 -78.5q0 -83 -51.5 -161.5t-145.5 -131.5z" />
    <glyph glyph-name="circumflex" unicode="&#x2c6;" horiz-adv-x="999" 
d="M741 1090l-241 165q-40 -27 -121 -82t-121 -83l-72 73l250 242h125l252 -242z" />
    <glyph glyph-name="caron" unicode="&#x2c7;" horiz-adv-x="999" 
d="M561 1087h-125l-250 242l72 74q40 -28 121 -82t121 -82q40 27 120.5 82t120.5 82l72 -74z" />
    <glyph glyph-name="breve" unicode="&#x2d8;" horiz-adv-x="999" 
d="M653 1360h138q0 -138 -71.5 -204t-221.5 -66q-148 0 -218.5 65.5t-70.5 202.5h137q6 -70 41.5 -102.5t110.5 -32.5t110.5 32.5t44.5 104.5z" />
    <glyph glyph-name="dotaccent" unicode="&#x2d9;" horiz-adv-x="999" 
d="M500 1386q55 0 93 -35t38 -94q0 -58 -38 -92.5t-93 -34.5q-57 0 -95 34.5t-38 92.5q0 60 38 94.5t95 34.5z" />
    <glyph glyph-name="ring" unicode="&#x2da;" horiz-adv-x="999" 
d="M500 1470q88 0 143 -54t55 -144q0 -84 -55.5 -136.5t-144.5 -52.5q-86 0 -141.5 53t-55.5 136q0 90 55 144t144 54zM498 1188q43 0 68.5 23t25.5 61q0 44 -25 70t-67 26t-67 -26t-25 -70q0 -38 25 -61t65 -23z" />
    <glyph glyph-name="ogonek" unicode="&#x2db;" horiz-adv-x="999" 
d="M664 -221l24 -127q-109 -39 -221 -39q-110 0 -172 52t-62 153q0 85 73.5 153t199.5 109l61 -66q-89 -20 -142.5 -64t-53.5 -95q0 -43 40.5 -70t104.5 -27q28 0 148 21z" />
    <glyph glyph-name="tilde" unicode="&#x2dc;" horiz-adv-x="999" 
d="M727 1374l96 -22q-12 -68 -44 -116t-73.5 -67.5t-88 -19.5t-89.5 22l-112 58q-56 27 -89 11.5t-55 -75.5l-94 23q13 67 43.5 112t70.5 63.5t86 17.5t91 -23l113 -53q57 -27 90 -10.5t55 79.5z" />
    <glyph glyph-name="hungarumlaut" unicode="&#x2dd;" horiz-adv-x="999" 
d="M573 1376v-39q-171 -152 -262 -227l-82 41l203 293zM864 1376l-2 -39q-171 -152 -262 -227l-82 41l205 293z" />
    <glyph glyph-name="commaturnedabovecomb" unicode="&#x312;" horiz-adv-x="0" 
d="M555 1468l33 -59q-76 -67 -101 -135q34 -8 56 -34.5t22 -61.5q0 -44 -29 -73.5t-73 -29.5q-45 0 -74 32t-29 79q0 160 195 282z" />
    <glyph glyph-name="commaaccentcomb" unicode="&#x326;" horiz-adv-x="0" 
d="M397 -492l-30 60q84 75 100 145q-34 11 -54 36.5t-20 60.5q0 45 28 73.5t75 28.5q43 0 70.5 -32t27.5 -79q0 -83 -51.5 -161.5t-145.5 -131.5z" />
    <glyph glyph-name="Wgrave" unicode="&#x1e80;" horiz-adv-x="1826" 
d="M1016 1409l-60 -59q-102 40 -160.5 77t-152.5 115l-2 37l152 96zM1438 0h-275l-219 817q-1 7 -13 63t-18 91q-5 -34 -28 -154l-221 -817h-275l-358 1249h211l250 -907q19 -88 28 -172q14 69 37 172l252 907h209l252 -907q23 -102 35 -170q14 99 30 170l252 907h211z" />
    <glyph glyph-name="wgrave" unicode="&#x1e81;" horiz-adv-x="1492" 
d="M893 1163l-59 -59q-104 55 -163.5 96.5t-150.5 116.5l-2 37l152 96zM1165 0h-225l-192 662l-193 -662h-227l-308 967h179l213 -645q20 -79 30 -132q24 93 35 132l182 645h177l180 -645q6 -21 17.5 -66t17.5 -66q13 61 32 132l211 645h179z" />
    <glyph glyph-name="Wacute" unicode="&#x1e82;" horiz-adv-x="1826" 
d="M1180 1591l-2 -37q-93 -77 -152 -114.5t-162 -77.5l-59 59l225 267zM1438 0h-275l-219 817q-1 7 -13 63t-18 91q-5 -34 -28 -154l-221 -817h-275l-358 1249h211l250 -907q19 -88 28 -172q14 69 37 172l252 907h209l252 -907q23 -102 35 -170q14 99 30 170l252 907h211z
" />
    <glyph glyph-name="wacute" unicode="&#x1e83;" horiz-adv-x="1492" 
d="M971 1325l-2 -37q-91 -75 -150.5 -116.5t-163.5 -96.5l-59 60l225 286zM1165 0h-225l-192 662l-193 -662h-227l-308 967h179l213 -645q20 -79 30 -132q24 93 35 132l182 645h177l180 -645q6 -21 17.5 -66t17.5 -66q13 61 32 132l211 645h179z" />
    <glyph glyph-name="Wdieresis" unicode="&#x1e84;" horiz-adv-x="1826" 
d="M719 1614q50 0 81 -29.5t31 -81.5q0 -50 -30.5 -78t-81.5 -28q-45 0 -78 28.5t-33 77.5q0 50 33 80.5t78 30.5zM1106 1614q46 0 79.5 -30.5t33.5 -80.5q0 -49 -33 -77.5t-80 -28.5q-49 0 -81 28.5t-32 77.5q0 51 32 81t81 30zM1438 0h-275l-219 817q-1 7 -13 63t-18 91
q-5 -34 -28 -154l-221 -817h-275l-358 1249h211l250 -907q19 -88 28 -172q14 69 37 172l252 907h209l252 -907q23 -102 35 -170q14 99 30 170l252 907h211z" />
    <glyph glyph-name="wdieresis" unicode="&#x1e85;" horiz-adv-x="1492" 
d="M553 1362q50 0 81.5 -29.5t31.5 -81.5q0 -50 -31 -78t-82 -28q-45 0 -78 28.5t-33 77.5q0 50 33 80.5t78 30.5zM940 1362q46 0 79.5 -30.5t33.5 -80.5q0 -49 -33 -77.5t-80 -28.5q-49 0 -81 28.5t-32 77.5q0 51 32 81t81 30zM1165 0h-225l-192 662l-193 -662h-227
l-308 967h179l213 -645q20 -79 30 -132q24 93 35 132l182 645h177l180 -645q6 -21 17.5 -66t17.5 -66q13 61 32 132l211 645h179z" />
    <glyph glyph-name="Ygrave" unicode="&#x1ef2;" horiz-adv-x="1187" 
d="M696 1409l-59 -59q-102 40 -160.5 77t-152.5 115l-2 37l151 96zM688 410v-410h-188v410l-463 839h192l318 -555q20 -34 47 -106q16 49 47 106l317 555h193z" />
    <glyph glyph-name="ygrave" unicode="&#x1ef3;" horiz-adv-x="1044" 
d="M668 1163l-60 -59q-103 55 -162 96t-151 117l-2 37l151 96zM823 965h203q-4 -10 -33.5 -83.5t-35.5 -88t-33 -80.5t-35.5 -86.5t-32.5 -78t-36 -84t-33.5 -75t-37 -80.5t-34.5 -72t-37 -75q-91 -175 -203.5 -291t-265.5 -176l-66 158q159 76 252 184l-389 928h193
l252 -598q7 -15 59 -152q31 62 61 126.5t63.5 146.5t55.5 137.5t66 169t67 170.5z" />
    <glyph glyph-name="uni2009" unicode="&#x2009;" horiz-adv-x="190" 
 />
    <glyph glyph-name="endash" unicode="&#x2013;" horiz-adv-x="1021" 
d="M893 635v-141h-764v141h764z" />
    <glyph glyph-name="emdash" unicode="&#x2014;" horiz-adv-x="1841" 
d="M1712 635v-141h-1583v141h1583z" />
    <glyph glyph-name="quoteleft" unicode="&#x2018;" horiz-adv-x="524" 
d="M373 1362l49 -55q-59 -50 -86.5 -97.5t-40.5 -107.5q39 -9 62.5 -38.5t23.5 -68.5q0 -50 -31 -81t-82 -31q-50 0 -81 35t-31 88q0 95 54.5 188.5t162.5 167.5z" />
    <glyph glyph-name="quoteright" unicode="&#x2019;" horiz-adv-x="524" 
d="M156 883l-50 55q59 50 86.5 97.5t40.5 107.5q-38 9 -60.5 37.5t-22.5 68.5q0 50 30 81.5t80 31.5t81.5 -35t31.5 -88q0 -95 -54.5 -188.5t-162.5 -167.5z" />
    <glyph glyph-name="quotesinglbase" unicode="&#x201a;" horiz-adv-x="524" 
d="M156 -223l-50 55q59 50 86.5 97.5t40.5 107.5q-38 9 -60.5 37.5t-22.5 68.5q0 50 30 81.5t80 31.5t81.5 -35t31.5 -88q0 -95 -54.5 -188.5t-162.5 -167.5z" />
    <glyph glyph-name="quotedblleft" unicode="&#x201c;" horiz-adv-x="851" 
d="M373 1362l49 -55q-59 -50 -86.5 -97.5t-40.5 -107.5q39 -9 62.5 -38.5t23.5 -68.5q0 -50 -31 -81t-82 -31q-50 0 -81 35t-31 88q0 95 54.5 188.5t162.5 167.5zM700 1362l50 -55q-59 -50 -86.5 -97.5t-40.5 -107.5q39 -9 62.5 -38.5t23.5 -68.5q0 -50 -31 -81t-82 -31
q-50 0 -81.5 35t-31.5 88q0 95 54.5 188.5t162.5 167.5z" />
    <glyph glyph-name="quotedblright" unicode="&#x201d;" horiz-adv-x="851" 
d="M156 883l-50 55q59 50 86.5 97.5t40.5 107.5q-38 9 -60.5 37.5t-22.5 68.5q0 50 30 81.5t80 31.5t81.5 -35t31.5 -88q0 -95 -54.5 -188.5t-162.5 -167.5zM483 883l-49 55q59 50 86.5 97.5t40.5 107.5q-39 9 -62.5 38t-23.5 68q0 50 31 81.5t82 31.5q50 0 81 -35t31 -88
q0 -95 -54.5 -188.5t-162.5 -167.5z" />
    <glyph glyph-name="quotedblbase" unicode="&#x201e;" horiz-adv-x="851" 
d="M156 -223l-50 55q59 50 86.5 97.5t40.5 107.5q-38 9 -60.5 37.5t-22.5 68.5q0 50 30 81.5t80 31.5t81.5 -35t31.5 -88q0 -95 -54.5 -188.5t-162.5 -167.5zM483 -223l-49 55q59 50 86.5 97.5t40.5 107.5q-39 9 -62.5 38t-23.5 68q0 50 31 81.5t82 31.5q50 0 81 -35t31 -88
q0 -95 -54.5 -188.5t-162.5 -167.5z" />
    <glyph glyph-name="dagger" unicode="&#x2020;" horiz-adv-x="1040" 
d="M586 745l-17 -921h-100l-14 921l-361 13v102l361 12l14 377h100l15 -377l362 -12v-102z" />
    <glyph glyph-name="daggerdbl" unicode="&#x2021;" horiz-adv-x="1040" 
d="M586 334l360 -12v-103l-362 -12l-15 -377h-100l-14 377l-361 12v103l359 12v411l-359 13v102l361 12l14 377h100l15 -377l362 -12v-102l-360 -13v-411z" />
    <glyph glyph-name="bullet" unicode="&#x2022;" horiz-adv-x="651" 
d="M168 571q0 69 44 113.5t114 44.5q71 0 114 -44t43 -114q0 -69 -43 -113t-114 -44q-70 0 -114 44.5t-44 112.5z" />
    <glyph glyph-name="ellipsis" unicode="&#x2026;" horiz-adv-x="1472" 
d="M244 217q51 0 81.5 -31.5t30.5 -81.5q0 -48 -31 -80t-81 -32t-81.5 32t-31.5 80q0 50 31 81.5t82 31.5zM727 217q51 0 82 -31.5t31 -81.5q0 -48 -31.5 -80t-81.5 -32t-81.5 32t-31.5 80q0 50 31 81.5t82 31.5zM1208 217q51 0 82 -31.5t31 -81.5q0 -48 -31.5 -80
t-81.5 -32t-81 32t-31 80q0 50 30.5 81.5t81.5 31.5z" />
    <glyph glyph-name="perthousand" unicode="&#x2030;" horiz-adv-x="2506" 
d="M395 1270q154 0 234 -95.5t80 -279.5q0 -183 -80 -277t-234 -94t-232.5 94t-78.5 277q0 185 78.5 280t232.5 95zM1274 1249l-727 -1249h-113l725 1249h115zM395 637q189 0 189 258q0 262 -189 262q-186 0 -186 -262q0 -258 186 -258zM1343 727q154 0 234 -95.5t80 -279.5
q0 -183 -80 -276.5t-234 -93.5t-233.5 93.5t-79.5 276.5q0 184 79.5 279.5t233.5 95.5zM2109 727q154 0 234 -95.5t80 -279.5q0 -183 -80 -276.5t-234 -93.5t-232.5 93.5t-78.5 276.5q0 185 78.5 280t232.5 95zM1343 96q187 0 187 256q0 262 -187 262q-186 0 -186 -262
q0 -256 186 -256zM2109 96q189 0 189 256q0 262 -189 262q-186 0 -186 -262q0 -256 186 -256z" />
    <glyph glyph-name="guilsinglleft" unicode="&#x2039;" horiz-adv-x="739" 
d="M618 834l-247 -259q-4 -4 -84 -73q54 -40 86 -72l245 -258l-94 -88l-422 420l420 422z" />
    <glyph glyph-name="guilsinglright" unicode="&#x203a;" horiz-adv-x="739" 
d="M213 82l-92 90l246 258q12 12 84 74q-53 42 -82 71l-248 259l94 92l418 -422z" />
    <glyph glyph-name="fraction" unicode="&#x2044;" horiz-adv-x="438" 
d="M639 1249l-727 -1249h-113l727 1249h113z" />
    <glyph glyph-name="Euro" unicode="&#x20ac;" horiz-adv-x="1198" 
d="M1057 250l67 -111q-89 -84 -189 -120.5t-241 -36.5q-79 0 -149.5 22t-134 67.5t-109.5 125t-65 186.5h-152v102h139l-2 62q0 41 2 59h-139v103h152q38 206 166.5 309.5t299.5 103.5q212 0 383 -110l-57 -119q-139 82 -303 82q-48 0 -93 -13.5t-88 -43t-76 -83t-50 -126.5
h506l-29 -103h-492q0 -9 -1 -29t-1 -30q0 -12 1 -33t1 -29h459l-28 -102h-416q17 -72 49 -124t74.5 -79t85.5 -39t92 -12q197 0 338 121z" />
    <glyph glyph-name="uni2116" unicode="&#x2116;" horiz-adv-x="2379" 
d="M1229 0h-172l-709 928v-928h-188v1249h172l708 -932v932h189v-1249zM1829 1110q194 0 288.5 -107.5t94.5 -300.5q0 -185 -95 -289t-290 -104q-193 0 -288 104t-95 289q0 193 95 300.5t290 107.5zM1829 449q121 0 174 66t53 190q0 130 -53 198t-174 68
q-120 0 -172.5 -68.5t-52.5 -197.5q0 -124 52.5 -190t172.5 -66zM2173 0h-688v139h688v-139z" />
    <glyph glyph-name="trademark" unicode="&#x2122;" horiz-adv-x="1572" 
d="M633 1147h-234v-477h-116v477h-236v102h586v-102zM1286 1075l-182 -405h-92l-183 405l-14 -405h-113l25 579h119l198 -420q4 -8 9 -22.5t6 -15.5q2 4 5.5 17t6.5 21l197 420h121l24 -579h-113z" />
    <glyph glyph-name="oneeighth" unicode="&#x215b;" horiz-adv-x="1882" 
d="M606 473h-520v109h209v524q-106 -32 -209 -55l-25 82q154 61 258 116h101v-667h186v-109zM1307 1249l-727 -1249h-113l727 1249h113zM1407 -18q-160 0 -245 59t-85 162q0 133 172 192q-135 59 -135 183q0 95 79 148.5t216 53.5q132 0 206.5 -53t74.5 -145
q0 -126 -150 -179q189 -61 189 -200q0 -103 -87.5 -163t-234.5 -58zM1405 694q-77 0 -123.5 -31t-46.5 -85t44.5 -89t137.5 -57q156 39 156 148q0 52 -46 83t-122 31zM1399 80q87 0 141.5 36t54.5 93q0 56 -55 92t-178 61q-162 -45 -162 -151q0 -60 54.5 -95.5t144.5 -35.5z
" />
    <glyph glyph-name="threeeighths" unicode="&#x215c;" horiz-adv-x="1869" 
d="M84 1112l-33 86q157 74 307 74q118 0 187 -57t69 -156q0 -65 -36 -109.5t-95 -64.5q154 -50 154 -185q0 -108 -74.5 -166.5t-208.5 -58.5q-173 0 -321 80l39 86q135 -66 278 -66q80 0 123 33t43 94q0 132 -194 132h-125v104h125q89 0 132.5 24.5t43.5 79.5
q0 62 -40.5 94.5t-113.5 32.5q-128 0 -260 -57zM1309 1249l-729 -1249h-113l727 1249h115zM1407 -18q-160 0 -245 59t-85 162q0 133 172 192q-135 59 -135 183q0 95 79 148.5t216 53.5q132 0 206.5 -53t74.5 -145q0 -126 -150 -179q95 -30 142 -78.5t47 -121.5
q0 -103 -87 -162.5t-235 -58.5zM1405 694q-77 0 -123.5 -31t-46.5 -85t44.5 -89t137.5 -57q156 39 156 148q0 52 -45.5 83t-122.5 31zM1399 80q89 0 142.5 36t53.5 93q0 56 -55 92t-178 61q-162 -45 -162 -151q0 -60 54.5 -95.5t144.5 -35.5z" />
    <glyph glyph-name="fiveeighths" unicode="&#x215d;" horiz-adv-x="1904" 
d="M238 1143l-21 -244q108 57 205 57q121 0 186.5 -62.5t65.5 -178.5q0 -120 -79.5 -186t-211.5 -66q-172 0 -320 80l39 92q139 -68 267 -68q85 0 133.5 41t48.5 113q0 70 -42.5 109.5t-119.5 39.5q-81 0 -178 -51l-107 15l29 415h510v-106h-405zM1335 1249l-727 -1249h-112
l725 1249h114zM1444 -18q-160 0 -246 59t-86 162q0 133 172 192q-135 59 -135 183q0 95 79.5 148.5t215.5 53.5q133 0 207.5 -52.5t74.5 -145.5q0 -126 -149 -179q93 -30 139.5 -78.5t46.5 -121.5q1 -103 -85.5 -163t-233.5 -58zM1440 694q-76 0 -122 -31.5t-46 -84.5
q0 -54 44 -89t138 -57q156 40 156 148q0 52 -46.5 83t-123.5 31zM1434 80q89 0 142.5 36t53.5 93t-54.5 92.5t-178.5 60.5q-162 -46 -162 -151q0 -60 54.5 -95.5t144.5 -35.5z" />
    <glyph glyph-name="seveneighths" unicode="&#x215e;" horiz-adv-x="1763" 
d="M627 1249v-94q-107 -136 -196.5 -320.5t-135.5 -361.5h-148q54 179 145 359.5t197 308.5h-432v108h570zM1143 1249l-727 -1249h-113l725 1249h115zM1288 -18q-160 0 -245 59t-85 162q0 133 172 192q-135 59 -135 183q0 95 79 148.5t216 53.5q132 0 206.5 -53t74.5 -145
q0 -126 -150 -179q189 -61 189 -200q0 -103 -87.5 -163t-234.5 -58zM1286 694q-77 0 -123.5 -31t-46.5 -85t44.5 -89t137.5 -57q156 39 156 148q0 52 -46 83t-122 31zM1280 80q88 0 142.5 36t54.5 93q0 56 -55.5 92t-178.5 61q-162 -45 -162 -151q0 -60 54.5 -95.5
t144.5 -35.5z" />
    <glyph glyph-name="arrowleft" unicode="&#x2190;" horiz-adv-x="1355" 
d="M338 545l403 -422l-110 -111l-578 611l578 610l110 -111l-405 -422h969v-155h-967z" />
    <glyph glyph-name="arrowup" unicode="&#x2191;" horiz-adv-x="1318" 
d="M739 983v-983h-157v983l-379 -356l-111 110l567 527l568 -527l-109 -110z" />
    <glyph glyph-name="arrowright" unicode="&#x2192;" horiz-adv-x="1355" 
d="M723 12l-111 111l406 422h-969v155h971l-408 422l111 111l580 -610z" />
    <glyph glyph-name="arrowdown" unicode="&#x2193;" horiz-adv-x="1318" 
d="M659 -14l-567 526l111 111l379 -357v983h157v-983l379 357l109 -111z" />
    <glyph glyph-name="arrowupleft" unicode="&#x2196;" horiz-adv-x="1413" 
d="M264 987v-625h-155v887h886v-151h-626l989 -989l-109 -111z" />
    <glyph glyph-name="arrowupright" unicode="&#x2197;" horiz-adv-x="1413" 
d="M1305 362h-152v625l-989 -989l-111 111l989 985h-624v155h887v-887z" />
    <glyph glyph-name="arrowdownright" unicode="&#x2198;" horiz-adv-x="1413" 
d="M1305 0h-887v152h624l-989 991l111 108l983 -989v627h158v-889z" />
    <glyph glyph-name="arrowdownleft" unicode="&#x2199;" horiz-adv-x="1413" 
d="M995 156v-156h-886v889h149v-627l991 989l109 -108l-989 -987h626z" />
    <glyph glyph-name="minus" unicode="&#x2212;" horiz-adv-x="964" 
d="M74 418v137h813v-137h-813z" />
    <glyph glyph-name="J.ss01" horiz-adv-x="559" 
d="M387 1249v-1081q0 -139 -29.5 -226t-95 -143.5t-182.5 -99.5l-70 154q104 47 146.5 107t42.5 171v1118h188z" />
    <glyph glyph-name="K.ss02" horiz-adv-x="1269" 
d="M360 543v-543h-188v1249h188v-530h228l403 530h207v-12l-448 -600l467 -623v-14h-220l-403 543h-234z" />
    <glyph glyph-name="Kcommaaccent.ss02" horiz-adv-x="1269" 
d="M360 543v-543h-188v1249h188v-530h228l403 530h207v-12l-448 -600l467 -623v-14h-220l-403 543h-234zM528 -492l-30 60q84 75 100 145q-34 11 -54 36.5t-20 60.5q0 45 28 73.5t75 28.5q43 0 70.5 -32t27.5 -79q0 -83 -51.5 -161.5t-145.5 -131.5z" />
    <glyph glyph-name="Q.ss03" horiz-adv-x="1366" 
d="M1243 -156l-131 -108q-176 178 -244 268q-86 -22 -184 -22q-283 0 -435.5 166.5t-152.5 474.5q0 312 152.5 479.5t435.5 167.5q282 0 434 -167.5t152 -479.5q0 -197 -64 -337.5t-186 -217.5q83 -89 223 -224zM289 623q0 -229 100.5 -347t294.5 -118q192 0 292.5 118.5
t100.5 346.5q0 231 -100.5 351t-292.5 120q-194 0 -294.5 -120t-100.5 -351z" />
    <glyph glyph-name="R.ss04" horiz-adv-x="1277" 
d="M172 1249h461q247 0 380.5 -105t133.5 -300q0 -171 -68 -255t-207 -110q44 -19 83 -50t71 -75t54.5 -80t46.5 -93.5t34.5 -84.5t29.5 -82q3 -9 5 -14h-215q-22 63 -40 108t-50 106.5t-63.5 100.5t-76 67t-92.5 28h-299v-410h-188v1249zM360 586h299q141 -2 218 63.5
t77 188.5q0 114 -82.5 174.5t-236.5 60.5h-275v-487z" />
    <glyph glyph-name="Racute.ss04" horiz-adv-x="1277" 
d="M895 1591l-2 -37q-94 -78 -152.5 -115t-160.5 -77l-60 59l225 267zM172 1249h461q247 0 380.5 -105t133.5 -300q0 -171 -68 -255t-207 -110q44 -19 83 -50t71 -75t54.5 -80t46.5 -93.5t34.5 -84.5t29.5 -82q3 -9 5 -14h-215q-22 63 -40 108t-50 106.5t-63.5 100.5t-76 67
t-92.5 28h-299v-410h-188v1249zM360 586h299q141 -2 218 63.5t77 188.5q0 114 -82.5 174.5t-236.5 60.5h-275v-487z" />
    <glyph glyph-name="Rcaron.ss04" horiz-adv-x="1277" 
d="M565 1374l-250 221l72 74l242 -143l241 143l72 -74l-252 -221h-125zM172 1249h461q247 0 380.5 -105t133.5 -300q0 -171 -68 -255t-207 -110q44 -19 83 -50t71 -75t54.5 -80t46.5 -93.5t34.5 -84.5t29.5 -82q3 -9 5 -14h-215q-22 63 -40 108t-50 106.5t-63.5 100.5
t-76 67t-92.5 28h-299v-410h-188v1249zM360 586h299q141 -2 218 63.5t77 188.5q0 114 -82.5 174.5t-236.5 60.5h-275v-487z" />
    <glyph glyph-name="Rcommaaccent.ss04" horiz-adv-x="1277" 
d="M172 1249h461q247 0 380.5 -105t133.5 -300q0 -171 -68 -255t-207 -110q44 -19 83 -50t71 -75t54.5 -80t46.5 -93.5t34.5 -84.5t29.5 -82q3 -9 5 -14h-215q-22 63 -40 108t-50 106.5t-63.5 100.5t-76 67t-92.5 28h-299v-410h-188v1249zM360 586h299q141 -2 218 63.5
t77 188.5q0 114 -82.5 174.5t-236.5 60.5h-275v-487zM524 -492l-30 60q84 75 100 145q-34 11 -54 36.5t-20 60.5q0 45 28 73.5t75 28.5q43 0 70.5 -32t27.5 -79q0 -83 -51.5 -161.5t-145.5 -131.5z" />
    <glyph glyph-name="k.ss02" horiz-adv-x="1046" 
d="M328 428v-428h-185v1337h185v-743h192l295 373h197v-13l-344 -442l368 -498v-14h-205l-317 428h-186z" />
    <glyph glyph-name="kcommaaccent.ss02" horiz-adv-x="1046" 
d="M328 428v-428h-185v1337h185v-743h192l295 373h197v-13l-344 -442l368 -498v-14h-205l-317 428h-186zM438 -492l-30 60q84 75 100 145q-34 11 -54 36.5t-20 60.5q0 45 28 73.5t75 28.5q43 0 70.5 -32t27.5 -79q0 -83 -51.5 -161.5t-145.5 -131.5z" />
    <glyph glyph-name="a.ss05" horiz-adv-x="1155" 
d="M827 0v127q-80 -75 -151 -110t-184 -35q-81 0 -152 28.5t-129 86.5t-91.5 157.5t-33.5 230.5q0 258 101.5 378t281.5 120q196 0 360 -133v117h185v-967h-187zM827 299v367q-75 83 -145.5 123t-155.5 40q-258 0 -258 -342q0 -93 22.5 -162.5t62 -110t87.5 -60t105 -19.5
q63 0 111 19.5t82.5 50.5t88.5 94z" />
    <glyph glyph-name="aacute.ss05" horiz-adv-x="1155" 
d="M817 1325l-2 -37q-92 -76 -151 -117t-162 -96l-60 60l226 286zM827 0v127q-80 -75 -151 -110t-184 -35q-81 0 -152 28.5t-129 86.5t-91.5 157.5t-33.5 230.5q0 258 101.5 378t281.5 120q196 0 360 -133v117h185v-967h-187zM827 299v367q-75 83 -145.5 123t-155.5 40
q-258 0 -258 -342q0 -93 22.5 -162.5t62 -110t87.5 -60t105 -19.5q63 0 111 19.5t82.5 50.5t88.5 94z" />
    <glyph glyph-name="abreve.ss05" horiz-adv-x="1155" 
d="M748 1360h137q0 -138 -71.5 -204t-221.5 -66q-148 0 -218.5 65.5t-70.5 202.5h137q6 -70 41.5 -102.5t110.5 -32.5t111 32.5t45 104.5zM827 0v127q-80 -75 -151 -110t-184 -35q-81 0 -152 28.5t-129 86.5t-91.5 157.5t-33.5 230.5q0 258 101.5 378t281.5 120
q196 0 360 -133v117h185v-967h-187zM827 299v367q-75 83 -145.5 123t-155.5 40q-258 0 -258 -342q0 -93 22.5 -162.5t62 -110t87.5 -60t105 -19.5q63 0 111 19.5t82.5 50.5t88.5 94z" />
    <glyph glyph-name="acircumflex.ss05" horiz-adv-x="1155" 
d="M836 1090l-242 165q-40 -27 -121 -82t-121 -83l-71 73l249 242h125l252 -242zM827 0v127q-80 -75 -151 -110t-184 -35q-81 0 -152 28.5t-129 86.5t-91.5 157.5t-33.5 230.5q0 258 101.5 378t281.5 120q196 0 360 -133v117h185v-967h-187zM827 299v367q-75 83 -145.5 123
t-155.5 40q-258 0 -258 -342q0 -93 22.5 -162.5t62 -110t87.5 -60t105 -19.5q63 0 111 19.5t82.5 50.5t88.5 94z" />
    <glyph glyph-name="adieresis.ss05" horiz-adv-x="1155" 
d="M399 1362q50 0 81.5 -29.5t31.5 -81.5q0 -50 -31 -78t-82 -28q-45 0 -77.5 28.5t-32.5 77.5q0 50 32.5 80.5t77.5 30.5zM786 1362q46 0 79.5 -30.5t33.5 -80.5q0 -49 -33 -77.5t-80 -28.5q-49 0 -80.5 28t-31.5 78q0 51 31.5 81t80.5 30zM827 0v127q-80 -75 -151 -110
t-184 -35q-81 0 -152 28.5t-129 86.5t-91.5 157.5t-33.5 230.5q0 258 101.5 378t281.5 120q196 0 360 -133v117h185v-967h-187zM827 299v367q-75 83 -145.5 123t-155.5 40q-258 0 -258 -342q0 -93 22.5 -162.5t62 -110t87.5 -60t105 -19.5q63 0 111 19.5t82.5 50.5t88.5 94z
" />
    <glyph glyph-name="agrave.ss05" horiz-adv-x="1155" 
d="M739 1163l-59 -59q-103 55 -162 96t-151 117l-2 37l151 96zM827 0v127q-80 -75 -151 -110t-184 -35q-81 0 -152 28.5t-129 86.5t-91.5 157.5t-33.5 230.5q0 258 101.5 378t281.5 120q196 0 360 -133v117h185v-967h-187zM827 299v367q-75 83 -145.5 123t-155.5 40
q-258 0 -258 -342q0 -93 22.5 -162.5t62 -110t87.5 -60t105 -19.5q63 0 111 19.5t82.5 50.5t88.5 94z" />
    <glyph glyph-name="amacron.ss05" horiz-adv-x="1155" 
d="M850 1157h-512v162h512v-162zM827 0v127q-80 -75 -151 -110t-184 -35q-81 0 -152 28.5t-129 86.5t-91.5 157.5t-33.5 230.5q0 258 101.5 378t281.5 120q196 0 360 -133v117h185v-967h-187zM827 299v367q-75 83 -145.5 123t-155.5 40q-258 0 -258 -342q0 -93 22.5 -162.5
t62 -110t87.5 -60t105 -19.5q63 0 111 19.5t82.5 50.5t88.5 94z" />
    <glyph glyph-name="aogonek.ss05" horiz-adv-x="1155" 
d="M1063 -221l24 -127q-109 -39 -221 -39q-110 0 -171.5 52t-61.5 153q0 70 51.5 129t142.5 102v78q-80 -75 -151 -110t-184 -35q-81 0 -152 28.5t-129 86.5t-91.5 157.5t-33.5 230.5q0 258 101.5 378t281.5 120q198 0 358 -133v117h185v-967h-94q-68 -25 -108 -64t-40 -81
q0 -43 40.5 -70t104.5 -27q28 0 148 21zM827 297v369q-75 83 -145.5 122t-155.5 39q-258 0 -258 -342q0 -93 22.5 -162.5t62 -109t87.5 -59t105 -19.5q90 0 146 35.5t136 126.5z" />
    <glyph glyph-name="aring.ss05" horiz-adv-x="1155" 
d="M594 1470q89 0 144 -54t55 -144q0 -83 -56 -136t-145 -53q-86 0 -141.5 53t-55.5 136q0 90 55 144t144 54zM592 1188q43 0 68.5 23t25.5 61q0 44 -25 70t-67 26t-67 -26t-25 -70q0 -38 25 -61t65 -23zM827 0v127q-80 -75 -151 -110t-184 -35q-81 0 -152 28.5t-129 86.5
t-91.5 157.5t-33.5 230.5q0 258 101.5 378t281.5 120q196 0 360 -133v117h185v-967h-187zM827 299v367q-75 83 -145.5 123t-155.5 40q-258 0 -258 -342q0 -93 22.5 -162.5t62 -110t87.5 -60t105 -19.5q63 0 111 19.5t82.5 50.5t88.5 94z" />
    <glyph glyph-name="atilde.ss05" horiz-adv-x="1155" 
d="M821 1374l97 -22q-12 -68 -44 -116t-73.5 -67.5t-88 -19.5t-89.5 22l-113 58q-56 27 -88.5 11.5t-54.5 -75.5l-95 23q13 67 43.5 112t70.5 63.5t86 17.5t91 -23l113 -53q57 -27 90 -10.5t55 79.5zM827 0v127q-80 -75 -151 -110t-184 -35q-81 0 -152 28.5t-129 86.5
t-91.5 157.5t-33.5 230.5q0 258 101.5 378t281.5 120q196 0 360 -133v117h185v-967h-187zM827 299v367q-75 83 -145.5 123t-155.5 40q-258 0 -258 -342q0 -93 22.5 -162.5t62 -110t87.5 -60t105 -19.5q63 0 111 19.5t82.5 50.5t88.5 94z" />
    <glyph glyph-name="g.ss06" horiz-adv-x="1148" 
d="M1106 979l-14 -127q-41 2 -101 2q-31 0 -69 -6q65 -86 65 -230q0 -177 -104 -262.5t-320 -85.5q-124 0 -219 31q-61 -27 -61 -70q0 -46 22 -62.5t86 -16.5h330q177 0 261.5 -61t84.5 -187q0 -187 -123 -270t-381 -83q-287 0 -400.5 56.5t-113.5 204.5q0 157 139 223
q-55 47 -55 149q0 60 25 100t92 68q-111 82 -111 266q0 188 103.5 277.5t320.5 89.5q146 0 246 -47q80 53 174 53q69 0 123 -12zM563 416q134 0 191 46.5t57 155.5q0 123 -57 175.5t-191 52.5q-135 0 -192.5 -52.5t-57.5 -175.5q0 -109 57.5 -155.5t192.5 -46.5zM723 -12
h-334q-94 0 -132 -35.5t-38 -110.5q0 -53 31 -81.5t103.5 -41t209.5 -12.5q164 0 246 38.5t82 125.5q0 60 -41 88.5t-127 28.5z" />
    <glyph glyph-name="gbreve.ss06" horiz-adv-x="1148" 
d="M727 1360h137q0 -138 -71.5 -204t-221.5 -66q-147 0 -217.5 65.5t-70.5 202.5h137q6 -70 41 -102.5t110 -32.5t111 32.5t45 104.5zM1106 979l-14 -127q-41 2 -101 2q-31 0 -69 -6q65 -86 65 -230q0 -177 -104 -262.5t-320 -85.5q-124 0 -219 31q-61 -27 -61 -70
q0 -46 22 -62.5t86 -16.5h330q177 0 261.5 -61t84.5 -187q0 -187 -123 -270t-381 -83q-287 0 -400.5 56.5t-113.5 204.5q0 157 139 223q-55 47 -55 149q0 60 25 100t92 68q-111 82 -111 266q0 188 103.5 277.5t320.5 89.5q146 0 246 -47q80 53 174 53q69 0 123 -12zM563 416
q134 0 191 46.5t57 155.5q0 123 -57 175.5t-191 52.5q-135 0 -192.5 -52.5t-57.5 -175.5q0 -109 57.5 -155.5t192.5 -46.5zM723 -12h-334q-94 0 -132 -35.5t-38 -110.5q0 -53 31 -81.5t103.5 -41t209.5 -12.5q164 0 246 38.5t82 125.5q0 60 -41 88.5t-127 28.5z" />
    <glyph glyph-name="gcommaaccent.ss06" horiz-adv-x="1148" 
d="M651 1520l33 -60q-74 -65 -100 -135q34 -8 56 -34.5t22 -61.5q0 -44 -29.5 -73.5t-73.5 -29.5q-45 0 -73.5 32t-28.5 79q0 161 194 283zM1106 979l-14 -127q-41 2 -101 2q-31 0 -69 -6q65 -86 65 -230q0 -177 -104 -262.5t-320 -85.5q-124 0 -219 31q-61 -27 -61 -70
q0 -46 22 -62.5t86 -16.5h330q177 0 261.5 -61t84.5 -187q0 -187 -123 -270t-381 -83q-287 0 -400.5 56.5t-113.5 204.5q0 157 139 223q-55 47 -55 149q0 60 25 100t92 68q-111 82 -111 266q0 188 103.5 277.5t320.5 89.5q146 0 246 -47q80 53 174 53q69 0 123 -12zM563 416
q134 0 191 46.5t57 155.5q0 123 -57 175.5t-191 52.5q-135 0 -192.5 -52.5t-57.5 -175.5q0 -109 57.5 -155.5t192.5 -46.5zM723 -12h-334q-94 0 -132 -35.5t-38 -110.5q0 -53 31 -81.5t103.5 -41t209.5 -12.5q164 0 246 38.5t82 125.5q0 60 -41 88.5t-127 28.5z" />
    <glyph glyph-name="gdotaccent.ss06" horiz-adv-x="1148" 
d="M573 1386q55 0 93.5 -35t38.5 -94q0 -58 -38.5 -92.5t-93.5 -34.5q-57 0 -95 34.5t-38 92.5q0 60 38 94.5t95 34.5zM1106 979l-14 -127q-41 2 -101 2q-31 0 -69 -6q65 -86 65 -230q0 -177 -104 -262.5t-320 -85.5q-124 0 -219 31q-61 -27 -61 -70q0 -46 22 -62.5
t86 -16.5h330q177 0 261.5 -61t84.5 -187q0 -187 -123 -270t-381 -83q-287 0 -400.5 56.5t-113.5 204.5q0 157 139 223q-55 47 -55 149q0 60 25 100t92 68q-111 82 -111 266q0 188 103.5 277.5t320.5 89.5q146 0 246 -47q80 53 174 53q69 0 123 -12zM563 416q134 0 191 46.5
t57 155.5q0 123 -57 175.5t-191 52.5q-135 0 -192.5 -52.5t-57.5 -175.5q0 -109 57.5 -155.5t192.5 -46.5zM723 -12h-334q-94 0 -132 -35.5t-38 -110.5q0 -53 31 -81.5t103.5 -41t209.5 -12.5q164 0 246 38.5t82 125.5q0 60 -41 88.5t-127 28.5z" />
    <glyph glyph-name="y.ss07" horiz-adv-x="1171" 
d="M1057 967v-820q0 -243 -108.5 -359t-334.5 -116q-240 0 -428 103l56 143q171 -80 350 -80q143 0 211.5 73.5t68.5 225.5v43q-79 -72 -155 -107.5t-191 -35.5q-183 0 -290 113.5t-107 343.5v473h184v-473q0 -291 275 -291q80 0 144.5 36t139.5 119v609h185z" />
    <glyph glyph-name="yacute.ss07" horiz-adv-x="1171" 
d="M823 1325l-2 -37q-92 -76 -151 -117t-162 -96l-59 60l225 286zM1057 967v-820q0 -243 -108.5 -359t-334.5 -116q-240 0 -428 103l56 143q171 -80 350 -80q143 0 211.5 73.5t68.5 225.5v43q-79 -72 -155 -107.5t-191 -35.5q-183 0 -290 113.5t-107 343.5v473h184v-473
q0 -291 275 -291q80 0 144.5 36t139.5 119v609h185z" />
    <glyph glyph-name="ycircumflex.ss07" horiz-adv-x="1171" 
d="M842 1090l-242 165q-40 -27 -121 -82t-121 -83l-71 73l250 242h125l251 -242zM1057 967v-820q0 -243 -108.5 -359t-334.5 -116q-240 0 -428 103l56 143q171 -80 350 -80q143 0 211.5 73.5t68.5 225.5v43q-79 -72 -155 -107.5t-191 -35.5q-183 0 -290 113.5t-107 343.5
v473h184v-473q0 -291 275 -291q80 0 144.5 36t139.5 119v609h185z" />
    <glyph glyph-name="ydieresis.ss07" horiz-adv-x="1171" 
d="M406 1362q50 0 81 -29.5t31 -81.5q0 -50 -30.5 -78t-81.5 -28q-45 0 -78 28.5t-33 77.5q0 50 33 80.5t78 30.5zM793 1362q46 0 79 -30t33 -81q0 -49 -32.5 -77.5t-79.5 -28.5q-49 0 -81 28.5t-32 77.5q0 51 32 81t81 30zM1057 967v-820q0 -243 -108.5 -359t-334.5 -116
q-240 0 -428 103l56 143q171 -80 350 -80q143 0 211.5 73.5t68.5 225.5v43q-79 -72 -155 -107.5t-191 -35.5q-183 0 -290 113.5t-107 343.5v473h184v-473q0 -291 275 -291q80 0 144.5 36t139.5 119v609h185z" />
    <glyph glyph-name="ygrave.ss07" horiz-adv-x="1171" 
d="M745 1163l-59 -59q-103 55 -162 96t-151 117l-2 37l151 96zM1057 967v-820q0 -243 -108.5 -359t-334.5 -116q-240 0 -428 103l56 143q171 -80 350 -80q143 0 211.5 73.5t68.5 225.5v43q-79 -72 -155 -107.5t-191 -35.5q-183 0 -290 113.5t-107 343.5v473h184v-473
q0 -291 275 -291q80 0 144.5 36t139.5 119v609h185z" />
    <glyph glyph-name="uni00660062" horiz-adv-x="1830" 
d="M1001 1368v-534q159 149 359 149q185 0 284 -118t99 -378q0 -132 -33.5 -232t-91.5 -158t-128.5 -86.5t-152.5 -28.5q-113 0 -184.5 35t-151.5 110v-127h-184v1204q-180 21 -285 21q-94 0 -129.5 -43.5t-35.5 -139.5v-75h292v-156h-292v-811h-185v811h-139v156h139v75
q0 170 75.5 252t244.5 82q84 0 315 -43v35h184zM1001 666v-367q149 -164 283 -164q57 0 105.5 19.5t88 60t62.5 110t23 162.5q0 342 -260 342q-151 0 -302 -163z" />
    <glyph glyph-name="uni006600660062" horiz-adv-x="2469" 
d="M1640 1368v-534q159 149 359 149q185 0 284 -118t99 -378q0 -132 -33.5 -232t-91.5 -158t-128.5 -86.5t-152.5 -28.5q-113 0 -184.5 35t-151.5 110v-127h-184v1204q-177 21 -285 21q-93 0 -128 -43.5t-35 -139.5v-75h290v-156h-290v-811h-185v811h-461v-811h-184v811
h-135v156h135v75q0 170 77.5 252t246.5 82q96 0 188 -18l-14 -139q-64 6 -144 6q-95 0 -132.5 -44t-37.5 -139v-75h461v75q0 170 74.5 251.5t243.5 82.5q78 0 315 -43v35h184zM1640 666v-367q149 -164 283 -164q57 0 105.5 19.5t88 60t62.5 110t23 162.5q0 342 -260 342
q-151 0 -302 -163z" />
    <glyph glyph-name="uni006600660066" horiz-adv-x="2013" 
d="M2025 1358l-14 -139q-65 6 -143 6q-95 0 -132.5 -44t-37.5 -139v-75h297v-156h-297v-811h-185v811h-483v-811h-184v811h-484v-811h-184v811h-135v156h135v75q0 171 77 252.5t247 81.5q112 0 188 -18l-14 -139q-64 6 -144 6q-95 0 -132.5 -44t-37.5 -139v-75h484v75
q0 171 76.5 252.5t246.5 81.5q113 0 189 -18l-15 -139q-64 6 -143 6q-95 0 -132.5 -44t-37.5 -139v-75h483v75q0 171 77 252.5t247 81.5q111 0 188 -18z" />
    <glyph glyph-name="uni006600660068" horiz-adv-x="2457" 
d="M1647 1368v-545q177 160 374 160q162 0 231.5 -90.5t69.5 -288.5v-604h-184v559q0 134 -42.5 193t-149.5 59q-85 0 -153.5 -42t-145.5 -130v-639h-185v1204q-180 21 -286 21q-94 0 -129 -43.5t-35 -139.5v-75h291v-156h-291v-811h-185v811h-465v-811h-184v811h-135v156
h135v75q0 170 77.5 252t246.5 82q96 0 188 -18l-14 -139q-64 6 -144 6q-95 0 -132.5 -44t-37.5 -139v-75h465v75q0 170 75.5 252t242.5 82q83 0 317 -43v35h185z" />
    <glyph glyph-name="uni00660066006A" horiz-adv-x="1796" 
d="M1012 967h630v-908q0 -178 -58 -273t-204 -132l-39 145q70 35 93.5 87.5t23.5 172.5v752h-446v-811h-185v811h-465v-811h-184v811h-135v156h135v75q0 171 77 252.5t247 81.5q112 0 188 -18l-14 -139q-64 6 -144 6q-95 0 -132.5 -44t-37.5 -139v-75h465v75q0 171 75 252.5
t243 81.5q73 0 213 -22l-17 -140q-124 11 -165 11q-94 0 -129 -43.5t-35 -139.5v-75zM1554 1145q-46 0 -78 27t-32 75q0 49 31.5 76t78.5 27t79 -27t32 -76q0 -47 -32 -74.5t-79 -27.5z" />
    <glyph glyph-name="uni00660066006B" horiz-adv-x="2400" 
d="M2337 965l-387 -394q241 -257 450 -571h-215q-169 246 -360 444l-178 -180v-264h-185v1204q-153 21 -286 21q-94 0 -129 -43.5t-35 -139.5v-75h291v-156h-291v-811h-185v811h-465v-811h-184v811h-135v156h135v75q0 171 77 252.5t247 81.5q112 0 188 -18l-14 -139
q-64 6 -144 6q-95 0 -132.5 -44t-37.5 -139v-75h465v75q0 171 75 252.5t243 81.5q117 0 317 -43v35h185v-860l456 457h234z" />
    <glyph glyph-name="uni006600660074" horiz-adv-x="2023" 
d="M1958 172l18 -135q-122 -45 -225 -45q-153 0 -220 76t-67 247v496h-434v-811h-184v811h-484v-811h-184v811h-135v156h135v75q0 171 77 252.5t247 81.5q112 0 188 -18l-14 -139q-64 6 -144 6q-95 0 -132.5 -44t-37.5 -139v-75h484v75q0 171 76.5 252.5t246.5 81.5
q113 0 189 -18l-15 -139q-64 6 -143 6q-95 0 -132.5 -44t-37.5 -139v-75h434v241h185v-241h286v-156h-286v-489q0 -95 37 -127.5t129 -32.5q71 0 143 10z" />
    <glyph glyph-name="uni00660068" horiz-adv-x="1812" 
d="M1001 1368v-545q182 160 377 160q161 0 231 -90t70 -287v-606h-184v559q0 135 -42 193.5t-150 58.5q-153 0 -302 -172v-639h-184v1204q-180 21 -285 21q-94 0 -129.5 -43.5t-35.5 -139.5v-75h292v-156h-292v-811h-185v811h-139v156h139v75q0 170 75.5 252t244.5 82
q84 0 315 -43v35h184z" />
    <glyph glyph-name="uni0066006A" horiz-adv-x="1153" 
d="M999 967v-908q0 -178 -58 -273t-204 -132l-41 145q72 35 95.5 87t23.5 173v752h-448v-811h-185v811h-139v156h139v75q0 171 75.5 252.5t244.5 81.5q64 0 223 -24l-16 -138q-129 11 -177 11q-94 0 -129.5 -43.5t-35.5 -139.5v-75h632zM911 1145q-47 0 -78.5 27t-31.5 75
q0 49 31.5 76t78.5 27t79 -27t32 -76q0 -47 -32 -74.5t-79 -27.5z" />
    <glyph glyph-name="uni0066006B" horiz-adv-x="1755" 
d="M1001 512l457 453h234l-389 -392q236 -248 452 -573h-215q-183 267 -362 446l-177 -178v-268h-184v1204q-180 21 -285 21q-94 0 -129.5 -43.5t-35.5 -139.5v-75h292v-156h-292v-811h-185v811h-139v156h139v75q0 170 75.5 252t244.5 82q84 0 315 -43v35h184v-856z" />
    <glyph glyph-name="uni00660074" horiz-adv-x="1368" 
d="M1303 172l20 -135q-125 -45 -225 -45q-153 0 -221 76t-68 247v496h-447v-811h-184v811h-135v156h135v75q0 171 77 252.5t247 81.5q112 0 188 -18l-14 -139q-64 6 -144 6q-95 0 -132.5 -44t-37.5 -139v-75h447v241h184v-241h287v-156h-287v-489q0 -95 37 -127.5t129 -32.5
q72 0 144 10z" />
    <glyph glyph-name="uni00720066" horiz-adv-x="1474" 
d="M1487 1352l-19 -133q-82 6 -159 6q-94 0 -130 -43.5t-36 -139.5v-75h293v-156h-293v-811h-185v811h-124v156h124v75q0 171 75.5 252.5t244.5 81.5q120 0 209 -24zM328 967v-189q39 93 116 149t172 56q68 0 123 -6l-12 -182q-49 4 -117 4q-98 0 -171.5 -63t-110.5 -179
v-557h-185v967h185z" />
    <glyph glyph-name="uni00720074" horiz-adv-x="1492" 
d="M1427 172l19 -135q-122 -45 -225 -45q-153 0 -221 76t-68 247v496h-117v156h117v241h184v-241h287v-156h-287v-489q0 -94 37.5 -127t128.5 -33q73 0 145 10zM328 967v-189q39 93 116 149t172 56q68 0 123 -6l-12 -182q-49 4 -117 4q-98 0 -171.5 -63t-110.5 -179v-557
h-185v967h185z" />
    <glyph glyph-name="zero.osf" horiz-adv-x="1218" 
d="M608 1081q167 0 285 -72.5t173.5 -195.5t55.5 -285q0 -119 -32.5 -218t-95 -172.5t-161.5 -114.5t-225 -41q-166 0 -283.5 71.5t-173 193t-55.5 281.5q0 162 55.5 285t173 195.5t283.5 72.5zM608 152q161 0 242.5 104t81.5 272q0 171 -81.5 277t-242.5 106
q-160 0 -240.5 -106t-80.5 -277q0 -168 80.5 -272t240.5 -104z" />
    <glyph glyph-name="one.osf" horiz-adv-x="993" 
d="M905 0h-788v160h327v688q-163 -57 -338 -96l-36 118q210 75 411 191h152v-901h272v-160z" />
    <glyph glyph-name="two.osf" horiz-adv-x="1064" 
d="M1006 0h-926v135q31 16 93 47q128 64 192 97.5t161 91.5t143 100.5t82.5 99.5t36.5 113q0 112 -65.5 175t-181.5 63q-188 0 -420 -109l-53 133q279 135 503 135q190 0 300 -100.5t110 -271.5q0 -57 -19 -110t-48.5 -95.5t-80 -85t-99.5 -74.5t-121 -68.5t-130 -62
t-141 -59.5q16 1 79.5 3.5t88.5 2.5h498z" />
    <glyph glyph-name="three.osf" horiz-adv-x="1077" 
d="M127 834l-45 127q252 118 491 118q183 0 297.5 -95t114.5 -249q0 -105 -62 -173.5t-165 -98.5q264 -72 264 -305q0 -166 -123 -263.5t-330 -97.5q-129 0 -266 32t-250 93l53 131q225 -108 455 -108q128 0 204.5 59t76.5 158q0 108 -84.5 162.5t-241.5 54.5h-180v156h180
q295 0 295 176q0 101 -70.5 160t-189.5 59q-195 0 -424 -96z" />
    <glyph glyph-name="four.osf" horiz-adv-x="1226" 
d="M975 0v-236h-187v236h-725l-6 131l731 909h187v-890h207v-150h-207zM788 150v667q-82 -110 -98 -129l-315 -405q-94 -106 -123 -133h536z" />
    <glyph glyph-name="five.osf" horiz-adv-x="1112" 
d="M332 883l-33 -422q171 92 330 92q186 0 295.5 -102t109.5 -275q0 -187 -130.5 -296t-336.5 -109q-129 0 -264.5 32t-249.5 93l53 139q227 -109 439 -109q135 0 222 71.5t87 186.5q0 109 -76 175.5t-203 66.5q-135 0 -286 -82l-156 25l47 671h807v-157h-655z" />
    <glyph glyph-name="six.osf" horiz-adv-x="1165" 
d="M1044 1202l-47 -135q-152 49 -286 49q-190 -2 -306 -133.5t-126 -359.5q148 178 403 178q188 0 302 -106t114 -283q0 -202 -127 -316t-342 -114q-260 0 -396.5 155t-136.5 436q0 316 168.5 505.5t437.5 191.5q181 0 342 -68zM629 133q129 0 211 76t82 211q0 118 -80 187
t-213 69q-115 0 -206.5 -56.5t-137.5 -146.5q22 -165 108.5 -252.5t235.5 -87.5z" />
    <glyph glyph-name="seven.osf" horiz-adv-x="950" 
d="M938 1040v-143q-169 -215 -312.5 -516t-219.5 -592h-220q88 294 233 588t312 502h-706v161h913z" />
    <glyph glyph-name="eight.osf" horiz-adv-x="1191" 
d="M807 666q161 -47 237 -126.5t76 -201.5q0 -168 -138.5 -262t-377.5 -94q-263 0 -397.5 92.5t-134.5 263.5q0 223 286 315q-229 89 -229 285q0 154 128 243t349 89q212 0 333.5 -87.5t121.5 -236.5q0 -203 -254 -280zM598 1145q-129 0 -208 -57t-79 -148q0 -89 72 -143.5
t238 -89.5q141 30 203.5 89t62.5 148q0 90 -79.5 145.5t-209.5 55.5zM590 127q153 0 242.5 58.5t89.5 160.5q0 98 -89 157.5t-307 100.5q-149 -37 -211.5 -102t-62.5 -152q0 -105 91 -164t247 -59z" />
    <glyph glyph-name="nine.osf" horiz-adv-x="1165" 
d="M137 -127l49 133q146 -59 293 -59q191 0 291 122.5t109 360.5q-147 -174 -396 -174q-187 0 -301 108t-114 285q0 203 129 316.5t352 113.5q248 0 380 -155.5t132 -436.5q0 -340 -149 -518t-427 -178q-114 0 -186 18t-162 64zM537 385q107 0 195 54.5t142 138.5
q-19 170 -102 260t-223 90q-137 0 -221 -75.5t-84 -211.5q0 -118 80 -187t213 -69z" />
    <glyph glyph-name="zero.tf" 
d="M571 1270q257 0 391 -167t134 -480q0 -309 -134.5 -475t-390.5 -166q-257 0 -391.5 166t-134.5 475q0 313 134.5 480t391.5 167zM571 152q166 0 250 120t84 351q0 234 -84 355.5t-250 121.5q-167 0 -251 -121.5t-84 -355.5q0 -231 84 -351t251 -120z" />
    <glyph glyph-name="one.tf" 
d="M991 0h-805v160h318v872q-153 -59 -336 -94l-39 121q226 72 414 190h149v-1089h299v-160z" />
    <glyph glyph-name="two.tf" 
d="M1028 0h-928v135q61 51 151 122t148.5 118t129.5 106.5t115.5 105.5t85.5 96.5t60 97.5t19 91q0 112 -65.5 175t-182.5 63q-188 0 -420 -109l-53 136q282 133 504 133q191 0 300 -106t109 -290q0 -71 -35.5 -145t-74.5 -126.5t-136.5 -135.5t-149.5 -121.5t-187 -135.5
q-53 -38 -80 -58q140 8 194 8h496v-160z" />
    <glyph glyph-name="three.tf" 
d="M143 1018l-43 127q254 119 494 119q183 0 297.5 -95t114.5 -249q0 -101 -56.5 -174t-148.5 -105q121 -41 181 -112.5t60 -186.5q0 -165 -123 -262.5t-329 -97.5q-130 0 -268.5 31.5t-251.5 92.5l53 132q111 -54 232.5 -79.5t226.5 -25.5q128 0 204 57t76 156
q0 108 -85.5 161.5t-244.5 53.5h-180v160h180q151 0 225 42t74 132q0 101 -70.5 161t-189.5 60q-194 0 -428 -98z" />
    <glyph glyph-name="four.tf" 
d="M928 279v-279h-187v279h-708l-8 131l716 839h187v-821h194v-149h-194zM741 428v600q-34 -48 -84 -108l-325 -379q-22 -24 -55 -62t-46 -51h510z" />
    <glyph glyph-name="five.tf" 
d="M373 1090l-33 -404q162 78 319 78q186 0 295 -102t109 -275q0 -187 -130.5 -296t-336.5 -109q-128 0 -263.5 31.5t-250.5 92.5l55 138q220 -103 436 -103q137 0 223.5 69.5t86.5 184.5q0 108 -76 175t-201 67q-138 0 -287 -84l-157 25l49 671h805v-159h-643z" />
    <glyph glyph-name="six.tf" 
d="M1022 1202l-47 -135q-152 49 -287 49q-191 -2 -306.5 -133t-125.5 -360q148 178 403 178q188 0 302 -106t114 -283q0 -202 -127 -316t-342 -114q-260 0 -396 154.5t-136 436.5q0 316 168.5 505.5t437.5 191.5q181 0 342 -68zM606 133q129 0 211 76t82 211q0 118 -80 187
t-213 69q-115 0 -206.5 -56.5t-137.5 -146.5q22 -165 108.5 -252.5t235.5 -87.5z" />
    <glyph glyph-name="seven.tf" 
d="M1030 1249v-141q-168 -215 -311 -515.5t-221 -592.5h-219q92 297 235.5 590.5t310.5 499.5h-708v159h913z" />
    <glyph glyph-name="eight.tf" 
d="M780 666q162 -47 239 -127t77 -201q0 -167 -139 -261.5t-377 -94.5q-265 0 -400 92.5t-135 263.5q0 222 287 315q-228 88 -228 285q0 154 127.5 243t348.5 89q213 0 333.5 -87.5t120.5 -236.5q0 -203 -254 -280zM571 1145q-128 0 -207 -57t-79 -148q0 -89 72.5 -143.5
t238.5 -89.5q140 30 203 89.5t63 147.5q0 89 -80.5 145t-210.5 56zM563 127q154 0 243 58.5t89 160.5q0 98 -88.5 157.5t-306.5 100.5q-149 -37 -211 -102t-62 -152q0 -105 90 -164t246 -59z" />
    <glyph glyph-name="nine.tf" 
d="M131 63l49 134q151 -60 295 -60q379 0 397 484q-148 -175 -395 -175q-187 0 -301.5 108.5t-114.5 285.5q0 202 130 316t352 114q249 0 381.5 -155.5t132.5 -436.5q0 -339 -150 -517.5t-428 -178.5q-115 0 -186.5 17.5t-161.5 63.5zM532 575q106 0 195.5 55t140.5 138
q-19 170 -101.5 260t-223.5 90q-137 0 -221 -75.5t-84 -211.5q0 -118 80 -187t214 -69z" />
    <glyph glyph-name="zero.zero" horiz-adv-x="1259" 
d="M618 1270q263 0 399 -166.5t136 -480.5q0 -310 -136.5 -475.5t-398.5 -165.5q-261 0 -396.5 165.5t-135.5 475.5q0 314 135.5 480.5t396.5 166.5zM313 369l553 624q-87 107 -248 107q-342 0 -342 -477q0 -150 37 -254zM920 895l-555 -627q82 -116 253 -116q173 0 259 120
t86 351q0 165 -43 272z" />
    <glyph glyph-name="zero.dnom" horiz-adv-x="808" 
d="M403 780q163 0 247.5 -102.5t84.5 -296.5q0 -193 -84.5 -296t-247.5 -103q-162 0 -245.5 103t-83.5 296q0 194 83.5 296.5t245.5 102.5zM403 96q107 0 156 70t49 215t-49 216t-156 71q-106 0 -154 -71t-48 -216t48 -215t154 -70z" />
    <glyph glyph-name="one.dnom" horiz-adv-x="655" 
d="M606 0h-520v109h209v524q-106 -32 -209 -55l-25 81q146 58 258 117h101v-667h186v-109z" />
    <glyph glyph-name="two.dnom" horiz-adv-x="704" 
d="M637 0h-578v92q41 33 109 87t105 83.5t85.5 73t73 73.5t42.5 66t18 68q0 67 -38 103t-106 36q-116 0 -258 -66l-37 91q176 81 314 81q119 0 186.5 -65t67.5 -180q0 -55 -24 -104.5t-84.5 -106.5t-103.5 -90.5t-141 -103.5q-31 -22 -47 -34q97 5 107 5h309v-109z" />
    <glyph glyph-name="three.dnom" horiz-adv-x="704" 
d="M84 618l-33 87q155 73 307 73q118 0 187 -57t69 -156q0 -65 -36 -109.5t-95 -64.5q154 -50 154 -184q0 -108 -74.5 -166.5t-208.5 -58.5q-175 0 -321 79l39 86q133 -65 278 -65q80 0 123 33t43 94q0 131 -194 131h-125v104h125q89 0 132.5 25t43.5 80q0 62 -40.5 94.5
t-113.5 32.5q-125 0 -260 -58z" />
    <glyph glyph-name="four.dnom" horiz-adv-x="778" 
d="M608 164v-164h-123v164h-450l-4 90l454 522h123v-512h123v-100h-123zM485 264v373q-25 -36 -51 -64l-207 -227q-41 -50 -73 -82h331z" />
    <glyph glyph-name="five.dnom" horiz-adv-x="720" 
d="M227 662l-20 -244q108 57 205 57q120 0 186 -62.5t66 -179.5q0 -120 -79.5 -185.5t-211.5 -65.5q-174 0 -320 79l39 93q139 -68 266 -68q85 0 134 41t49 113q0 70 -42.5 109.5t-119.5 39.5q-81 0 -178 -51l-107 14l29 416h510v-106h-406z" />
    <glyph glyph-name="six.dnom" horiz-adv-x="765" 
d="M672 739l-33 -90q-85 27 -174 27q-122 0 -192 -78.5t-76 -216.5q95 106 249 106q117 0 188 -66t71 -173q2 -120 -77 -193t-214 -73q-163 0 -251.5 97.5t-88.5 270.5q0 197 105.5 313.5t279.5 116.5q120 0 213 -41zM414 86q77 0 125.5 46t48.5 122q0 66 -48 107.5
t-126 41.5q-65 0 -124 -30t-91 -80q14 -100 69 -153.5t146 -53.5z" />
    <glyph glyph-name="seven.dnom" horiz-adv-x="647" 
d="M606 776v-94q-107 -136 -196.5 -320.5t-135.5 -361.5h-147q54 179 145 359.5t197 308.5h-432v108h569z" />
    <glyph glyph-name="eight.dnom" horiz-adv-x="770" 
d="M391 -18q-160 0 -246 59t-86 162q0 133 172 192q-135 59 -135 183q0 95 79.5 148.5t215.5 53.5q133 0 208 -52.5t75 -145.5q0 -125 -150 -179q187 -60 187 -200q1 -102 -86 -162.5t-234 -58.5zM387 694q-76 0 -122 -31.5t-46 -84.5q0 -54 44 -89t138 -57q156 40 156 148
q0 52 -46.5 83t-123.5 31zM381 80q89 0 143 36t54 93t-55 92.5t-179 60.5q-162 -46 -162 -151q0 -60 54.5 -95.5t144.5 -35.5z" />
    <glyph glyph-name="nine.dnom" horiz-adv-x="749" 
d="M100 33l35 88q92 -35 180 -35q117 0 174.5 70.5t63.5 214.5q-98 -95 -236 -95q-117 0 -188.5 65t-71.5 173q0 126 81 196t218 70q157 0 238.5 -95.5t81.5 -270.5q0 -211 -92 -321.5t-265 -110.5q-122 0 -219 51zM350 358q64 0 117.5 27t85.5 70q-15 223 -197 223
q-84 0 -132 -42t-48 -126q0 -74 45 -113t129 -39z" />
    <glyph glyph-name="zero.numr" horiz-adv-x="808" 
d="M403 1270q163 0 247.5 -102.5t84.5 -297.5q0 -193 -84.5 -296t-247.5 -103q-162 0 -245.5 103t-83.5 296q0 195 83.5 297.5t245.5 102.5zM403 586q107 0 156 69.5t49 214.5t-49 216t-156 71q-106 0 -154 -71t-48 -216t48 -214.5t154 -69.5z" />
    <glyph glyph-name="one.numr" horiz-adv-x="655" 
d="M606 473h-520v109h209v524q-106 -32 -209 -55l-25 82q154 61 258 116h101v-667h186v-109z" />
    <glyph glyph-name="two.numr" horiz-adv-x="704" 
d="M637 481h-578v92q41 33 109 87t105 83.5t85.5 73t73 73.5t42.5 66t18 68q0 67 -38 103t-106 36q-118 0 -258 -65l-37 90q178 82 314 82q119 0 186.5 -65.5t67.5 -180.5q0 -32 -10.5 -63.5t-24 -57t-44 -58.5t-52 -54t-67.5 -56.5t-71 -54t-81 -58.5q-11 -8 -17 -12.5
t-15.5 -11t-17.5 -12.5q78 4 107 4h309v-109z" />
    <glyph glyph-name="three.numr" horiz-adv-x="704" 
d="M84 1112l-33 86q157 74 307 74q118 0 187 -57t69 -156q0 -65 -36 -109.5t-95 -64.5q154 -50 154 -185q0 -108 -74.5 -166.5t-208.5 -58.5q-173 0 -321 80l39 86q135 -66 278 -66q80 0 123 33t43 94q0 132 -194 132h-125v104h125q89 0 132.5 24.5t43.5 79.5
q0 62 -40.5 94.5t-113.5 32.5q-128 0 -260 -57z" />
    <glyph glyph-name="four.numr" horiz-adv-x="778" 
d="M608 637v-164h-123v164h-450l-4 90l454 522h123v-512h123v-100h-123zM485 737v373q-22 -32 -51 -63l-207 -228q-41 -49 -73 -82h331z" />
    <glyph glyph-name="five.numr" horiz-adv-x="720" 
d="M227 1143l-20 -244q108 57 205 57q121 0 186.5 -62.5t65.5 -178.5q0 -120 -79.5 -186t-211.5 -66q-172 0 -320 80l39 92q139 -68 266 -68q85 0 134 41t49 113q0 70 -42.5 109.5t-119.5 39.5q-81 0 -178 -51l-107 15l29 415h510v-106h-406z" />
    <glyph glyph-name="six.numr" horiz-adv-x="765" 
d="M672 1229l-33 -90q-81 26 -174 26q-122 0 -192 -78.5t-76 -216.5q96 107 249 107q117 0 188 -66t71 -174q2 -120 -77 -193t-214 -73q-163 0 -251.5 98t-88.5 271q0 197 105.5 313.5t279.5 116.5q120 0 213 -41zM414 575q77 0 125.5 46t48.5 122q0 66 -48 108t-126 42
q-65 0 -124 -30t-91 -81q14 -100 69 -153.5t146 -53.5z" />
    <glyph glyph-name="seven.numr" horiz-adv-x="647" 
d="M606 1249v-94q-107 -136 -196.5 -320.5t-135.5 -361.5h-147q54 179 145 359.5t197 308.5h-432v108h569z" />
    <glyph glyph-name="eight.numr" horiz-adv-x="770" 
d="M391 471q-160 0 -246 59t-86 162q0 134 172 193q-135 59 -135 182q0 95 79.5 149t215.5 54q133 0 208 -53t75 -146q0 -124 -150 -178q187 -60 187 -201q1 -102 -86 -162.5t-234 -58.5zM387 1184q-76 0 -122 -31.5t-46 -85.5t44 -88.5t138 -56.5q156 40 156 147
q0 52 -46.5 83.5t-123.5 31.5zM381 569q89 0 143 36t54 93t-55.5 93t-178.5 61q-162 -46 -162 -152q0 -60 54.5 -95.5t144.5 -35.5z" />
    <glyph glyph-name="nine.numr" horiz-adv-x="749" 
d="M100 522l35 88q92 -35 180 -35q117 0 174.5 70.5t63.5 214.5q-97 -94 -236 -94q-117 0 -188.5 65t-71.5 173q0 126 81 196t218 70q157 0 238.5 -96t81.5 -271q0 -211 -92 -321.5t-265 -110.5q-122 0 -219 51zM350 848q64 0 117.5 26.5t85.5 69.5q-15 223 -197 223
q-84 0 -132 -42t-48 -126q0 -74 45 -112.5t129 -38.5z" />
    <glyph glyph-name="backslash.case" horiz-adv-x="841" 
d="M725 -141h-158l-450 1497h159z" />
    <glyph glyph-name="bullet.case" horiz-adv-x="651" 
d="M168 633q0 69 44 113.5t114 44.5q71 0 114 -44t43 -114q0 -69 -43 -113.5t-114 -44.5q-70 0 -114 45t-44 113z" />
    <glyph glyph-name="exclamdown.case" horiz-adv-x="450" 
d="M215 1063q-42 0 -69 27t-27 69t27 70t69 28q43 0 69.5 -28t26.5 -70t-26 -69t-70 -27zM313 0h-198l26 842h146z" />
    <glyph glyph-name="periodcentered.case" horiz-adv-x="559" 
d="M156 643q0 50 30.5 81.5t81.5 31.5t82 -31.5t31 -81.5q0 -48 -31.5 -80.5t-81.5 -32.5t-81 32.5t-31 80.5z" />
    <glyph glyph-name="questiondown.case" horiz-adv-x="1050" 
d="M608 1065q-44 0 -70 27t-26 69t26.5 70.5t69.5 28.5q42 0 69.5 -28.5t27.5 -70.5q0 -41 -27.5 -68.5t-69.5 -27.5zM965 260l53 -145q-282 -133 -504 -133q-185 0 -297.5 104t-112.5 274q0 146 113 242t324 131l-6 146h151l27 -283q-200 -15 -308 -71.5t-108 -145.5
q0 -103 68 -165t180 -62q196 0 420 108z" />
    <glyph glyph-name="slash.case" horiz-adv-x="858" 
d="M743 1356l-471 -1561h-155l467 1561h159z" />
    <glyph glyph-name="braceleft.case" horiz-adv-x="788" 
d="M508 293v-60q0 -98 51.5 -152t179.5 -75l-12 -129q-206 13 -298.5 99.5t-92.5 256.5v60q0 155 -48 207.5t-194 58.5v129q145 6 193.5 60t48.5 206v60q0 170 92 255.5t299 98.5l12 -129q-127 -20 -179 -74t-52 -151v-60q0 -161 -50.5 -234.5t-168.5 -94.5
q118 -21 168.5 -94t50.5 -238z" />
    <glyph glyph-name="braceright.case" horiz-adv-x="788" 
d="M293 233v58q0 167 50.5 240t168.5 94q-118 21 -168.5 94.5t-50.5 234.5v60q0 97 -52 151.5t-180 73.5l13 129q207 -13 299 -98.5t92 -255.5v-60q0 -151 49 -205.5t193 -60.5v-129q-145 -6 -193.5 -58.5t-48.5 -207.5v-60q0 -170 -92.5 -256.5t-298.5 -99.5l-13 129
q129 21 180.5 75t51.5 152z" />
    <glyph glyph-name="bracketleft.case" horiz-adv-x="741" 
d="M686 1206h-321v-1167h321v-148h-489v1461h489v-146z" />
    <glyph glyph-name="bracketright.case" horiz-adv-x="741" 
d="M559 1352v-1461h-489v148h321v1167h-321v146h489z" />
    <glyph glyph-name="parenleft.case" horiz-adv-x="643" 
d="M479 1352l111 -70q-87 -105 -138 -189t-84.5 -204.5t-33.5 -267.5q0 -146 33.5 -266t84.5 -205t138 -191l-111 -70q-107 115 -171 213.5t-103 229.5t-39 289q0 120 20.5 220.5t63 188.5t96.5 162t133 160z" />
    <glyph glyph-name="parenright.case" horiz-adv-x="636" 
d="M59 1282l111 70q79 -86 133 -160t96.5 -162t63 -188.5t20.5 -220.5q0 -158 -39 -289t-103 -229.5t-171 -213.5l-111 70q87 106 138 191t84.5 205t33.5 266q0 147 -33.5 267.5t-84.5 204.5t-138 189z" />
    <glyph glyph-name="emdash.case" horiz-adv-x="1843" 
d="M1702 713v-142h-1583v142h1583z" />
    <glyph glyph-name="endash.case" horiz-adv-x="1024" 
d="M883 713v-142h-764v142h764z" />
    <glyph glyph-name="hyphen.case" horiz-adv-x="808" 
d="M668 729v-164h-549v164h549z" />
    <glyph glyph-name="guillemotleft.case" horiz-adv-x="1112" 
d="M608 948l-248 -258q-12 -12 -84 -74q58 -43 86 -71l246 -258l-94 -88l-422 419l420 422zM983 948l-248 -258q-11 -12 -84 -74q58 -43 86 -71l246 -258l-94 -90l-422 421l420 422z" />
    <glyph glyph-name="guillemotright.case" horiz-adv-x="1112" 
d="M203 197l-92 90l245 258q4 4 84 73q-48 38 -82 72l-247 258l94 92l418 -422zM578 197l-93 90l246 258q4 4 84 73q-48 38 -82 72l-248 258l95 92l417 -422z" />
    <glyph glyph-name="guilsinglleft.case" horiz-adv-x="739" 
d="M608 948l-248 -258q-12 -12 -84 -74q58 -43 86 -71l246 -258l-94 -88l-422 419l420 422z" />
    <glyph glyph-name="guilsinglright.case" horiz-adv-x="739" 
d="M203 197l-92 90l245 258q4 4 84 73q-48 38 -82 72l-247 258l94 92l418 -422z" />
    <glyph glyph-name="florin.tf" 
d="M1085 1020l-59 -115q-141 76 -287 76q-129 0 -214.5 -89.5t-125.5 -293.5l-14 -72h467l-23 -123h-467l-77 -403h-183l78 403h-127l25 123h127l14 72q53 275 175.5 402.5t320.5 127.5q207 0 370 -108z" />
    <glyph glyph-name="cent.tf" 
d="M958 250l68 -111q-75 -72 -158.5 -109t-193.5 -46v-115h-125v115q-68 6 -128 28t-115 66.5t-94.5 107t-63 155t-23.5 206.5q0 136 34 243.5t94 175t134.5 106t161.5 48.5v129h125v-129q168 -15 313 -108l-57 -119q-132 78 -301 78q-64 0 -119 -22.5t-101.5 -70.5
t-73 -132.5t-26.5 -198.5q0 -109 25.5 -191t70 -129.5t99 -70.5t119.5 -23q199 0 335 117z" />
    <glyph glyph-name="dollar.tf" 
d="M971 1014l-47 -129q-236 96 -385 96q-92 0 -145.5 -39t-53.5 -104q0 -72 57 -108.5t252 -98.5q203 -61 283 -137t80 -203q0 -136 -103.5 -220.5t-283.5 -88.5v-117h-127v123q-217 27 -394 168l68 129q210 -160 434 -160q106 0 168 44.5t62 117.5q0 74 -64.5 117
t-257.5 104q-201 65 -276.5 134.5t-75.5 195.5q0 122 90 198t246 82v133h127v-137q165 -20 346 -100z" />
    <glyph glyph-name="Euro.tf" 
d="M1012 250l67 -111q-89 -84 -189 -120.5t-241 -36.5q-79 0 -150 22t-134.5 67.5t-109.5 125t-65 186.5h-151v102h139l-2 62q0 41 2 59h-139v103h151q19 105 65 186t109 129.5t137 73t156 24.5q212 0 383 -110l-57 -119q-139 82 -303 82q-48 0 -93 -13.5t-88 -43t-76 -83
t-50 -126.5h506l-29 -103h-492q0 -9 -1 -29t-1 -30q0 -12 1 -33t1 -29h459l-29 -102h-415q17 -72 49 -124t74.5 -79t85.5 -39t92 -12q197 0 338 121z" />
    <glyph glyph-name="sterling.tf" 
d="M416 154h616v-154h-958v135l162 15l24 274h-180v127h190l4 47q23 278 133 404t310 126q213 0 368 -108l-57 -121q-139 82 -289 82q-127 0 -196.5 -87t-87.5 -296l-4 -47h403v-127h-414z" />
    <glyph glyph-name="yen.tf" 
d="M666 399v-104h317v-102h-317v-193h-189v193h-307v102h307v104v2h-307v103h248l-344 612h194l271 -463q22 -39 32 -88q13 50 35 88l271 463h194l-346 -612h258v-103h-317v-2z" />
    <glyph glyph-name="arrowdown.ss08" horiz-adv-x="1370" 
d="M686 1163q160 0 296.5 -79.5t216 -216t79.5 -296.5q0 -161 -79.5 -298t-216 -216.5t-296.5 -79.5q-161 0 -298 79.5t-216.5 216.5t-79.5 298q0 160 79.5 296.5t216.5 216t298 79.5zM641 410l-207 204l-63 -63l315 -303l315 303l-63 63l-207 -204v471h-90v-471z" />
    <glyph glyph-name="arrowdownleft.ss08" horiz-adv-x="1370" 
d="M1278 571q0 160 -79.5 296.5t-216 216t-296.5 79.5q-161 0 -298 -79.5t-216.5 -216t-79.5 -296.5q0 -161 79.5 -298t216.5 -216.5t298 -79.5q160 0 296.5 79.5t216 216.5t79.5 298zM449 780h90v-295l333 334l64 -61l-334 -336h293v-90h-446v448z" />
    <glyph glyph-name="arrowdownright.ss08" horiz-adv-x="1370" 
d="M1278 571q0 160 -79.5 296.5t-216 216t-296.5 79.5q-161 0 -298 -79.5t-216.5 -216t-79.5 -296.5q0 -161 79.5 -298t216.5 -216.5t298 -79.5q160 0 296.5 79.5t216 216.5t79.5 298zM768 422l-334 336l64 61l333 -334v295h91v-448h-447v90h293z" />
    <glyph glyph-name="arrowleft.ss08" horiz-adv-x="1370" 
d="M686 1163q160 0 296.5 -79.5t216 -216t79.5 -296.5q0 -161 -79.5 -298t-216 -216.5t-296.5 -79.5q-161 0 -298 79.5t-216.5 216.5t-79.5 298q0 160 79.5 296.5t216.5 216t298 79.5zM666 254l63 63l-205 207h471v90h-471l205 207l-63 66l-304 -316z" />
    <glyph glyph-name="arrowright.ss08" horiz-adv-x="1370" 
d="M686 1163q160 0 296.5 -79.5t216 -216t79.5 -296.5q0 -161 -79.5 -298t-216 -216.5t-296.5 -79.5q-161 0 -298 79.5t-216.5 216.5t-79.5 298q0 160 79.5 296.5t216.5 216t298 79.5zM846 614h-469v-90h469l-205 -207l64 -63l303 317l-303 316l-64 -66z" />
    <glyph glyph-name="arrowup.ss08" horiz-adv-x="1370" 
d="M686 1163q160 0 296.5 -79.5t216 -216t79.5 -296.5q0 -161 -79.5 -298t-216 -216.5t-296.5 -79.5q-161 0 -298 79.5t-216.5 216.5t-79.5 298q0 160 79.5 296.5t216.5 216t298 79.5zM434 526l207 205v-469h90v469l207 -205l63 64l-315 303l-315 -303z" />
    <glyph glyph-name="arrowupleft.ss08" horiz-adv-x="1370" 
d="M1278 571q0 160 -79.5 296.5t-216 216t-296.5 79.5q-161 0 -298 -79.5t-216.5 -216t-79.5 -296.5q0 -161 79.5 -298t216.5 -216.5t298 -79.5q160 0 296.5 79.5t216 216.5t79.5 298zM602 719l334 -334l-64 -63l-333 333v-295h-90v449h446v-90h-293z" />
    <glyph glyph-name="arrowupright.ss08" horiz-adv-x="1370" 
d="M1278 571q0 160 -79.5 296.5t-216 216t-296.5 79.5q-161 0 -298 -79.5t-216.5 -216t-79.5 -296.5q0 -161 79.5 -298t216.5 -216.5t298 -79.5q160 0 296.5 79.5t216 216.5t79.5 298zM922 360h-91v295l-333 -333l-64 63l334 334h-293v90h447v-449z" />
    <glyph glyph-name="arrowdown.ss13" horiz-adv-x="1040" 
d="M522 999q114 0 212.5 -58t156 -156.5t57.5 -213.5q0 -177 -125.5 -302.5t-300.5 -125.5q-178 0 -304 125.5t-126 302.5q0 175 126 301.5t304 126.5zM522 940q-154 0 -262 -108t-108 -261t108.5 -261.5t261.5 -108.5q151 0 259 109t108 261t-108 260.5t-259 108.5z
M487 457l-145 147l-49 -49l229 -217l228 217l-52 47l-143 -145v338h-68v-338z" />
    <glyph glyph-name="arrowdownleft.ss13" horiz-adv-x="1040" 
d="M522 999q114 0 212.5 -58t156 -156.5t57.5 -213.5q0 -177 -125.5 -302.5t-300.5 -125.5q-178 0 -304 125.5t-126 302.5q0 114 56 212t155.5 157t218.5 59zM522 940q-155 0 -262.5 -108t-107.5 -261q0 -154 107.5 -262t262.5 -108q152 0 259.5 108t107.5 262
q0 152 -107.5 260.5t-259.5 108.5zM469 465h207v-64h-320v320h66v-207l237 238l50 -47z" />
    <glyph glyph-name="arrowdownright.ss13" horiz-adv-x="1040" 
d="M520 999q179 0 303.5 -127t124.5 -301q0 -177 -125.5 -302.5t-302.5 -125.5t-302.5 125.5t-125.5 302.5q0 175 126 301.5t302 126.5zM520 940q-153 0 -260.5 -108t-107.5 -261q0 -154 107 -262t261 -108t261.5 108t107.5 262q0 153 -108 261t-261 108zM618 721h68v-320
h-321v64h206l-239 240l49 47l237 -238v207z" />
    <glyph glyph-name="arrowleft.ss13" horiz-adv-x="1040" 
d="M522 999q114 0 212.5 -58t156 -156.5t57.5 -213.5q0 -177 -125.5 -302.5t-300.5 -125.5q-178 0 -304 125.5t-126 302.5q0 175 126 301.5t304 126.5zM522 940q-155 0 -262.5 -108t-107.5 -261q0 -154 107.5 -262t262.5 -108q152 0 259.5 108t107.5 262q0 152 -107.5 260.5
t-259.5 108.5zM408 604l145 144l-47 49l-219 -226l219 -229l47 49l-145 146h335v67h-335z" />
    <glyph glyph-name="arrowright.ss13" horiz-adv-x="1040" 
d="M520 999q176 0 302 -126.5t126 -301.5q0 -177 -125.5 -302.5t-302.5 -125.5t-302.5 125.5t-125.5 302.5q0 175 126 301.5t302 126.5zM520 940q-153 0 -260.5 -108t-107.5 -261q0 -154 107 -262t261 -108t261.5 108t107.5 262q0 153 -108 261t-261 108zM487 391l48 -49
l219 229l-219 226l-48 -49l146 -144h-336v-67h336z" />
    <glyph glyph-name="arrowup.ss13" horiz-adv-x="1040" 
d="M522 143q-178 0 -304 125.5t-126 300.5q0 177 126 303.5t304 126.5q175 0 300.5 -126.5t125.5 -303.5q0 -175 -125.5 -300.5t-300.5 -125.5zM522 201q151 0 259 108.5t108 259.5q0 153 -108 262t-259 109q-154 0 -262 -108.5t-108 -262.5q0 -151 108.5 -259.5
t261.5 -108.5zM698 539l52 47l-228 219l-229 -219l49 -49l145 147v-336h68v336z" />
    <glyph glyph-name="arrowupleft.ss13" horiz-adv-x="1040" 
d="M522 143q-119 0 -218.5 58.5t-155.5 156.5t-56 211q0 177 126 303.5t304 126.5q175 0 300.5 -126.5t125.5 -303.5q0 -175 -125.5 -300.5t-300.5 -125.5zM522 201q152 0 259.5 108t107.5 260q0 154 -107.5 262.5t-259.5 108.5q-155 0 -262.5 -108.5t-107.5 -262.5
q0 -153 107.5 -260.5t262.5 -107.5zM424 420h-68v321h320v-65h-207l240 -240l-50 -47l-235 238v-207z" />
    <glyph glyph-name="arrowupright.ss13" horiz-adv-x="1040" 
d="M520 143q-177 0 -302.5 125.5t-125.5 300.5q0 177 125.5 303.5t302.5 126.5t302.5 -126.5t125.5 -303.5q0 -174 -124.5 -300t-303.5 -126zM520 201q154 0 261.5 107.5t107.5 260.5q0 154 -107.5 262.5t-261.5 108.5q-153 0 -260.5 -108.5t-107.5 -262.5
q0 -153 107.5 -260.5t260.5 -107.5zM571 676h-206v63h321v-319h-68v207l-237 -238l-49 47z" />
    <glyph glyph-name="at.case" horiz-adv-x="1865" 
d="M1315 1008v-627q0 -80 24 -112.5t74 -32.5q34 0 67 13t67.5 46t60.5 81t43 125t18 173q0 304 -193.5 486.5t-523.5 182.5q-227 0 -403 -95t-274.5 -269.5t-98.5 -400.5q0 -333 204 -533.5t538 -200.5q269 0 495 117l35 -70q-105 -65 -243 -101t-287 -36
q-185 0 -340.5 59.5t-263.5 167t-168 261t-60 336.5q0 251 111 445t308 299t447 105q243 0 426.5 -94.5t282 -265t98.5 -393.5q-1 -121 -26.5 -216.5t-65 -154t-91.5 -96.5t-101.5 -53t-100.5 -15q-82 0 -135.5 32t-73.5 112q-85 -77 -160 -110.5t-182 -33.5
q-340 0 -340 447q0 224 95 331t268 107q159 0 309 -104v88h160zM1155 414v356q-71 61 -130 89t-130 28q-256 0 -256 -301q0 -174 60 -246t175 -72q42 0 79 10.5t74 34t62 44t66 57.5z" />
    <glyph glyph-name="registered.ss04" horiz-adv-x="1515" 
d="M758 1270q175 0 322.5 -86.5t233 -235t85.5 -323.5q0 -176 -85.5 -324t-233 -233.5t-322.5 -85.5q-176 0 -324 85.5t-233.5 233.5t-85.5 324q0 175 85.5 323.5t233.5 235t324 86.5zM758 41q159 0 293.5 78t213 212.5t78.5 293.5q0 158 -78.5 293t-213.5 213.5t-293 78.5
q-159 0 -293.5 -78.5t-212.5 -213t-78 -293.5t78 -293.5t212.5 -212.5t293.5 -78zM487 987h277q299 0 299 -235q0 -185 -158 -228l195 -258h-142l-178 246h-174v-250h-119v725zM606 614h193q145 0 145 134q0 67 -46 103t-132 36h-160v-273z" />
    <glyph glyph-name="ampersand.ss09" horiz-adv-x="1236" 
d="M1225 557v-156q-23 0 -135 5q-24 -223 -141.5 -323.5t-366.5 -100.5q-233 0 -360.5 92t-127.5 264q0 105 66 178.5t217 145.5q-92 89 -128 158.5t-36 154.5q0 137 98.5 216t270.5 79q155 0 247.5 -80.5t92.5 -220.5q0 -214 -281 -332q-192 -80 -230 -99
q-99 -51 -125 -112q-12 -30 -12 -68q0 -108 84 -163.5t224 -55.5q199 0 272.5 93t73.5 325h297zM379 969q0 -63 33 -116t116 -128q141 59 194.5 110.5t53.5 122.5q0 90 -52 138.5t-142 48.5t-146.5 -47.5t-56.5 -128.5z" />
    <glyph glyph-name="ampersand.ss10" horiz-adv-x="1032" 
d="M915 207l62 -133q-154 -72 -326 -88v-121h-141v119q-418 18 -418 301q0 114 59.5 181t182.5 97q-176 61 -176 238q0 289 340 315v137h141v-135q157 -13 287 -63l-54 -135q-155 47 -292 47q-261 0 -261 -181q0 -86 70.5 -122.5t226.5 -36.5h144v-135h-178
q-161 0 -237.5 -42t-76.5 -141q0 -176 301 -176q96 0 175 17.5t171 56.5z" />
    <glyph glyph-name="copyright.ss11" horiz-adv-x="987" 
d="M496 494q-163 0 -275 113t-112 276q0 160 112.5 273.5t274.5 113.5q160 0 272.5 -113.5t112.5 -273.5q0 -162 -112.5 -275.5t-272.5 -113.5zM496 545q138 0 235.5 99t97.5 239q0 138 -97.5 237t-235.5 99q-139 0 -237.5 -99t-98.5 -237q0 -140 98.5 -239t237.5 -99z
M641 788l35 -57q-79 -67 -182 -67q-91 0 -150 57t-59 153q0 104 55 163t152 59q89 0 172 -52l-31 -61q-74 39 -131 39q-127 0 -127 -148q0 -64 35.5 -99.5t93.5 -35.5q71 0 137 49z" />
    <glyph glyph-name="registered.ss12" horiz-adv-x="987" 
d="M496 494q-163 0 -275 113t-112 276q0 160 112.5 273.5t274.5 113.5q160 0 272.5 -113.5t112.5 -273.5q0 -162 -112.5 -275.5t-272.5 -113.5zM496 545q138 0 235.5 99t97.5 239q0 138 -97.5 237t-235.5 99q-139 0 -237.5 -99t-98.5 -237q0 -140 98.5 -239t237.5 -99z
M332 1096h166q90 0 136 -35.5t46 -102.5q0 -49 -24 -78.5t-66 -37.5q30 -16 53.5 -57.5t48.5 -108.5h-92q-30 72 -53 107.5t-47 35.5h-90v-143h-78v420zM416 881h104q36 0 56 19.5t20 53.5q0 76 -98 76h-82v-149z" />
    <glyph glyph-name="caron.alt" horiz-adv-x="999" 
d="M565 1405v-27q-13 -180 -61 -321h-107l13 348h155z" />
    <glyph glyph-name="acute.case" horiz-adv-x="999" 
d="M723 1591l-2 -37q-94 -78 -152.5 -115t-160.5 -77l-60 59l225 267z" />
    <glyph glyph-name="breve.case" horiz-adv-x="999" 
d="M653 1622h138q0 -124 -71.5 -185t-221.5 -61q-147 0 -218 61t-71 185h137q6 -56 42 -84.5t110 -28.5t110 28t45 85z" />
    <glyph glyph-name="caron.case" horiz-adv-x="999" 
d="M561 1374h-125l-250 221l72 74l242 -143l241 143l72 -74z" />
    <glyph glyph-name="circumflex.case" horiz-adv-x="999" 
d="M500 1501l-242 -145l-72 74l250 221h125l252 -221l-72 -74z" />
    <glyph glyph-name="dieresis.case" horiz-adv-x="999" 
d="M305 1614q50 0 81.5 -29.5t31.5 -81.5q0 -50 -31 -78t-82 -28q-45 0 -77.5 28.5t-32.5 77.5q0 50 32.5 80.5t77.5 30.5zM692 1614q46 0 79.5 -30.5t33.5 -80.5q0 -49 -33 -77.5t-80 -28.5q-49 0 -80.5 28t-31.5 78q0 51 31.5 81t80.5 30z" />
    <glyph glyph-name="dotaccent.case" horiz-adv-x="999" 
d="M500 1632q55 0 93 -35t38 -94q0 -58 -38 -92.5t-93 -34.5q-57 0 -95 34.5t-38 92.5q0 60 38 94.5t95 34.5z" />
    <glyph glyph-name="grave.case" horiz-adv-x="999" 
d="M645 1409l-59 -59q-103 40 -162 77.5t-152 114.5l-2 37l152 96z" />
    <glyph glyph-name="hungarumlaut.case" horiz-adv-x="999" 
d="M573 1622v-39q-65 -58 -91 -80.5t-75 -60t-96 -66.5l-82 41l203 273zM864 1622l-2 -39q-65 -58 -91 -80.5t-75 -60t-96 -66.5l-82 41l205 273z" />
    <glyph glyph-name="macron.case" horiz-adv-x="999" 
d="M756 1423h-512v162h512v-162z" />
    <glyph glyph-name="ring.case" horiz-adv-x="999" 
d="M500 1741q88 0 143 -54.5t55 -144.5q0 -83 -55.5 -135.5t-144.5 -52.5q-86 0 -141.5 52.5t-55.5 135.5q0 90 55.5 144.5t143.5 54.5zM498 1458q43 0 68.5 23t25.5 61q0 44 -25 70t-67 26t-67 -26t-25 -70q0 -38 25 -61t65 -23z" />
    <glyph glyph-name="tilde.case" horiz-adv-x="999" 
d="M727 1612l96 -23q-12 -68 -44 -115.5t-73.5 -67.5t-88 -19.5t-89.5 22.5l-112 57q-56 27 -89 11.5t-55 -74.5l-94 22q13 67 43.5 112t70.5 63.5t86 17.5t91 -23l113 -53q57 -26 90 -9.5t55 79.5z" />
    </font>
</defs>
</svg>
